<svg width="557" height="640" viewBox="0 0 557 640" fill="none" xmlns="http://www.w3.org/2000/svg">
<path d="M160.016 0.627635C61.5319 14.4547 28.8763 84.0107 36.4879 127.158L127.072 103.746V109.744L36.4879 138.085L397.889 130.964C396.575 143.585 390.24 226.579 372.821 229.798L150.378 232.573C117.891 249.664 92.4676 353.11 121.243 374.376C172.617 374.869 279.045 375.56 293.773 374.376C308.5 373.193 324.784 392.204 331.085 401.858H347.819C341.425 404.598 337.544 451.965 336.402 475.306C336.706 487.789 326.888 493.123 321.941 494.23H153.865L163.187 457.477H11.6477C8.29707 457.455 1.39364 475.098 0.585144 545.841C-0.223351 616.585 44.0418 637.871 66.2754 639.671H365.284C439.751 609.037 467.708 569.417 472.377 553.436C482.091 526.04 517.83 341.429 515.273 303.409L392.45 362.373C424.046 343.683 492.311 302.875 512.603 289.169C532.896 275.462 531.887 252.604 528.846 242.887L340.255 339.54C386.879 286.254 539.469 211.473 546.161 152.091L554.786 99.0833C558.476 78.3993 553.56 71.1781 549.687 67.6379L482.596 6.70687C476.613 1.77956 470.263 0.601001 467.836 0.627635H160.016Z" fill="url(#paint0_linear_2720_16998)" style=""/>
<defs>
<linearGradient id="paint0_linear_2720_16998" x1="278.337" y1="0.627197" x2="278.337" y2="566.33" gradientUnits="userSpaceOnUse">
<stop stop-color="#E9E478" style="stop-color:#E9E478;stop-color:color(display-p3 0.9137 0.8941 0.4706);stop-opacity:1;"/>
<stop offset="1" stop-color="#AA377A" style="stop-color:#AA377A;stop-color:color(display-p3 0.6667 0.2157 0.4784);stop-opacity:1;"/>
</linearGradient>
</defs>
</svg>
