<svg width="605" height="680" viewBox="0 0 605 680" fill="none" xmlns="http://www.w3.org/2000/svg">
<path fill-rule="evenodd" clip-rule="evenodd" d="M132.818 63.1184L42.1606 518.172H51.9453C72.8864 481.504 95.8331 359.474 104.689 303.043L120.268 226.467H127.349L101.499 394.465L176.967 293.276L183.999 298.355L80.4658 487.059C69.4518 505.187 49.2535 548.593 40.5311 568.029L0.90918 676.3L7.69585 679.373L83.3683 562.215L86.8254 564.008L69.7959 630.463H84.1365C90.4874 630.463 93.514 624.812 94.2334 621.987L101.499 572.946L114.819 526.932H120.268L101.499 630.463H433.283C491.89 620.776 523.091 569.515 531.365 545.095C536.146 497.738 546.958 460.103 546.958 460.103C546.958 460.103 583.395 370.969 509.569 332.584C504.241 327.74 504.927 322.493 505.936 320.475L550.739 283.543C586.582 259.809 601.193 145.299 604.018 91.011C595.3 21.2637 534.998 1.69377 505.936 0.627197H115.213L231.747 101.373L226.996 109.77L132.818 63.1184ZM370.854 496.963H203.64L217.825 431.993C220.736 411.72 227.445 408.821 232.651 406.671H407.455C409.399 482.911 379.814 493.674 372.155 496.46L372.154 496.46C371.598 496.662 371.158 496.822 370.854 496.963ZM256.896 232.652H420.971C425.469 230.581 435.865 222.471 438.332 199.393L451.232 142.36H285.906C280.701 144.51 273.992 147.409 271.081 167.682L256.896 232.652Z" fill="url(#paint0_linear_2720_16997)" style=""/>
<defs>
<linearGradient id="paint0_linear_2720_16997" x1="302.469" y1="0.627197" x2="302.469" y2="601.475" gradientUnits="userSpaceOnUse">
<stop stop-color="#E9E478" style="stop-color:#E9E478;stop-color:color(display-p3 0.9137 0.8941 0.4706);stop-opacity:1;"/>
<stop offset="1" stop-color="#AA377A" style="stop-color:#AA377A;stop-color:color(display-p3 0.6667 0.2157 0.4784);stop-opacity:1;"/>
</linearGradient>
</defs>
</svg>
