<svg width="52" height="52" viewBox="0 0 52 52" fill="none" xmlns="http://www.w3.org/2000/svg">
<path opacity="0.15" d="M14.0835 49.2917C14.0835 49.7227 15.339 50.1361 17.5738 50.4408C19.8086 50.7455 22.8397 50.9167 26.0002 50.9167C29.1607 50.9167 32.1917 50.7455 34.4265 50.4408C36.6613 50.1361 37.9168 49.7227 37.9168 49.2917C37.9168 48.8608 36.6613 48.4474 34.4265 48.1427C32.1917 47.838 29.1607 47.6667 26.0002 47.6667C22.8397 47.6667 19.8086 47.838 17.5738 48.1427C15.339 48.4474 14.0835 48.8608 14.0835 49.2917Z" fill="#45413C" style="fill:#45413C;fill:color(display-p3 0.2706 0.2549 0.2353);fill-opacity:1;"/>
<path d="M36.974 7.58323C36.263 7.48442 35.5418 7.67196 34.9689 8.10465C34.3961 8.53733 34.0184 9.17975 33.919 9.89073L31.7524 24.6999L29.5857 9.93406C29.5462 9.57389 29.4348 9.2253 29.2582 8.90895C29.0815 8.59259 28.8432 8.3149 28.5573 8.09231C28.2714 7.86972 27.9437 7.70676 27.5937 7.61308C27.2437 7.5194 26.8785 7.49691 26.5196 7.54693C26.1607 7.59695 25.8156 7.71848 25.5045 7.9043C25.1934 8.09013 24.9228 8.33648 24.7087 8.62877C24.4946 8.92106 24.3413 9.25335 24.2579 9.60595C24.1745 9.95856 24.1627 10.3243 24.2232 10.6816L25.794 21.8832C25.3784 21.5214 24.8675 21.2869 24.3222 21.2076C23.7769 21.1283 23.2203 21.2076 22.7188 21.436C22.2174 21.6645 21.7923 22.0324 21.4943 22.4959C21.1963 22.9594 21.0379 23.4989 21.0382 24.0499V26.6499C20.9932 25.9176 20.6706 25.23 20.1362 24.7273C19.6017 24.2247 18.8956 23.9448 18.1619 23.9448C17.4282 23.9448 16.7222 24.2247 16.1877 24.7273C15.6533 25.23 15.3307 25.9176 15.2857 26.6499V34.4607C15.2477 37.2475 16.2652 39.9454 18.1339 42.0131C20.0027 44.0808 22.5843 45.3651 25.3607 45.6082C26.8608 45.7078 28.3651 45.4941 29.7781 44.9807C31.1911 44.4673 32.4817 43.6654 33.5679 42.626C34.6542 41.5867 35.5122 40.3326 36.0874 38.9437C36.6626 37.5547 36.9424 36.0612 36.909 34.5582C36.909 25.3174 36.909 28.4049 39.2815 10.6599C39.3335 10.3062 39.315 9.94564 39.227 9.59911C39.139 9.25258 38.9832 8.92691 38.7687 8.64089C38.5542 8.35486 38.2851 8.11414 37.9771 7.93261C37.6691 7.75108 37.3282 7.63234 36.974 7.58323Z" fill="#FFCEBF" style="fill:#FFCEBF;fill:color(display-p3 1.0000 0.8078 0.7490);fill-opacity:1;"/>
<path d="M24.6242 13.4116C24.6851 12.7982 24.9455 12.2217 25.3655 11.7705C25.7855 11.3193 26.342 11.0184 26.9495 10.9138C27.557 10.8093 28.182 10.907 28.7287 11.1918C29.2754 11.4767 29.7135 11.933 29.9759 12.4908L29.6076 9.95579C29.5681 9.59561 29.4567 9.24703 29.28 8.93067C29.1034 8.61432 28.8651 8.33662 28.5792 8.11403C28.2933 7.89145 27.9656 7.72849 27.6156 7.63481C27.2656 7.54113 26.9003 7.51864 26.5415 7.56866C26.1826 7.61868 25.8374 7.74021 25.5264 7.92603C25.2153 8.11186 24.9447 8.35821 24.7306 8.6505C24.5164 8.94279 24.3631 9.27508 24.2797 9.62768C24.1964 9.98029 24.1846 10.346 24.2451 10.7033L24.6242 13.4116ZM36.9742 7.58329C36.2632 7.48448 35.542 7.67203 34.9691 8.10471C34.3963 8.53739 34.0186 9.17981 33.9192 9.89079L33.5834 12.2091C33.8355 11.6265 34.2764 11.1457 34.835 10.8441C35.3937 10.5425 36.0376 10.4376 36.663 10.5465C37.2885 10.6553 37.8591 10.9714 38.283 11.444C38.707 11.9166 38.9595 12.5181 39.0001 13.1516C39.1084 12.3716 39.2167 11.5483 39.3359 10.66C39.3876 10.3022 39.3671 9.93773 39.2757 9.58801C39.1843 9.2383 39.0238 8.91041 38.8037 8.62368C38.5837 8.33695 38.3084 8.09718 37.9942 7.9185C37.68 7.73982 37.3332 7.62584 36.9742 7.58329Z" fill="#FFDCD1" style="fill:#FFDCD1;fill:color(display-p3 1.0000 0.8627 0.8196);fill-opacity:1;"/>
<path d="M29.5966 34.5583C28.965 34.5583 28.3395 34.6828 27.7559 34.9245C27.1723 35.1662 26.6421 35.5205 26.1954 35.9672C25.7488 36.4138 25.3945 36.9441 25.1528 37.5276C24.911 38.1112 24.7866 38.7367 24.7866 39.3683V40.7875" stroke="#45413C" style="stroke:#45413C;stroke:color(display-p3 0.2706 0.2549 0.2353);stroke-opacity:1;" stroke-linecap="round" stroke-linejoin="round"/>
<path d="M36.974 7.58323C36.263 7.48442 35.5418 7.67196 34.9689 8.10465C34.3961 8.53733 34.0184 9.17975 33.919 9.89073L31.7524 24.6999L29.5857 9.93406C29.5462 9.57389 29.4348 9.2253 29.2582 8.90895C29.0815 8.59259 28.8432 8.3149 28.5573 8.09231C28.2714 7.86972 27.9437 7.70676 27.5937 7.61308C27.2437 7.5194 26.8785 7.49691 26.5196 7.54693C26.1607 7.59695 25.8156 7.71848 25.5045 7.9043C25.1934 8.09013 24.9228 8.33648 24.7087 8.62877C24.4946 8.92106 24.3413 9.25335 24.2579 9.60595C24.1745 9.95856 24.1627 10.3243 24.2232 10.6816L25.794 21.8832C25.3784 21.5214 24.8675 21.2869 24.3222 21.2076C23.7769 21.1283 23.2203 21.2076 22.7188 21.436C22.2174 21.6645 21.7923 22.0324 21.4943 22.4959C21.1963 22.9594 21.0379 23.4989 21.0382 24.0499V26.6499C20.9932 25.9176 20.6706 25.23 20.1362 24.7273C19.6017 24.2247 18.8956 23.9448 18.1619 23.9448C17.4282 23.9448 16.7222 24.2247 16.1877 24.7273C15.6533 25.23 15.3307 25.9176 15.2857 26.6499V34.4607C15.2477 37.2475 16.2652 39.9454 18.1339 42.0131C20.0027 44.0808 22.5843 45.3651 25.3607 45.6082C26.8608 45.7078 28.3651 45.4941 29.7781 44.9807C31.1911 44.4673 32.4817 43.6654 33.5679 42.626C34.6542 41.5867 35.5122 40.3326 36.0874 38.9437C36.6626 37.5547 36.9424 36.0612 36.909 34.5582C36.909 25.3174 36.909 28.4049 39.2815 10.6599C39.3335 10.3062 39.315 9.94564 39.227 9.59911C39.139 9.25258 38.9832 8.92691 38.7687 8.64089C38.5542 8.35486 38.2851 8.11414 37.9771 7.93261C37.6691 7.75108 37.3282 7.63234 36.974 7.58323Z" stroke="#45413C" style="stroke:#45413C;stroke:color(display-p3 0.2706 0.2549 0.2353);stroke-opacity:1;" stroke-linecap="round" stroke-linejoin="round"/>
<path d="M15.3076 23.8118H21.071V33.0851H15.3076V23.8118Z" fill="#FFCEBF" style="fill:#FFCEBF;fill:color(display-p3 1.0000 0.8078 0.7490);fill-opacity:1;"/>
<path d="M21.0601 21.2009H26.8234V33.0743H21.0601V21.2009Z" fill="#FFCEBF" style="fill:#FFCEBF;fill:color(display-p3 1.0000 0.8078 0.7490);fill-opacity:1;"/>
<path d="M18.1893 23.8334C17.4269 23.8334 16.6956 24.1355 16.1555 24.6736C15.6154 25.2117 15.3105 25.9419 15.3076 26.7043V29.2501C15.3105 28.4877 15.6154 27.7575 16.1555 27.2194C16.6956 26.6814 17.4269 26.3793 18.1893 26.3793C18.9507 26.3793 19.6809 26.6817 20.2193 27.2201C20.7577 27.7585 21.0601 28.4887 21.0601 29.2501V26.6501C21.0459 25.8981 20.7372 25.1818 20.2004 24.655C19.6635 24.1283 18.9414 23.8333 18.1893 23.8334ZM23.9418 21.2009C23.1784 21.2038 22.4471 21.5083 21.9073 22.0481C21.3675 22.5879 21.063 23.3192 21.0601 24.0826V26.6826C21.0687 25.924 21.3761 25.1993 21.9155 24.6659C22.455 24.1325 23.1831 23.8334 23.9418 23.8334C24.7042 23.8334 25.4355 24.1355 25.9756 24.6736C26.5157 25.2117 26.8206 25.9419 26.8235 26.7043V24.1043C26.8249 23.7244 26.7515 23.348 26.6074 22.9965C26.4634 22.645 26.2515 22.3254 25.9839 22.0558C25.7163 21.7862 25.3983 21.5719 25.0479 21.4252C24.6975 21.2786 24.3216 21.2023 23.9418 21.2009Z" fill="#FFDCD1" style="fill:#FFDCD1;fill:color(display-p3 1.0000 0.8627 0.8196);fill-opacity:1;"/>
<path d="M15.3076 23.8118H21.071V33.0851H15.3076V23.8118Z" stroke="#45413C" style="stroke:#45413C;stroke:color(display-p3 0.2706 0.2549 0.2353);stroke-opacity:1;" stroke-linecap="round" stroke-linejoin="round"/>
<path d="M21.0601 21.2009H26.8234V33.0743H21.0601V21.2009Z" stroke="#45413C" style="stroke:#45413C;stroke:color(display-p3 0.2706 0.2549 0.2353);stroke-opacity:1;" stroke-linecap="round" stroke-linejoin="round"/>
<path d="M36.9094 34.5583C36.9065 33.068 36.3132 31.6396 35.2594 30.5857C34.2056 29.5319 32.7772 28.9387 31.2869 28.9358H22.5335C22.3377 28.9358 22.1438 28.9745 21.963 29.0498C21.7823 29.1251 21.6182 29.2353 21.4802 29.3743C21.3422 29.5133 21.2332 29.6782 21.1592 29.8595C21.0853 30.0408 21.0479 30.235 21.0494 30.4308C21.0494 31.5255 21.4842 32.5753 22.2583 33.3494C23.0323 34.1234 24.0822 34.5583 25.1769 34.5583H29.5969" fill="#FFCEBF" style="fill:#FFCEBF;fill:color(display-p3 1.0000 0.8078 0.7490);fill-opacity:1;"/>
<path d="M36.9094 34.5583C36.9065 33.068 36.3132 31.6396 35.2594 30.5857C34.2056 29.5319 32.7772 28.9387 31.2869 28.9358H22.5335C22.3377 28.9358 22.1438 28.9745 21.963 29.0498C21.7823 29.1251 21.6182 29.2353 21.4802 29.3743C21.3422 29.5133 21.2332 29.6782 21.1592 29.8595C21.0853 30.0408 21.0479 30.235 21.0494 30.4308C21.0531 30.9118 21.1411 31.3885 21.3094 31.8391C21.4463 31.6413 21.6293 31.4798 21.8426 31.3685C22.0558 31.2571 22.2929 31.1993 22.5335 31.2H31.7635C32.854 31.2028 33.9203 31.5215 34.8335 32.1175C35.7467 32.7135 36.4677 33.5612 36.9094 34.5583Z" fill="#FFDCD1" style="fill:#FFDCD1;fill:color(display-p3 1.0000 0.8627 0.8196);fill-opacity:1;"/>
<path d="M36.9094 34.5583C36.9065 33.068 36.3132 31.6396 35.2594 30.5857C34.2056 29.5319 32.7772 28.9387 31.2869 28.9358H22.5335C22.3377 28.9358 22.1438 28.9745 21.963 29.0498C21.7823 29.1251 21.6182 29.2353 21.4802 29.3743C21.3422 29.5133 21.2332 29.6782 21.1592 29.8595C21.0853 30.0408 21.0479 30.235 21.0494 30.4308C21.0494 31.5255 21.4842 32.5753 22.2583 33.3494C23.0323 34.1234 24.0822 34.5583 25.1769 34.5583H29.5969" stroke="#45413C" style="stroke:#45413C;stroke:color(display-p3 0.2706 0.2549 0.2353);stroke-opacity:1;" stroke-linecap="round" stroke-linejoin="round"/>
</svg>
