<svg width="52" height="52" viewBox="0 0 52 52" fill="none" xmlns="http://www.w3.org/2000/svg">
<path d="M33.3885 33.2149L29.8785 36.1941C27.4453 37.9121 24.6825 39.1072 21.7643 39.7041C18.8499 40.3024 16.091 41.4975 13.661 43.2141L10.1726 45.6732C10.0618 45.753 9.93595 45.8097 9.80271 45.8398C9.66947 45.87 9.53153 45.873 9.3971 45.8488C9.26266 45.8245 9.13448 45.7734 9.02019 45.6986C8.9059 45.6238 8.80782 45.5267 8.73181 45.4132L1.24598 34.5799C1.14734 34.4317 1.09114 34.2594 1.08348 34.0816L0.563477 27.5816L33.2801 26.0974L33.7785 32.3807C33.7836 32.5406 33.7509 32.6995 33.6831 32.8444C33.6154 32.9894 33.5144 33.1163 33.3885 33.2149Z" fill="#6DD627" stroke="#45413C" style="fill:#6DD627;fill:color(display-p3 0.4275 0.8392 0.1529);fill-opacity:1;stroke:#45413C;stroke:color(display-p3 0.2706 0.2549 0.2353);stroke-opacity:1;" stroke-linecap="round" stroke-linejoin="round"/>
<path opacity="0.15" d="M6.91162 49.2917C6.91162 49.7227 8.1637 50.1361 10.3924 50.4408C12.6211 50.7455 15.6439 50.9167 18.7958 50.9167C21.9477 50.9167 24.9705 50.7455 27.1992 50.4408C29.4279 50.1361 30.68 49.7227 30.68 49.2917C30.68 48.8608 29.4279 48.4474 27.1992 48.1427C24.9705 47.838 21.9477 47.6667 18.7958 47.6667C15.6439 47.6667 12.6211 47.838 10.3924 48.1427C8.1637 48.4474 6.91162 48.8608 6.91162 49.2917Z" fill="#45413C" style="fill:#45413C;fill:color(display-p3 0.2706 0.2549 0.2353);fill-opacity:1;"/>
<path d="M30.0193 40.9391C29.8952 40.86 29.7952 40.7483 29.7304 40.6161C29.6655 40.4839 29.6384 40.3365 29.6518 40.1899C29.6652 40.0433 29.7187 39.9033 29.8065 39.7851C29.8943 39.6669 30.0129 39.5752 30.1493 39.5199C33.7901 37.9746 37.7644 37.3818 41.6976 37.7974C48.2626 38.7399 52.8235 42.1308 51.0901 45.0124C49.5843 47.4716 45.2618 45.4241 45.2618 45.4241C45.2618 45.4241 46.7568 48.3058 44.3085 49.5299C41.8601 50.7541 38.3393 46.1283 38.3393 46.1283C38.3393 46.1283 37.7976 48.9016 35.6743 48.2949C32.8468 47.5258 33.7785 45.0449 32.8685 43.4199C32.0916 42.4132 31.1233 41.5701 30.0193 40.9391Z" fill="#E5FEFF" style="fill:#E5FEFF;fill:color(display-p3 0.8980 0.9961 1.0000);fill-opacity:1;"/>
<path d="M30.0193 40.9391C30.3226 41.1449 30.6693 41.3724 31.0051 41.6216C34.3582 40.3575 37.9619 39.901 41.5243 40.2891C46.3018 40.9824 50.0176 42.9866 51.0143 45.1208C51.0418 45.0862 51.0671 45.0501 51.0901 45.0124C52.8235 42.1633 48.2626 38.7399 41.6976 37.7974C37.7644 37.3818 33.7901 37.9746 30.1493 39.5199C30.0129 39.5752 29.8943 39.6669 29.8065 39.7851C29.7187 39.9033 29.6652 40.0433 29.6518 40.1899C29.6384 40.3365 29.6655 40.4839 29.7304 40.6161C29.7952 40.7483 29.8952 40.86 30.0193 40.9391Z" fill="white" style="fill:white;fill-opacity:1;"/>
<path d="M30.0193 40.9391C29.8952 40.86 29.7952 40.7483 29.7304 40.6161C29.6655 40.4839 29.6384 40.3365 29.6518 40.1899C29.6652 40.0433 29.7187 39.9033 29.8065 39.7851C29.8943 39.6669 30.0129 39.5752 30.1493 39.5199C33.7901 37.9746 37.7644 37.3818 41.6976 37.7974C48.2626 38.7399 52.8235 42.1308 51.0901 45.0124C49.5843 47.4716 45.2618 45.4241 45.2618 45.4241C45.2618 45.4241 46.7568 48.3058 44.3085 49.5299C41.8601 50.7541 38.3393 46.1283 38.3393 46.1283C38.3393 46.1283 37.7976 48.9016 35.6743 48.2949C32.8468 47.5258 33.7785 45.0449 32.8685 43.4199C32.0916 42.4132 31.1233 41.5701 30.0193 40.9391Z" stroke="#45413C" style="stroke:#45413C;stroke:color(display-p3 0.2706 0.2549 0.2353);stroke-opacity:1;" stroke-linecap="round" stroke-linejoin="round"/>
<path d="M45.2617 45.4241C44.5234 44.0074 43.4977 42.7602 42.25 41.7625L45.2617 45.4241ZM38.3392 46.1283C38.4985 44.7335 38.1101 43.3314 37.2559 42.2175L38.3392 46.1283Z" fill="#FFAA54" style="fill:#FFAA54;fill:color(display-p3 1.0000 0.6667 0.3294);fill-opacity:1;"/>
<path d="M45.2617 45.4241C44.5234 44.0074 43.4977 42.7602 42.25 41.7625M38.3392 46.1283C38.4985 44.7335 38.1101 43.3314 37.2559 42.2175" stroke="#45413C" style="stroke:#45413C;stroke:color(display-p3 0.2706 0.2549 0.2353);stroke-opacity:1;" stroke-linecap="round" stroke-linejoin="round"/>
<path d="M12.1225 17.9833C12.215 18.0732 12.3326 18.133 12.4598 18.1548C12.5869 18.1766 12.7178 18.1595 12.835 18.1055C12.9522 18.0516 13.0504 17.9635 13.1166 17.8527C13.1827 17.7419 13.2138 17.6137 13.2058 17.4849C13.3565 14.3364 12.7041 11.2012 11.31 8.37411C8.72079 3.72661 4.89662 1.25661 3.24996 3.34744C1.83079 5.14578 4.56079 7.81078 4.56079 7.81078C4.56079 7.81078 1.98246 7.49661 1.74412 9.66328C1.50579 11.8299 5.94746 13.1841 5.94746 13.1841C5.94746 13.1841 4.01912 14.3541 5.02662 15.7841C6.38079 17.7016 8.02746 16.2933 9.44662 16.5424C10.4278 16.8344 11.3386 17.3248 12.1225 17.9833Z" fill="#E5FEFF" style="fill:#E5FEFF;fill:color(display-p3 0.8980 0.9961 1.0000);fill-opacity:1;"/>
<path d="M11.0394 11.4183C12.0882 13.4593 12.7076 15.6936 12.8594 17.9833C12.9464 17.9318 13.0189 17.8591 13.0701 17.7719C13.1212 17.6848 13.1494 17.586 13.1519 17.4849C13.3026 14.3364 12.6502 11.2012 11.256 8.37411C8.72102 3.72661 4.89686 1.25661 3.25019 3.34744C2.97261 3.75661 2.82422 4.23967 2.82422 4.73411C2.82422 5.22855 2.97261 5.71161 3.25019 6.12078C5.07019 4.56078 8.66686 7.00911 11.0394 11.4183Z" fill="white" style="fill:white;fill-opacity:1;"/>
<path d="M12.1225 17.9833C12.215 18.0732 12.3326 18.133 12.4598 18.1548C12.5869 18.1766 12.7178 18.1595 12.835 18.1055C12.9522 18.0516 13.0504 17.9635 13.1166 17.8527C13.1827 17.7419 13.2138 17.6137 13.2058 17.4849C13.3565 14.3364 12.7041 11.2012 11.31 8.37411C8.72079 3.72661 4.89662 1.25661 3.24996 3.34744C1.83079 5.14578 4.56079 7.81078 4.56079 7.81078C4.56079 7.81078 1.98246 7.49661 1.74412 9.66328C1.50579 11.8299 5.94746 13.1841 5.94746 13.1841C5.94746 13.1841 4.01912 14.3541 5.02662 15.7841C6.38079 17.7016 8.02746 16.2933 9.44662 16.5424C10.4278 16.8344 11.3386 17.3248 12.1225 17.9833Z" stroke="#45413C" style="stroke:#45413C;stroke:color(display-p3 0.2706 0.2549 0.2353);stroke-opacity:1;" stroke-linecap="round" stroke-linejoin="round"/>
<path d="M4.56104 7.81079C5.82132 7.9788 7.03004 8.41867 8.10354 9.09996L4.56104 7.81079ZM5.9477 13.1841C6.93606 12.6913 8.07531 12.5944 9.1327 12.9133L5.9477 13.1841Z" fill="#FFAA54" style="fill:#FFAA54;fill:color(display-p3 1.0000 0.6667 0.3294);fill-opacity:1;"/>
<path d="M4.56104 7.81079C5.82132 7.9788 7.03004 8.41867 8.10354 9.09996M5.9477 13.1841C6.93606 12.6913 8.07531 12.5944 9.1327 12.9133" stroke="#45413C" style="stroke:#45413C;stroke:color(display-p3 0.2706 0.2549 0.2353);stroke-opacity:1;" stroke-linecap="round" stroke-linejoin="round"/>
<path d="M12.5774 20.6376C9.66205 21.2329 6.90246 22.4282 4.47404 24.1476L0.974868 26.6068C0.760886 26.7724 0.616648 27.0121 0.570535 27.2788C0.524423 27.5454 0.579776 27.8197 0.725702 28.0476L8.17904 38.6101C8.34469 38.8241 8.58442 38.9683 8.85108 39.0144C9.11773 39.0605 9.39198 39.0052 9.61987 38.8593L13.119 36.3893C15.5521 34.6781 18.3099 33.4835 21.2224 32.8793C24.1405 32.2824 26.9033 31.0872 29.3365 29.3693L32.8249 26.9101C33.0389 26.7444 33.1831 26.5047 33.2292 26.238C33.2753 25.9714 33.22 25.6971 33.074 25.4693L25.6207 14.9068C25.4551 14.6928 25.2153 14.5485 24.9487 14.5024C24.682 14.4563 24.4078 14.5117 24.1799 14.6576L20.6915 17.1276C18.2568 18.8428 15.4946 20.0377 12.5774 20.6376Z" fill="#6DD627" stroke="#45413C" style="fill:#6DD627;fill:color(display-p3 0.4275 0.8392 0.1529);fill-opacity:1;stroke:#45413C;stroke:color(display-p3 0.2706 0.2549 0.2353);stroke-opacity:1;" stroke-linecap="round" stroke-linejoin="round"/>
<path d="M4.3332 28.6758L8.80737 35.0025C8.97302 35.2165 9.21276 35.3607 9.47941 35.4068C9.74606 35.453 10.0203 35.3976 10.2482 35.2517L12.0465 33.9842C14.4782 32.2634 17.2416 31.068 20.1607 30.4742C23.0751 29.8759 25.8341 28.6808 28.264 26.9642L29.2282 26.2925C29.4405 26.1253 29.5826 25.8849 29.6267 25.6183C29.6707 25.3517 29.6136 25.0783 29.4665 24.8517L25.0032 18.5142C24.8376 18.3002 24.5978 18.156 24.3312 18.1098C24.0645 18.0637 23.7903 18.1191 23.5624 18.265L21.7532 19.5C19.3248 21.2194 16.5652 22.4147 13.6499 23.01C10.7345 23.6158 7.97346 24.8102 5.5357 26.52L4.58237 27.2025C4.35962 27.3691 4.20951 27.6151 4.16312 27.8893C4.11673 28.1636 4.17763 28.4452 4.3332 28.6758Z" fill="#E4FFD1" stroke="#45413C" style="fill:#E4FFD1;fill:color(display-p3 0.8941 1.0000 0.8196);fill-opacity:1;stroke:#45413C;stroke:color(display-p3 0.2706 0.2549 0.2353);stroke-opacity:1;" stroke-linecap="round" stroke-linejoin="round"/>
<path d="M19.825 25.6859C20.2042 26.7693 19.2075 28.1018 17.5933 28.6651C15.9792 29.2284 14.3433 28.8276 13.975 27.7551C13.6067 26.6826 14.5925 25.3393 16.2175 24.7651C17.8425 24.1909 19.5 24.6134 19.825 25.6859Z" fill="#9CEB60" stroke="#45413C" style="fill:#9CEB60;fill:color(display-p3 0.6118 0.9216 0.3765);fill-opacity:1;stroke:#45413C;stroke:color(display-p3 0.2706 0.2549 0.2353);stroke-opacity:1;" stroke-linecap="round" stroke-linejoin="round"/>
<path d="M8.89404 39.065L9.43571 45.8466M33.5832 30.6583L29.9757 33.7133C27.4356 35.5091 24.5512 36.7595 21.504 37.3858C18.4596 38.0042 15.5779 39.2513 13.0432 41.0475L9.26238 43.745M33.4424 28.3833L29.8349 31.4166C27.2986 33.21 24.4175 34.4569 21.374 35.0783C18.3296 35.7072 15.4464 36.9534 12.9024 38.74L9.08904 41.4591" stroke="#45413C" style="stroke:#45413C;stroke:color(display-p3 0.2706 0.2549 0.2353);stroke-opacity:1;" stroke-linecap="round" stroke-linejoin="round"/>
<path d="M9.20833 43.0192L0.8125 30.875L9.20833 43.0192Z" fill="#FFAA54" style="fill:#FFAA54;fill:color(display-p3 1.0000 0.6667 0.3294);fill-opacity:1;"/>
<path d="M9.20833 43.0192L0.8125 30.875" stroke="#45413C" style="stroke:#45413C;stroke:color(display-p3 0.2706 0.2549 0.2353);stroke-opacity:1;" stroke-linecap="round" stroke-linejoin="round"/>
</svg>
