<svg width="52" height="52" viewBox="0 0 52 52" fill="none" xmlns="http://www.w3.org/2000/svg">
<path opacity="0.15" d="M14.0835 49.2917C14.0835 49.7227 15.339 50.1361 17.5738 50.4408C19.8086 50.7455 22.8397 50.9167 26.0002 50.9167C29.1607 50.9167 32.1917 50.7455 34.4265 50.4408C36.6613 50.1361 37.9168 49.7227 37.9168 49.2917C37.9168 48.8608 36.6613 48.4474 34.4265 48.1427C32.1917 47.838 29.1607 47.6667 26.0002 47.6667C22.8397 47.6667 19.8086 47.838 17.5738 48.1427C15.339 48.4474 14.0835 48.8608 14.0835 49.2917Z" fill="#45413C" style="fill:#45413C;fill:color(display-p3 0.2706 0.2549 0.2353);fill-opacity:1;"/>
<path d="M30.2144 6.32671L32.381 3.00088C32.4337 2.92887 32.4674 2.84474 32.479 2.75626C32.4906 2.66779 32.4797 2.57782 32.4473 2.49468C32.4149 2.41153 32.3621 2.3379 32.2937 2.28057C32.2253 2.22325 32.1436 2.18409 32.056 2.16671L29.6402 1.53838C29.5575 1.51596 29.4706 1.5135 29.3867 1.5312C29.3028 1.5489 29.2244 1.58626 29.1577 1.64019C29.0911 1.69413 29.0382 1.7631 29.0035 1.84145C28.9687 1.9198 28.953 2.00529 28.9577 2.09088L29.2502 6.06671C29.2645 6.17238 29.3097 6.27147 29.3801 6.35156C29.4505 6.43165 29.543 6.48918 29.6459 6.51694C29.7489 6.54471 29.8577 6.54147 29.9589 6.50763C30.06 6.47379 30.1489 6.41085 30.2144 6.32671ZM37.3319 9.42505L40.4302 6.96588C40.4996 6.91566 40.556 6.84971 40.595 6.77345C40.6339 6.69718 40.6542 6.61276 40.6542 6.52713C40.6542 6.4415 40.6339 6.35708 40.595 6.28081C40.556 6.20455 40.4996 6.1386 40.4302 6.08838L38.3069 4.72338C38.2351 4.67576 38.1529 4.64595 38.0673 4.63645C37.9816 4.62695 37.8949 4.63802 37.8144 4.66874C37.7339 4.69946 37.6619 4.74895 37.6043 4.81309C37.5468 4.87724 37.5054 4.95419 37.4835 5.03755L36.4652 8.86171C36.4342 8.97279 36.4394 9.09087 36.4802 9.19877C36.5209 9.30666 36.595 9.39874 36.6917 9.46159C36.7884 9.52445 36.9026 9.5548 37.0178 9.54822C37.1329 9.54165 37.243 9.4985 37.3319 9.42505ZM21.786 6.32671L19.6194 3.00088C19.5667 2.92887 19.533 2.84474 19.5214 2.75626C19.5098 2.66779 19.5207 2.57782 19.5531 2.49468C19.5855 2.41153 19.6384 2.3379 19.7067 2.28057C19.7751 2.22325 19.8569 2.18409 19.9444 2.16671L22.3602 1.53838C22.4429 1.51596 22.5298 1.5135 22.6137 1.5312C22.6976 1.5489 22.776 1.58626 22.8427 1.64019C22.9093 1.69413 22.9622 1.7631 22.9969 1.84145C23.0317 1.9198 23.0474 2.00529 23.0427 2.09088L22.7502 6.06671C22.7359 6.17238 22.6907 6.27147 22.6203 6.35156C22.5499 6.43165 22.4574 6.48918 22.3545 6.51694C22.2515 6.54471 22.1427 6.54147 22.0415 6.50763C21.9404 6.47379 21.8515 6.41085 21.786 6.32671ZM14.6685 9.42505L11.5702 6.96588C11.5008 6.91566 11.4444 6.84971 11.4054 6.77345C11.3665 6.69718 11.3462 6.61276 11.3462 6.52713C11.3462 6.4415 11.3665 6.35708 11.4054 6.28081C11.4444 6.20455 11.5008 6.1386 11.5702 6.08838L13.6502 4.72338C13.722 4.67576 13.8042 4.64595 13.8898 4.63645C13.9755 4.62695 14.0622 4.63802 14.1427 4.66874C14.2232 4.69946 14.2952 4.74895 14.3527 4.81309C14.4103 4.87724 14.4517 4.95419 14.4735 5.03755L15.4919 8.86171C15.513 8.96601 15.5029 9.07422 15.4629 9.17282C15.4228 9.27142 15.3547 9.35604 15.2668 9.41613C15.179 9.47622 15.0754 9.50911 14.969 9.5107C14.8626 9.51228 14.7581 9.48249 14.6685 9.42505Z" fill="#00DFEB" stroke="#45413C" style="fill:#00DFEB;fill:color(display-p3 0.0000 0.8745 0.9216);fill-opacity:1;stroke:#45413C;stroke:color(display-p3 0.2706 0.2549 0.2353);stroke-opacity:1;" stroke-linecap="round" stroke-linejoin="round"/>
<path d="M15.611 46.8108H7.21517C6.92785 46.8108 6.6523 46.6967 6.44914 46.4935C6.24597 46.2904 6.13184 46.0148 6.13184 45.7275V37.2883H16.651V45.7708C16.6403 46.0432 16.5273 46.3016 16.3345 46.4944C16.1418 46.6871 15.8834 46.8001 15.611 46.8108Z" fill="#FFCEBF" style="fill:#FFCEBF;fill:color(display-p3 1.0000 0.8078 0.7490);fill-opacity:1;"/>
<path d="M6.16406 41.0257C7.82144 41.735 9.60463 42.1034 11.4074 42.109C13.2102 42.1034 14.9934 41.735 16.6507 41.0257V37.3315H6.16406V41.0257Z" fill="#FFB59E" style="fill:#FFB59E;fill:color(display-p3 1.0000 0.7098 0.6196);fill-opacity:1;"/>
<path d="M15.611 46.8108H7.21517C6.92785 46.8108 6.6523 46.6967 6.44914 46.4935C6.24597 46.2904 6.13184 46.0148 6.13184 45.7275V37.2883H16.651V45.7708C16.6403 46.0432 16.5273 46.3016 16.3345 46.4944C16.1418 46.6871 15.8834 46.8001 15.611 46.8108Z" stroke="#45413C" style="stroke:#45413C;stroke:color(display-p3 0.2706 0.2549 0.2353);stroke-opacity:1;" stroke-linecap="round" stroke-linejoin="round"/>
<path d="M20.1392 28.7191L18.6551 30.1166V18.1241C18.6623 17.8694 18.6192 17.6158 18.5284 17.3778C18.4376 17.1397 18.3007 16.9219 18.1256 16.7368C17.9506 16.5517 17.7408 16.4029 17.5082 16.2989C17.2756 16.1949 17.0248 16.1378 16.7701 16.1308C16.2701 16.1308 15.7907 16.3294 15.4372 16.6829C15.0837 17.0364 14.8851 17.5158 14.8851 18.0158V16.3149C14.9012 16.0389 14.8612 15.7625 14.7676 15.5023C14.674 15.2421 14.5287 15.0036 14.3404 14.8012C14.1521 14.5987 13.9247 14.4365 13.672 14.3243C13.4194 14.212 13.1465 14.1522 12.8701 14.1483C12.5958 14.1435 12.3234 14.1951 12.0698 14.2999C11.8162 14.4046 11.5869 14.5604 11.396 14.7574C11.205 14.9544 11.0566 15.1885 10.9598 15.4453C10.863 15.702 10.82 15.9759 10.8334 16.2499V16.1308C10.8378 15.882 10.7921 15.6349 10.6989 15.4042C10.6057 15.1735 10.467 14.964 10.2911 14.788C10.1152 14.6121 9.90564 14.4734 9.67495 14.3803C9.44426 14.2871 9.19717 14.2413 8.94841 14.2458C8.44848 14.2458 7.96902 14.4444 7.61552 14.7979C7.26201 15.1514 7.06341 15.6308 7.06341 16.1308V19.3049C7.10668 19.0635 7.09584 18.8156 7.03169 18.5789C6.96754 18.3422 6.85167 18.1227 6.69244 17.9362C6.5332 17.7497 6.33457 17.6009 6.11086 17.5004C5.88716 17.4 5.64395 17.3504 5.39877 17.3553C5.15359 17.3602 4.91256 17.4195 4.69305 17.5288C4.47354 17.6381 4.28101 17.7948 4.12936 17.9875C3.97771 18.1802 3.87071 18.4041 3.81608 18.6432C3.76144 18.8823 3.76053 19.1305 3.81341 19.3699V32.8791C3.80477 34.739 4.53461 36.5264 5.84269 37.8487C7.15076 39.171 8.93014 39.9201 10.7901 39.9316C12.3226 39.933 13.8381 39.6115 15.2381 38.9881C16.638 38.3646 17.8909 37.4532 18.9151 36.3132L24.5376 30.2141C24.7255 30.0235 24.8308 29.7667 24.8308 29.4991C24.8308 29.2315 24.7255 28.9746 24.5376 28.7841C23.9617 28.1945 23.1759 27.8568 22.3518 27.8446C21.5277 27.8324 20.7323 28.1468 20.1392 28.7191Z" fill="#FFCEBF" style="fill:#FFCEBF;fill:color(display-p3 1.0000 0.8078 0.7490);fill-opacity:1;"/>
<path d="M8.98099 16.4341C9.22703 16.434 9.4706 16.483 9.6975 16.5781C9.9244 16.6733 10.1301 16.8126 10.3025 16.9881C10.475 17.1636 10.6108 17.3717 10.7019 17.6002C10.7931 17.8287 10.8378 18.0731 10.8335 18.3191V18.4166C10.8335 17.885 11.0446 17.3753 11.4205 16.9994C11.7964 16.6236 12.3061 16.4124 12.8377 16.4124C13.1141 16.4163 13.3869 16.4762 13.6396 16.5884C13.8923 16.7006 14.1197 16.8629 14.308 17.0653C14.4963 17.2678 14.6416 17.5063 14.7352 17.7665C14.8288 18.0266 14.8688 18.3031 14.8527 18.5791V20.2583C14.864 19.7602 15.0721 19.2869 15.4314 18.9418C15.7907 18.5967 16.272 18.4079 16.7702 18.4166C17.0243 18.4222 17.2749 18.478 17.5074 18.5808C17.74 18.6837 17.9499 18.8315 18.1251 19.0157C18.3003 19.2 18.4373 19.417 18.5283 19.6545C18.6192 19.8919 18.6624 20.1449 18.6552 20.3991V18.1241C18.6624 17.8694 18.6193 17.6158 18.5285 17.3778C18.4376 17.1397 18.3008 16.9219 18.1257 16.7368C17.9507 16.5517 17.7408 16.4029 17.5082 16.2989C17.2757 16.1949 17.0248 16.1378 16.7702 16.1308C16.2702 16.1308 15.7908 16.3294 15.4373 16.6829C15.0838 17.0364 14.8852 17.5158 14.8852 18.0158V16.3149C14.9013 16.0389 14.8613 15.7625 14.7677 15.5023C14.6741 15.2421 14.5288 15.0036 14.3405 14.8012C14.1522 14.5987 13.9248 14.4365 13.6721 14.3243C13.4194 14.212 13.1466 14.1522 12.8702 14.1483C12.5958 14.1435 12.3235 14.1951 12.0699 14.2999C11.8163 14.4046 11.587 14.5604 11.396 14.7574C11.2051 14.9544 11.0567 15.1885 10.9599 15.4453C10.8631 15.702 10.8201 15.9759 10.8335 16.2499V16.1308C10.8379 15.882 10.7921 15.6349 10.699 15.4042C10.6058 15.1735 10.4671 14.964 10.2912 14.788C10.1153 14.6121 9.90572 14.4734 9.67503 14.3803C9.44434 14.2871 9.19725 14.2413 8.94849 14.2458C8.44856 14.2458 7.9691 14.4444 7.6156 14.7979C7.26209 15.1514 7.06349 15.6308 7.06349 16.1308V18.3624C7.05762 18.1085 7.10311 17.856 7.19726 17.6201C7.2914 17.3842 7.43225 17.1698 7.61134 16.9897C7.79044 16.8096 8.00408 16.6675 8.23944 16.572C8.47481 16.4766 8.72704 16.4296 8.98099 16.4341Z" fill="#FFDCD1" style="fill:#FFDCD1;fill:color(display-p3 1.0000 0.8627 0.8196);fill-opacity:1;"/>
<path d="M5.41666 19.8467C5.63381 19.8453 5.8491 19.8868 6.05013 19.9689C6.25117 20.051 6.43398 20.1721 6.58803 20.3252C6.74209 20.4782 6.86435 20.6602 6.94778 20.8607C7.03121 21.0612 7.07416 21.2762 7.07416 21.4934V19.2617C7.11742 19.0203 7.10659 18.7724 7.04244 18.5357C6.97829 18.299 6.86242 18.0795 6.70318 17.893C6.54395 17.7065 6.34531 17.5577 6.12161 17.4572C5.8979 17.3568 5.65469 17.3072 5.40951 17.3121C5.16434 17.317 4.9233 17.3762 4.70379 17.4856C4.48428 17.5949 4.29176 17.7515 4.14011 17.9442C3.98845 18.137 3.88145 18.3609 3.82682 18.6C3.77218 18.839 3.77127 19.0872 3.82415 19.3267V21.5584C3.80951 21.1205 3.96881 20.6947 4.26722 20.3739C4.56563 20.0532 4.97889 19.8636 5.41666 19.8467ZM11.4075 31.6875C13.9498 31.4489 16.5065 31.4018 19.0558 31.5467C20.8867 30.4634 22.9992 29.6184 24.2017 30.5609L24.5158 30.2142C24.7037 30.0237 24.8091 29.7668 24.8091 29.4992C24.8091 29.2316 24.7037 28.9748 24.5158 28.7842C23.9427 28.2141 23.1706 27.8887 22.3623 27.8765C21.554 27.8644 20.7725 28.1665 20.1825 28.7192L18.655 30.1167H14.8308C14.1806 30.1154 13.5377 30.2551 12.9467 30.5263C12.3557 30.7975 11.8306 31.1937 11.4075 31.6875Z" fill="#FFDCD1" style="fill:#FFDCD1;fill:color(display-p3 1.0000 0.8627 0.8196);fill-opacity:1;"/>
<path d="M7.0957 19.2618V25.7293M10.8657 16.2068V25.7293M14.8849 18.016V25.7293M18.6549 30.1168H14.8307C14.1804 30.1155 13.5376 30.2552 12.9466 30.5264C12.3556 30.7976 11.8304 31.1938 11.4074 31.6876" stroke="#45413C" style="stroke:#45413C;stroke:color(display-p3 0.2706 0.2549 0.2353);stroke-opacity:1;" stroke-linecap="round" stroke-linejoin="round"/>
<path d="M20.1392 28.7191L18.6551 30.1166V18.1241C18.6623 17.8694 18.6192 17.6158 18.5284 17.3778C18.4376 17.1397 18.3007 16.9219 18.1256 16.7368C17.9506 16.5517 17.7408 16.4029 17.5082 16.2989C17.2756 16.1949 17.0248 16.1378 16.7701 16.1308C16.2701 16.1308 15.7907 16.3294 15.4372 16.6829C15.0837 17.0364 14.8851 17.5158 14.8851 18.0158V16.3149C14.9012 16.0389 14.8612 15.7625 14.7676 15.5023C14.674 15.2421 14.5287 15.0036 14.3404 14.8012C14.1521 14.5987 13.9247 14.4365 13.672 14.3243C13.4194 14.212 13.1465 14.1522 12.8701 14.1483C12.5958 14.1435 12.3234 14.1951 12.0698 14.2999C11.8162 14.4046 11.5869 14.5604 11.396 14.7574C11.205 14.9544 11.0566 15.1885 10.9598 15.4453C10.863 15.702 10.82 15.9759 10.8334 16.2499V16.1308C10.8378 15.882 10.7921 15.6349 10.6989 15.4042C10.6057 15.1735 10.467 14.964 10.2911 14.788C10.1152 14.6121 9.90564 14.4734 9.67495 14.3803C9.44426 14.2871 9.19717 14.2413 8.94841 14.2458C8.44848 14.2458 7.96902 14.4444 7.61552 14.7979C7.26201 15.1514 7.06341 15.6308 7.06341 16.1308V19.3049C7.10668 19.0635 7.09584 18.8156 7.03169 18.5789C6.96754 18.3422 6.85167 18.1227 6.69244 17.9362C6.5332 17.7497 6.33457 17.6009 6.11086 17.5004C5.88716 17.4 5.64395 17.3504 5.39877 17.3553C5.15359 17.3602 4.91256 17.4195 4.69305 17.5288C4.47354 17.6381 4.28101 17.7948 4.12936 17.9875C3.97771 18.1802 3.87071 18.4041 3.81608 18.6432C3.76144 18.8823 3.76053 19.1305 3.81341 19.3699V32.8791C3.80477 34.739 4.53461 36.5264 5.84269 37.8487C7.15076 39.171 8.93014 39.9201 10.7901 39.9316C12.3226 39.933 13.8381 39.6115 15.2381 38.9881C16.638 38.3646 17.8909 37.4532 18.9151 36.3133L24.5376 30.2141C24.7255 30.0235 24.8308 29.7667 24.8308 29.4991C24.8308 29.2315 24.7255 28.9746 24.5376 28.7841C23.9617 28.1945 23.1759 27.8568 22.3518 27.8446C21.5277 27.8324 20.7323 28.1468 20.1392 28.7191Z" stroke="#45413C" style="stroke:#45413C;stroke:color(display-p3 0.2706 0.2549 0.2353);stroke-opacity:1;" stroke-linecap="round" stroke-linejoin="round"/>
<path d="M35.349 37.3315H45.8248V45.7707C45.8248 46.058 45.7107 46.3336 45.5075 46.5367C45.3044 46.7399 45.0288 46.854 44.7415 46.854H36.389C36.1017 46.854 35.8261 46.7399 35.623 46.5367C35.4198 46.3336 35.3057 46.058 35.3057 45.7707V37.3315H35.349Z" fill="#FFCEBF" style="fill:#FFCEBF;fill:color(display-p3 1.0000 0.8078 0.7490);fill-opacity:1;"/>
<path d="M45.8358 41.0257C42.4778 42.4125 38.7071 42.4125 35.3491 41.0257V37.3315H45.8358V41.0257Z" fill="#FFB59E" style="fill:#FFB59E;fill:color(display-p3 1.0000 0.7098 0.6196);fill-opacity:1;"/>
<path d="M35.349 37.3315H45.8248V45.7707C45.8248 46.058 45.7107 46.3336 45.5075 46.5367C45.3044 46.7399 45.0288 46.854 44.7415 46.854H36.389C36.1017 46.854 35.8261 46.7399 35.623 46.5367C35.4198 46.3336 35.3057 46.058 35.3057 45.7707V37.3315H35.349Z" stroke="#45413C" style="stroke:#45413C;stroke:color(display-p3 0.2706 0.2549 0.2353);stroke-opacity:1;" stroke-linecap="round" stroke-linejoin="round"/>
<path d="M31.861 28.7191L33.3452 30.1166V18.1241C33.3379 17.8694 33.381 17.6158 33.4718 17.3778C33.5627 17.1397 33.6995 16.9219 33.8746 16.7368C34.0497 16.5517 34.2595 16.4029 34.4921 16.2989C34.7247 16.1949 34.9755 16.1378 35.2302 16.1308C35.7301 16.1308 36.2096 16.3294 36.5631 16.6829C36.9166 17.0364 37.1152 17.5158 37.1152 18.0158V16.3149C37.099 16.0389 37.139 15.7625 37.2326 15.5023C37.3262 15.2421 37.4716 15.0036 37.6599 14.8012C37.8481 14.5987 38.0755 14.4365 38.3282 14.3243C38.5809 14.212 38.8537 14.1522 39.1302 14.1483C39.4045 14.1435 39.6769 14.1951 39.9304 14.2999C40.184 14.4046 40.4134 14.5604 40.6043 14.7574C40.7952 14.9544 40.9437 15.1885 41.0404 15.4453C41.1372 15.702 41.1802 15.9759 41.1668 16.2499V16.1308C41.1624 15.882 41.2082 15.6349 41.3013 15.4042C41.3945 15.1735 41.5332 14.964 41.7091 14.788C41.885 14.6121 42.0946 14.4734 42.3253 14.3803C42.556 14.2871 42.8031 14.2413 43.0518 14.2458C43.5518 14.2458 44.0312 14.4444 44.3847 14.7979C44.7382 15.1514 44.9368 15.6308 44.9368 16.1308V19.3049C44.8936 19.0635 44.9044 18.8156 44.9685 18.5789C45.0327 18.3422 45.1486 18.1227 45.3078 17.9362C45.467 17.7497 45.6657 17.6009 45.8894 17.5004C46.1131 17.4 46.3563 17.3504 46.6015 17.3553C46.8466 17.3602 47.0877 17.4195 47.3072 17.5288C47.5267 17.6381 47.7192 17.7948 47.8709 17.9875C48.0225 18.1802 48.1295 18.4041 48.1842 18.6432C48.2388 18.8823 48.2397 19.1305 48.1868 19.3699V32.8791C48.1955 34.739 47.4656 36.5264 46.1576 37.8487C44.8495 39.171 43.0701 39.9201 41.2102 39.9316C39.6777 39.933 38.1621 39.6115 36.7622 38.9881C35.3622 38.3646 34.1094 37.4532 33.0852 36.3132L27.4627 30.2141C27.2748 30.0235 27.1694 29.7667 27.1694 29.4991C27.1694 29.2315 27.2748 28.9746 27.4627 28.7841C28.0386 28.1945 28.8243 27.8568 29.6484 27.8446C30.4725 27.8324 31.2679 28.1468 31.861 28.7191Z" fill="#FFCEBF" style="fill:#FFCEBF;fill:color(display-p3 1.0000 0.8078 0.7490);fill-opacity:1;"/>
<path d="M43.0192 16.4341C42.7731 16.434 42.5296 16.483 42.3027 16.5781C42.0758 16.6733 41.8701 16.8126 41.6976 16.9881C41.5252 17.1636 41.3894 17.3717 41.2983 17.6002C41.2071 17.8287 41.1624 18.0731 41.1667 18.3191V18.4166C41.1667 17.885 40.9555 17.3753 40.5797 16.9994C40.2038 16.6236 39.6941 16.4124 39.1625 16.4124C38.8861 16.4163 38.6132 16.4762 38.3605 16.5884C38.1079 16.7006 37.8805 16.8629 37.6922 17.0653C37.5039 17.2678 37.3586 17.5063 37.265 17.7665C37.1713 18.0266 37.1314 18.3031 37.1475 18.5791V20.2583C37.1361 19.7602 36.9281 19.2869 36.5687 18.9418C36.2094 18.5967 35.7281 18.4079 35.23 18.4166C34.9758 18.4222 34.7253 18.478 34.4927 18.5808C34.2602 18.6837 34.0503 18.8315 33.8751 19.0157C33.6999 19.2 33.5629 19.417 33.4719 19.6545C33.3809 19.8919 33.3378 20.1449 33.345 20.3991V18.1241C33.3378 17.8694 33.3808 17.6158 33.4717 17.3778C33.5625 17.1397 33.6994 16.9219 33.8745 16.7368C34.0495 16.5517 34.2593 16.4029 34.4919 16.2989C34.7245 16.1949 34.9753 16.1378 35.23 16.1308C35.7299 16.1308 36.2094 16.3294 36.5629 16.6829C36.9164 17.0364 37.115 17.5158 37.115 18.0158V16.3149C37.0989 16.0389 37.1388 15.7625 37.2325 15.5023C37.3261 15.2421 37.4714 15.0036 37.6597 14.8012C37.848 14.5987 38.0754 14.4365 38.328 14.3243C38.5807 14.212 38.8536 14.1522 39.13 14.1483C39.4043 14.1435 39.6767 14.1951 39.9303 14.2999C40.1839 14.4046 40.4132 14.5604 40.6041 14.7574C40.7951 14.9544 40.9435 15.1885 41.0403 15.4453C41.1371 15.702 41.1801 15.9759 41.1667 16.2499V16.1308C41.1623 15.882 41.208 15.6349 41.3012 15.4042C41.3944 15.1735 41.5331 14.964 41.709 14.788C41.8849 14.6121 42.0945 14.4734 42.3251 14.3803C42.5558 14.2871 42.8029 14.2413 43.0517 14.2458C43.5516 14.2458 44.0311 14.4444 44.3846 14.7979C44.7381 15.1514 44.9367 15.6308 44.9367 16.1308V18.3624C44.9426 18.1085 44.8971 17.856 44.8029 17.6201C44.7088 17.3842 44.5679 17.1698 44.3888 16.9897C44.2097 16.8096 43.9961 16.6675 43.7607 16.572C43.5254 16.4766 43.2731 16.4296 43.0192 16.4341Z" fill="#FFDCD1" style="fill:#FFDCD1;fill:color(display-p3 1.0000 0.8627 0.8196);fill-opacity:1;"/>
<path d="M46.5833 19.8467C46.3662 19.8453 46.1509 19.8868 45.9498 19.9689C45.7488 20.051 45.566 20.1721 45.4119 20.3252C45.2579 20.4782 45.1356 20.6602 45.0522 20.8607C44.9688 21.0612 44.9258 21.2762 44.9258 21.4934V19.2617C44.8825 19.0203 44.8934 18.7724 44.9575 18.5357C45.0217 18.299 45.1376 18.0795 45.2968 17.893C45.456 17.7065 45.6547 17.5577 45.8784 17.4572C46.1021 17.3568 46.3453 17.3072 46.5905 17.3121C46.8356 17.317 47.0767 17.3762 47.2962 17.4856C47.5157 17.5949 47.7082 17.7515 47.8599 17.9442C48.0115 18.137 48.1185 18.3609 48.1732 18.6C48.2278 18.839 48.2287 19.0872 48.1758 19.3267V21.5584C48.1905 21.1205 48.0312 20.6947 47.7328 20.3739C47.4343 20.0532 47.0211 19.8636 46.5833 19.8467ZM40.5925 31.6875C38.0502 31.4489 35.4935 31.4018 32.9441 31.5467C31.1133 30.4634 29.0008 29.6184 27.7983 30.5609L27.4841 30.2142C27.2963 30.0237 27.1909 29.7668 27.1909 29.4992C27.1909 29.2316 27.2963 28.9748 27.4841 28.7842C28.0573 28.2141 28.8294 27.8887 29.6377 27.8765C30.446 27.8644 31.2275 28.1665 31.8175 28.7192L33.3016 30.1167H37.1258C37.7834 30.1091 38.4346 30.2458 39.0336 30.5172C39.6325 30.7886 40.1647 31.1881 40.5925 31.6875Z" fill="#FFDCD1" style="fill:#FFDCD1;fill:color(display-p3 1.0000 0.8627 0.8196);fill-opacity:1;"/>
<path d="M44.9044 19.2618V25.7293M41.1344 16.2068V25.7293M37.1152 18.016V25.7293M33.3452 30.1168H37.1694C37.8196 30.1155 38.4625 30.2552 39.0535 30.5264C39.6445 30.7976 40.1697 31.1938 40.5927 31.6876" stroke="#45413C" style="stroke:#45413C;stroke:color(display-p3 0.2706 0.2549 0.2353);stroke-opacity:1;" stroke-linecap="round" stroke-linejoin="round"/>
<path d="M31.861 28.7191L33.3452 30.1166V18.1241C33.3379 17.8694 33.381 17.6158 33.4718 17.3778C33.5627 17.1397 33.6995 16.9219 33.8746 16.7368C34.0497 16.5517 34.2595 16.4029 34.4921 16.2989C34.7247 16.1949 34.9755 16.1378 35.2302 16.1308C35.7301 16.1308 36.2096 16.3294 36.5631 16.6829C36.9166 17.0364 37.1152 17.5158 37.1152 18.0158V16.3149C37.099 16.0389 37.139 15.7625 37.2326 15.5023C37.3262 15.2421 37.4716 15.0036 37.6599 14.8012C37.8481 14.5987 38.0755 14.4365 38.3282 14.3243C38.5809 14.212 38.8537 14.1522 39.1302 14.1483C39.4045 14.1435 39.6769 14.1951 39.9304 14.2999C40.184 14.4046 40.4134 14.5604 40.6043 14.7574C40.7952 14.9544 40.9437 15.1885 41.0404 15.4453C41.1372 15.702 41.1802 15.9759 41.1668 16.2499V16.1308C41.1624 15.882 41.2082 15.6349 41.3013 15.4042C41.3945 15.1735 41.5332 14.964 41.7091 14.788C41.885 14.6121 42.0946 14.4734 42.3253 14.3803C42.556 14.2871 42.8031 14.2413 43.0518 14.2458C43.5518 14.2458 44.0312 14.4444 44.3847 14.7979C44.7382 15.1514 44.9368 15.6308 44.9368 16.1308V19.3049C44.8936 19.0635 44.9044 18.8156 44.9685 18.5789C45.0327 18.3422 45.1486 18.1227 45.3078 17.9362C45.467 17.7497 45.6657 17.6009 45.8894 17.5004C46.1131 17.4 46.3563 17.3504 46.6015 17.3553C46.8466 17.3602 47.0877 17.4195 47.3072 17.5288C47.5267 17.6381 47.7192 17.7948 47.8709 17.9875C48.0225 18.1802 48.1295 18.4041 48.1842 18.6432C48.2388 18.8823 48.2397 19.1305 48.1868 19.3699V32.8791C48.1955 34.739 47.4656 36.5264 46.1576 37.8487C44.8495 39.171 43.0701 39.9201 41.2102 39.9316C39.6777 39.933 38.1621 39.6115 36.7622 38.9881C35.3622 38.3646 34.1094 37.4532 33.0852 36.3133L27.4627 30.2141C27.2748 30.0235 27.1694 29.7667 27.1694 29.4991C27.1694 29.2315 27.2748 28.9746 27.4627 28.7841C28.0386 28.1945 28.8243 27.8568 29.6484 27.8446C30.4725 27.8324 31.2679 28.1468 31.861 28.7191Z" stroke="#45413C" style="stroke:#45413C;stroke:color(display-p3 0.2706 0.2549 0.2353);stroke-opacity:1;" stroke-linecap="round" stroke-linejoin="round"/>
</svg>
