<svg width="52" height="52" viewBox="0 0 52 52" fill="none" xmlns="http://www.w3.org/2000/svg">
<path d="M26 1.56006C25.1162 1.56317 24.236 1.67228 23.3783 1.88506C21.3958 2.34006 18.8066 3.09839 16.4558 2.64339C16.3589 3.2471 16.3868 3.86427 16.5377 4.45679C16.6886 5.0493 16.9594 5.6046 17.3333 6.08839C16.1005 7.84639 15.442 9.94288 15.4483 12.0901V17.5934H36.53V12.0901C36.53 9.29733 35.4205 6.61898 33.4458 4.64422C31.471 2.66947 28.7927 1.56006 26 1.56006Z" fill="#724F3D" style="fill:#724F3D;fill:color(display-p3 0.4471 0.3098 0.2392);fill-opacity:1;"/>
<path d="M26 1.56006C25.1162 1.56317 24.2361 1.67228 23.3783 1.88506C21.3958 2.34006 18.8066 3.09839 16.4558 2.64339C16.2972 3.77884 16.555 4.93332 17.1816 5.89339C19.2792 5.93243 21.3699 5.64367 23.3783 5.03756C24.2352 4.81747 25.1154 4.70108 26 4.69089C28.7927 4.69089 31.471 5.8003 33.4458 7.77506C35.4206 9.74981 36.53 12.4282 36.53 15.2209V12.0901C36.53 9.29733 35.4206 6.61898 33.4458 4.64422C31.471 2.66947 28.7927 1.56006 26 1.56006Z" fill="#A86C4D" style="fill:#A86C4D;fill:color(display-p3 0.6588 0.4235 0.3020);fill-opacity:1;"/>
<path d="M26 1.56006C25.1162 1.56317 24.236 1.67228 23.3783 1.88506C21.3958 2.34006 18.8066 3.09839 16.4558 2.64339C16.3589 3.2471 16.3868 3.86427 16.5377 4.45679C16.6886 5.0493 16.9594 5.6046 17.3333 6.08839C16.1005 7.84639 15.442 9.94288 15.4483 12.0901V17.5934H36.53V12.0901C36.53 9.29733 35.4205 6.61898 33.4458 4.64422C31.471 2.66947 28.7927 1.56006 26 1.56006Z" stroke="#45413C" style="stroke:#45413C;stroke:color(display-p3 0.2706 0.2549 0.2353);stroke-opacity:1;" stroke-linecap="round" stroke-linejoin="round"/>
<path d="M26.0002 27.6143C29.3762 27.6143 32.6139 28.9554 35.001 31.3425C37.3882 33.7297 38.7293 36.9674 38.7293 40.3434V51.4584H13.271V40.3434C13.271 38.6718 13.6002 37.0166 14.2399 35.4722C14.8796 33.9278 15.8173 32.5246 16.9993 31.3425C19.3865 28.9554 22.6242 27.6143 26.0002 27.6143Z" fill="#00B8F0" style="fill:#00B8F0;fill:color(display-p3 0.0000 0.7216 0.9412);fill-opacity:1;"/>
<path d="M26.0002 27.6143C22.6242 27.6143 19.3865 28.9554 16.9993 31.3425C14.6121 33.7297 13.271 36.9674 13.271 40.3434V44.2326C13.271 40.8566 14.6121 37.6189 16.9993 35.2317C19.3865 32.8445 22.6242 31.5034 26.0002 31.5034C29.3762 31.5034 32.6139 32.8445 35.001 35.2317C37.3882 37.6189 38.7293 40.8566 38.7293 44.2326V40.3434C38.7293 36.9674 37.3882 33.7297 35.001 31.3425C32.6139 28.9554 29.3762 27.6143 26.0002 27.6143Z" fill="#009FD9" style="fill:#009FD9;fill:color(display-p3 0.0000 0.6235 0.8510);fill-opacity:1;"/>
<path d="M26.0002 27.6143C29.3761 27.6143 32.6139 28.9554 35.001 31.3425C37.3882 33.7297 38.7293 36.9674 38.7293 40.3434V51.4584H13.271V40.3434C13.271 38.6718 13.6002 37.0166 14.2399 35.4722C14.8796 33.9278 15.8173 32.5246 16.9993 31.3425C19.3865 28.9554 22.6242 27.6143 26.0002 27.6143Z" stroke="#45413C" style="stroke:#45413C;stroke:color(display-p3 0.2706 0.2549 0.2353);stroke-opacity:1;" stroke-linecap="round" stroke-linejoin="round"/>
<path d="M23.27 23.27H28.7192V31.7742H23.27V23.27Z" fill="#FFE500" style="fill:#FFE500;fill:color(display-p3 1.0000 0.8980 0.0000);fill-opacity:1;"/>
<path d="M23.27 23.27H28.7192V29.575H23.27V23.27Z" fill="#EBCB00" style="fill:#EBCB00;fill:color(display-p3 0.9216 0.7961 0.0000);fill-opacity:1;"/>
<path d="M23.27 23.27H28.7192V31.7742H23.27V23.27Z" stroke="#45413C" style="stroke:#45413C;stroke:color(display-p3 0.2706 0.2549 0.2353);stroke-opacity:1;" stroke-linecap="round" stroke-linejoin="round"/>
<path d="M37.6349 16.6401C37.5433 16.1757 37.2913 15.7583 36.9228 15.4612C36.5544 15.1641 36.0931 15.0061 35.6199 15.0151C35.1659 15.0151 34.7305 14.8347 34.4095 14.5137C34.0885 14.1927 33.9082 13.7574 33.9082 13.3034V10.6384C33.9137 10.1903 33.7697 9.75317 33.499 9.39608C33.2282 9.039 32.8462 8.78236 32.4132 8.66675C30.377 9.49137 28.1964 9.90023 25.9999 9.86925C23.8033 9.90023 21.6227 9.49137 19.5865 8.66675C19.1536 8.78236 18.7715 9.039 18.5007 9.39608C18.23 9.75317 18.086 10.1903 18.0915 10.6384V13.3034C18.0915 13.5282 18.0473 13.7508 17.9612 13.9584C17.8752 14.1661 17.7491 14.3548 17.5902 14.5137C17.4312 14.6727 17.2426 14.7988 17.0349 14.8848C16.8272 14.9708 16.6046 15.0151 16.3799 15.0151C15.9066 15.0061 15.4453 15.1641 15.0769 15.4612C14.7085 15.7583 14.4564 16.1757 14.3649 16.6401C14.3179 16.916 14.3313 17.1989 14.404 17.4692C14.4768 17.7395 14.6072 17.9909 14.7863 18.206C14.9654 18.4211 15.1889 18.5949 15.4416 18.7155C15.6942 18.836 15.97 18.9004 16.2499 18.9042H16.369C16.7712 21.1574 17.9531 23.1973 19.708 24.6667C21.4628 26.136 23.6786 26.9412 25.9674 26.9412C28.2561 26.9412 30.4719 26.136 32.2268 24.6667C33.9816 23.1973 35.1636 21.1574 35.5657 18.9042H35.7499C36.0298 18.9004 36.3055 18.836 36.5581 18.7155C36.8108 18.5949 37.0343 18.4211 37.2134 18.206C37.3925 17.9909 37.523 17.7395 37.5957 17.4692C37.6684 17.1989 37.6818 16.916 37.6349 16.6401Z" fill="#FFE500" stroke="#45413C" style="fill:#FFE500;fill:color(display-p3 1.0000 0.8980 0.0000);fill-opacity:1;stroke:#45413C;stroke:color(display-p3 0.2706 0.2549 0.2353);stroke-opacity:1;" stroke-linecap="round" stroke-linejoin="round"/>
<path d="M20.1719 16.5641C20.1747 16.7834 20.2639 16.9928 20.42 17.1469C20.5761 17.301 20.7867 17.3874 21.006 17.3874C21.2244 17.3874 21.4338 17.3006 21.5882 17.1462C21.7426 16.9918 21.8294 16.7824 21.8294 16.5641C21.8294 16.3457 21.7426 16.1363 21.5882 15.9819C21.4338 15.8275 21.2244 15.7407 21.006 15.7407C20.7867 15.7407 20.5761 15.8271 20.42 15.9812C20.2639 16.1353 20.1747 16.3447 20.1719 16.5641ZM31.8285 16.5641C31.8257 16.7834 31.7366 16.9928 31.5804 17.1469C31.4243 17.301 31.2137 17.3874 30.9944 17.3874C30.776 17.3874 30.5666 17.3006 30.4122 17.1462C30.2578 16.9918 30.171 16.7824 30.171 16.5641C30.171 16.3457 30.2578 16.1363 30.4122 15.9819C30.5666 15.8275 30.776 15.7407 30.9944 15.7407C31.2137 15.7407 31.4243 15.8271 31.5804 15.9812C31.7366 16.1353 31.8257 16.3447 31.8285 16.5641Z" fill="#45413C" stroke="#45413C" style="fill:#45413C;fill:color(display-p3 0.2706 0.2549 0.2353);fill-opacity:1;stroke:#45413C;stroke:color(display-p3 0.2706 0.2549 0.2353);stroke-opacity:1;" stroke-linecap="round" stroke-linejoin="round"/>
<path d="M22.9561 21.5908C22.8876 21.593 22.8205 21.6096 22.7589 21.6394C22.6973 21.6693 22.6426 21.7118 22.5986 21.7642C22.5539 21.8156 22.521 21.8762 22.5023 21.9417C22.4836 22.0072 22.4795 22.076 22.4902 22.1433C22.6358 22.9685 23.0674 23.716 23.7093 24.2546C24.3512 24.7932 25.1623 25.0885 26.0002 25.0885C26.8382 25.0885 27.6493 24.7932 28.2912 24.2546C28.9331 23.716 29.3647 22.9685 29.5102 22.1433C29.521 22.076 29.5169 22.0072 29.4982 21.9417C29.4794 21.8762 29.4466 21.8156 29.4019 21.7642C29.3578 21.7118 29.3032 21.6693 29.2416 21.6394C29.18 21.6096 29.1128 21.593 29.0444 21.5908H22.9561Z" fill="#FF6242" style="fill:#FF6242;fill:color(display-p3 1.0000 0.3843 0.2588);fill-opacity:1;"/>
<path d="M26 25.1118C26.9299 25.1128 27.8237 24.7514 28.4916 24.1043C27.823 23.4583 26.9297 23.0972 26 23.0972C25.0703 23.0972 24.1769 23.4583 23.5083 24.1043C24.1762 24.7514 25.07 25.1128 26 25.1118Z" fill="#FFA694" style="fill:#FFA694;fill:color(display-p3 1.0000 0.6510 0.5804);fill-opacity:1;"/>
<path d="M22.9561 21.5908C22.8876 21.593 22.8205 21.6096 22.7589 21.6394C22.6973 21.6693 22.6426 21.7118 22.5986 21.7642C22.5539 21.8156 22.521 21.8762 22.5023 21.9417C22.4836 22.0072 22.4795 22.076 22.4902 22.1433C22.6358 22.9685 23.0674 23.716 23.7093 24.2546C24.3512 24.7932 25.1623 25.0885 26.0002 25.0885C26.8382 25.0885 27.6493 24.7932 28.2912 24.2546C28.9331 23.716 29.3647 22.9685 29.5102 22.1433C29.521 22.076 29.5169 22.0072 29.4982 21.9417C29.4794 21.8762 29.4466 21.8156 29.4019 21.7642C29.3578 21.7118 29.3032 21.6693 29.2416 21.6394C29.18 21.6096 29.1128 21.593 29.0444 21.5908H22.9561Z" stroke="#45413C" style="stroke:#45413C;stroke:color(display-p3 0.2706 0.2549 0.2353);stroke-opacity:1;" stroke-linecap="round" stroke-linejoin="round"/>
<path d="M18.5576 20.085C18.5576 20.2545 18.6706 20.4171 18.8717 20.5369C19.0729 20.6568 19.3457 20.7241 19.6301 20.7241C19.9146 20.7241 20.1874 20.6568 20.3885 20.5369C20.5896 20.4171 20.7026 20.2545 20.7026 20.085C20.7026 19.9154 20.5896 19.7529 20.3885 19.633C20.1874 19.5131 19.9146 19.4458 19.6301 19.4458C19.3457 19.4458 19.0729 19.5131 18.8717 19.633C18.6706 19.7529 18.5576 19.9154 18.5576 20.085ZM31.2976 20.085C31.2976 20.2545 31.4106 20.4171 31.6117 20.5369C31.8129 20.6568 32.0857 20.7241 32.3701 20.7241C32.6546 20.7241 32.9274 20.6568 33.1285 20.5369C33.3296 20.4171 33.4426 20.2545 33.4426 20.085C33.4426 19.9154 33.3296 19.7529 33.1285 19.633C32.9274 19.5131 32.6546 19.4458 32.3701 19.4458C32.0857 19.4458 31.8129 19.5131 31.6117 19.633C31.4106 19.7529 31.2976 19.9154 31.2976 20.085Z" fill="#FFAA54" style="fill:#FFAA54;fill:color(display-p3 1.0000 0.6667 0.3294);fill-opacity:1;"/>
<path d="M21.7968 51.4584C21.0633 49.5205 19.7573 47.8519 18.0525 46.6743C16.3476 45.4967 14.3247 44.866 12.2527 44.866C10.1806 44.866 8.15772 45.4967 6.45286 46.6743C4.748 47.8519 3.442 49.5205 2.7085 51.4584H21.7968Z" fill="#00F5BC" style="fill:#00F5BC;fill:color(display-p3 0.0000 0.9608 0.7373);fill-opacity:1;"/>
<path d="M12.2527 47.8509C13.7353 47.8489 15.2006 48.1707 16.5459 48.7938C17.8913 49.4169 19.0844 50.3263 20.0418 51.4584H21.7968C21.0633 49.5205 19.7573 47.8519 18.0525 46.6743C16.3476 45.4967 14.3247 44.866 12.2527 44.866C10.1806 44.866 8.15772 45.4967 6.45286 46.6743C4.748 47.8519 3.442 49.5205 2.7085 51.4584H4.47433C5.42864 50.3254 6.6196 49.4153 7.96344 48.792C9.30727 48.1688 10.7713 47.8475 12.2527 47.8509Z" fill="#00DBA8" style="fill:#00DBA8;fill:color(display-p3 0.0000 0.8588 0.6588);fill-opacity:1;"/>
<path d="M21.7968 51.4584C21.0633 49.5205 19.7573 47.8519 18.0525 46.6743C16.3476 45.4967 14.3247 44.866 12.2527 44.866C10.1806 44.866 8.15772 45.4967 6.45286 46.6743C4.748 47.8519 3.442 49.5205 2.7085 51.4584H21.7968Z" stroke="#45413C" style="stroke:#45413C;stroke:color(display-p3 0.2706 0.2549 0.2353);stroke-opacity:1;" stroke-linecap="round" stroke-linejoin="round"/>
<path d="M10.2373 41.405H14.2673V48.3384H10.2373V41.405Z" fill="#FFE500" style="fill:#FFE500;fill:color(display-p3 1.0000 0.8980 0.0000);fill-opacity:1;"/>
<path d="M10.2373 41.405H14.2673V46.4317H10.2373V41.405Z" fill="#EBCB00" style="fill:#EBCB00;fill:color(display-p3 0.9216 0.7961 0.0000);fill-opacity:1;"/>
<path d="M10.2373 41.405H14.2673V48.3384H10.2373V41.405Z" stroke="#45413C" style="stroke:#45413C;stroke:color(display-p3 0.2706 0.2549 0.2353);stroke-opacity:1;" stroke-linecap="round" stroke-linejoin="round"/>
<path d="M12.2527 25.7508C11.5946 25.7489 10.9391 25.8326 10.3027 25.9999C8.63165 26.5322 6.87078 26.7238 5.12436 26.5633C5.05276 27.0144 5.07548 27.4755 5.19109 27.9174C5.3067 28.3593 5.51268 28.7725 5.79603 29.1308C4.88288 30.4363 4.39141 31.9901 4.3877 33.5833V37.6999H20.1177V33.5833C20.1091 31.503 19.2767 29.5108 17.8026 28.0429C16.3286 26.5749 14.333 25.7507 12.2527 25.7508Z" fill="#724F3D" style="fill:#724F3D;fill:color(display-p3 0.4471 0.3098 0.2392);fill-opacity:1;"/>
<path d="M12.2525 25.7508C11.5944 25.7489 10.9389 25.8326 10.3025 25.9999C8.63143 26.5322 6.87056 26.7238 5.12414 26.5633C5.05581 27.0095 5.07815 27.465 5.18983 27.9024C5.30152 28.3398 5.50025 28.7502 5.77414 29.1091C7.30658 29.1165 8.83197 28.9012 10.3025 28.4699C10.9389 28.3026 11.5944 28.2189 12.2525 28.2208C13.2853 28.2208 14.3081 28.4242 15.2623 28.8195C16.2165 29.2147 17.0835 29.794 17.8139 30.5244C18.5442 31.2547 19.1235 32.1217 19.5188 33.076C19.914 34.0302 20.1175 35.0529 20.1175 36.0858V33.5833C20.1089 31.503 19.2765 29.5108 17.8024 28.0429C16.3284 26.5749 14.3328 25.7507 12.2525 25.7508Z" fill="#A86C4D" style="fill:#A86C4D;fill:color(display-p3 0.6588 0.4235 0.3020);fill-opacity:1;"/>
<path d="M12.2527 25.7508C11.5946 25.7489 10.9391 25.8326 10.3027 25.9999C8.63165 26.5322 6.87078 26.7238 5.12436 26.5633C5.05276 27.0144 5.07548 27.4755 5.19109 27.9174C5.3067 28.3593 5.51268 28.7725 5.79603 29.1308C4.88288 30.4363 4.39141 31.9901 4.3877 33.5833V37.6999H20.1177V33.5833C20.1091 31.503 19.2767 29.5108 17.8026 28.0429C16.3286 26.5749 14.333 25.7507 12.2527 25.7508Z" stroke="#45413C" style="stroke:#45413C;stroke:color(display-p3 0.2706 0.2549 0.2353);stroke-opacity:1;" stroke-linecap="round" stroke-linejoin="round"/>
<path d="M4.66915 35.8909C4.30872 35.9493 3.98468 36.1444 3.7644 36.4356C3.54412 36.7268 3.44456 37.0917 3.48641 37.4544C3.52826 37.8171 3.70831 38.1498 3.98912 38.3832C4.26993 38.6166 4.62989 38.7327 4.99415 38.7075H5.08082C5.33201 40.4303 6.19495 42.0051 7.51183 43.1439C8.8287 44.2827 10.5115 44.9094 12.2525 44.9094C13.9935 44.9094 15.6763 44.2827 16.9931 43.1439C18.31 42.0051 19.173 40.4303 19.4242 38.7075H19.5C19.7016 38.7067 19.9008 38.6642 20.0852 38.5827C20.2696 38.5012 20.4352 38.3825 20.5715 38.234C20.7078 38.0854 20.8119 37.9103 20.8774 37.7196C20.9428 37.529 20.9681 37.3268 20.9517 37.1259C20.9114 36.8367 20.7873 36.5657 20.5948 36.3462C20.4023 36.1268 20.1498 35.9685 19.8683 35.8909C16.6183 35.2517 14.8308 31.8175 14.7875 31.7417C14.7225 31.8392 12.0792 35.9884 4.66915 35.8909Z" fill="#FFE500" stroke="#45413C" style="fill:#FFE500;fill:color(display-p3 1.0000 0.8980 0.0000);fill-opacity:1;stroke:#45413C;stroke:color(display-p3 0.2706 0.2549 0.2353);stroke-opacity:1;" stroke-linecap="round" stroke-linejoin="round"/>
<path d="M8.43896 37.5483C8.44174 37.691 8.4997 37.8272 8.60068 37.9282C8.70167 38.0292 8.83784 38.0872 8.98063 38.0899C9.12429 38.0899 9.26207 38.0329 9.36365 37.9313C9.46523 37.8297 9.5223 37.6919 9.5223 37.5483C9.5223 37.4046 9.46523 37.2668 9.36365 37.1652C9.26207 37.0637 9.12429 37.0066 8.98063 37.0066C8.83697 37.0066 8.6992 37.0637 8.59762 37.1652C8.49603 37.2668 8.43896 37.4046 8.43896 37.5483ZM16.0656 37.5483C16.0656 37.6919 16.0086 37.8297 15.907 37.9313C15.8054 38.0329 15.6676 38.0899 15.524 38.0899C15.3803 38.0899 15.2425 38.0329 15.1409 37.9313C15.0394 37.8297 14.9823 37.6919 14.9823 37.5483C14.9823 37.4046 15.0394 37.2668 15.1409 37.1652C15.2425 37.0637 15.3803 37.0066 15.524 37.0066C15.6676 37.0066 15.8054 37.0637 15.907 37.1652C16.0086 37.2668 16.0656 37.4046 16.0656 37.5483Z" fill="#45413C" stroke="#45413C" style="fill:#45413C;fill:color(display-p3 0.2706 0.2549 0.2353);fill-opacity:1;stroke:#45413C;stroke:color(display-p3 0.2706 0.2549 0.2353);stroke-opacity:1;" stroke-linecap="round" stroke-linejoin="round"/>
<path d="M6.84668 39.8451C6.84668 39.9572 6.92087 40.0646 7.05293 40.1439C7.18498 40.2231 7.36409 40.2676 7.55085 40.2676C7.7376 40.2676 7.91671 40.2231 8.04877 40.1439C8.18082 40.0646 8.25501 39.9572 8.25501 39.8451C8.25501 39.7331 8.18082 39.6256 8.04877 39.5464C7.91671 39.4671 7.7376 39.4226 7.55085 39.4226C7.36409 39.4226 7.18498 39.4671 7.05293 39.5464C6.92087 39.6256 6.84668 39.7331 6.84668 39.8451ZM16.2608 39.8451C16.2608 39.9572 16.335 40.0646 16.4671 40.1439C16.5991 40.2231 16.7783 40.2676 16.965 40.2676C17.1518 40.2676 17.3309 40.2231 17.4629 40.1439C17.595 40.0646 17.6692 39.9572 17.6692 39.8451C17.6692 39.7331 17.595 39.6256 17.4629 39.5464C17.3309 39.4671 17.1518 39.4226 16.965 39.4226C16.7783 39.4226 16.5991 39.4671 16.4671 39.5464C16.335 39.6256 16.2608 39.7331 16.2608 39.8451Z" fill="#FFAA54" style="fill:#FFAA54;fill:color(display-p3 1.0000 0.6667 0.3294);fill-opacity:1;"/>
<path d="M10.4219 41.8491C10.9317 42.2769 11.5893 42.487 12.2527 42.4341C12.9161 42.487 13.5737 42.2769 14.0835 41.8491" stroke="#45413C" style="stroke:#45413C;stroke:color(display-p3 0.2706 0.2549 0.2353);stroke-opacity:1;" stroke-linecap="round" stroke-linejoin="round"/>
<path d="M39.7473 25.7509C37.667 25.7509 35.6714 26.5751 34.1974 28.043C32.7233 29.511 31.8909 31.5031 31.8823 33.5834V37.6893H47.6665V33.5834C47.6622 32.5487 47.4539 31.5251 47.0533 30.571C46.6528 29.617 46.0679 28.7514 45.3323 28.0238C44.5966 27.2962 43.7246 26.7209 42.7663 26.3309C41.8079 25.9409 40.782 25.7438 39.7473 25.7509Z" fill="#724F3D" style="fill:#724F3D;fill:color(display-p3 0.4471 0.3098 0.2392);fill-opacity:1;"/>
<path d="M39.7473 25.7509C37.667 25.7509 35.6714 26.5751 34.1974 28.043C32.7233 29.511 31.8909 31.5031 31.8823 33.5834V36.0751C31.8823 33.982 32.7138 31.9746 34.1939 30.4945C35.6739 29.0145 37.6813 28.183 39.7744 28.183C41.8675 28.183 43.8749 29.0145 45.355 30.4945C46.835 31.9746 47.6665 33.982 47.6665 36.0751V33.5834C47.6622 32.5487 47.4539 31.5251 47.0533 30.571C46.6528 29.617 46.0679 28.7514 45.3323 28.0238C44.5966 27.2962 43.7246 26.7209 42.7663 26.3309C41.8079 25.9409 40.782 25.7438 39.7473 25.7509Z" fill="#A86C4D" style="fill:#A86C4D;fill:color(display-p3 0.6588 0.4235 0.3020);fill-opacity:1;"/>
<path d="M49.2915 51.4584C48.558 49.5205 47.252 47.8519 45.5471 46.6743C43.8422 45.4967 41.8193 44.866 39.7473 44.866C37.6753 44.866 35.6523 45.4967 33.9475 46.6743C32.2426 47.8519 30.9366 49.5205 30.2031 51.4584H49.2915Z" fill="#FFAA54" style="fill:#FFAA54;fill:color(display-p3 1.0000 0.6667 0.3294);fill-opacity:1;"/>
<path d="M39.7473 47.8509C41.2286 47.8475 42.6927 48.1688 44.0365 48.792C45.3804 49.4153 46.5713 50.3254 47.5256 51.4584H49.2915C48.558 49.5205 47.252 47.8519 45.5471 46.6743C43.8422 45.4967 41.8193 44.866 39.7473 44.866C37.6753 44.866 35.6523 45.4967 33.9475 46.6743C32.2426 47.8519 30.9366 49.5205 30.2031 51.4584H31.9581C32.9156 50.3263 34.1086 49.4169 35.454 48.7938C36.7994 48.1707 38.2646 47.8489 39.7473 47.8509Z" fill="#FF8A14" style="fill:#FF8A14;fill:color(display-p3 1.0000 0.5412 0.0784);fill-opacity:1;"/>
<path d="M49.2915 51.4584C48.558 49.5205 47.252 47.8519 45.5471 46.6743C43.8422 45.4967 41.8193 44.866 39.7473 44.866C37.6753 44.866 35.6523 45.4967 33.9475 46.6743C32.2426 47.8519 30.9366 49.5205 30.2031 51.4584H49.2915Z" stroke="#45413C" style="stroke:#45413C;stroke:color(display-p3 0.2706 0.2549 0.2353);stroke-opacity:1;" stroke-linecap="round" stroke-linejoin="round"/>
<path d="M37.7324 41.405H41.7624V48.3384H37.7324V41.405Z" fill="#FFE500" style="fill:#FFE500;fill:color(display-p3 1.0000 0.8980 0.0000);fill-opacity:1;"/>
<path d="M37.7324 41.405H41.7624V46.4317H37.7324V41.405Z" fill="#EBCB00" style="fill:#EBCB00;fill:color(display-p3 0.9216 0.7961 0.0000);fill-opacity:1;"/>
<path d="M37.7323 41.4051H41.7623V48.3384H37.7323V41.4051ZM39.7473 25.7509C37.667 25.7509 35.6714 26.5751 34.1974 28.043C32.7233 29.511 31.8909 31.5031 31.8823 33.5834V37.6893H47.6665V33.5834C47.6622 32.5487 47.4539 31.5251 47.0533 30.571C46.6528 29.617 46.0679 28.7514 45.3323 28.0238C44.5966 27.2962 43.7246 26.7209 42.7663 26.3309C41.8079 25.9409 40.782 25.7438 39.7473 25.7509Z" stroke="#45413C" style="stroke:#45413C;stroke:color(display-p3 0.2706 0.2549 0.2353);stroke-opacity:1;" stroke-linecap="round" stroke-linejoin="round"/>
<path d="M32.1532 35.8909C31.8717 35.9685 31.6192 36.1268 31.4267 36.3462C31.2341 36.5657 31.1101 36.8367 31.0698 37.1259C31.0535 37.325 31.0782 37.5254 31.1423 37.7146C31.2064 37.9038 31.3086 38.0779 31.4426 38.2261C31.5766 38.3743 31.7395 38.4935 31.9214 38.5763C32.1032 38.6591 32.3001 38.7038 32.4998 38.7075H32.5865C32.8377 40.4303 33.7006 42.0051 35.0175 43.1439C36.3344 44.2827 38.0172 44.9094 39.7582 44.9094C41.4991 44.9094 43.1819 44.2827 44.4988 43.1439C45.8157 42.0051 46.6786 40.4303 46.9298 38.7075H47.0165C47.3808 38.7327 47.7407 38.6166 48.0215 38.3832C48.3023 38.1498 48.4824 37.8171 48.5242 37.4544C48.5661 37.0917 48.4665 36.7268 48.2462 36.4356C48.026 36.1444 47.7019 35.9493 47.3415 35.8909C44.0915 35.2517 42.3148 31.8175 42.2715 31.7417C42.2498 31.8392 39.5632 35.9884 32.1532 35.8909Z" fill="#FFE500" stroke="#45413C" style="fill:#FFE500;fill:color(display-p3 1.0000 0.8980 0.0000);fill-opacity:1;stroke:#45413C;stroke:color(display-p3 0.2706 0.2549 0.2353);stroke-opacity:1;" stroke-linecap="round" stroke-linejoin="round"/>
<path d="M35.9341 37.5483C35.9341 37.6919 35.9912 37.8297 36.0927 37.9313C36.1943 38.0329 36.3321 38.0899 36.4757 38.0899C36.6194 38.0899 36.7572 38.0329 36.8588 37.9313C36.9603 37.8297 37.0174 37.6919 37.0174 37.5483C37.0174 37.4046 36.9603 37.2668 36.8588 37.1652C36.7572 37.0637 36.6194 37.0066 36.4757 37.0066C36.3321 37.0066 36.1943 37.0637 36.0927 37.1652C35.9912 37.2668 35.9341 37.4046 35.9341 37.5483ZM43.5607 37.5483C43.558 37.691 43.5 37.8272 43.399 37.9282C43.298 38.0292 43.1619 38.0872 43.0191 38.0899C42.8754 38.0899 42.7376 38.0329 42.6361 37.9313C42.5345 37.8297 42.4774 37.6919 42.4774 37.5483C42.4774 37.4046 42.5345 37.2668 42.6361 37.1652C42.7376 37.0637 42.8754 37.0066 43.0191 37.0066C43.1627 37.0066 43.3005 37.0637 43.4021 37.1652C43.5037 37.2668 43.5607 37.4046 43.5607 37.5483Z" fill="#45413C" stroke="#45413C" style="fill:#45413C;fill:color(display-p3 0.2706 0.2549 0.2353);fill-opacity:1;stroke:#45413C;stroke:color(display-p3 0.2706 0.2549 0.2353);stroke-opacity:1;" stroke-linecap="round" stroke-linejoin="round"/>
<path d="M34.3311 39.8451C34.3311 39.9572 34.4052 40.0646 34.5373 40.1439C34.6694 40.2231 34.8485 40.2676 35.0352 40.2676C35.222 40.2676 35.4011 40.2231 35.5331 40.1439C35.6652 40.0646 35.7394 39.9572 35.7394 39.8451C35.7394 39.7331 35.6652 39.6256 35.5331 39.5464C35.4011 39.4671 35.222 39.4226 35.0352 39.4226C34.8485 39.4226 34.6694 39.4671 34.5373 39.5464C34.4052 39.6256 34.3311 39.7331 34.3311 39.8451ZM43.7452 39.8451C43.7452 39.9572 43.8194 40.0646 43.9515 40.1439C44.0835 40.2231 44.2626 40.2676 44.4494 40.2676C44.6361 40.2676 44.8153 40.2231 44.9473 40.1439C45.0794 40.0646 45.1536 39.9572 45.1536 39.8451C45.1536 39.7331 45.0794 39.6256 44.9473 39.5464C44.8153 39.4671 44.6361 39.4226 44.4494 39.4226C44.2626 39.4226 44.0835 39.4671 43.9515 39.5464C43.8194 39.6256 43.7452 39.7331 43.7452 39.8451Z" fill="#FFAA54" style="fill:#FFAA54;fill:color(display-p3 1.0000 0.6667 0.3294);fill-opacity:1;"/>
<path d="M37.9165 41.8491C38.4263 42.2769 39.0839 42.487 39.7473 42.4341C40.4107 42.487 41.0683 42.2769 41.5782 41.8491" stroke="#45413C" style="stroke:#45413C;stroke:color(display-p3 0.2706 0.2549 0.2353);stroke-opacity:1;" stroke-linecap="round" stroke-linejoin="round"/>
</svg>
