<svg width="51" height="50" viewBox="0 0 51 50" fill="none" xmlns="http://www.w3.org/2000/svg">
<path opacity="0.15" d="M7.7915 45.3125C7.7915 45.7269 9.6572 46.1243 12.9782 46.4174C16.2991 46.7104 20.8033 46.875 25.4998 46.875C30.1964 46.875 34.7006 46.7104 38.0215 46.4174C41.3425 46.1243 43.2082 45.7269 43.2082 45.3125C43.2082 44.8981 41.3425 44.5007 38.0215 44.2076C34.7006 43.9146 30.1964 43.75 25.4998 43.75C20.8033 43.75 16.2991 43.9146 12.9782 44.2076C9.6572 44.5007 7.7915 44.8981 7.7915 45.3125Z" fill="#45413C" style="fill:#45413C;fill:color(display-p3 0.2706 0.2549 0.2353);fill-opacity:1;"/>
<path d="M20.2917 25.5209C18.4167 23.7188 16.8021 18.9896 15.5729 15.4584C15.5364 15.3578 15.4699 15.271 15.3823 15.2096C15.2947 15.1482 15.1903 15.1152 15.0833 15.1152C14.9764 15.1152 14.872 15.1482 14.7844 15.2096C14.6968 15.271 14.6302 15.3578 14.5937 15.4584C13.3646 18.9896 11.75 23.7188 9.875 25.5209H20.2917ZM30.7083 25.5209C32.5833 23.7188 34.1979 18.9896 35.4271 15.4584C35.4636 15.3578 35.5301 15.271 35.6177 15.2096C35.7053 15.1482 35.8097 15.1152 35.9167 15.1152C36.0236 15.1152 36.128 15.1482 36.2156 15.2096C36.3032 15.271 36.3698 15.3578 36.4062 15.4584C37.6354 18.9896 39.25 23.7188 41.125 25.5209H30.7083Z" fill="#EBCB00" stroke="#45413C" style="fill:#EBCB00;fill:color(display-p3 0.9216 0.7961 0.0000);fill-opacity:1;stroke:#45413C;stroke:color(display-p3 0.2706 0.2549 0.2353);stroke-opacity:1;" stroke-linecap="round" stroke-linejoin="round"/>
<path d="M25.0206 12.2083C25.0566 12.1102 25.1219 12.0255 25.2076 11.9657C25.2933 11.9059 25.3953 11.8738 25.4998 11.8738C25.6043 11.8738 25.7063 11.9059 25.792 11.9657C25.8777 12.0255 25.943 12.1102 25.979 12.2083C27.3748 15.7604 31.5623 25.5208 35.354 25.5208C38.656 25.5208 41.9685 20.8542 43.6248 18.1042C43.6896 18.01 43.7831 17.9393 43.8913 17.9024C43.9995 17.8656 44.1167 17.8647 44.2255 17.8998C44.3343 17.9349 44.4289 18.0041 44.4952 18.0972C44.5615 18.1904 44.596 18.3024 44.5935 18.4167L43.729 33.3333C43.729 37.0729 35.5623 40.1042 25.4998 40.1042C15.4373 40.1042 7.27063 37.0729 7.27063 33.3333L6.36438 18.4167C6.36194 18.3024 6.39644 18.1904 6.46274 18.0972C6.52905 18.0041 6.62362 17.9349 6.73241 17.8998C6.84121 17.8647 6.95842 17.8656 7.06664 17.9024C7.17486 17.9393 7.26832 18.01 7.33313 18.1042C8.98938 20.8333 12.3019 25.5208 15.604 25.5208C19.4373 25.5208 23.6248 15.7604 25.0206 12.2083Z" fill="#FFE500" style="fill:#FFE500;fill:color(display-p3 1.0000 0.8980 0.0000);fill-opacity:1;"/>
<path d="M13.4064 38.3958L30.4793 21.3229C28.7001 18.4307 27.1936 15.3794 25.9793 12.2083C25.9433 12.1102 25.878 12.0255 25.7923 11.9657C25.7066 11.9059 25.6046 11.8738 25.5001 11.8738C25.3956 11.8738 25.2936 11.9059 25.2079 11.9657C25.1222 12.0255 25.057 12.1102 25.021 12.2083C23.6251 15.7604 19.4376 25.5208 15.646 25.5208C12.3439 25.5208 9.03137 20.8542 7.37512 18.1042C7.31031 18.01 7.21685 17.9393 7.10863 17.9024C7.00041 17.8656 6.8832 17.8647 6.7744 17.8998C6.66561 17.9349 6.57104 18.0041 6.50474 18.0972C6.43843 18.1904 6.40394 18.3024 6.40637 18.4167L7.27095 33.3333C7.27095 35.3438 9.65637 37.1458 13.4064 38.3958Z" fill="#FFF48C" style="fill:#FFF48C;fill:color(display-p3 1.0000 0.9569 0.5490);fill-opacity:1;"/>
<path d="M25.0206 12.2083C25.0566 12.1102 25.1219 12.0255 25.2076 11.9657C25.2933 11.9059 25.3953 11.8738 25.4998 11.8738C25.6043 11.8738 25.7063 11.9059 25.792 11.9657C25.8777 12.0255 25.943 12.1102 25.979 12.2083C27.3748 15.7604 31.5623 25.5208 35.354 25.5208C38.656 25.5208 41.9685 20.8542 43.6248 18.1042C43.6896 18.01 43.7831 17.9393 43.8913 17.9024C43.9995 17.8656 44.1167 17.8647 44.2255 17.8998C44.3343 17.9349 44.4289 18.0041 44.4952 18.0972C44.5615 18.1904 44.596 18.3024 44.5935 18.4167L43.729 33.3333C43.729 37.0729 35.5623 40.1042 25.4998 40.1042C15.4373 40.1042 7.27063 37.0729 7.27063 33.3333L6.36438 18.4167C6.36194 18.3024 6.39644 18.1904 6.46274 18.0972C6.52905 18.0041 6.62362 17.9349 6.73241 17.8998C6.84121 17.8647 6.95842 17.8656 7.06664 17.9024C7.17486 17.9393 7.26832 18.01 7.33313 18.1042C8.98938 20.8333 12.3019 25.5208 15.604 25.5208C19.4373 25.5208 23.6248 15.7604 25.0206 12.2083Z" stroke="#45413C" style="stroke:#45413C;stroke:color(display-p3 0.2706 0.2549 0.2353);stroke-opacity:1;" stroke-linecap="round" stroke-linejoin="round"/>
<path d="M29.1457 29.1666C29.1457 28.1996 28.7616 27.2723 28.0778 26.5886C27.3941 25.9049 26.4668 25.5208 25.4998 25.5208C24.5329 25.5208 23.6056 25.9049 22.9218 26.5886C22.2381 27.2723 21.854 28.1996 21.854 29.1666V31.2499C21.854 32.2169 22.2381 33.1442 22.9218 33.8279C23.6056 34.5116 24.5329 34.8958 25.4998 34.8958C26.4668 34.8958 27.3941 34.5116 28.0778 33.8279C28.7616 33.1442 29.1457 32.2169 29.1457 31.2499V29.1666Z" fill="#FF6242" style="fill:#FF6242;fill:color(display-p3 1.0000 0.3843 0.2588);fill-opacity:1;"/>
<path d="M25.4998 33.3333C24.5329 33.3333 23.6056 32.9492 22.9218 32.2655C22.2381 31.5818 21.854 30.6544 21.854 29.6875V31.25C21.854 32.2169 22.2381 33.1443 22.9218 33.828C23.6056 34.5117 24.5329 34.8958 25.4998 34.8958C26.4668 34.8958 27.3941 34.5117 28.0778 33.828C28.7616 33.1443 29.1457 32.2169 29.1457 31.25V29.6875C29.1457 30.6544 28.7616 31.5818 28.0778 32.2655C27.3941 32.9492 26.4668 33.3333 25.4998 33.3333Z" fill="#E04122" style="fill:#E04122;fill:color(display-p3 0.8784 0.2549 0.1333);fill-opacity:1;"/>
<path d="M25.5 25.5208C24.5331 25.5208 23.6057 25.9049 22.922 26.5886C22.2383 27.2723 21.8542 28.1996 21.8542 29.1666V31.2499C21.8487 31.3366 21.8487 31.4236 21.8542 31.5103C21.9234 30.5991 22.3343 29.7476 23.0045 29.1264C23.6747 28.5051 24.5549 28.1599 25.4688 28.1599C26.3826 28.1599 27.2628 28.5051 27.933 29.1264C28.6032 29.7476 29.0141 30.5991 29.0833 31.5103C29.0888 31.4236 29.0888 31.3366 29.0833 31.2499V29.1666C29.0835 28.2104 28.708 27.2924 28.0377 26.6104C27.3674 25.9285 26.4561 25.5371 25.5 25.5208Z" fill="#FF866E" style="fill:#FF866E;fill:color(display-p3 1.0000 0.5255 0.4314);fill-opacity:1;"/>
<path d="M29.1457 29.1666C29.1457 28.1996 28.7616 27.2723 28.0778 26.5886C27.3941 25.9049 26.4668 25.5208 25.4998 25.5208C24.5329 25.5208 23.6056 25.9049 22.9218 26.5886C22.2381 27.2723 21.854 28.1996 21.854 29.1666V31.2499C21.854 32.2169 22.2381 33.1442 22.9218 33.8279C23.6056 34.5116 24.5329 34.8958 25.4998 34.8958C26.4668 34.8958 27.3941 34.5116 28.0778 33.8279C28.7616 33.1442 29.1457 32.2169 29.1457 31.2499V29.1666Z" stroke="#45413C" style="stroke:#45413C;stroke:color(display-p3 0.2706 0.2549 0.2353);stroke-opacity:1;" stroke-linecap="round" stroke-linejoin="round"/>
<path d="M35.3958 30.7291C35.3958 31.2816 35.6153 31.8115 36.006 32.2022C36.3967 32.5929 36.9266 32.8124 37.4792 32.8124C38.0317 32.8124 38.5616 32.5929 38.9523 32.2022C39.343 31.8115 39.5625 31.2816 39.5625 30.7291C39.5625 30.1766 39.343 29.6466 38.9523 29.2559C38.5616 28.8652 38.0317 28.6458 37.4792 28.6458C36.9266 28.6458 36.3967 28.8652 36.006 29.2559C35.6153 29.6466 35.3958 30.1766 35.3958 30.7291ZM11.4375 30.7291C11.4375 31.2816 11.657 31.8115 12.0477 32.2022C12.4384 32.5929 12.9683 32.8124 13.5208 32.8124C14.0734 32.8124 14.6033 32.5929 14.994 32.2022C15.3847 31.8115 15.6042 31.2816 15.6042 30.7291C15.6042 30.1766 15.3847 29.6466 14.994 29.2559C14.6033 28.8652 14.0734 28.6458 13.5208 28.6458C12.9683 28.6458 12.4384 28.8652 12.0477 29.2559C11.657 29.6466 11.4375 30.1766 11.4375 30.7291Z" fill="#FF6242" stroke="#45413C" style="fill:#FF6242;fill:color(display-p3 1.0000 0.3843 0.2588);fill-opacity:1;stroke:#45413C;stroke:color(display-p3 0.2706 0.2549 0.2353);stroke-opacity:1;" stroke-linecap="round" stroke-linejoin="round"/>
<path d="M7.271 38.5416C7.271 42.2812 15.4377 45.3124 25.5002 45.3124C35.5627 45.3124 43.7293 42.2812 43.7293 38.5416V33.3333C43.7293 37.0728 35.5627 40.1041 25.5002 40.1041C15.4377 40.1041 7.271 37.0728 7.271 33.3333V38.5416Z" fill="#C0DCEB" style="fill:#C0DCEB;fill:color(display-p3 0.7529 0.8627 0.9216);fill-opacity:1;"/>
<path d="M25.5002 40.1041C15.4377 40.1041 7.271 37.0728 7.271 33.3333V35.9374C7.271 39.677 15.4377 42.7083 25.5002 42.7083C35.5627 42.7083 43.7293 39.677 43.7293 35.9374V33.3333C43.7293 37.0728 35.5627 40.1041 25.5002 40.1041Z" fill="#E8F4FA" style="fill:#E8F4FA;fill:color(display-p3 0.9098 0.9569 0.9804);fill-opacity:1;"/>
<path d="M7.271 38.5416C7.271 42.2812 15.4377 45.3124 25.5002 45.3124C35.5627 45.3124 43.7293 42.2812 43.7293 38.5416V33.3333C43.7293 37.0728 35.5627 40.1041 25.5002 40.1041C15.4377 40.1041 7.271 37.0728 7.271 33.3333V38.5416Z" stroke="#45413C" style="stroke:#45413C;stroke:color(display-p3 0.2706 0.2549 0.2353);stroke-opacity:1;" stroke-linecap="round" stroke-linejoin="round"/>
<path d="M12.479 13.0209C12.479 13.7116 12.7534 14.374 13.2417 14.8623C13.7301 15.3507 14.3925 15.6251 15.0832 15.6251C15.7738 15.6251 16.4362 15.3507 16.9246 14.8623C17.413 14.374 17.6873 13.7116 17.6873 13.0209C17.6873 12.3302 17.413 11.6679 16.9246 11.1795C16.4362 10.6911 15.7738 10.4167 15.0832 10.4167C14.3925 10.4167 13.7301 10.6911 13.2417 11.1795C12.7534 11.6679 12.479 12.3302 12.479 13.0209Z" fill="#FF6242" style="fill:#FF6242;fill:color(display-p3 1.0000 0.3843 0.2588);fill-opacity:1;"/>
<path d="M13.2398 14.8645C12.7508 14.3755 12.4761 13.7123 12.4761 13.0208C12.4761 12.3292 12.7508 11.666 13.2398 11.177C13.7288 10.688 14.392 10.4133 15.0835 10.4133C15.7751 10.4133 16.4383 10.688 16.9273 11.177L13.2398 14.8645Z" fill="#FF866E" style="fill:#FF866E;fill:color(display-p3 1.0000 0.5255 0.4314);fill-opacity:1;"/>
<path d="M12.479 13.0209C12.479 13.7116 12.7534 14.374 13.2417 14.8623C13.7301 15.3507 14.3925 15.6251 15.0832 15.6251C15.7738 15.6251 16.4362 15.3507 16.9246 14.8623C17.413 14.374 17.6873 13.7116 17.6873 13.0209C17.6873 12.3302 17.413 11.6679 16.9246 11.1795C16.4362 10.6911 15.7738 10.4167 15.0832 10.4167C14.3925 10.4167 13.7301 10.6911 13.2417 11.1795C12.7534 11.6679 12.479 12.3302 12.479 13.0209Z" stroke="#45413C" style="stroke:#45413C;stroke:color(display-p3 0.2706 0.2549 0.2353);stroke-opacity:1;" stroke-linecap="round" stroke-linejoin="round"/>
<path d="M33.3125 13.0209C33.3125 13.7116 33.5869 14.374 34.0752 14.8623C34.5636 15.3507 35.226 15.6251 35.9167 15.6251C36.6073 15.6251 37.2697 15.3507 37.7581 14.8623C38.2465 14.374 38.5208 13.7116 38.5208 13.0209C38.5208 12.3302 38.2465 11.6679 37.7581 11.1795C37.2697 10.6911 36.6073 10.4167 35.9167 10.4167C35.226 10.4167 34.5636 10.6911 34.0752 11.1795C33.5869 11.6679 33.3125 12.3302 33.3125 13.0209Z" fill="#FF6242" style="fill:#FF6242;fill:color(display-p3 1.0000 0.3843 0.2588);fill-opacity:1;"/>
<path d="M34.0728 14.8645C33.5838 14.3755 33.3091 13.7123 33.3091 13.0208C33.3091 12.6784 33.3765 12.3393 33.5076 12.023C33.6386 11.7066 33.8307 11.4192 34.0728 11.177C34.3149 10.9349 34.6024 10.7428 34.9187 10.6118C35.2351 10.4808 35.5741 10.4133 35.9165 10.4133C36.6081 10.4133 37.2713 10.688 37.7603 11.177L34.0728 14.8645Z" fill="#FF866E" style="fill:#FF866E;fill:color(display-p3 1.0000 0.5255 0.4314);fill-opacity:1;"/>
<path d="M33.3125 13.0209C33.3125 13.7116 33.5869 14.374 34.0752 14.8623C34.5636 15.3507 35.226 15.6251 35.9167 15.6251C36.6073 15.6251 37.2697 15.3507 37.7581 14.8623C38.2465 14.374 38.5208 13.7116 38.5208 13.0209C38.5208 12.3302 38.2465 11.6679 37.7581 11.1795C37.2697 10.6911 36.6073 10.4167 35.9167 10.4167C35.226 10.4167 34.5636 10.6911 34.0752 11.1795C33.5869 11.6679 33.3125 12.3302 33.3125 13.0209Z" stroke="#45413C" style="stroke:#45413C;stroke:color(display-p3 0.2706 0.2549 0.2353);stroke-opacity:1;" stroke-linecap="round" stroke-linejoin="round"/>
<path d="M3.104 15.1042C3.104 15.5146 3.18483 15.921 3.34188 16.3001C3.49893 16.6793 3.72911 17.0238 4.0193 17.314C4.30948 17.6041 4.65398 17.8343 5.03312 17.9914C5.41226 18.1484 5.81862 18.2292 6.229 18.2292C6.63938 18.2292 7.04575 18.1484 7.42489 17.9914C7.80403 17.8343 8.14853 17.6041 8.43871 17.314C8.7289 17.0238 8.95908 16.6793 9.11613 16.3001C9.27317 15.921 9.354 15.5146 9.354 15.1042C9.354 14.6939 9.27317 14.2875 9.11613 13.9084C8.95908 13.5292 8.7289 13.1847 8.43871 12.8945C8.14853 12.6044 7.80403 12.3742 7.42489 12.2171C7.04575 12.0601 6.63938 11.9792 6.229 11.9792C5.81862 11.9792 5.41226 12.0601 5.03312 12.2171C4.65398 12.3742 4.30948 12.6044 4.0193 12.8945C3.72911 13.1847 3.49893 13.5292 3.34188 13.9084C3.18483 14.2875 3.104 14.6939 3.104 15.1042Z" fill="#FF6242" style="fill:#FF6242;fill:color(display-p3 1.0000 0.3843 0.2588);fill-opacity:1;"/>
<path d="M4.02084 17.3125C3.46884 16.7201 3.16833 15.9366 3.18262 15.127C3.1969 14.3174 3.52487 13.545 4.09742 12.9724C4.66998 12.3999 5.44241 12.0719 6.252 12.0576C7.06159 12.0433 7.84512 12.3438 8.43751 12.8958L4.02084 17.3125Z" fill="#FF866E" style="fill:#FF866E;fill:color(display-p3 1.0000 0.5255 0.4314);fill-opacity:1;"/>
<path d="M3.104 15.1042C3.104 15.5146 3.18483 15.921 3.34188 16.3001C3.49893 16.6793 3.72911 17.0238 4.0193 17.314C4.30948 17.6041 4.65398 17.8343 5.03312 17.9914C5.41226 18.1484 5.81862 18.2292 6.229 18.2292C6.63938 18.2292 7.04575 18.1484 7.42489 17.9914C7.80403 17.8343 8.14853 17.6041 8.43871 17.314C8.7289 17.0238 8.95908 16.6793 9.11613 16.3001C9.27317 15.921 9.354 15.5146 9.354 15.1042C9.354 14.6939 9.27317 14.2875 9.11613 13.9084C8.95908 13.5292 8.7289 13.1847 8.43871 12.8945C8.14853 12.6044 7.80403 12.3742 7.42489 12.2171C7.04575 12.0601 6.63938 11.9792 6.229 11.9792C5.81862 11.9792 5.41226 12.0601 5.03312 12.2171C4.65398 12.3742 4.30948 12.6044 4.0193 12.8945C3.72911 13.1847 3.49893 13.5292 3.34188 13.9084C3.18483 14.2875 3.104 14.6939 3.104 15.1042Z" stroke="#45413C" style="stroke:#45413C;stroke:color(display-p3 0.2706 0.2549 0.2353);stroke-opacity:1;" stroke-linecap="round" stroke-linejoin="round"/>
<path d="M22.375 9.89575C22.375 10.7246 22.7042 11.5194 23.2903 12.1055C23.8763 12.6915 24.6712 13.0208 25.5 13.0208C26.3288 13.0208 27.1237 12.6915 27.7097 12.1055C28.2958 11.5194 28.625 10.7246 28.625 9.89575C28.625 9.06695 28.2958 8.27209 27.7097 7.68604C27.1237 7.09999 26.3288 6.77075 25.5 6.77075C24.6712 6.77075 23.8763 7.09999 23.2903 7.68604C22.7042 8.27209 22.375 9.06695 22.375 9.89575Z" fill="#FF6242" style="fill:#FF6242;fill:color(display-p3 1.0000 0.3843 0.2588);fill-opacity:1;"/>
<path d="M23.2918 12.1043C22.7398 11.5119 22.4393 10.7283 22.4536 9.91875C22.4679 9.10916 22.7959 8.33672 23.3684 7.76417C23.941 7.19161 24.7134 6.86365 25.523 6.84936C26.3326 6.83508 27.1161 7.13559 27.7085 7.68759L23.2918 12.1043Z" fill="#FF866E" style="fill:#FF866E;fill:color(display-p3 1.0000 0.5255 0.4314);fill-opacity:1;"/>
<path d="M22.375 9.89575C22.375 10.7246 22.7042 11.5194 23.2903 12.1055C23.8763 12.6915 24.6712 13.0208 25.5 13.0208C26.3288 13.0208 27.1237 12.6915 27.7097 12.1055C28.2958 11.5194 28.625 10.7246 28.625 9.89575C28.625 9.06695 28.2958 8.27209 27.7097 7.68604C27.1237 7.09999 26.3288 6.77075 25.5 6.77075C24.6712 6.77075 23.8763 7.09999 23.2903 7.68604C22.7042 8.27209 22.375 9.06695 22.375 9.89575Z" stroke="#45413C" style="stroke:#45413C;stroke:color(display-p3 0.2706 0.2549 0.2353);stroke-opacity:1;" stroke-linecap="round" stroke-linejoin="round"/>
<path d="M41.646 15.1042C41.646 15.933 41.9752 16.7279 42.5613 17.314C43.1473 17.9 43.9422 18.2292 44.771 18.2292C45.5998 18.2292 46.3947 17.9 46.9807 17.314C47.5668 16.7279 47.896 15.933 47.896 15.1042C47.896 14.2754 47.5668 13.4806 46.9807 12.8945C46.3947 12.3085 45.5998 11.9792 44.771 11.9792C43.9422 11.9792 43.1473 12.3085 42.5613 12.8945C41.9752 13.4806 41.646 14.2754 41.646 15.1042Z" fill="#FF6242" style="fill:#FF6242;fill:color(display-p3 1.0000 0.3843 0.2588);fill-opacity:1;"/>
<path d="M42.5625 17.3124C42.2555 17.0263 42.0092 16.6813 41.8384 16.298C41.6676 15.9147 41.5758 15.5008 41.5684 15.0813C41.561 14.6617 41.6381 14.2449 41.7953 13.8558C41.9525 13.4666 42.1864 13.1132 42.4832 12.8164C42.7799 12.5197 43.1334 12.2857 43.5225 12.1286C43.9116 11.9714 44.3284 11.8942 44.748 11.9016C45.1676 11.909 45.5814 12.0009 45.9647 12.1717C46.3481 12.3425 46.6931 12.5887 46.9792 12.8957L42.5625 17.3124Z" fill="#FF866E" style="fill:#FF866E;fill:color(display-p3 1.0000 0.5255 0.4314);fill-opacity:1;"/>
<path d="M41.646 15.1042C41.646 15.933 41.9752 16.7279 42.5613 17.314C43.1473 17.9 43.9422 18.2292 44.771 18.2292C45.5998 18.2292 46.3947 17.9 46.9807 17.314C47.5668 16.7279 47.896 15.933 47.896 15.1042C47.896 14.2754 47.5668 13.4806 46.9807 12.8945C46.3947 12.3085 45.5998 11.9792 44.771 11.9792C43.9422 11.9792 43.1473 12.3085 42.5613 12.8945C41.9752 13.4806 41.646 14.2754 41.646 15.1042Z" stroke="#45413C" style="stroke:#45413C;stroke:color(display-p3 0.2706 0.2549 0.2353);stroke-opacity:1;" stroke-linecap="round" stroke-linejoin="round"/>
</svg>
