<svg width="50" height="50" viewBox="0 0 50 50" fill="none" xmlns="http://www.w3.org/2000/svg">
<path opacity="0.15" d="M9.375 47.3958C9.375 47.8102 11.0212 48.2076 13.9515 48.5006C16.8817 48.7936 20.856 48.9583 25 48.9583C29.144 48.9583 33.1183 48.7936 36.0485 48.5006C38.9788 48.2076 40.625 47.8102 40.625 47.3958C40.625 46.9814 38.9788 46.5839 36.0485 46.2909C33.1183 45.9979 29.144 45.8333 25 45.8333C20.856 45.8333 16.8817 45.9979 13.9515 46.2909C11.0212 46.5839 9.375 46.9814 9.375 47.3958Z" fill="#45413C" style="fill:#45413C;fill:color(display-p3 0.2706 0.2549 0.2353);fill-opacity:1;"/>
<path d="M33.7917 21.7916C32.7501 21.7916 31.7513 22.2053 31.0148 22.9418C30.2783 23.6783 29.8646 24.6772 29.8646 25.7187V33.0103H26.0417C24.4559 33.0103 22.9351 33.6403 21.8138 34.7616C20.6924 35.8829 20.0625 37.4037 20.0625 38.9895C20.0677 39.4163 20.2374 39.8246 20.5362 40.1293C20.8351 40.434 21.2401 40.6115 21.6667 40.6249H33.9375C36.4149 40.625 38.7916 39.6444 40.5483 37.8975C42.3049 36.1506 43.2987 33.7794 43.3125 31.302C43.3166 30.051 43.0731 28.8116 42.596 27.6552C42.1189 26.4988 41.4175 25.4483 40.5325 24.5642C39.6474 23.6801 38.5962 22.98 37.4392 22.5041C36.2823 22.0282 35.0426 21.7861 33.7917 21.7916Z" fill="#FFCEBF" style="fill:#FFCEBF;fill:color(display-p3 1.0000 0.8078 0.7490);fill-opacity:1;"/>
<path d="M43.2606 30.8751C43.1585 28.4321 42.1163 26.123 40.3518 24.4304C38.5873 22.7377 36.237 21.7923 33.7918 21.7917C32.7503 21.7917 31.7514 22.2055 31.015 22.942C30.2785 23.6784 29.8647 24.6773 29.8647 25.7188V33.0105H26.0418C25.143 33.0085 24.2554 33.2098 23.4454 33.5995C22.6355 33.9891 21.9241 34.557 21.3647 35.2605C21.5555 36.0859 22.0171 36.8236 22.676 37.356C23.3349 37.8884 24.1531 38.1848 25.0002 38.198H35.3127C37.3145 38.1969 39.2429 37.4434 40.7151 36.087C42.1874 34.7305 43.0959 32.8702 43.2606 30.8751Z" fill="#FFB59E" style="fill:#FFB59E;fill:color(display-p3 1.0000 0.7098 0.6196);fill-opacity:1;"/>
<path d="M33.7917 21.7916C32.7501 21.7916 31.7513 22.2053 31.0148 22.9418C30.2783 23.6783 29.8646 24.6772 29.8646 25.7187V33.0103H26.0417C24.4559 33.0103 22.9351 33.6403 21.8138 34.7616C20.6924 35.8829 20.0625 37.4037 20.0625 38.9895C20.0677 39.4163 20.2374 39.8246 20.5362 40.1293C20.8351 40.434 21.2401 40.6115 21.6667 40.6249H33.9375C36.4149 40.625 38.7916 39.6444 40.5483 37.8975C42.3049 36.1506 43.2987 33.7794 43.3125 31.302C43.3166 30.051 43.0731 28.8116 42.596 27.6552C42.1189 26.4988 41.4175 25.4483 40.5325 24.5642C39.6474 23.6801 38.5962 22.98 37.4392 22.5041C36.2823 22.0282 35.0426 21.7861 33.7917 21.7916Z" stroke="#45413C" style="stroke:#45413C;stroke:color(display-p3 0.2706 0.2549 0.2353);stroke-opacity:1;" stroke-linecap="round" stroke-linejoin="round"/>
<path d="M40.7708 16.3334C40.7882 15.2328 40.3757 14.1687 39.621 13.3673C38.8663 12.566 37.8289 12.0904 36.7291 12.0417C35.9914 12.0416 35.2616 12.1943 34.5857 12.4901C33.9098 12.7859 33.3025 13.2184 32.8021 13.7605C32.6813 13.8642 32.5383 13.9388 32.3842 13.9787C32.23 14.0185 32.0688 14.0225 31.9129 13.9903C31.757 13.9581 31.6105 13.8906 31.4848 13.793C31.359 13.6954 31.2573 13.5702 31.1875 13.4272C30.7888 12.4845 30.1211 11.6803 29.268 11.1148C28.4149 10.5494 27.4141 10.2478 26.3906 10.2478C25.3671 10.2478 24.3663 10.5494 23.5132 11.1148C22.66 11.6803 21.9924 12.4845 21.5937 13.4272C21.5404 13.5681 21.4542 13.6943 21.3424 13.7952C21.2305 13.8962 21.0962 13.9691 20.9506 14.0078C20.805 14.0465 20.6522 14.0499 20.505 14.0177C20.3578 13.9856 20.2204 13.9189 20.1041 13.823C19.4172 13.2464 18.5905 12.861 17.7073 12.7056C16.824 12.5501 15.9154 12.6301 15.0729 12.9376C14.0868 13.2171 13.2267 13.8271 12.6369 14.6654C12.0471 15.5036 11.7634 16.5192 11.8333 17.5417C11.8419 17.6942 11.8068 17.846 11.7321 17.9792C11.6575 18.1124 11.5463 18.2215 11.4117 18.2937C11.2772 18.3659 11.1248 18.3982 10.9725 18.3868C10.8202 18.3754 10.6743 18.3207 10.5521 18.2292C9.95896 17.7596 9.22526 17.5028 8.46872 17.5001C7.5568 17.5508 6.6992 17.9498 6.07305 18.6148C5.44691 19.2797 5.10006 20.1597 5.10414 21.073V32.5313C5.08744 33.4196 5.40816 34.2811 6.00162 34.9423C6.59509 35.6034 7.41715 36.0149 8.30205 36.0938C8.76078 36.1194 9.2199 36.0509 9.65126 35.8928C10.0826 35.7347 10.4772 35.4901 10.8107 35.1741C11.1442 34.8582 11.4097 34.4774 11.5909 34.0552C11.7722 33.633 11.8653 33.1783 11.8646 32.7188V31.8438C11.8632 32.546 12.0189 33.2396 12.3203 33.8738C12.6217 34.5081 13.0611 35.0669 13.6064 35.5093C14.1516 35.9517 14.789 36.2665 15.4717 36.4308C16.1544 36.595 16.8652 36.6044 17.5521 36.4584C18.6094 36.2095 19.5502 35.6072 20.2188 34.751C20.8874 33.8949 21.2438 32.8363 21.2291 31.7501C21.2291 33.1314 21.7779 34.4562 22.7546 35.4329C23.7314 36.4097 25.0561 36.9584 26.4375 36.9584C27.8188 36.9584 29.1436 36.4097 30.1203 35.4329C31.0971 34.4562 31.6458 33.1314 31.6458 31.7501V31.8438C31.6303 33.0095 32.0479 34.1395 32.8176 35.015C33.5873 35.8905 34.6544 36.4494 35.8125 36.5834C36.4464 36.646 37.0865 36.575 37.6913 36.3752C38.2962 36.1755 38.8526 35.8512 39.3246 35.4234C39.7965 34.9956 40.1737 34.4736 40.4318 33.8912C40.6898 33.3088 40.8231 32.6788 40.8229 32.0417L40.7708 16.3334Z" fill="#FFCEBF" style="fill:#FFCEBF;fill:color(display-p3 1.0000 0.8078 0.7490);fill-opacity:1;"/>
<path d="M40.7707 16.3334C40.788 15.2328 40.3756 14.1687 39.6209 13.3673C38.8662 12.566 37.8288 12.0904 36.729 12.0417C35.9913 12.0416 35.2615 12.1943 34.5856 12.4901C33.9097 12.7859 33.3024 13.2184 32.802 13.7605C32.6812 13.8642 32.5382 13.9388 32.3841 13.9787C32.2299 14.0185 32.0687 14.0225 31.9128 13.9903C31.7569 13.9581 31.6104 13.8906 31.4847 13.793C31.3589 13.6954 31.2572 13.5702 31.1874 13.4272C30.7887 12.4845 30.121 11.6803 29.2679 11.1148C28.4148 10.5494 27.414 10.2478 26.3905 10.2478C25.367 10.2478 24.3662 10.5494 23.5131 11.1148C22.66 11.6803 21.9923 12.4845 21.5936 13.4272C21.5403 13.5681 21.4541 13.6943 21.3423 13.7952C21.2304 13.8962 21.0961 13.9691 20.9505 14.0078C20.8049 14.0465 20.6521 14.0499 20.5049 14.0177C20.3577 13.9856 20.2203 13.9189 20.104 13.823C19.4171 13.2464 18.5904 12.861 17.7072 12.7056C16.8239 12.5501 15.9153 12.6301 15.0728 12.9376C14.0867 13.2171 13.2266 13.8271 12.6368 14.6654C12.047 15.5036 11.7633 16.5192 11.8332 17.5417C11.8418 17.6942 11.8067 17.846 11.732 17.9792C11.6574 18.1124 11.5462 18.2215 11.4116 18.2937C11.2771 18.3659 11.1247 18.3982 10.9724 18.3868C10.8201 18.3754 10.6742 18.3207 10.552 18.2292C9.95887 17.7596 9.22516 17.5028 8.46862 17.5001C7.5567 17.5508 6.6991 17.9498 6.07296 18.6148C5.44681 19.2797 5.09996 20.1597 5.10404 21.073V24.7605C5.11025 23.8605 5.45785 22.9965 6.07659 22.3429C6.69534 21.6894 7.5391 21.2951 8.43737 21.2397C9.19476 21.2374 9.93004 21.4948 10.5207 21.9688C10.6437 22.061 10.7906 22.116 10.9439 22.1271C11.0972 22.1382 11.2505 22.105 11.3855 22.0314C11.5205 21.9579 11.6315 21.8471 11.7054 21.7123C11.7792 21.5775 11.8127 21.4243 11.802 21.2709C11.7337 20.2442 12.0219 19.2255 12.6178 18.3866C13.2137 17.5478 14.0809 16.9403 15.0728 16.6667C15.9148 16.3561 16.8241 16.2744 17.708 16.4299C18.5919 16.5855 19.4187 16.9727 20.104 17.5522C20.2203 17.648 20.3577 17.7148 20.5049 17.7469C20.6521 17.779 20.8049 17.7756 20.9505 17.7369C21.0961 17.6982 21.2304 17.6254 21.3423 17.5244C21.4541 17.4234 21.5403 17.2973 21.5936 17.1563C21.9872 16.2115 22.6504 15.4036 23.5005 14.8335C24.3505 14.2634 25.3497 13.9564 26.3732 13.9508C27.3967 13.9453 28.3992 14.2414 29.2554 14.8022C30.1116 15.3631 30.7836 16.1637 31.1874 17.1042C31.2572 17.2473 31.3589 17.3725 31.4847 17.4701C31.6104 17.5677 31.7569 17.6352 31.9128 17.6674C32.0687 17.6996 32.2299 17.6956 32.3841 17.6558C32.5382 17.6159 32.6812 17.5413 32.802 17.4376C33.3012 16.894 33.9083 16.4604 34.5844 16.1645C35.2606 15.8686 35.991 15.7168 36.729 15.7188C37.8288 15.7675 38.8662 16.243 39.6209 17.0444C40.3756 17.8458 40.788 18.9098 40.7707 20.0105V16.3334Z" fill="#FFDCD1" style="fill:#FFDCD1;fill:color(display-p3 1.0000 0.8627 0.8196);fill-opacity:1;"/>
<path d="M11.8333 31.8855V27.2501M21.2291 31.7292V25.823M31.6458 31.7292V23.573M40.7708 16.3334C40.7882 15.2328 40.3757 14.1687 39.621 13.3673C38.8663 12.566 37.8289 12.0904 36.7291 12.0417C35.9914 12.0416 35.2616 12.1943 34.5857 12.4901C33.9098 12.7859 33.3025 13.2184 32.8021 13.7605C32.6813 13.8642 32.5383 13.9388 32.3842 13.9787C32.23 14.0185 32.0688 14.0225 31.9129 13.9903C31.757 13.9581 31.6105 13.8906 31.4848 13.793C31.359 13.6954 31.2573 13.5702 31.1875 13.4272C30.7888 12.4845 30.1211 11.6803 29.268 11.1148C28.4149 10.5494 27.4141 10.2478 26.3906 10.2478C25.3671 10.2478 24.3663 10.5494 23.5132 11.1148C22.66 11.6803 21.9924 12.4845 21.5937 13.4272C21.5404 13.5681 21.4542 13.6943 21.3424 13.7952C21.2305 13.8962 21.0962 13.9691 20.9506 14.0078C20.805 14.0465 20.6522 14.0499 20.505 14.0177C20.3578 13.9856 20.2204 13.9189 20.1041 13.823C19.4172 13.2464 18.5905 12.861 17.7073 12.7056C16.824 12.5501 15.9154 12.6301 15.0729 12.9376C14.0868 13.2171 13.2267 13.8271 12.6369 14.6654C12.0471 15.5036 11.7634 16.5192 11.8333 17.5417C11.8419 17.6942 11.8068 17.846 11.7321 17.9792C11.6575 18.1124 11.5463 18.2215 11.4117 18.2937C11.2772 18.3659 11.1248 18.3982 10.9725 18.3868C10.8202 18.3754 10.6743 18.3207 10.5521 18.2292C9.95896 17.7596 9.22526 17.5028 8.46872 17.5001C7.5568 17.5508 6.6992 17.9498 6.07305 18.6148C5.44691 19.2797 5.10006 20.1597 5.10414 21.073V32.5313C5.08744 33.4196 5.40816 34.2811 6.00162 34.9423C6.59509 35.6034 7.41715 36.0149 8.30205 36.0938C8.76078 36.1194 9.2199 36.0509 9.65126 35.8928C10.0826 35.7347 10.4772 35.4901 10.8107 35.1741C11.1442 34.8582 11.4097 34.4774 11.5909 34.0552C11.7722 33.633 11.8653 33.1783 11.8646 32.7188V31.8438C11.8632 32.546 12.0189 33.2396 12.3203 33.8738C12.6217 34.5081 13.0611 35.0669 13.6064 35.5093C14.1516 35.9517 14.789 36.2665 15.4717 36.4308C16.1544 36.595 16.8652 36.6044 17.5521 36.4584C18.6094 36.2095 19.5502 35.6072 20.2188 34.751C20.8874 33.8949 21.2438 32.8363 21.2291 31.7501C21.2291 33.1314 21.7779 34.4562 22.7546 35.4329C23.7314 36.4097 25.0561 36.9584 26.4375 36.9584C27.8188 36.9584 29.1436 36.4097 30.1203 35.4329C31.0971 34.4562 31.6458 33.1314 31.6458 31.7501V31.8438C31.6303 33.0095 32.0479 34.1395 32.8176 35.015C33.5873 35.8905 34.6544 36.4494 35.8125 36.5834C36.4464 36.646 37.0864 36.575 37.6913 36.3752C38.2962 36.1755 38.8526 35.8512 39.3246 35.4234C39.7965 34.9956 40.1737 34.4736 40.4318 33.8912C40.6898 33.3088 40.8231 32.6788 40.8229 32.0417L40.7708 16.3334Z" stroke="#45413C" style="stroke:#45413C;stroke:color(display-p3 0.2706 0.2549 0.2353);stroke-opacity:1;" stroke-linecap="round" stroke-linejoin="round"/>
</svg>
