<svg width="52" height="52" viewBox="0 0 52 52" fill="none" xmlns="http://www.w3.org/2000/svg">
<path d="M21.9467 8.47478C21.9467 8.47478 16.01 5.52812 11.4167 10.3489C6.82333 15.1698 8.31833 18.9506 5.17666 20.8573C2.035 22.764 0.637496 28.9606 4.55916 30.7698C5.61291 31.3124 6.78101 31.5954 7.96625 31.5954C9.15148 31.5954 10.3196 31.3124 11.3733 30.7698L21.9467 8.47478Z" fill="#DEBB7E" style="fill:#DEBB7E;fill:color(display-p3 0.8706 0.7333 0.4941);fill-opacity:1;"/>
<path d="M5.17697 24.432C8.2753 22.5254 6.83447 18.7012 11.3736 13.902C12.517 12.6955 13.9762 11.8344 15.5851 11.4168C17.194 10.9993 18.8879 11.0421 20.4736 11.5404L21.9036 8.51787C21.9036 8.51787 16.0103 5.52787 11.417 10.3487C6.82363 15.1695 8.31863 18.9504 5.17697 20.857C4.01875 21.6904 3.13869 22.8537 2.65168 24.1949C2.16467 25.5361 2.09333 26.993 2.44697 28.3754C2.85534 26.7764 3.82408 25.3771 5.17697 24.432Z" fill="#F0D5A8" style="fill:#F0D5A8;fill:color(display-p3 0.9412 0.8353 0.6588);fill-opacity:1;"/>
<path d="M21.9467 8.47478C21.9467 8.47478 16.01 5.52812 11.4167 10.3489C6.82333 15.1698 8.31833 18.9506 5.17666 20.8573C2.035 22.764 0.637496 28.9606 4.55916 30.7698C5.61291 31.3124 6.78101 31.5954 7.96625 31.5954C9.15148 31.5954 10.3196 31.3124 11.3733 30.7698L21.9467 8.47478Z" stroke="#45413C" style="stroke:#45413C;stroke:color(display-p3 0.2706 0.2549 0.2353);stroke-opacity:1;" stroke-linecap="round" stroke-linejoin="round"/>
<path d="M29.5732 8.47478C29.5732 8.47478 35.5641 5.52812 40.1032 10.3489C44.6424 15.1698 43.2016 19.0156 46.2999 20.8789C49.3982 22.7423 50.8391 28.9823 46.9174 30.7914C45.8637 31.334 44.6956 31.6171 43.5103 31.6171C42.3251 31.6171 41.157 31.334 40.1032 30.7914L29.5732 8.47478Z" fill="#DEBB7E" style="fill:#DEBB7E;fill:color(display-p3 0.8706 0.7333 0.4941);fill-opacity:1;"/>
<path d="M46.3432 24.4323C43.2449 22.5256 44.6857 18.7014 40.1466 13.9023C39.0033 12.6957 37.544 11.8346 35.9351 11.4171C34.3262 10.9995 32.6323 11.0423 31.0466 11.5406L29.5732 8.47478C29.5732 8.47478 35.5641 5.52812 40.1032 10.3489C44.6424 15.1698 43.2016 19.0156 46.2999 20.8789C47.4581 21.7124 48.3382 22.8756 48.8252 24.2168C49.3122 25.558 49.3835 27.0149 49.0299 28.3973C48.6427 26.7945 47.6884 25.386 46.3432 24.4323Z" fill="#F0D5A8" style="fill:#F0D5A8;fill:color(display-p3 0.9412 0.8353 0.6588);fill-opacity:1;"/>
<path d="M29.5732 8.47478C29.5732 8.47478 35.5641 5.52812 40.1032 10.3489C44.6424 15.1698 43.2016 19.0156 46.2999 20.8789C49.3982 22.7423 50.8391 28.9823 46.9174 30.7914C45.8637 31.334 44.6956 31.6171 43.5103 31.6171C42.3251 31.6171 41.157 31.334 40.1032 30.7914L29.5732 8.47478Z" stroke="#45413C" style="stroke:#45413C;stroke:color(display-p3 0.2706 0.2549 0.2353);stroke-opacity:1;" stroke-linecap="round" stroke-linejoin="round"/>
<path d="M39.8434 20.8357C39.8434 14.1407 33.4193 7.83569 26.3451 7.83569H25.1426C18.0684 7.85736 11.6768 14.1407 11.6768 20.8357V22.1032C9.32592 23.9882 8.42676 27.1949 8.42676 30.3582C8.42676 36.0565 12.6951 40.1082 18.7184 40.1082H20.8201C22.1967 41.2947 23.9536 41.9473 25.7709 41.9473C27.5883 41.9473 29.3452 41.2947 30.7218 40.1082H32.8234C38.8468 40.1082 43.1151 36.0999 43.1151 30.3582C43.1151 27.1949 42.2376 23.9882 39.8651 22.1032L39.8434 20.8357Z" fill="#F0F0F0" style="fill:#F0F0F0;fill:color(display-p3 0.9412 0.9412 0.9412);fill-opacity:1;"/>
<path d="M39.8434 22.1032V20.8357C39.8434 14.1407 33.4193 7.83569 26.3451 7.83569H25.1426C18.0684 7.85736 11.6768 14.1407 11.6768 20.8357V22.1032L12.5759 19.8715C13.6318 17.3875 15.3758 15.257 17.6022 13.7311C19.8287 12.2052 22.4449 11.3475 25.1426 11.259H26.3776C29.2045 11.3456 31.9406 12.2774 34.2328 13.9343C36.5249 15.5911 38.2679 17.8969 39.2368 20.554L39.8434 22.1032Z" fill="white" style="fill:white;fill-opacity:1;"/>
<path d="M16.4648 25.1905C16.4648 25.6847 16.6612 26.1586 17.0106 26.5081C17.36 26.8575 17.834 27.0538 18.3282 27.0538C18.8224 27.0538 19.2963 26.8575 19.6458 26.5081C19.9952 26.1586 20.1915 25.6847 20.1915 25.1905C20.1915 24.6963 19.9952 24.2223 19.6458 23.8729C19.2963 23.5235 18.8224 23.3271 18.3282 23.3271C17.834 23.3271 17.36 23.5235 17.0106 23.8729C16.6612 24.2223 16.4648 24.6963 16.4648 25.1905Z" fill="#45413C" stroke="#45413C" style="fill:#45413C;fill:color(display-p3 0.2706 0.2549 0.2353);fill-opacity:1;stroke:#45413C;stroke:color(display-p3 0.2706 0.2549 0.2353);stroke-opacity:1;" stroke-linecap="round" stroke-linejoin="round"/>
<path d="M40.6236 32.4056C40.6236 33.0014 39.6161 33.4889 38.3703 33.4889C37.1245 33.4889 36.117 33.0014 36.117 32.4056C36.117 31.8098 37.1245 31.3223 38.3703 31.3223C39.6161 31.3223 40.6236 31.8098 40.6236 32.4056ZM15.4036 32.4056C15.4036 33.0014 14.3961 33.4889 13.1503 33.4889C11.9045 33.4889 10.897 33.0014 10.897 32.4056C10.897 31.8098 11.9045 31.3223 13.1503 31.3223C14.3961 31.3223 15.4036 31.8098 15.4036 32.4056Z" fill="#FF6196" style="fill:#FF6196;fill:color(display-p3 1.0000 0.3804 0.5882);fill-opacity:1;"/>
<path d="M42.01 24.8981C41.5133 23.8116 40.7717 22.855 39.8433 22.1031V20.8356C39.7517 18.6919 39.1434 16.6021 38.0701 14.7441C36.9968 12.8862 35.4904 11.3151 33.6792 10.1648C31.5125 12.039 27.5908 16.2748 27.5908 22.0815C27.5908 30.0548 34.2317 30.8565 38.11 28.8956C39.8588 28.0902 41.2479 26.6663 42.01 24.8981Z" fill="#DEBB7E" style="fill:#DEBB7E;fill:color(display-p3 0.8706 0.7333 0.4941);fill-opacity:1;"/>
<path d="M39.8435 22.103L39.2044 20.5538C38.5323 18.7466 37.5055 17.092 36.1846 15.6874C34.8637 14.2828 33.2753 13.1564 31.5127 12.3747C32.1735 11.5935 32.8982 10.8688 33.6794 10.208C35.2533 11.2572 36.6106 12.5997 37.6769 14.1622C39.2835 16.4846 40.0479 19.2864 39.8435 22.103Z" fill="#F0D5A8" style="fill:#F0D5A8;fill:color(display-p3 0.9412 0.8353 0.6588);fill-opacity:1;"/>
<path d="M39.8434 20.8357C39.8434 14.1407 33.4193 7.83569 26.3451 7.83569H25.1426C18.0684 7.85736 11.6768 14.1407 11.6768 20.8357V22.1032C9.32592 23.9882 8.42676 27.1949 8.42676 30.3582C8.42676 36.0565 12.6951 40.1082 18.7184 40.1082H20.8201C22.1967 41.2947 23.9536 41.9473 25.7709 41.9473C27.5883 41.9473 29.3452 41.2947 30.7218 40.1082H32.8234C38.8468 40.1082 43.1151 36.0999 43.1151 30.3582C43.1151 27.1949 42.2376 23.9882 39.8651 22.1032L39.8434 20.8357Z" stroke="#45413C" style="stroke:#45413C;stroke:color(display-p3 0.2706 0.2549 0.2353);stroke-opacity:1;" stroke-linecap="round" stroke-linejoin="round"/>
<path d="M42.01 24.8981C41.5133 23.8116 40.7717 22.855 39.8433 22.1031V20.8356C39.7517 18.6919 39.1434 16.6021 38.0701 14.7441C36.9968 12.8862 35.4904 11.3151 33.6792 10.1648C31.5125 12.039 27.5908 16.2748 27.5908 22.0815C27.5908 30.0548 34.2317 30.8565 38.11 28.8956C39.8588 28.0902 41.2479 26.6663 42.01 24.8981Z" stroke="#45413C" style="stroke:#45413C;stroke:color(display-p3 0.2706 0.2549 0.2353);stroke-opacity:1;" stroke-linecap="round" stroke-linejoin="round"/>
<path d="M31.3281 25.1905C31.3281 25.4352 31.3763 25.6775 31.47 25.9035C31.5636 26.1296 31.7009 26.335 31.8739 26.5081C32.0469 26.6811 32.2523 26.8183 32.4784 26.912C32.7045 27.0056 32.9468 27.0538 33.1915 27.0538C33.4362 27.0538 33.6785 27.0056 33.9045 26.912C34.1306 26.8183 34.336 26.6811 34.509 26.5081C34.6821 26.335 34.8193 26.1296 34.913 25.9035C35.0066 25.6775 35.0548 25.4352 35.0548 25.1905C35.0548 24.6963 34.8585 24.2223 34.509 23.8729C34.1596 23.5235 33.6856 23.3271 33.1915 23.3271C32.6973 23.3271 32.2233 23.5235 31.8739 23.8729C31.5244 24.2223 31.3281 24.6963 31.3281 25.1905Z" fill="#45413C" stroke="#45413C" style="fill:#45413C;fill:color(display-p3 0.2706 0.2549 0.2353);fill-opacity:1;stroke:#45413C;stroke:color(display-p3 0.2706 0.2549 0.2353);stroke-opacity:1;" stroke-linecap="round" stroke-linejoin="round"/>
<path d="M29.4761 32.0156C29.2703 32.861 28.7979 33.6177 28.1287 34.1737C27.4595 34.7298 26.6291 35.0556 25.7603 35.1031C24.8915 35.0556 24.061 34.7298 23.3918 34.1737C22.7226 33.6177 22.2502 32.861 22.0444 32.0156C22.0444 30.9973 23.7128 30.1631 25.7603 30.1631C27.8078 30.1631 29.4761 30.9864 29.4761 32.0156Z" fill="#656769" style="fill:#656769;fill:color(display-p3 0.3961 0.4039 0.4118);fill-opacity:1;"/>
<path d="M25.7603 31.8854C26.9849 31.7933 28.1973 32.1819 29.1403 32.9687C29.3349 32.6743 29.4505 32.3348 29.4761 31.9829C29.4761 30.9645 27.8078 30.1304 25.7603 30.1304C23.7128 30.1304 22.0444 30.9645 22.0444 31.9829C22.07 32.3348 22.1857 32.6743 22.3803 32.9687C23.3232 32.1819 24.5356 31.7933 25.7603 31.8854Z" fill="#87898C" style="fill:#87898C;fill:color(display-p3 0.5294 0.5373 0.5490);fill-opacity:1;"/>
<path d="M29.4761 32.0156C29.2703 32.861 28.7979 33.6177 28.1287 34.1737C27.4595 34.7298 26.6291 35.0556 25.7603 35.1031C24.8915 35.0556 24.061 34.7298 23.3918 34.1737C22.7226 33.6177 22.2502 32.861 22.0444 32.0156C22.0444 30.9973 23.7128 30.1631 25.7603 30.1631C27.8078 30.1631 29.4761 30.9864 29.4761 32.0156Z" stroke="#45413C" style="stroke:#45413C;stroke:color(display-p3 0.2706 0.2549 0.2353);stroke-opacity:1;" stroke-linecap="round" stroke-linejoin="round"/>
<path d="M20.8091 40.0647V37.5839C23.2032 37.5839 25.7599 35.103 25.7599 35.103C25.7599 35.103 28.3491 37.5839 30.7107 37.5839V40.0647C30.7107 40.0647 30.1474 42.5347 25.7599 42.5347C21.3724 42.5347 20.8091 40.0647 20.8091 40.0647Z" fill="#87898C" stroke="#45413C" style="fill:#87898C;fill:color(display-p3 0.5294 0.5373 0.5490);fill-opacity:1;stroke:#45413C;stroke:color(display-p3 0.2706 0.2549 0.2353);stroke-opacity:1;" stroke-linecap="round" stroke-linejoin="round"/>
<path d="M28.23 38.8513C26.345 38.8513 25.825 39.8047 25.76 39.9347C25.695 39.783 25.175 38.8513 23.29 38.8513C21.405 38.8513 21.1233 41.1697 22.6725 43.358C23.0104 43.8675 23.4692 44.2854 24.0079 44.5745C24.5467 44.8637 25.1486 45.015 25.76 45.015C26.3714 45.015 26.9733 44.8637 27.512 44.5745C28.0507 44.2854 28.5095 43.8675 28.8475 43.358C30.375 41.1697 30.2666 38.8513 28.23 38.8513Z" fill="#FF866E" style="fill:#FF866E;fill:color(display-p3 1.0000 0.5255 0.4314);fill-opacity:1;"/>
<path d="M23.2901 40.173C25.1751 40.173 25.6951 41.1371 25.7601 41.2563C25.8251 41.1155 26.3451 40.173 28.2301 40.173C28.5789 40.1396 28.9284 40.2297 29.2175 40.4278C29.5066 40.6258 29.7169 40.919 29.8118 41.2563C30.0935 39.9021 29.606 38.8513 28.2301 38.8513C26.3451 38.8513 25.8251 39.8047 25.7601 39.9347C25.6951 39.783 25.1751 38.8513 23.2901 38.8513C21.9143 38.8513 21.4268 39.9346 21.7085 41.2563C21.8034 40.919 22.0137 40.6258 22.3028 40.4278C22.5919 40.2297 22.9413 40.1396 23.2901 40.173Z" fill="#FF6242" style="fill:#FF6242;fill:color(display-p3 1.0000 0.3843 0.2588);fill-opacity:1;"/>
<path d="M25.76 39.978V41.9171M28.23 38.8513C26.345 38.8513 25.825 39.8047 25.76 39.9347C25.695 39.783 25.175 38.8513 23.29 38.8513C21.405 38.8513 21.1233 41.1697 22.6725 43.358C23.0104 43.8675 23.4692 44.2854 24.0079 44.5745C24.5467 44.8637 25.1486 45.015 25.76 45.015C26.3714 45.015 26.9733 44.8637 27.512 44.5745C28.0507 44.2854 28.5095 43.8675 28.8475 43.358C30.375 41.1697 30.2666 38.8513 28.23 38.8513Z" stroke="#45413C" style="stroke:#45413C;stroke:color(display-p3 0.2706 0.2549 0.2353);stroke-opacity:1;" stroke-linecap="round" stroke-linejoin="round"/>
<path d="M20.8091 37.5838C20.1358 37.5961 19.4785 37.3783 18.9458 36.9663L20.8091 37.5838ZM30.7108 37.5838C31.3841 37.5961 32.0414 37.3783 32.5741 36.9663L30.7108 37.5838Z" fill="#87898C" style="fill:#87898C;fill:color(display-p3 0.5294 0.5373 0.5490);fill-opacity:1;"/>
<path d="M20.8091 37.5838C20.1358 37.5961 19.4785 37.3783 18.9458 36.9663M30.7108 37.5838C31.3841 37.5961 32.0414 37.3783 32.5741 36.9663" stroke="#45413C" style="stroke:#45413C;stroke:color(display-p3 0.2706 0.2549 0.2353);stroke-opacity:1;" stroke-linecap="round" stroke-linejoin="round"/>
</svg>
