<svg width="48" height="49" viewBox="0 0 48 49" fill="none" xmlns="http://www.w3.org/2000/svg">
<path opacity="0.15" d="M9.5 46.25C9.5 46.4142 9.87505 46.5767 10.6037 46.7284C11.3324 46.88 12.4005 47.0178 13.747 47.1339C15.0934 47.25 16.6919 47.342 18.4511 47.4049C20.2103 47.4677 22.0958 47.5 24 47.5C25.9042 47.5 27.7897 47.4677 29.5489 47.4049C31.3081 47.342 32.9066 47.25 34.253 47.1339C35.5995 47.0178 36.6676 46.88 37.3963 46.7284C38.1249 46.5767 38.5 46.4142 38.5 46.25C38.5 46.0858 38.1249 45.9233 37.3963 45.7716C36.6676 45.62 35.5995 45.4822 34.253 45.3661C32.9066 45.25 31.3081 45.158 29.5489 45.0951C27.7897 45.0323 25.9042 45 24 45C22.0958 45 20.2103 45.0323 18.4511 45.0951C16.6919 45.158 15.0934 45.25 13.747 45.3661C12.4005 45.4822 11.3324 45.62 10.6037 45.7716C9.87505 45.9233 9.5 46.0858 9.5 46.25Z" fill="#45413C" style="fill:#45413C;fill:color(display-p3 0.2706 0.2549 0.2353);fill-opacity:1;"/>
<path d="M33.7001 31.1601C34.1701 29.6501 35.7601 27.1601 37.7801 26.8301L46.0001 25.4301C46.1314 25.4221 46.2559 25.369 46.3525 25.2796C46.4491 25.1903 46.5118 25.0704 46.5301 24.9401C46.5034 24.8181 46.4367 24.7086 46.3407 24.6289C46.2447 24.5492 46.1248 24.5039 46.0001 24.5001L37.8101 23.0901C35.8101 22.7501 34.2001 20.2801 33.7301 18.7701L31.8101 8.09006C31.7458 7.971 31.6505 7.87153 31.5343 7.80221C31.4181 7.73289 31.2854 7.69629 31.1501 7.69629C31.0148 7.69629 30.882 7.73289 30.7658 7.80221C30.6496 7.87153 30.5543 7.971 30.4901 8.09006L28.6001 18.7201C28.1301 20.2301 26.5501 22.7201 24.5201 23.0401L16.3301 24.5001C16.1992 24.5064 16.075 24.5593 15.9797 24.6491C15.8843 24.7389 15.8242 24.8598 15.8101 24.9901C15.8261 25.1195 15.8868 25.2393 15.9818 25.3288C16.0767 25.4182 16.1999 25.4717 16.3301 25.4801L24.5201 26.8801C26.5201 27.2301 28.1301 29.7001 28.6001 31.2101L30.4901 41.8901C30.5543 42.0091 30.6496 42.1086 30.7658 42.1779C30.882 42.2472 31.0148 42.2838 31.1501 42.2838C31.2854 42.2838 31.4181 42.2472 31.5343 42.1779C31.6505 42.1086 31.7458 42.0091 31.8101 41.8901L33.7001 31.1601Z" fill="#FFE500" style="fill:#FFE500;fill:color(display-p3 1.0000 0.8980 0.0000);fill-opacity:1;"/>
<path d="M45.9999 24.5001L37.8099 23.0901C35.8099 22.7501 34.1999 20.2801 33.7299 18.7701L31.8099 8.09006C31.7456 7.971 31.6503 7.87153 31.5342 7.80221C31.418 7.73289 31.2852 7.69629 31.1499 7.69629C31.0146 7.69629 30.8818 7.73289 30.7656 7.80221C30.6494 7.87153 30.5541 7.971 30.4899 8.09006L29.8799 11.5001L31.6999 21.7801C32.1699 23.2901 33.7599 25.7801 35.7799 26.1001L38.9199 26.6401L45.9199 25.4301C46.0512 25.4221 46.1757 25.369 46.2723 25.2796C46.3689 25.1903 46.4317 25.0704 46.4499 24.9401C46.4276 24.8301 46.3728 24.7293 46.2925 24.6509C46.2123 24.5724 46.1103 24.5199 45.9999 24.5001Z" fill="#FFF48C" style="fill:#FFF48C;fill:color(display-p3 1.0000 0.9569 0.5490);fill-opacity:1;"/>
<path d="M33.7001 31.1601C34.1701 29.6501 35.7601 27.1601 37.7801 26.8301L46.0001 25.4301C46.1314 25.4221 46.2559 25.369 46.3525 25.2796C46.4491 25.1903 46.5118 25.0704 46.5301 24.9401C46.5034 24.8181 46.4367 24.7086 46.3407 24.6289C46.2447 24.5492 46.1248 24.5039 46.0001 24.5001L37.8101 23.0901C35.8101 22.7501 34.2001 20.2801 33.7301 18.7701L31.8101 8.09006C31.7458 7.971 31.6505 7.87153 31.5343 7.80221C31.4181 7.73289 31.2854 7.69629 31.1501 7.69629C31.0148 7.69629 30.882 7.73289 30.7658 7.80221C30.6496 7.87153 30.5543 7.971 30.4901 8.09006L28.6001 18.7201C28.1301 20.2301 26.5501 22.7201 24.5201 23.0401L16.3301 24.5001C16.1992 24.5064 16.075 24.5593 15.9797 24.6491C15.8843 24.7389 15.8242 24.8598 15.8101 24.9901C15.8261 25.1195 15.8868 25.2393 15.9818 25.3288C16.0767 25.4182 16.1999 25.4717 16.3301 25.4801L24.5201 26.8801C26.5201 27.2301 28.1301 29.7001 28.6001 31.2101L30.4901 41.8901C30.5543 42.0091 30.6496 42.1086 30.7658 42.1779C30.882 42.2472 31.0148 42.2838 31.1501 42.2838C31.2854 42.2838 31.4181 42.2472 31.5343 42.1779C31.6505 42.1086 31.7458 42.0091 31.8101 41.8901L33.7001 31.1601Z" stroke="#45413C" style="stroke:#45413C;stroke:color(display-p3 0.2706 0.2549 0.2353);stroke-opacity:1;" stroke-linecap="round" stroke-linejoin="round"/>
<path d="M14.6199 16.77C14.8799 15.95 15.7499 14.6 16.8599 14.41L21.3499 13.65C21.5199 13.65 21.6399 13.51 21.6399 13.38C21.6399 13.25 21.5199 13.14 21.3499 13.11L16.8599 12.35C16.3261 12.1654 15.8443 11.8557 15.4546 11.4469C15.0649 11.0381 14.7787 10.542 14.6199 9.99997L13.6199 4.20997C13.589 4.14195 13.5378 4.0852 13.4733 4.04758C13.4088 4.00995 13.3342 3.99331 13.2599 3.99997C13.1857 3.99475 13.1117 4.012 13.0475 4.04946C12.9833 4.08692 12.9318 4.14285 12.8999 4.20997L11.8999 9.99997C11.7425 10.5427 11.4569 11.0396 11.067 11.4486C10.6771 11.8577 10.1944 12.1668 9.65986 12.35L5.17986 13.11C5.00986 13.11 4.88986 13.25 4.88986 13.38C4.88986 13.51 5.00986 13.62 5.17986 13.65L9.65986 14.41C10.7799 14.6 11.6599 15.95 11.8999 16.77L12.8999 22.58C12.9291 22.6498 12.9796 22.7087 13.0443 22.7482C13.1089 22.7877 13.1843 22.8058 13.2599 22.8C13.3356 22.8074 13.4118 22.79 13.4767 22.7503C13.5417 22.7106 13.592 22.6508 13.6199 22.58L14.6199 16.77ZM9.99986 35.33C10.1093 34.9604 10.3065 34.6228 10.5747 34.3459C10.8428 34.0691 11.174 33.8612 11.5399 33.74L14.6199 33.23C14.6477 33.2365 14.6767 33.2366 14.7047 33.2304C14.7326 33.2241 14.7588 33.2116 14.7812 33.1938C14.8037 33.1761 14.8218 33.1534 14.8342 33.1276C14.8467 33.1019 14.8532 33.0736 14.8532 33.045C14.8532 33.0163 14.8467 32.9881 14.8342 32.9623C14.8218 32.9365 14.8037 32.9139 14.7812 32.8961C14.7588 32.8783 14.7326 32.8658 14.7047 32.8596C14.6767 32.8533 14.6477 32.8534 14.6199 32.86L11.5399 32.35C11.1748 32.2273 10.8445 32.0189 10.5765 31.7422C10.3086 31.4656 10.1108 31.1288 9.99986 30.76L9.28986 26.86C9.26426 26.8164 9.22773 26.7803 9.18388 26.7552C9.14003 26.7301 9.09038 26.7169 9.03986 26.7169C8.98934 26.7169 8.9397 26.7301 8.89585 26.7552C8.852 26.7803 8.81547 26.8164 8.78986 26.86L8.07986 30.76C7.96913 31.1273 7.77265 31.463 7.50663 31.7395C7.24061 32.016 6.91267 32.2252 6.54986 32.35L3.45986 32.86C3.43199 32.8534 3.40299 32.8533 3.37505 32.8596C3.34711 32.8658 3.32094 32.8783 3.29851 32.8961C3.27608 32.9139 3.25795 32.9365 3.24549 32.9623C3.23303 32.9881 3.22656 33.0163 3.22656 33.045C3.22656 33.0736 3.23303 33.1019 3.24549 33.1276C3.25795 33.1534 3.27608 33.1761 3.29851 33.1938C3.32094 33.2116 3.34711 33.2241 3.37505 33.2304C3.40299 33.2366 3.43199 33.2365 3.45986 33.23L6.53986 33.74C6.90574 33.8612 7.23688 34.0691 7.50503 34.3459C7.77319 34.6228 7.9704 34.9604 8.07986 35.33L8.78986 39.25C8.81547 39.2935 8.852 39.3296 8.89585 39.3547C8.9397 39.3798 8.98934 39.393 9.03986 39.393C9.09038 39.393 9.14003 39.3798 9.18388 39.3547C9.22773 39.3296 9.26426 39.2935 9.28986 39.25L9.99986 35.33Z" fill="#FFE500" stroke="#45413C" style="fill:#FFE500;fill:color(display-p3 1.0000 0.8980 0.0000);fill-opacity:1;stroke:#45413C;stroke:color(display-p3 0.2706 0.2549 0.2353);stroke-opacity:1;" stroke-linecap="round" stroke-linejoin="round"/>
</svg>
