<svg width="185" height="103" viewBox="0 0 205 103" fill="none" xmlns="http://www.w3.org/2000/svg">
<g filter="url(#filter0_f_1666_22465)">
<path d="M87.876 -9H119.205L110.334 67.1069H98.0259L87.876 -9Z" fill="url(#paint0_linear_1666_22465)" style=""/>
</g>
<g filter="url(#filter1_f_1666_22465)">
<path d="M140.301 2.74121L166.396 17.7219L113.455 72.731L103.204 66.8457L140.301 2.74121Z" fill="url(#paint1_linear_1666_22465)" style=""/>
</g>
<g filter="url(#filter2_f_1666_22465)">
<path d="M182.5 53.5708L182.5 80.6433L100.181 72.9774L100.181 62.3417L182.5 53.5708Z" fill="url(#paint2_linear_1666_22465)" style=""/>
</g>
<g filter="url(#filter3_f_1666_22465)">
<path d="M32.4111 28.5137L54.5641 9.37052L106.499 65.0908L97.7963 72.6113L32.4111 28.5137Z" fill="url(#paint3_linear_1666_22465)" style=""/>
</g>
<g filter="url(#filter4_f_1666_22465)">
<path d="M22.5 77.8389L24.2299 50.8077L105.933 62.3897L105.253 73.0091L22.5 77.8389Z" fill="url(#paint4_linear_1666_22465)" style=""/>
</g>
<g filter="url(#filter5_d_1666_22465)">
<path d="M104.668 81.7149C131.315 81.7149 152.915 76.106 152.915 69.1836C152.915 62.2613 131.315 56.6523 104.668 56.6523C78.0216 56.6523 56.4219 62.2613 56.4219 69.1836C56.4219 76.106 78.0216 81.7149 104.668 81.7149Z" fill="#1B1E1E" style="fill:#1B1E1E;fill:color(display-p3 0.1059 0.1176 0.1176);fill-opacity:1;"/>
<path d="M104.668 57.0459C131.08 57.0459 152.494 62.483 152.494 69.1877C152.494 75.8925 131.08 81.3295 104.668 81.3295C78.2562 81.3295 56.8428 75.8925 56.8428 69.1877C56.8428 62.483 78.2562 57.0459 104.668 57.0459ZM104.668 56.2632C91.8217 56.2632 79.7312 57.5346 70.6317 59.8446C58.5375 62.9145 56.001 66.6181 56.001 69.1839C56.001 71.7497 58.5375 75.4534 70.6317 78.5232C79.7349 80.8332 91.8217 82.1085 104.668 82.1085C117.515 82.1085 129.605 80.837 138.709 78.5232C150.799 75.4534 153.339 71.7497 153.339 69.1839C153.339 66.6181 150.803 62.9145 138.709 59.8446C129.605 57.5346 117.519 56.2632 104.668 56.2632Z" fill="black" style="fill:black;fill-opacity:1;"/>
<g opacity="0.46">
<path d="M104.665 75.8425C129.449 75.8425 149.54 71.8983 149.54 67.0301C149.54 62.162 129.449 58.2178 104.665 58.2178C79.8802 58.2178 59.7891 62.162 59.7891 67.0301C59.7891 71.8983 79.8802 75.8425 104.665 75.8425Z" fill="black" style="fill:black;fill-opacity:1;"/>
</g>
<path d="M56.8682 69.5728C56.6484 69.5728 56.4622 69.4163 56.4473 69.2101V44.9035C56.4473 44.8577 56.4547 44.8081 56.4733 44.7661C58.5704 39.5161 67.871 38.3324 68.2658 38.2866H68.3217C68.4223 38.2866 68.5228 38.321 68.6011 38.3859C68.6942 38.4584 68.7426 38.5653 68.7426 38.6799V62.891C68.7426 63.0857 68.5862 63.2499 68.3813 63.2804C57.8217 64.6512 57.3151 68.6259 57.2891 69.107V69.1948C57.2891 69.4048 57.1103 69.5728 56.8831 69.5843H56.8644L56.8682 69.5728Z" fill="#1D1E1E" style="fill:#1D1E1E;fill:color(display-p3 0.1137 0.1176 0.1176);fill-opacity:1;"/>
<path d="M104.449 80.1494C97.5168 80.1494 90.7527 77.7897 85.404 73.4943C83.1953 71.7226 80.3943 70.749 77.5113 70.749H77.0904V70.3557C77.0904 66.4459 73.4924 63.273 69.0674 63.273H68.6465V38.2792H69.0674C73.4924 38.2792 77.0904 35.0986 77.0904 31.1965V30.8032H77.5113C80.3943 30.8032 83.1953 29.8296 85.404 28.0579C90.7527 23.7663 97.5131 21.4028 104.449 21.4028C111.384 21.4028 118.144 23.7625 123.493 28.0579C125.702 29.8296 128.503 30.8032 131.386 30.8032H132.25V31.1965C132.25 35.1063 135.848 38.2792 140.273 38.2792H140.694V63.273H140.273C135.848 63.273 132.25 66.4536 132.25 70.3557V70.749H131.386C128.503 70.749 125.702 71.7226 123.493 73.4943C118.141 77.7859 111.38 80.1494 104.449 80.1494Z" fill="#A5874A" style="fill:#A5874A;fill:color(display-p3 0.6471 0.5294 0.2902);fill-opacity:1;"/>
<path d="M104.448 21.7998C111.574 21.7998 118.111 24.2587 123.221 28.3595C125.467 30.1616 128.357 31.2002 131.393 31.2002H131.836C131.836 35.3276 135.617 38.6762 140.28 38.6762V62.8873C135.617 62.8873 131.836 66.2358 131.836 70.3633H131.393C128.365 70.3633 125.474 71.4056 123.221 73.204C118.111 77.3009 111.574 79.7636 104.448 79.7636C97.323 79.7636 90.7861 77.3047 85.6757 73.204C83.4297 71.4018 80.5394 70.3633 77.5037 70.3633C77.5037 66.2358 73.7231 62.8873 69.0597 62.8873V38.6762C73.7231 38.6762 77.5037 35.3276 77.5037 31.2002C80.5319 31.2002 83.4223 30.1578 85.6757 28.3595C90.7861 24.2625 97.323 21.7998 104.448 21.7998ZM104.448 21.0171C97.4161 21.0171 90.5514 23.4149 85.1245 27.7638C82.9939 29.4705 80.2861 30.4136 77.5074 30.4136H76.6656V31.1964C76.6656 34.8847 73.2575 37.8896 69.0635 37.8896H68.2217V63.6662H69.0635C73.2575 63.6662 76.6656 66.6711 76.6656 70.3595V71.1422H77.5074C80.2898 71.1422 82.9939 72.0815 85.1245 73.792C90.5514 78.1447 97.4161 80.5387 104.448 80.5387C111.481 80.5387 118.345 78.1409 123.772 73.792C125.903 72.0853 128.611 71.1422 131.389 71.1422H132.674V70.3595C132.674 66.6711 136.082 63.6662 140.277 63.6662H141.118V37.8896H140.277C136.082 37.8896 132.674 34.8847 132.674 31.1964V30.4136H131.389C128.607 30.4136 125.903 29.4744 123.772 27.7638C118.342 23.4111 111.481 21.0171 104.448 21.0171Z" fill="black" style="fill:black;fill-opacity:1;"/>
<path d="M104.456 74.6665C118.651 74.6665 130.161 63.9717 130.161 50.7761C130.161 37.5805 118.651 26.8857 104.456 26.8857C90.2614 26.8857 78.752 37.5805 78.752 50.7761C78.752 63.9717 90.2614 74.6665 104.456 74.6665Z" fill="#D6CA85" style="fill:#D6CA85;fill:color(display-p3 0.8392 0.7922 0.5216);fill-opacity:1;"/>
<path d="M129.568 32.3915L131.289 31.1926C128.298 31.1697 125.441 30.135 123.221 28.3519C122.637 27.8823 122.029 27.4355 121.407 27.0117L99.3831 79.3284C101.029 79.6072 102.724 79.7561 104.452 79.7561C111.578 79.7561 118.115 77.2972 123.225 73.1964C125.471 71.3943 128.361 70.3557 131.397 70.3557H131.84L129.576 68.3779V32.3915H129.572H129.568Z" fill="#936B3E" style="fill:#936B3E;fill:color(display-p3 0.5765 0.4196 0.2431);fill-opacity:1;"/>
<path d="M104.404 76.6248C98.2243 76.6248 92.2014 74.5171 87.4263 70.6913C85.3516 69.0304 82.7518 68.0797 80.0551 67.9919C79.8353 64.2921 76.4793 61.3139 72.3076 61.123V39.638C76.4793 39.451 79.839 36.4728 80.0551 32.7691C82.7518 32.6813 85.3553 31.7306 87.4263 30.0697C92.1977 26.2439 98.2243 24.1362 104.404 24.1362C110.583 24.1362 116.606 26.2439 121.377 30.0697C123.552 31.8108 126.316 32.7768 129.154 32.7768C129.378 36.4766 132.73 39.451 136.902 39.638V61.123C132.73 61.3101 129.374 64.2844 129.154 67.9842C126.316 67.9842 123.549 68.9464 121.377 70.6913C116.606 74.5171 110.579 76.6248 104.404 76.6248Z" fill="#C9A753" style="fill:#C9A753;fill:color(display-p3 0.7882 0.6549 0.3255);fill-opacity:1;"/>
<path d="M104.404 24.5409C110.479 24.5409 116.408 26.6142 121.102 30.3751C123.254 32.1009 125.959 33.086 128.767 33.17C129.18 36.782 132.421 39.6571 136.481 40.0084V60.7602C132.417 61.1115 129.177 63.9904 128.767 67.5986C125.966 67.6864 123.254 68.6677 121.102 70.3935C116.408 74.1582 110.479 76.2277 104.404 76.2277C98.3286 76.2277 92.3988 74.1544 87.7056 70.3935C85.657 68.7517 83.1093 67.7818 80.4499 67.6177C80.0513 63.998 76.7996 61.1115 72.736 60.7602V40.0084C76.8071 39.6571 80.0513 36.7706 80.4499 33.1509C83.1093 32.9868 85.657 32.0169 87.7056 30.3751C92.3988 26.6104 98.3286 24.5409 104.404 24.5409ZM104.404 23.7544C97.8555 23.7544 91.8513 26.0148 87.1507 29.7795C85.0872 31.4366 82.4277 32.3911 79.6453 32.3911C79.6453 36.1864 76.1739 39.26 71.8867 39.26V61.5086C76.1739 61.5086 79.6453 64.5822 79.6453 68.3775C82.4314 68.3775 85.0909 69.332 87.1507 70.9891C91.8475 74.7577 97.8555 77.0142 104.404 77.0142C110.952 77.0142 116.956 74.7538 121.653 70.9891C123.716 69.332 126.376 68.3775 129.158 68.3775H129.564C129.564 64.5822 133.036 61.5086 137.323 61.5086V39.26C133.036 39.26 129.564 36.1864 129.564 32.3911H129.158C126.372 32.3911 123.713 31.4366 121.653 29.7795C116.956 26.0109 110.952 23.7544 104.404 23.7544Z" fill="#EACC81" style="fill:#EACC81;fill:color(display-p3 0.9176 0.8000 0.5059);fill-opacity:1;"/>
<path d="M140.273 62.8839L137.327 61.5094V39.2647L140.273 38.6729V62.8839Z" fill="#936B3E" style="fill:#936B3E;fill:color(display-p3 0.5765 0.4196 0.2431);fill-opacity:1;"/>
<path d="M69.0596 38.6729L71.8866 39.2647V61.5094L69.0596 62.8839V38.6729Z" fill="#936B3E" style="fill:#936B3E;fill:color(display-p3 0.5765 0.4196 0.2431);fill-opacity:1;"/>
<path d="M152.553 69.573C152.326 69.5654 152.147 69.3936 152.147 69.1836V69.0958C152.124 68.6147 151.622 64.6399 141.058 63.2692C140.85 63.2425 140.697 63.0783 140.697 62.8798V38.6687C140.697 38.5541 140.749 38.451 140.839 38.3747C140.913 38.3136 141.017 38.2754 141.118 38.2754H141.174C141.569 38.3212 150.869 39.5048 152.97 44.7548C152.985 44.7968 152.996 44.8465 152.996 44.8923V69.1988C152.977 69.4012 152.795 69.5616 152.575 69.5616H152.56L152.553 69.573Z" fill="#1D1E1E" style="fill:#1D1E1E;fill:color(display-p3 0.1137 0.1176 0.1176);fill-opacity:1;"/>
<path d="M104.466 76.6292C98.2868 76.6292 92.2639 74.5215 87.4888 70.6957C85.4141 69.0348 82.8142 68.0841 80.1175 67.9963C79.8978 64.2964 76.5418 61.3183 72.3701 61.1274V39.6424C76.5418 39.4554 79.9015 36.4772 80.1175 32.7735C82.8142 32.6857 85.4178 31.735 87.4888 30.0741C92.2602 26.2483 98.2868 24.1406 104.466 24.1406C110.645 24.1406 116.668 26.2483 121.44 30.0741C123.615 31.8152 126.379 32.7812 129.217 32.7812C129.44 36.481 132.793 39.4554 136.964 39.6424V61.1274C132.793 61.3144 129.437 64.2888 129.217 67.9886C126.379 67.9886 123.611 68.9508 121.44 70.6957C116.668 74.5215 110.642 76.6292 104.466 76.6292Z" fill="black" style="fill:black;fill-opacity:1;"/>
<path d="M104.578 76.6521C98.3991 76.6521 92.3762 74.5445 87.6011 70.7187C85.5264 69.0578 82.9266 68.107 80.2299 68.0192C80.0101 64.3194 76.6541 61.3412 72.4824 61.1503V39.6654C76.6541 39.4783 80.0138 36.5001 80.2299 32.7965C82.9266 32.7087 85.5301 31.7579 87.6011 30.097C92.3725 26.2712 98.3991 24.1636 104.578 24.1636C110.758 24.1636 116.781 26.2712 121.552 30.097C123.727 31.8381 126.491 32.8041 129.329 32.8041C129.553 36.5039 132.905 39.4783 137.077 39.6654V61.1503C132.905 61.3374 129.549 64.3118 129.329 68.0116C126.491 68.0116 123.723 68.9738 121.552 70.7187C116.781 74.5445 110.754 76.6521 104.578 76.6521Z" fill="black" style="fill:black;fill-opacity:1;"/>
<g opacity="0.6">
<mask id="mask0_1666_22465" style="mask-type:luminance" maskUnits="userSpaceOnUse" x="72" y="24" width="66" height="53">
<path d="M104.579 76.6521C98.4 76.6521 92.3772 74.5445 87.6021 70.7187C85.5274 69.0578 82.9275 68.107 80.2308 68.0192C80.0111 64.3194 76.6551 61.3412 72.4834 61.1503V39.6654C76.6551 39.4783 80.0148 36.5001 80.2308 32.7965C82.9275 32.7087 85.5311 31.7579 87.6021 30.097C92.3734 26.2712 98.4 24.1636 104.579 24.1636C110.759 24.1636 116.782 26.2712 121.553 30.097C123.728 31.8381 126.492 32.8041 129.33 32.8041C129.554 36.5039 132.906 39.4783 137.078 39.6654V61.1503C132.906 61.3374 129.55 64.3118 129.33 68.0116C126.492 68.0116 123.724 68.9738 121.553 70.7187C116.782 74.5445 110.755 76.6521 104.579 76.6521Z" fill="white" style="fill:white;fill-opacity:1;"/>
</mask>
<g mask="url(#mask0_1666_22465)">
<path d="M103.703 5.43896L67.1561 69.6799L67.0928 72.784L114.464 5.66806L103.703 5.43896Z" fill="#FF0080" style="fill:#FF0080;fill:color(display-p3 1.0000 0.0000 0.5020);fill-opacity:1;"/>
<path d="M67.4049 57.6494L91.1947 18.9521L67.2969 62.8918L67.4049 57.6494Z" fill="#F4FA23" style="fill:#F4FA23;fill:color(display-p3 0.9569 0.9804 0.1373);fill-opacity:1;"/>
<path d="M67.6406 46.2015L67.7933 38.7331L78.8483 16.939L87.5195 18.871L67.6406 46.2015Z" fill="#FF0080" style="fill:#FF0080;fill:color(display-p3 1.0000 0.0000 0.5020);fill-opacity:1;"/>
<path d="M113.343 87.9193L141.491 38.4395L141.539 36.0493L105.056 87.7399L113.343 87.9193Z" fill="#FF0080" style="fill:#FF0080;fill:color(display-p3 1.0000 0.0000 0.5020);fill-opacity:1;"/>
<path d="M141.301 47.7062L122.976 77.511L141.383 43.6704L141.301 47.7062Z" fill="#F4FA23" style="fill:#F4FA23;fill:color(display-p3 0.9569 0.9804 0.1373);fill-opacity:1;"/>
<path d="M141.118 56.5225L140.999 62.2765L132.484 79.0612L125.806 77.5721L141.118 56.5225Z" fill="#FF0080" style="fill:#FF0080;fill:color(display-p3 1.0000 0.0000 0.5020);fill-opacity:1;"/>
<path d="M140.54 84.6166L119.086 78.0989L126.953 74.9795L126.04 76.8313L122.01 77.7897L140.607 81.478L140.54 84.6166Z" fill="#F4FA23" style="fill:#F4FA23;fill:color(display-p3 0.9569 0.9804 0.1373);fill-opacity:1;"/>
<path d="M140.66 78.8669L135.158 76.6523L140.764 73.7085L140.522 74.6745L137.576 76.2209L140.686 77.5954L140.66 78.8669Z" fill="#F4FA23" style="fill:#F4FA23;fill:color(display-p3 0.9569 0.9804 0.1373);fill-opacity:1;"/>
<path d="M113.787 64.2391L141.934 14.7593L141.983 12.3691L105.499 64.0597L113.787 64.2391Z" fill="#FF0080" style="fill:#FF0080;fill:color(display-p3 1.0000 0.0000 0.5020);fill-opacity:1;"/>
<path d="M141.745 24.0261L123.423 53.8308L141.826 19.9902L141.745 24.0261Z" fill="#F4FA23" style="fill:#F4FA23;fill:color(display-p3 0.9569 0.9804 0.1373);fill-opacity:1;"/>
<path d="M99.4685 36.9692L71.3207 86.4491L71.2686 88.8392L107.756 37.1449L99.4685 36.9692Z" fill="#FF0080" style="fill:#FF0080;fill:color(display-p3 1.0000 0.0000 0.5020);fill-opacity:1;"/>
<path d="M71.5105 77.1821L89.8324 47.3735L71.4248 81.2179L71.5105 77.1821Z" fill="#F4FA23" style="fill:#F4FA23;fill:color(display-p3 0.9569 0.9804 0.1373);fill-opacity:1;"/>
</g>
</g>
<g opacity="0.44">
<mask id="mask1_1666_22465" style="mask-type:luminance" maskUnits="userSpaceOnUse" x="57" y="38" width="13" height="32">
<path d="M57.4277 69.9229C57.208 69.9229 57.0217 69.7664 57.0068 69.5602V45.2536C57.0068 45.2078 57.0143 45.1582 57.0329 45.1162C59.1299 39.8662 68.4306 38.6825 68.8254 38.6367H68.8813C68.9818 38.6367 69.0824 38.6711 69.1606 38.736C69.2537 38.8085 69.3022 38.9154 69.3022 39.03V63.2411C69.3022 63.4358 69.1457 63.6 68.9409 63.6305C58.3813 65.0013 57.8747 68.976 57.8486 69.4571V69.5449C57.8486 69.7549 57.6698 69.9229 57.4426 69.9344H57.424L57.4277 69.9229Z" fill="white" style="fill:white;fill-opacity:1;"/>
</mask>
<g mask="url(#mask1_1666_22465)">
<path d="M61.8601 63.6769H60.0312L66.1361 52.6309H68.1698V53.1921L67.1753 53.3181L61.8601 63.6769Z" fill="#FF0080" style="fill:#FF0080;fill:color(display-p3 1.0000 0.0000 0.5020);fill-opacity:1;"/>
<path d="M65.0967 63.6771L68.5346 57.5107V60.5958L66.8175 63.6771H65.0967Z" fill="#FF0080" style="fill:#FF0080;fill:color(display-p3 1.0000 0.0000 0.5020);fill-opacity:1;"/>
<path d="M62.8545 63.677H63.8155L68.1697 55.4144V53.8643L62.8545 63.677Z" fill="#F4FA23" style="fill:#F4FA23;fill:color(display-p3 0.9569 0.9804 0.1373);fill-opacity:1;"/>
<path d="M68.17 51.894L60.4709 52.2682L68.17 50.5806V51.894Z" fill="#FF0080" style="fill:#FF0080;fill:color(display-p3 1.0000 0.0000 0.5020);fill-opacity:1;"/>
<path d="M59.6475 51.7986L68.1697 36.0715V35.3193L57.0439 51.7986H59.6475Z" fill="#FF0080" style="fill:#FF0080;fill:color(display-p3 1.0000 0.0000 0.5020);fill-opacity:1;"/>
<path d="M68.1712 38.9811L62.6064 48.4655L68.1712 37.7173V38.9811Z" fill="#F4FA23" style="fill:#F4FA23;fill:color(display-p3 0.9569 0.9804 0.1373);fill-opacity:1;"/>
<path d="M68.1699 41.7529V43.5589L65.6036 48.8891L63.4954 48.4653L68.1699 41.7529Z" fill="#FF0080" style="fill:#FF0080;fill:color(display-p3 1.0000 0.0000 0.5020);fill-opacity:1;"/>
<path d="M68.1694 50.5807L61.3867 48.6793L63.8376 47.6445L63.562 48.2325L62.303 48.5609L68.1694 49.5918V50.5807Z" fill="#F4FA23" style="fill:#F4FA23;fill:color(display-p3 0.9569 0.9804 0.1373);fill-opacity:1;"/>
<path d="M68.1699 48.7713L66.4268 48.1145L68.1699 47.1523L68.0992 47.4578L67.1829 47.9618L68.1699 48.3742V48.7713Z" fill="#F4FA23" style="fill:#F4FA23;fill:color(display-p3 0.9569 0.9804 0.1373);fill-opacity:1;"/>
</g>
</g>
<g opacity="0.44">
<mask id="mask2_1666_22465" style="mask-type:luminance" maskUnits="userSpaceOnUse" x="139" y="38" width="14" height="32">
<path d="M151.82 69.9246C151.592 69.917 151.413 69.749 151.413 69.5351V69.4473C151.387 68.9662 150.881 64.9915 140.321 63.6208C140.116 63.594 139.96 63.4299 139.96 63.2313V39.0202C139.96 38.9057 140.012 38.8026 140.102 38.7262C140.176 38.6651 140.28 38.627 140.381 38.627H140.437C140.832 38.6728 150.132 39.8564 152.229 45.1064C152.248 45.1484 152.255 45.198 152.255 45.2439V69.4206C152.255 69.5084 152.255 69.5504 152.255 69.5504C152.237 69.7566 152.054 69.9131 151.834 69.9131H151.816L151.82 69.9246Z" fill="white" style="fill:white;fill-opacity:1;"/>
</mask>
<g mask="url(#mask2_1666_22465)">
<path d="M147.401 63.6773H149.233L143.125 52.6313H141.095V53.1926L142.086 53.3186L147.401 63.6773Z" fill="#FF0080" style="fill:#FF0080;fill:color(display-p3 1.0000 0.0000 0.5020);fill-opacity:1;"/>
<path d="M144.164 63.6776L140.726 57.5112V60.5963L142.446 63.6776H144.164Z" fill="#FF0080" style="fill:#FF0080;fill:color(display-p3 1.0000 0.0000 0.5020);fill-opacity:1;"/>
<path d="M146.406 63.677H145.445L141.095 55.4144V53.8643L146.406 63.677Z" fill="#F4FA23" style="fill:#F4FA23;fill:color(display-p3 0.9569 0.9804 0.1373);fill-opacity:1;"/>
<path d="M141.095 51.8945L148.79 52.2687L141.095 50.5811V51.8945Z" fill="#FF0080" style="fill:#FF0080;fill:color(display-p3 1.0000 0.0000 0.5020);fill-opacity:1;"/>
<path d="M149.613 51.7991L141.095 36.072V35.3198L152.217 51.7991H149.613Z" fill="#FF0080" style="fill:#FF0080;fill:color(display-p3 1.0000 0.0000 0.5020);fill-opacity:1;"/>
<path d="M141.095 38.9816L146.656 48.466L141.095 37.7178V38.9816Z" fill="#F4FA23" style="fill:#F4FA23;fill:color(display-p3 0.9569 0.9804 0.1373);fill-opacity:1;"/>
<path d="M141.095 41.7534V43.5594L143.661 48.8896L145.766 48.4658L141.095 41.7534Z" fill="#FF0080" style="fill:#FF0080;fill:color(display-p3 1.0000 0.0000 0.5020);fill-opacity:1;"/>
<path d="M141.095 50.5807L147.874 48.6793L145.423 47.6445L145.698 48.2325L146.957 48.5609L141.095 49.5918V50.5807Z" fill="#F4FA23" style="fill:#F4FA23;fill:color(display-p3 0.9569 0.9804 0.1373);fill-opacity:1;"/>
<path d="M141.095 48.7713L142.834 48.1145L141.095 47.1523L141.162 47.4578L142.078 47.9618L141.095 48.3742V48.7713Z" fill="#F4FA23" style="fill:#F4FA23;fill:color(display-p3 0.9569 0.9804 0.1373);fill-opacity:1;"/>
</g>
</g>
<path d="M68.3219 38.6762V62.8873C57.5053 64.2886 56.8981 68.416 56.8683 69.0957V44.9075C58.8983 39.8178 68.3219 38.6762 68.3219 38.6762ZM68.3219 37.8896C68.2846 37.8896 68.2511 37.8896 68.2139 37.8973C67.8079 37.9469 58.2651 39.1611 56.0824 44.6326C56.0489 44.7204 56.0303 44.812 56.0303 44.9075V69.2446C56.0675 69.6531 56.4363 69.9662 56.8683 69.9662H56.9056C57.3563 69.9471 57.7101 69.6111 57.7101 69.1911V69.1147C57.7362 68.6413 58.2577 64.9873 68.4336 63.6662C68.8508 63.6127 69.1599 63.2806 69.1599 62.8911V38.68C69.1599 38.4547 69.0556 38.2409 68.8731 38.092C68.7167 37.966 68.5193 37.8973 68.3181 37.8973H68.3219V37.8896Z" fill="black" style="fill:black;fill-opacity:1;"/>
<path d="M141.118 38.6225C141.118 38.6225 150.538 39.7603 152.572 44.8538V69.0419C152.546 68.3661 151.935 64.2387 141.118 62.8336V38.6225ZM141.118 37.8359C140.917 37.8359 140.72 37.9008 140.563 38.0307C140.381 38.1796 140.277 38.3934 140.277 38.6187V62.8298C140.277 63.223 140.589 63.5514 141.003 63.6048C151.179 64.9259 151.704 68.5799 151.726 69.0534V69.1336C151.726 69.5536 152.08 69.8896 152.531 69.9087H152.568C153.004 69.9087 153.369 69.5918 153.406 69.187C153.406 69.187 153.41 69.1336 153.406 69.0267V44.8538C153.406 44.7583 153.388 44.6705 153.354 44.5788C151.171 39.1074 141.629 37.8932 141.223 37.8436C141.185 37.8398 141.152 37.8359 141.115 37.8359H141.118Z" fill="black" style="fill:black;fill-opacity:1;"/>
<path opacity="0.42" d="M59.5544 41.8071V65.6593C57.0476 67.282 56.8539 69.0537 56.8428 69.4469V45.19C57.3456 43.7811 58.3587 42.6739 59.5544 41.8071Z" fill="#484F51" style="fill:#484F51;fill:color(display-p3 0.2824 0.3098 0.3176);fill-opacity:1;"/>
<path opacity="0.42" d="M152.256 45.1595V69.1873C152.244 68.794 152.047 67.0415 149.544 65.434V41.8071C150.743 42.6662 151.753 43.762 152.256 45.1595Z" fill="#484F51" style="fill:#484F51;fill:color(display-p3 0.2824 0.3098 0.3176);fill-opacity:1;"/>
<path d="M108.192 32.1928V65.5904H100.061V47.6831C100.061 45.0982 100.002 43.5442 99.8789 43.0211C99.7597 42.4981 99.4245 42.1048 98.8844 41.8337C98.3406 41.5664 97.13 41.4328 95.2528 41.4328H94.4482V37.5382C98.3778 36.6715 101.365 34.8884 103.402 32.189H108.192V32.1928Z" fill="#C9A753" style="fill:#C9A753;fill:color(display-p3 0.7882 0.6549 0.3255);fill-opacity:1;"/>
<path opacity="0.28" d="M104.698 24.541C98.1495 24.541 92.1452 26.8014 87.4446 30.5699C85.3811 32.227 82.7216 33.1816 79.9393 33.1816C79.9393 36.9768 76.4678 40.0505 72.1807 40.0505V62.299C76.4678 62.299 79.9393 65.3727 79.9393 69.1679C82.7254 69.1679 85.3848 70.1225 87.4446 71.7796C87.8357 72.0927 88.2417 72.3905 88.6514 72.6845L109.633 24.9801C108.031 24.6937 106.385 24.541 104.694 24.541H104.698Z" fill="white" style="fill:white;fill-opacity:1;"/>
<path d="M76.6995 51.971L73.9358 49.0692L77.7574 48.4697L79.467 44.7432L81.1767 48.4697L84.9982 49.0692L82.2345 51.971L82.8863 56.0641L79.467 54.1321L76.0477 56.0641L76.6995 51.971Z" fill="#A5874A" style="fill:#A5874A;fill:color(display-p3 0.6471 0.5294 0.2902);fill-opacity:1;"/>
<path d="M79.4662 44.9912L81.1088 48.5726L84.7814 49.1453L82.1219 51.9326L82.7514 55.8692L79.4662 54.0097L76.181 55.8692L76.8105 51.9326L74.151 49.1453L77.8236 48.5726L79.4662 44.9912ZM79.4662 44.5024L79.2874 44.8919L77.6932 48.3703L74.1249 48.9277L73.7227 48.9888L74.0132 49.2943L76.5944 52.0014L75.9836 55.8272L75.9128 56.2586L76.2741 56.0563L79.4662 54.2503L82.6583 56.0563L83.0158 56.2586L82.9451 55.8272L82.3342 52.0014L84.9155 49.2943L85.206 48.9888L84.8037 48.9277L81.2354 48.3703L79.6412 44.8919L79.4625 44.5024H79.4662Z" fill="black" style="fill:black;fill-opacity:1;"/>
<path d="M79.4661 53.0254L76.9072 54.4725L77.3952 51.4065L75.3242 49.2339L78.1848 48.7872L79.4624 45.9961L80.74 48.7872L83.6006 49.2339L81.5296 51.4065L82.0176 54.4725L79.4587 53.0254H79.4661Z" fill="#C9A753" style="fill:#C9A753;fill:color(display-p3 0.7882 0.6549 0.3255);fill-opacity:1;"/>
<path d="M79.4665 46.2437L80.6324 48.7866L80.6808 48.8897L80.7851 48.905L83.3924 49.3135L81.5039 51.2913L81.4294 51.3715L81.4481 51.4822L81.895 54.2772L79.5634 52.9599L79.4702 52.9064L79.3771 52.9599L77.0454 54.2772L77.4924 51.4822L77.511 51.3715L77.4365 51.2913L75.5481 49.3135L78.1554 48.905L78.2597 48.8897L78.3081 48.7866L79.474 46.2437M79.4665 45.7588L78.1219 48.6912L75.1123 49.1608L77.2913 51.4441L76.7773 54.6666L79.4702 53.1432L82.1632 54.6666L81.6492 51.4441L83.8282 49.1608L80.8186 48.6912L79.474 45.7588H79.4665Z" fill="#EACC81" style="fill:#EACC81;fill:color(display-p3 0.9176 0.8000 0.5059);fill-opacity:1;"/>
<path d="M79.4668 54.0104V53.1475L82.1598 54.6709L82.752 55.8698L79.4668 54.0104Z" fill="#936B3E" style="fill:#936B3E;fill:color(display-p3 0.5765 0.4196 0.2431);fill-opacity:1;"/>
<path d="M81.6445 51.4445L82.125 51.9294L84.7845 49.1421L83.8235 49.1574L81.6445 51.4406V51.4445Z" fill="#936B3E" style="fill:#936B3E;fill:color(display-p3 0.5765 0.4196 0.2431);fill-opacity:1;"/>
<path d="M80.8112 48.691L79.4629 45.7587V44.9912L81.1055 48.5727L80.8075 48.691H80.8112Z" fill="#936B3E" style="fill:#936B3E;fill:color(display-p3 0.5765 0.4196 0.2431);fill-opacity:1;"/>
<path d="M76.7739 54.6703L76.1816 55.8692L76.8111 51.9327L77.2916 51.4478L76.7776 54.6703H76.7739Z" fill="#EACC81" style="fill:#EACC81;fill:color(display-p3 0.9176 0.8000 0.5059);fill-opacity:1;"/>
<path d="M75.1114 49.1612L74.1504 49.146L77.823 48.5732L78.1209 48.6916L75.1114 49.1612Z" fill="#EACC81" style="fill:#EACC81;fill:color(display-p3 0.9176 0.8000 0.5059);fill-opacity:1;"/>
<path d="M79.4669 53.1473L82.1599 54.6708L81.6459 51.4482L83.8248 49.1649L81.3479 48.7793C80.3534 50.5968 79.0721 52.5555 77.4854 54.2737L79.4669 53.1511V53.1473Z" fill="#EACC81" style="fill:#EACC81;fill:color(display-p3 0.9176 0.8000 0.5059);fill-opacity:1;"/>
<path d="M127.392 51.971L124.628 49.0692L128.449 48.4697L130.159 44.7432L131.869 48.4697L135.69 49.0692L132.927 51.971L133.578 56.0641L130.159 54.1321L126.74 56.0641L127.392 51.971Z" fill="#A5874A" style="fill:#A5874A;fill:color(display-p3 0.6471 0.5294 0.2902);fill-opacity:1;"/>
<path d="M130.156 44.9912L131.798 48.5726L135.471 49.1453L132.811 51.9326L133.441 55.8692L130.156 54.0097L126.87 55.8692L127.5 51.9326L124.84 49.1453L128.513 48.5726L130.156 44.9912ZM130.156 44.5024L129.977 44.8919L128.383 48.3703L124.814 48.9277L124.412 48.9888L124.703 49.2943L127.284 52.0014L126.673 55.8272L126.602 56.2586L126.964 56.0563L130.156 54.2503L133.348 56.0563L133.705 56.2586L133.635 55.8272L133.024 52.0014L135.605 49.2943L135.895 48.9888L135.493 48.9277L131.925 48.3703L130.331 44.8919L130.152 44.5024H130.156Z" fill="black" style="fill:black;fill-opacity:1;"/>
<path d="M130.156 53.0254L127.597 54.4725L128.085 51.4065L126.014 49.2339L128.874 48.7872L130.152 45.9961L131.429 48.7872L134.29 49.2339L132.219 51.4065L132.707 54.4725L130.148 53.0254H130.156Z" fill="#C9A753" style="fill:#C9A753;fill:color(display-p3 0.7882 0.6549 0.3255);fill-opacity:1;"/>
<path d="M130.155 46.2437L131.321 48.7866L131.369 48.8897L131.474 48.905L134.081 49.3135L132.193 51.2913L132.118 51.3715L132.137 51.4822L132.584 54.2772L130.252 52.9599L130.159 52.9064L130.066 52.9599L127.734 54.2772L128.181 51.4822L128.2 51.3715L128.125 51.2913L126.237 49.3135L128.844 48.905L128.948 48.8897L128.997 48.7866L130.163 46.2437M130.159 45.7588L128.814 48.6912L125.805 49.1608L127.984 51.4441L127.47 54.6666L130.163 53.1432L132.856 54.6666L132.342 51.4441L134.521 49.1608L131.511 48.6912L130.166 45.7588H130.159Z" fill="#EACC81" style="fill:#EACC81;fill:color(display-p3 0.9176 0.8000 0.5059);fill-opacity:1;"/>
<path d="M130.156 54.0104V53.1475L132.848 54.6709L133.441 55.8698L130.156 54.0104Z" fill="#936B3E" style="fill:#936B3E;fill:color(display-p3 0.5765 0.4196 0.2431);fill-opacity:1;"/>
<path d="M132.334 51.4445L132.814 51.9294L135.474 49.1421L134.513 49.1574L132.334 51.4406V51.4445Z" fill="#936B3E" style="fill:#936B3E;fill:color(display-p3 0.5765 0.4196 0.2431);fill-opacity:1;"/>
<path d="M131.504 48.691L130.156 45.7587V44.9912L131.798 48.5727L131.5 48.691H131.504Z" fill="#936B3E" style="fill:#936B3E;fill:color(display-p3 0.5765 0.4196 0.2431);fill-opacity:1;"/>
<path d="M127.466 54.6703L126.873 55.8692L127.503 51.9327L127.983 51.4478L127.469 54.6703H127.466Z" fill="#EACC81" style="fill:#EACC81;fill:color(display-p3 0.9176 0.8000 0.5059);fill-opacity:1;"/>
<path d="M125.801 49.1612L124.84 49.146L128.512 48.5732L128.81 48.6916L125.801 49.1612Z" fill="#EACC81" style="fill:#EACC81;fill:color(display-p3 0.9176 0.8000 0.5059);fill-opacity:1;"/>
<path d="M130.156 53.1473L132.849 54.6708L132.335 51.4482L134.514 49.1649L132.037 48.7793C131.043 50.5968 129.761 52.5555 128.175 54.2737L130.156 53.1511V53.1473Z" fill="#EACC81" style="fill:#EACC81;fill:color(display-p3 0.9176 0.8000 0.5059);fill-opacity:1;"/>
</g>
<defs>
<filter id="filter0_f_1666_22465" x="65.876" y="-31" width="75.3291" height="120.107" filterUnits="userSpaceOnUse" color-interpolation-filters="sRGB">
<feFlood flood-opacity="0" result="BackgroundImageFix"/>
<feBlend mode="normal" in="SourceGraphic" in2="BackgroundImageFix" result="shape"/>
<feGaussianBlur stdDeviation="11" result="effect1_foregroundBlur_1666_22465"/>
</filter>
<filter id="filter1_f_1666_22465" x="81.2039" y="-19.2588" width="107.192" height="113.99" filterUnits="userSpaceOnUse" color-interpolation-filters="sRGB">
<feFlood flood-opacity="0" result="BackgroundImageFix"/>
<feBlend mode="normal" in="SourceGraphic" in2="BackgroundImageFix" result="shape"/>
<feGaussianBlur stdDeviation="11" result="effect1_foregroundBlur_1666_22465"/>
</filter>
<filter id="filter2_f_1666_22465" x="78.1814" y="31.5708" width="126.319" height="71.0728" filterUnits="userSpaceOnUse" color-interpolation-filters="sRGB">
<feFlood flood-opacity="0" result="BackgroundImageFix"/>
<feBlend mode="normal" in="SourceGraphic" in2="BackgroundImageFix" result="shape"/>
<feGaussianBlur stdDeviation="11" result="effect1_foregroundBlur_1666_22465"/>
</filter>
<filter id="filter3_f_1666_22465" x="10.4111" y="-12.6294" width="118.088" height="107.241" filterUnits="userSpaceOnUse" color-interpolation-filters="sRGB">
<feFlood flood-opacity="0" result="BackgroundImageFix"/>
<feBlend mode="normal" in="SourceGraphic" in2="BackgroundImageFix" result="shape"/>
<feGaussianBlur stdDeviation="11" result="effect1_foregroundBlur_1666_22465"/>
</filter>
<filter id="filter4_f_1666_22465" x="0.5" y="28.8076" width="127.433" height="71.0312" filterUnits="userSpaceOnUse" color-interpolation-filters="sRGB">
<feFlood flood-opacity="0" result="BackgroundImageFix"/>
<feBlend mode="normal" in="SourceGraphic" in2="BackgroundImageFix" result="shape"/>
<feGaussianBlur stdDeviation="11" result="effect1_foregroundBlur_1666_22465"/>
</filter>
<filter id="filter5_d_1666_22465" x="41.401" y="10.4171" width="126.607" height="90.2913" filterUnits="userSpaceOnUse" color-interpolation-filters="sRGB">
<feFlood flood-opacity="0" result="BackgroundImageFix"/>
<feColorMatrix in="SourceAlpha" type="matrix" values="0 0 0 0 0 0 0 0 0 0 0 0 0 0 0 0 0 0 127 0" result="hardAlpha"/>
<feOffset dy="4"/>
<feGaussianBlur stdDeviation="7.3"/>
<feComposite in2="hardAlpha" operator="out"/>
<feColorMatrix type="matrix" values="0 0 0 0 0.917647 0 0 0 0 0.8 0 0 0 0 0.505882 0 0 0 0.32 0"/>
<feBlend mode="normal" in2="BackgroundImageFix" result="effect1_dropShadow_1666_22465"/>
<feBlend mode="normal" in="SourceGraphic" in2="effect1_dropShadow_1666_22465" result="shape"/>
</filter>
<linearGradient id="paint0_linear_1666_22465" x1="107.696" y1="98.5841" x2="107.696" y2="-4.78825" gradientUnits="userSpaceOnUse">
<stop stop-color="#FFE9B1" style="stop-color:#FFE9B1;stop-color:color(display-p3 1.0000 0.9148 0.6958);stop-opacity:1;"/>
<stop offset="1" stop-color="#FFDC82" stop-opacity="0" style="stop-color:none;stop-opacity:0;"/>
</linearGradient>
<linearGradient id="paint1_linear_1666_22465" x1="92.419" y1="95.9757" x2="142.504" y2="8.73184" gradientUnits="userSpaceOnUse">
<stop stop-color="#FFE9B1" style="stop-color:#FFE9B1;stop-color:color(display-p3 1.0000 0.9148 0.6958);stop-opacity:1;"/>
<stop offset="1" stop-color="#FFDC82" stop-opacity="0" style="stop-color:none;stop-opacity:0;"/>
</linearGradient>
<linearGradient id="paint2_linear_1666_22465" x1="66.1351" y1="70.6983" x2="177.944" y2="70.6983" gradientUnits="userSpaceOnUse">
<stop stop-color="#FFE9B1" style="stop-color:#FFE9B1;stop-color:color(display-p3 1.0000 0.9148 0.6958);stop-opacity:1;"/>
<stop offset="1" stop-color="#FFDC82" stop-opacity="0" style="stop-color:none;stop-opacity:0;"/>
</linearGradient>
<linearGradient id="paint3_linear_1666_22465" x1="128.709" y1="87.5058" x2="61.1111" y2="9.28017" gradientUnits="userSpaceOnUse">
<stop stop-color="#FFE9B1" style="stop-color:#FFE9B1;stop-color:color(display-p3 1.0000 0.9148 0.6958);stop-opacity:1;"/>
<stop offset="1" stop-color="#FFDC82" stop-opacity="0" style="stop-color:none;stop-opacity:0;"/>
</linearGradient>
<linearGradient id="paint4_linear_1666_22465" x1="139.782" y1="66.2898" x2="28.2583" y2="59.1528" gradientUnits="userSpaceOnUse">
<stop stop-color="#FFE9B1" style="stop-color:#FFE9B1;stop-color:color(display-p3 1.0000 0.9148 0.6958);stop-opacity:1;"/>
<stop offset="1" stop-color="#FFDC82" stop-opacity="0" style="stop-color:none;stop-opacity:0;"/>
</linearGradient>
</defs>
</svg>
