<svg width="170" height="88" viewBox="0 0 193 98" fill="none" xmlns="http://www.w3.org/2000/svg">
<g filter="url(#filter0_f_1666_22580)">
<path d="M83.1404 -7H112.12L103.914 63.3988H92.5291L83.1404 -7Z" fill="url(#paint0_linear_1666_22580)" style=""/>
</g>
<g filter="url(#filter1_f_1666_22580)">
<path d="M131.633 3.86084L155.771 17.718L106.801 68.6014L97.3178 63.1575L131.633 3.86084Z" fill="url(#paint1_linear_1666_22580)" style=""/>
</g>
<g filter="url(#filter2_f_1666_22580)">
<path d="M170.667 50.8779L170.667 75.92L94.5221 68.829L94.5221 58.991L170.667 50.8779Z" fill="url(#paint2_linear_1666_22580)" style=""/>
</g>
<g filter="url(#filter3_f_1666_22580)">
<path d="M31.8347 27.7007L52.3262 9.99328L100.366 61.5345L92.3159 68.491L31.8347 27.7007Z" fill="url(#paint3_linear_1666_22580)" style=""/>
</g>
<g filter="url(#filter4_f_1666_22580)">
<path d="M22.6667 73.3262L24.2669 48.3223L99.8422 59.0357L99.2136 68.8586L22.6667 73.3262Z" fill="url(#paint4_linear_1666_22580)" style=""/>
</g>
<g filter="url(#filter5_d_1666_22580)">
<path d="M96.1792 75.9696C119.638 75.9696 138.653 71.1526 138.653 65.2077C138.653 59.2627 119.638 54.4458 96.1792 54.4458C72.7208 54.4458 53.7056 59.2627 53.7056 65.2077C53.7056 71.1526 72.7208 75.9696 96.1792 75.9696Z" fill="#1B1E1E" style="fill:#1B1E1E;fill:color(display-p3 0.1059 0.1176 0.1176);fill-opacity:1;"/>
<path d="M96.1758 54.7801C119.428 54.7801 138.279 59.4495 138.279 65.2075C138.279 70.9656 119.428 75.6349 96.1758 75.6349C72.9239 75.6349 54.0726 70.9656 54.0726 65.2075C54.0726 59.4495 72.9239 54.7801 96.1758 54.7801ZM96.1758 54.1079C84.8663 54.1079 74.2224 55.1998 66.2117 57.1837C55.5646 59.82 53.3315 63.0007 53.3315 65.2043C53.3315 67.4078 55.5646 70.5885 66.2117 73.2248C74.2257 75.2087 84.8663 76.3039 96.1758 76.3039C107.485 76.3039 118.129 75.2119 126.143 73.2248C136.787 70.5885 139.023 67.4078 139.023 65.2043C139.023 63.0007 136.79 59.82 126.143 57.1837C118.129 55.1998 107.489 54.1079 96.1758 54.1079Z" fill="black" style="fill:black;fill-opacity:1;"/>
<g opacity="0.46">
<path d="M96.1765 70.9237C117.995 70.9237 135.683 67.5365 135.683 63.3557C135.683 59.1749 117.995 55.7876 96.1765 55.7876C74.3577 55.7876 56.6704 59.1749 56.6704 63.3557C56.6704 67.5365 74.3577 70.9237 96.1765 70.9237Z" fill="black" style="fill:black;fill-opacity:1;"/>
</g>
<path d="M54.0986 65.5385C53.9051 65.5385 53.7411 65.4041 53.728 65.227V44.3525C53.728 44.3132 53.7346 44.2706 53.751 44.2345C55.5971 39.7258 63.7849 38.7093 64.1325 38.6699H64.1817C64.2702 38.6699 64.3587 38.6994 64.4276 38.7552C64.5096 38.8175 64.5522 38.9093 64.5522 39.0077V59.8002C64.5522 59.9674 64.4145 60.1084 64.2341 60.1347C54.938 61.3118 54.492 64.7253 54.4691 65.1385V65.2139C54.4691 65.3943 54.3117 65.5385 54.1117 65.5484H54.0953L54.0986 65.5385Z" fill="#1D1E1E" style="fill:#1D1E1E;fill:color(display-p3 0.1137 0.1176 0.1176);fill-opacity:1;"/>
<path d="M64.1817 39.0051V59.7976C54.6593 61.001 54.1249 64.5457 54.0986 65.1294V44.3565C55.8857 39.9855 64.1817 39.0051 64.1817 39.0051ZM64.1817 38.3296C64.1489 38.3296 64.1194 38.3296 64.0866 38.3361C63.7292 38.3788 55.3283 39.4215 53.4067 44.1204C53.3772 44.1958 53.3608 44.2745 53.3608 44.3565V65.2572C53.3936 65.6081 53.7183 65.877 54.0986 65.877H54.1314C54.5282 65.8606 54.8397 65.572 54.8397 65.2113V65.1457C54.8626 64.7391 55.3217 61.6011 64.2801 60.4665C64.6474 60.4206 64.9195 60.1353 64.9195 59.8009V39.0084C64.9195 38.8149 64.8277 38.6313 64.667 38.5034C64.5293 38.3952 64.3555 38.3361 64.1785 38.3361H64.1817V38.3296Z" fill="black" style="fill:black;fill-opacity:1;"/>
<path d="M95.9856 74.6227C89.8833 74.6227 83.9285 72.5962 79.2198 68.9073C77.2753 67.3858 74.8094 66.5496 72.2715 66.5496H71.9009V66.2119C71.9009 62.8541 68.7333 60.1292 64.8378 60.1292H64.4673V38.6678H64.8378C68.7333 38.6678 71.9009 35.9363 71.9009 32.5851V32.2474H72.2715C74.8094 32.2474 77.2753 31.4112 79.2198 29.8897C83.9285 26.2041 89.88 24.1743 95.9856 24.1743C102.091 24.1743 108.043 26.2008 112.751 29.8897C114.696 31.4112 117.162 32.2474 119.7 32.2474H120.461V32.5851C120.461 35.9429 123.628 38.6678 127.524 38.6678H127.894V60.1325H127.524C123.628 60.1325 120.461 62.8639 120.461 66.2151V66.5529H119.7C117.162 66.5529 114.696 67.389 112.751 68.9105C108.039 72.5962 102.088 74.6259 95.9856 74.6259V74.6227Z" fill="#A0A0A0" style="fill:#A0A0A0;fill:color(display-p3 0.6275 0.6275 0.6275);fill-opacity:1;"/>
<path d="M95.9844 24.5111C102.257 24.5111 108.012 26.6228 112.511 30.1445C114.488 31.6922 117.033 32.5841 119.705 32.5841H120.095C120.095 36.1288 123.424 39.0045 127.529 39.0045V59.797C123.424 59.797 120.095 62.6728 120.095 66.2174H119.705C117.039 66.2174 114.495 67.1126 112.511 68.6571C108.012 72.1755 102.257 74.2905 95.9844 74.2905C89.7116 74.2905 83.9568 72.1788 79.458 68.6571C77.4807 67.1094 74.9361 66.2174 72.2637 66.2174C72.2637 62.6728 68.9355 59.797 64.8301 59.797V39.0045C68.9355 39.0045 72.2637 36.1288 72.2637 32.5841C74.9296 32.5841 77.4741 31.6889 79.458 30.1445C83.9568 26.6261 89.7116 24.5111 95.9844 24.5111ZM95.9844 23.8389C89.7936 23.8389 83.7503 25.8981 78.9727 29.633C77.097 31.0987 74.7132 31.9086 72.267 31.9086H71.5259V32.5808C71.5259 35.7484 68.5256 38.329 64.8334 38.329H64.0923V60.466H64.8334C68.5256 60.466 71.5259 63.0466 71.5259 66.2142V66.8864H72.267C74.7164 66.8864 77.097 67.693 78.9727 69.162C83.7503 72.9002 89.7936 74.9561 95.9844 74.9561C102.175 74.9561 108.219 72.8969 112.996 69.162C114.872 67.6963 117.256 66.8864 119.702 66.8864H120.833V66.2142C120.833 63.0466 123.833 60.466 127.526 60.466H128.267V38.329H127.526C123.833 38.329 120.833 35.7484 120.833 32.5808V31.9086H119.702C117.252 31.9086 114.872 31.102 112.996 29.633C108.215 25.8948 102.175 23.8389 95.9844 23.8389Z" fill="black" style="fill:black;fill-opacity:1;"/>
<path d="M95.9887 69.9131C108.485 69.9131 118.617 60.7284 118.617 49.396C118.617 38.0636 108.485 28.8789 95.9887 28.8789C83.4922 28.8789 73.3599 38.0636 73.3599 49.396C73.3599 60.7284 83.4922 69.9131 95.9887 69.9131Z" fill="#D6CA85" style="fill:#D6CA85;fill:color(display-p3 0.8392 0.7922 0.5216);fill-opacity:1;"/>
<path d="M118.096 33.6075L119.611 32.5779C116.978 32.5582 114.463 31.6696 112.509 30.1383C111.994 29.7349 111.46 29.3513 110.912 28.9873L91.5229 73.917C92.9723 74.1564 94.4643 74.2842 95.9858 74.2842C102.259 74.2842 108.013 72.1725 112.512 68.6508C114.489 67.1031 117.034 66.2112 119.706 66.2112H120.097L118.103 64.5127V33.6075H118.1H118.096Z" fill="#565656" style="fill:#565656;fill:color(display-p3 0.3373 0.3373 0.3373);fill-opacity:1;"/>
<path d="M95.9466 71.5953C90.5066 71.5953 85.2044 69.7853 81.0006 66.4997C79.1742 65.0733 76.8854 64.2568 74.5114 64.1814C74.3179 61.0039 71.3635 58.4463 67.6909 58.2823V39.8311C71.3635 39.6704 74.3212 37.1127 74.5114 33.932C76.8854 33.8566 79.1775 33.0401 81.0006 31.6137C85.2011 28.3281 90.5066 26.5181 95.9466 26.5181C101.387 26.5181 106.689 28.3281 110.889 31.6137C112.804 33.109 115.237 33.9386 117.736 33.9386C117.933 37.116 120.884 39.6704 124.556 39.8311V58.2823C120.884 58.443 117.929 60.9974 117.736 64.1748C115.237 64.1748 112.801 65.0011 110.889 66.4997C106.689 69.7853 101.383 71.5953 95.9466 71.5953Z" fill="#999999" style="fill:#999999;fill:color(display-p3 0.6000 0.6000 0.6000);fill-opacity:1;"/>
<path d="M95.9463 26.8659C101.294 26.8659 106.515 28.6464 110.646 31.8763C112.542 33.3585 114.922 34.2045 117.395 34.2766C117.759 37.3786 120.611 39.8477 124.186 40.1494V57.9711C120.608 58.2728 117.755 60.7452 117.395 63.8439C114.929 63.9193 112.542 64.762 110.646 66.2442C106.515 69.4773 101.294 71.2546 95.9463 71.2546C90.5981 71.2546 85.3779 69.474 81.2462 66.2442C79.4428 64.8342 77.1999 64.0013 74.8586 63.8603C74.5078 60.7517 71.6451 58.2728 68.0677 57.9711V40.1494C71.6517 39.8477 74.5078 37.3687 74.8586 34.2602C77.1999 34.1192 79.4428 33.2863 81.2462 31.8763C85.3779 28.6432 90.5981 26.8659 95.9463 26.8659ZM95.9463 26.1904C90.1817 26.1904 84.8958 28.1316 80.7577 31.3648C78.9411 32.7879 76.5998 33.6077 74.1504 33.6077C74.1504 36.8671 71.0943 39.5067 67.3201 39.5067V58.6138C71.0943 58.6138 74.1504 61.2534 74.1504 64.5128C76.6031 64.5128 78.9443 65.3326 80.7577 66.7557C84.8926 69.9921 90.1817 71.93 95.9463 71.93C101.711 71.93 106.997 69.9888 111.132 66.7557C112.948 65.3326 115.289 64.5128 117.739 64.5128H118.096C118.096 61.2534 121.152 58.6138 124.927 58.6138V39.5067C121.152 39.5067 118.096 36.8671 118.096 33.6077H117.739C115.286 33.6077 112.945 32.7879 111.132 31.3648C106.997 28.1284 101.711 26.1904 95.9463 26.1904Z" fill="#C4C4C4" style="fill:#C4C4C4;fill:color(display-p3 0.7686 0.7686 0.7686);fill-opacity:1;"/>
<path d="M95.9463 26.1904C90.1817 26.1904 84.8958 28.1316 80.7577 31.3681C78.9411 32.7912 76.5998 33.6109 74.1504 33.6109C74.1504 36.8703 71.0943 39.51 67.3201 39.51V58.6171C71.0943 58.6171 74.1504 61.2567 74.1504 64.5161C76.6031 64.5161 78.9443 65.3359 80.7577 66.759C81.102 67.0279 81.4594 67.2836 81.8201 67.5361L100.291 26.5675C98.881 26.3216 97.4317 26.1904 95.943 26.1904H95.9463Z" fill="#C4C4C4" style="fill:#C4C4C4;fill:color(display-p3 0.7686 0.7686 0.7686);fill-opacity:1;"/>
<path d="M127.524 59.7945L124.93 58.614V39.5102L127.524 39.002V59.7945Z" fill="#565656" style="fill:#565656;fill:color(display-p3 0.3373 0.3373 0.3373);fill-opacity:1;"/>
<path d="M64.8306 39.002L67.3194 39.5102V58.614L64.8306 59.7945V39.002Z" fill="#898989" style="fill:#898989;fill:color(display-p3 0.5373 0.5373 0.5373);fill-opacity:1;"/>
<path d="M138.334 65.5386C138.134 65.5321 137.977 65.3845 137.977 65.2042V65.1287C137.957 64.7156 137.515 61.3021 128.215 60.1249C128.032 60.1019 127.897 59.9609 127.897 59.7904V38.9979C127.897 38.8995 127.943 38.811 128.022 38.7454C128.087 38.6929 128.179 38.6602 128.268 38.6602H128.317C128.665 38.6995 136.852 39.716 138.702 44.2247C138.715 44.2608 138.725 44.3034 138.725 44.3428V65.2173C138.708 65.3911 138.548 65.5288 138.354 65.5288H138.341L138.334 65.5386Z" fill="#1D1E1E" style="fill:#1D1E1E;fill:color(display-p3 0.1137 0.1176 0.1176);fill-opacity:1;"/>
<path d="M128.265 39.0051C128.265 39.0051 136.558 39.9822 138.348 44.3565V65.1294C138.325 64.549 137.787 61.0043 128.265 59.7976V39.0051ZM128.265 38.3296C128.088 38.3296 127.914 38.3853 127.776 38.4968C127.616 38.6247 127.524 38.8083 127.524 39.0018V59.7943C127.524 60.1321 127.799 60.4141 128.163 60.46C137.122 61.5945 137.584 64.7326 137.604 65.1392V65.2081C137.604 65.5687 137.915 65.8573 138.312 65.8737H138.345C138.728 65.8737 139.05 65.6015 139.083 65.254C139.083 65.254 139.086 65.2081 139.083 65.1162V44.3565C139.083 44.2745 139.066 44.1991 139.037 44.1204C137.115 39.4215 128.714 38.3788 128.357 38.3361C128.324 38.3329 128.295 38.3296 128.262 38.3296H128.265Z" fill="black" style="fill:black;fill-opacity:1;"/>
<g opacity="0.6">
<mask id="mask0_1666_22580" style="mask-type:luminance" maskUnits="userSpaceOnUse" x="67" y="26" width="58" height="46">
<path d="M96.0013 71.609C90.5613 71.609 85.2591 69.7989 81.0553 66.5133C79.2289 65.0869 76.9401 64.2705 74.5661 64.195C74.3726 61.0176 71.4182 58.46 67.7456 58.296V39.8447C71.4182 39.6841 74.3759 37.1264 74.5661 33.9457C76.9401 33.8703 79.2322 33.0538 81.0553 31.6274C85.2558 28.3418 90.5613 26.5317 96.0013 26.5317C101.441 26.5317 106.743 28.3418 110.944 31.6274C112.859 33.1227 115.292 33.9523 117.791 33.9523C117.987 37.1297 120.939 39.6841 124.611 39.8447V58.296C120.939 58.4567 117.984 61.0111 117.791 64.1885C115.292 64.1885 112.856 65.0148 110.944 66.5133C106.743 69.7989 101.438 71.609 96.0013 71.609Z" fill="white" style="fill:white;fill-opacity:1;"/>
</mask>
<g mask="url(#mask0_1666_22580)">
<path d="M95.2304 10.4514L63.0562 65.6216L63.0005 68.2875L104.704 10.6482L95.2304 10.4514Z" fill="#FF0080" style="fill:#FF0080;fill:color(display-p3 1.0000 0.0000 0.5020);fill-opacity:1;"/>
<path d="M63.2721 55.2887L84.2155 22.0554L63.177 59.7909L63.2721 55.2887Z" fill="#F4FA23" style="fill:#F4FA23;fill:color(display-p3 0.9569 0.9804 0.1373);fill-opacity:1;"/>
<path d="M63.479 45.4586L63.6167 39.0448L73.349 20.3279L80.9826 21.9871L63.479 45.4586Z" fill="#FF0080" style="fill:#FF0080;fill:color(display-p3 1.0000 0.0000 0.5020);fill-opacity:1;"/>
<path d="M103.713 81.2848L128.496 38.7915L128.539 36.7388L96.4202 81.1307L103.713 81.2848Z" fill="#FF0080" style="fill:#FF0080;fill:color(display-p3 1.0000 0.0000 0.5020);fill-opacity:1;"/>
<path d="M128.325 46.7497L112.196 72.346L128.401 43.2837L128.325 46.7497Z" fill="#F4FA23" style="fill:#F4FA23;fill:color(display-p3 0.9569 0.9804 0.1373);fill-opacity:1;"/>
<path d="M128.168 54.3213L128.063 59.2628L120.567 73.6776L114.688 72.3987L128.168 54.3213Z" fill="#FF0080" style="fill:#FF0080;fill:color(display-p3 1.0000 0.0000 0.5020);fill-opacity:1;"/>
<path d="M127.659 78.4482L108.769 72.8509L115.697 70.1719L114.894 71.7622L111.343 72.5853L127.715 75.7528L127.659 78.4482Z" fill="#F4FA23" style="fill:#F4FA23;fill:color(display-p3 0.9569 0.9804 0.1373);fill-opacity:1;"/>
<path d="M127.765 73.5101L122.922 71.6082L127.857 69.0801L127.644 69.9097L125.047 71.2377L127.788 72.4182L127.765 73.5101Z" fill="#F4FA23" style="fill:#F4FA23;fill:color(display-p3 0.9569 0.9804 0.1373);fill-opacity:1;"/>
</g>
</g>
<path d="M95.8899 71.6153C90.45 71.6153 85.1477 69.8053 80.944 66.5197C79.1175 65.0933 76.8288 64.2768 74.4547 64.2014C74.2613 61.024 71.3068 58.4663 67.6343 58.3023V39.8511C71.3068 39.6904 74.2645 37.1327 74.4547 33.952C76.8288 33.8766 79.1208 33.0601 80.944 31.6337C85.1445 28.3481 90.45 26.5381 95.8899 26.5381C101.33 26.5381 106.632 28.3481 110.833 31.6337C112.748 33.129 115.181 33.9586 117.679 33.9586C117.876 37.136 120.827 39.6904 124.5 39.8511V58.3023C120.827 58.463 117.873 61.0174 117.679 64.1948C115.181 64.1948 112.744 65.0211 110.833 66.5197C106.632 69.8053 101.327 71.6153 95.8899 71.6153Z" fill="black" style="fill:black;fill-opacity:1;"/>
<g opacity="0.6">
<mask id="mask1_1666_22580" style="mask-type:luminance" maskUnits="userSpaceOnUse" x="67" y="26" width="58" height="46">
<path d="M95.8899 71.6144C90.45 71.6144 85.1477 69.8043 80.944 66.5187C79.1175 65.0923 76.8288 64.2758 74.4547 64.2004C74.2613 61.023 71.3068 58.4653 67.6343 58.3014V39.8501C71.3068 39.6894 74.2645 37.1318 74.4547 33.9511C76.8288 33.8756 79.1208 33.0592 80.944 31.6328C85.1445 28.3472 90.45 26.5371 95.8899 26.5371C101.33 26.5371 106.632 28.3472 110.833 31.6328C112.748 33.128 115.181 33.9576 117.679 33.9576C117.876 37.135 120.827 39.6894 124.5 39.8501V58.3014C120.827 58.462 117.873 61.0164 117.679 64.1938C115.181 64.1938 112.744 65.0202 110.833 66.5187C106.632 69.8043 101.327 71.6144 95.8899 71.6144Z" fill="white" style="fill:white;fill-opacity:1;"/>
</mask>
<g mask="url(#mask1_1666_22580)">
<path d="M95.1159 10.4558L62.945 65.6293L62.886 68.2952L104.589 10.6558L95.1159 10.4558Z" fill="#FF0080" style="fill:#FF0080;fill:color(display-p3 1.0000 0.0000 0.5020);fill-opacity:1;"/>
<path d="M63.1617 55.2964L84.1051 22.0598L63.0667 59.7952L63.1617 55.2964Z" fill="#F4FA23" style="fill:#F4FA23;fill:color(display-p3 0.9569 0.9804 0.1373);fill-opacity:1;"/>
<path d="M63.3674 45.4663L63.5019 39.0492L73.2374 20.3323L80.8711 21.9915L63.3674 45.4663Z" fill="#FF0080" style="fill:#FF0080;fill:color(display-p3 1.0000 0.0000 0.5020);fill-opacity:1;"/>
<path d="M103.601 81.2902L128.381 38.7968L128.423 36.7441L96.3049 81.1393L103.601 81.2902Z" fill="#FF0080" style="fill:#FF0080;fill:color(display-p3 1.0000 0.0000 0.5020);fill-opacity:1;"/>
<path d="M128.214 46.7555L112.084 72.3519L128.286 43.2896L128.214 46.7555Z" fill="#F4FA23" style="fill:#F4FA23;fill:color(display-p3 0.9569 0.9804 0.1373);fill-opacity:1;"/>
<path d="M128.054 54.3267L127.952 59.2682L120.453 73.6862L114.573 72.4041L128.054 54.3267Z" fill="#FF0080" style="fill:#FF0080;fill:color(display-p3 1.0000 0.0000 0.5020);fill-opacity:1;"/>
<path d="M127.549 78.457L108.658 72.8597L115.584 70.1807L114.78 71.7677L111.233 72.5908L127.605 75.7616L127.549 78.457Z" fill="#F4FA23" style="fill:#F4FA23;fill:color(display-p3 0.9569 0.9804 0.1373);fill-opacity:1;"/>
<path d="M127.65 73.5161L122.807 71.6175L127.745 69.0894L127.532 69.919L124.935 71.2437L127.673 72.4242L127.65 73.5161Z" fill="#F4FA23" style="fill:#F4FA23;fill:color(display-p3 0.9569 0.9804 0.1373);fill-opacity:1;"/>
<path d="M103.992 60.954L128.772 18.4607L128.818 16.408L96.6965 60.8032L103.992 60.954Z" fill="#FF0080" style="fill:#FF0080;fill:color(display-p3 1.0000 0.0000 0.5020);fill-opacity:1;"/>
<path d="M128.605 26.4196L112.476 52.0192L128.681 22.9536L128.605 26.4196Z" fill="#F4FA23" style="fill:#F4FA23;fill:color(display-p3 0.9569 0.9804 0.1373);fill-opacity:1;"/>
<path d="M91.3882 37.5352L66.6083 80.0285L66.5657 82.0812L98.6841 37.6893L91.3882 37.5352Z" fill="#FF0080" style="fill:#FF0080;fill:color(display-p3 1.0000 0.0000 0.5020);fill-opacity:1;"/>
<path d="M66.7755 72.0705L82.9052 46.4741L66.7034 75.5364L66.7755 72.0705Z" fill="#F4FA23" style="fill:#F4FA23;fill:color(display-p3 0.9569 0.9804 0.1373);fill-opacity:1;"/>
</g>
</g>
<g opacity="0.44">
<mask id="mask2_1666_22580" style="mask-type:luminance" maskUnits="userSpaceOnUse" x="54" y="38" width="12" height="28">
<path d="M54.5886 65.5385C54.3951 65.5385 54.2311 65.4041 54.218 65.227V44.3525C54.218 44.3132 54.2246 44.2706 54.241 44.2345C56.0871 39.7258 64.2749 38.7093 64.6225 38.6699H64.6717C64.7602 38.6699 64.8487 38.6994 64.9176 38.7552C64.9996 38.8175 65.0422 38.9093 65.0422 39.0077V59.8002C65.0422 59.9674 64.9045 60.1084 64.7241 60.1347C55.428 61.3118 54.982 64.7253 54.9591 65.1385V65.2139C54.9591 65.3943 54.8017 65.5385 54.6017 65.5484H54.5853L54.5886 65.5385Z" fill="white" style="fill:white;fill-opacity:1;"/>
</mask>
<g mask="url(#mask2_1666_22580)">
<path d="M58.4932 60.1761H56.8799L62.2575 50.6865H64.0446V51.1718L63.1724 51.2768L58.4932 60.1761Z" fill="#FF0080" style="fill:#FF0080;fill:color(display-p3 1.0000 0.0000 0.5020);fill-opacity:1;"/>
<path d="M61.342 60.1761L64.3686 54.8804V57.5266L62.8537 60.1761H61.342Z" fill="#FF0080" style="fill:#FF0080;fill:color(display-p3 1.0000 0.0000 0.5020);fill-opacity:1;"/>
<path d="M59.3694 60.1767H60.2154L64.0453 53.0808V51.7495L59.3694 60.1767Z" fill="#F4FA23" style="fill:#F4FA23;fill:color(display-p3 0.9569 0.9804 0.1373);fill-opacity:1;"/>
<path d="M64.0446 50.0543L57.27 50.3789L64.0446 48.9263V50.0543Z" fill="#FF0080" style="fill:#FF0080;fill:color(display-p3 1.0000 0.0000 0.5020);fill-opacity:1;"/>
<path d="M56.5452 49.9752L64.0445 36.4687V35.8228L54.2532 49.9752H56.5452Z" fill="#FF0080" style="fill:#FF0080;fill:color(display-p3 1.0000 0.0000 0.5020);fill-opacity:1;"/>
<path d="M64.0446 38.9676L59.1489 47.1127L64.0446 37.8789V38.9676Z" fill="#F4FA23" style="fill:#F4FA23;fill:color(display-p3 0.9569 0.9804 0.1373);fill-opacity:1;"/>
<path d="M64.0448 41.3447V42.899L61.7855 47.4733L59.9329 47.1126L64.0448 41.3447Z" fill="#FF0080" style="fill:#FF0080;fill:color(display-p3 1.0000 0.0000 0.5020);fill-opacity:1;"/>
<path d="M64.0453 48.926L58.0774 47.2931L60.235 46.4077L59.9924 46.9094L58.884 47.1914L64.0453 48.08V48.926Z" fill="#F4FA23" style="fill:#F4FA23;fill:color(display-p3 0.9569 0.9804 0.1373);fill-opacity:1;"/>
<path d="M64.045 47.3752L62.5137 46.8112L64.045 45.9849L63.986 46.2439L63.1793 46.68L64.045 47.0309V47.3752Z" fill="#F4FA23" style="fill:#F4FA23;fill:color(display-p3 0.9569 0.9804 0.1373);fill-opacity:1;"/>
</g>
</g>
<g opacity="0.44">
<mask id="mask3_1666_22580" style="mask-type:luminance" maskUnits="userSpaceOnUse" x="127" y="38" width="12" height="28">
<path d="M137.686 65.5386C137.486 65.5321 137.329 65.3878 137.329 65.2042V65.1287C137.306 64.7156 136.86 61.3021 127.564 60.1249C127.383 60.1019 127.246 59.9609 127.246 59.7904V38.9979C127.246 38.8995 127.292 38.811 127.37 38.7454C127.436 38.6929 127.528 38.6602 127.616 38.6602H127.665C128.013 38.6995 136.201 39.716 138.047 44.2247C138.063 44.2608 138.07 44.3034 138.07 44.3428V65.1058C138.07 65.1812 138.07 65.2173 138.07 65.2173C138.053 65.3943 137.893 65.5288 137.699 65.5288H137.683L137.686 65.5386Z" fill="white" style="fill:white;fill-opacity:1;"/>
</mask>
<g mask="url(#mask3_1666_22580)">
<path d="M133.796 60.1766H135.409L130.035 50.687H128.245V51.1723L129.12 51.2772L133.796 60.1766Z" fill="#FF0080" style="fill:#FF0080;fill:color(display-p3 1.0000 0.0000 0.5020);fill-opacity:1;"/>
<path d="M130.949 60.1765L127.922 54.8809V57.5271L129.434 60.1765H130.949Z" fill="#FF0080" style="fill:#FF0080;fill:color(display-p3 1.0000 0.0000 0.5020);fill-opacity:1;"/>
<path d="M132.924 60.1767H132.078L128.245 53.0808V51.7495L132.924 60.1767Z" fill="#F4FA23" style="fill:#F4FA23;fill:color(display-p3 0.9569 0.9804 0.1373);fill-opacity:1;"/>
<path d="M128.245 50.0543L135.019 50.3789L128.245 48.9263V50.0543Z" fill="#FF0080" style="fill:#FF0080;fill:color(display-p3 1.0000 0.0000 0.5020);fill-opacity:1;"/>
<path d="M135.747 49.9757L128.245 36.4692V35.8232L138.039 49.9757H135.747Z" fill="#FF0080" style="fill:#FF0080;fill:color(display-p3 1.0000 0.0000 0.5020);fill-opacity:1;"/>
<path d="M128.245 38.9676L133.144 47.1127L128.245 37.8789V38.9676Z" fill="#F4FA23" style="fill:#F4FA23;fill:color(display-p3 0.9569 0.9804 0.1373);fill-opacity:1;"/>
<path d="M128.245 41.3447V42.899L130.504 47.4733L132.36 47.1126L128.245 41.3447Z" fill="#FF0080" style="fill:#FF0080;fill:color(display-p3 1.0000 0.0000 0.5020);fill-opacity:1;"/>
<path d="M128.245 48.926L134.216 47.2931L132.058 46.4077L132.298 46.9094L133.409 47.1914L128.245 48.08V48.926Z" fill="#F4FA23" style="fill:#F4FA23;fill:color(display-p3 0.9569 0.9804 0.1373);fill-opacity:1;"/>
<path d="M128.245 47.3757L129.779 46.8117L128.245 45.9854L128.307 46.2444L129.114 46.6805L128.245 47.0314V47.3757Z" fill="#F4FA23" style="fill:#F4FA23;fill:color(display-p3 0.9569 0.9804 0.1373);fill-opacity:1;"/>
</g>
</g>
<path opacity="0.42" d="M56.4628 41.3916V61.8759C54.256 63.2695 54.0855 64.791 54.0757 65.1287V44.2968C54.5184 43.0869 55.4103 42.1359 56.4628 41.3916Z" fill="#484F51" style="fill:#484F51;fill:color(display-p3 0.2824 0.3098 0.3176);fill-opacity:1;"/>
<path opacity="0.42" d="M138.072 44.2706V64.9057C138.062 64.568 137.889 63.0629 135.685 61.6824V41.3916C136.741 42.1294 137.63 43.0705 138.072 44.2706Z" fill="#484F51" style="fill:#484F51;fill:color(display-p3 0.2824 0.3098 0.3176);fill-opacity:1;"/>
<path d="M103.38 57.2036V62.0927H87.6311V58.0004C92.3004 50.37 95.0745 45.6482 95.9533 43.8349C96.8321 42.0216 97.2715 40.6083 97.2715 39.5918C97.2715 38.8114 97.1371 38.231 96.8715 37.8473C96.6059 37.4637 96.1993 37.2702 95.6549 37.2702C95.1106 37.2702 94.7073 37.4833 94.4384 37.9096C94.1728 38.3359 94.0384 39.1786 94.0384 40.4443V43.1725H87.6245V42.1265C87.6245 40.5197 87.7065 39.254 87.8737 38.3261C88.0377 37.3981 88.4476 36.4865 89.0968 35.588C89.7461 34.6896 90.5921 34.0108 91.6315 33.5517C92.671 33.0894 93.917 32.8599 95.3697 32.8599C98.2159 32.8599 100.367 33.5649 101.826 34.9781C103.285 36.3881 104.013 38.1752 104.013 40.3361C104.013 41.9789 103.603 43.7136 102.78 45.5433C101.957 47.373 99.5406 51.2587 95.5238 57.2003H103.374L103.38 57.2036Z" fill="#B7B7B7" style="fill:#B7B7B7;fill:color(display-p3 0.7176 0.7176 0.7176);fill-opacity:1;"/>
<path opacity="0.28" d="M95.9919 26.6294C90.2273 26.6294 84.9415 28.5706 80.8033 31.807C78.9867 33.2301 76.6455 34.0499 74.196 34.0499C74.196 37.3093 71.1399 39.9489 67.3657 39.9489V59.056C71.1399 59.056 74.196 61.6957 74.196 64.9551C76.6487 64.9551 78.99 65.7748 80.8033 67.1979C81.1476 67.4668 81.505 67.7226 81.8657 67.9751L100.337 27.0065C98.9267 26.7606 97.4773 26.6294 95.9886 26.6294H95.9919Z" fill="white" style="fill:white;fill-opacity:1;"/>
<path opacity="0.28" d="M71.2575 50.5531L68.5884 47.8216L72.2773 47.2576L73.9267 43.749L75.5761 47.2576L79.265 47.8216L76.5958 50.5531L77.2254 54.4093L73.9267 52.5894L70.628 54.4093L71.2575 50.5531Z" fill="white" style="fill:white;fill-opacity:1;"/>
<path d="M73.9272 43.982L75.5143 47.3529L79.0589 47.8939L76.4947 50.5172L77.1013 54.2225L73.9305 52.4748L70.7596 54.2225L71.3663 50.5172L68.802 47.8939L72.3467 47.3529L73.9338 43.982H73.9272ZM73.9272 43.5229L73.7534 43.8902L72.2123 47.166L68.7693 47.6906L68.3823 47.7497L68.661 48.0349L71.1531 50.586L70.5662 54.1865L70.5006 54.5898L70.8482 54.3996L73.9305 52.701L77.0128 54.3996L77.3604 54.5898L77.2948 54.1865L76.7079 50.586L79.1999 48.0349L79.4787 47.7497L79.0917 47.6906L75.6454 47.166L74.1043 43.8902L73.9305 43.5229H73.9272Z" fill="black" style="fill:black;fill-opacity:1;"/>
<path d="M73.927 51.5471L71.4579 52.9112L71.9301 50.0256L69.9331 47.9828L72.6941 47.563L73.9303 44.9365L75.1665 47.563L77.9275 47.9828L75.9305 50.0256L76.4027 52.9112L73.9336 51.5471H73.927Z" fill="#C9C9C9" style="fill:#C9C9C9;fill:color(display-p3 0.7882 0.7882 0.7882);fill-opacity:1;"/>
<path opacity="0.28" d="M73.9266 45.1632L75.0513 47.5569L75.0972 47.652L75.1988 47.6684L77.7171 48.052L75.8973 49.9145L75.8251 49.9899L75.8415 50.0949L76.2711 52.7247L74.0184 51.4819L73.9298 51.4327L73.8413 51.4819L71.5886 52.7247L72.0181 50.0949L72.0345 49.9899L71.9624 49.9145L70.1425 48.052L72.6608 47.6684L72.7625 47.652L72.8084 47.5569L73.9331 45.1632M73.9298 44.7041L72.6313 47.4651L69.7261 47.9077L71.828 50.0588L71.3328 53.0952L73.9298 51.6623L76.5268 53.0952L76.0317 50.0588L78.1336 47.9077L75.2283 47.4651L73.9298 44.7041Z" fill="white" style="fill:white;fill-opacity:1;"/>
<path d="M73.9263 52.4748V51.6616L76.5233 53.0946L77.0971 54.2226L73.9263 52.4748Z" fill="#565656" style="fill:#565656;fill:color(display-p3 0.3373 0.3373 0.3373);fill-opacity:1;"/>
<path d="M76.0292 50.0587L76.4915 50.5178L79.0557 47.8945L78.1278 47.9109L76.0259 50.062L76.0292 50.0587Z" fill="#565656" style="fill:#565656;fill:color(display-p3 0.3373 0.3373 0.3373);fill-opacity:1;"/>
<path d="M75.2248 47.4648L73.9263 44.7038V43.9824L75.5133 47.3533L75.2281 47.4648H75.2248Z" fill="#565656" style="fill:#565656;fill:color(display-p3 0.3373 0.3373 0.3373);fill-opacity:1;"/>
<path d="M71.3302 53.0945L70.7563 54.2225L71.363 50.5172L71.8253 50.0581L71.3302 53.0945Z" fill="#C4C4C4" style="fill:#C4C4C4;fill:color(display-p3 0.7686 0.7686 0.7686);fill-opacity:1;"/>
<path d="M69.7224 47.9105L68.7944 47.8941L72.3391 47.353L72.6244 47.4645L69.7191 47.9072L69.7224 47.9105Z" fill="#C4C4C4" style="fill:#C4C4C4;fill:color(display-p3 0.7686 0.7686 0.7686);fill-opacity:1;"/>
<path d="M73.9272 51.6615L76.5242 53.0944L76.0291 50.058L78.1309 47.9069L75.7405 47.543C74.7797 49.2546 73.5435 51.1008 72.0122 52.714L73.9239 51.6582L73.9272 51.6615Z" fill="#A0A0A0" style="fill:#A0A0A0;fill:color(display-p3 0.6275 0.6275 0.6275);fill-opacity:1;"/>
<path opacity="0.28" d="M115.951 50.5531L113.282 47.8216L116.971 47.2576L118.62 43.749L120.269 47.2576L123.958 47.8216L121.289 50.5531L121.919 54.4093L118.62 52.5894L115.321 54.4093L115.951 50.5531Z" fill="white" style="fill:white;fill-opacity:1;"/>
<path d="M118.62 43.982L120.207 47.3529L123.751 47.8939L121.187 50.5172L121.794 54.2225L118.623 52.4748L115.452 54.2225L116.059 50.5172L113.494 47.8939L117.039 47.3529L118.626 43.982H118.62ZM118.62 43.5229L118.446 43.8902L116.905 47.166L113.462 47.6906L113.075 47.7497L113.353 48.0349L115.846 50.586L115.259 54.1865L115.193 54.5898L115.541 54.3996L118.623 52.701L121.705 54.3996L122.053 54.5898L121.987 54.1865L121.4 50.586L123.892 48.0349L124.171 47.7497L123.784 47.6906L120.338 47.166L118.797 43.8902L118.623 43.5229H118.62Z" fill="black" style="fill:black;fill-opacity:1;"/>
<path d="M118.619 51.5466L116.15 52.9107L116.622 50.0251L114.625 47.9823L117.386 47.5626L118.623 44.936L119.859 47.5626L122.62 47.9823L120.623 50.0251L121.095 52.9107L118.626 51.5466H118.619Z" fill="#C9C9C9" style="fill:#C9C9C9;fill:color(display-p3 0.7882 0.7882 0.7882);fill-opacity:1;"/>
<path opacity="0.28" d="M118.619 45.1632L119.744 47.5569L119.79 47.652L119.892 47.6684L122.41 48.052L120.59 49.9145L120.518 49.9899L120.534 50.0949L120.964 52.7247L118.711 51.4819L118.623 51.4327L118.534 51.4819L116.281 52.7247L116.711 50.0949L116.727 49.9899L116.655 49.9145L114.835 48.052L117.354 47.6684L117.455 47.652L117.501 47.5569L118.626 45.1632M118.619 44.7041L117.321 47.4651L114.416 47.9077L116.517 50.0588L116.022 53.0952L118.619 51.6623L121.216 53.0952L120.721 50.0588L122.823 47.9077L119.918 47.4651L118.619 44.7041Z" fill="white" style="fill:white;fill-opacity:1;"/>
<path d="M118.617 52.4748V51.6616L121.214 53.0946L121.788 54.2226L118.617 52.4748Z" fill="#565656" style="fill:#565656;fill:color(display-p3 0.3373 0.3373 0.3373);fill-opacity:1;"/>
<path d="M120.722 50.0587L121.184 50.5178L123.748 47.8945L122.82 47.9109L120.719 50.062L120.722 50.0587Z" fill="#565656" style="fill:#565656;fill:color(display-p3 0.3373 0.3373 0.3373);fill-opacity:1;"/>
<path d="M119.919 47.4648L118.621 44.7038V43.9824L120.208 47.3533L119.922 47.4648H119.919Z" fill="#565656" style="fill:#565656;fill:color(display-p3 0.3373 0.3373 0.3373);fill-opacity:1;"/>
<path d="M116.02 53.0945L115.446 54.2225L116.052 50.5172L116.515 50.0581L116.02 53.0945Z" fill="#C4C4C4" style="fill:#C4C4C4;fill:color(display-p3 0.7686 0.7686 0.7686);fill-opacity:1;"/>
<path d="M114.416 47.9105L113.488 47.8941L117.033 47.353L117.318 47.4645L114.413 47.9072L114.416 47.9105Z" fill="#C4C4C4" style="fill:#C4C4C4;fill:color(display-p3 0.7686 0.7686 0.7686);fill-opacity:1;"/>
<path d="M118.621 51.6615L121.218 53.0944L120.722 50.058L122.824 47.9069L120.434 47.543C119.473 49.2546 118.237 51.1008 116.706 52.714L118.617 51.6582L118.621 51.6615Z" fill="#A0A0A0" style="fill:#A0A0A0;fill:color(display-p3 0.6275 0.6275 0.6275);fill-opacity:1;"/>
</g>
<defs>
<filter id="filter0_f_1666_22580" x="61.1404" y="-29" width="72.9792" height="114.399" filterUnits="userSpaceOnUse" color-interpolation-filters="sRGB">
<feFlood flood-opacity="0" result="BackgroundImageFix"/>
<feBlend mode="normal" in="SourceGraphic" in2="BackgroundImageFix" result="shape"/>
<feGaussianBlur stdDeviation="11" result="effect1_foregroundBlur_1666_22580"/>
</filter>
<filter id="filter1_f_1666_22580" x="75.3179" y="-18.1392" width="102.453" height="108.741" filterUnits="userSpaceOnUse" color-interpolation-filters="sRGB">
<feFlood flood-opacity="0" result="BackgroundImageFix"/>
<feBlend mode="normal" in="SourceGraphic" in2="BackgroundImageFix" result="shape"/>
<feGaussianBlur stdDeviation="11" result="effect1_foregroundBlur_1666_22580"/>
</filter>
<filter id="filter2_f_1666_22580" x="72.5222" y="28.8779" width="120.145" height="69.042" filterUnits="userSpaceOnUse" color-interpolation-filters="sRGB">
<feFlood flood-opacity="0" result="BackgroundImageFix"/>
<feBlend mode="normal" in="SourceGraphic" in2="BackgroundImageFix" result="shape"/>
<feGaussianBlur stdDeviation="11" result="effect1_foregroundBlur_1666_22580"/>
</filter>
<filter id="filter3_f_1666_22580" x="9.83472" y="-12.0068" width="112.531" height="102.498" filterUnits="userSpaceOnUse" color-interpolation-filters="sRGB">
<feFlood flood-opacity="0" result="BackgroundImageFix"/>
<feBlend mode="normal" in="SourceGraphic" in2="BackgroundImageFix" result="shape"/>
<feGaussianBlur stdDeviation="11" result="effect1_foregroundBlur_1666_22580"/>
</filter>
<filter id="filter4_f_1666_22580" x="0.666748" y="26.3223" width="121.176" height="69.0039" filterUnits="userSpaceOnUse" color-interpolation-filters="sRGB">
<feFlood flood-opacity="0" result="BackgroundImageFix"/>
<feBlend mode="normal" in="SourceGraphic" in2="BackgroundImageFix" result="shape"/>
<feGaussianBlur stdDeviation="11" result="effect1_foregroundBlur_1666_22580"/>
</filter>
<filter id="filter5_d_1666_22580" x="40.8315" y="15.3389" width="110.752" height="77.4648" filterUnits="userSpaceOnUse" color-interpolation-filters="sRGB">
<feFlood flood-opacity="0" result="BackgroundImageFix"/>
<feColorMatrix in="SourceAlpha" type="matrix" values="0 0 0 0 0 0 0 0 0 0 0 0 0 0 0 0 0 0 127 0" result="hardAlpha"/>
<feOffset dy="4"/>
<feGaussianBlur stdDeviation="6.25"/>
<feComposite in2="hardAlpha" operator="out"/>
<feColorMatrix type="matrix" values="0 0 0 0 0.97207 0 0 0 0 0.97207 0 0 0 0 0.97207 0 0 0 0.25 0"/>
<feBlend mode="normal" in2="BackgroundImageFix" result="effect1_dropShadow_1666_22580"/>
<feBlend mode="normal" in="SourceGraphic" in2="effect1_dropShadow_1666_22580" result="shape"/>
</filter>
<linearGradient id="paint0_linear_1666_22580" x1="101.474" y1="92.5153" x2="101.474" y2="-3.10413" gradientUnits="userSpaceOnUse">
<stop stop-color="white" style="stop-color:white;stop-opacity:1;"/>
<stop offset="1" stop-color="#F8F8F8" stop-opacity="0" style="stop-color:none;stop-opacity:0;"/>
</linearGradient>
<linearGradient id="paint1_linear_1666_22580" x1="87.3419" y1="90.1027" x2="133.67" y2="9.40217" gradientUnits="userSpaceOnUse">
<stop stop-color="white" style="stop-color:white;stop-opacity:1;"/>
<stop offset="1" stop-color="#F8F8F8" stop-opacity="0" style="stop-color:none;stop-opacity:0;"/>
</linearGradient>
<linearGradient id="paint2_linear_1666_22580" x1="63.0293" y1="66.7209" x2="166.453" y2="66.7209" gradientUnits="userSpaceOnUse">
<stop stop-color="white" style="stop-color:white;stop-opacity:1;"/>
<stop offset="1" stop-color="#F8F8F8" stop-opacity="0" style="stop-color:none;stop-opacity:0;"/>
</linearGradient>
<linearGradient id="paint3_linear_1666_22580" x1="120.91" y1="82.2684" x2="58.3822" y2="9.9097" gradientUnits="userSpaceOnUse">
<stop stop-color="white" style="stop-color:white;stop-opacity:1;"/>
<stop offset="1" stop-color="#F8F8F8" stop-opacity="0" style="stop-color:none;stop-opacity:0;"/>
</linearGradient>
<linearGradient id="paint4_linear_1666_22580" x1="131.152" y1="62.6432" x2="27.9932" y2="56.0416" gradientUnits="userSpaceOnUse">
<stop stop-color="white" style="stop-color:white;stop-opacity:1;"/>
<stop offset="1" stop-color="#F8F8F8" stop-opacity="0" style="stop-color:none;stop-opacity:0;"/>
</linearGradient>
</defs>
</svg>
