<svg width="150" height="70" viewBox="0 0 173 96" fill="none" xmlns="http://www.w3.org/2000/svg">
<g filter="url(#filter0_f_1666_22715)">
<path d="M74.6353 2H99.6984L92.6014 62.8854H82.7552L74.6353 2Z" fill="url(#paint0_linear_1666_22715)" style=""/>
</g>
<g filter="url(#filter1_f_1666_22715)">
<path d="M116.575 11.3928L137.451 23.3774L95.0985 67.3845L86.8972 62.6763L116.575 11.3928Z" fill="url(#paint1_linear_1666_22715)" style=""/>
</g>
<g filter="url(#filter2_f_1666_22715)">
<path d="M150.333 52.0566L150.333 73.7146L84.4788 67.5819L84.4788 59.0734L150.333 52.0566Z" fill="url(#paint2_linear_1666_22715)" style=""/>
</g>
<g filter="url(#filter3_f_1666_22715)">
<path d="M30.2632 32.0112L47.9855 16.6967L89.5335 61.2728L82.5712 67.2892L30.2632 32.0112Z" fill="url(#paint3_linear_1666_22715)" style=""/>
</g>
<g filter="url(#filter4_f_1666_22715)">
<path d="M22.3335 71.4707L23.7174 49.8458L89.0798 59.1114L88.5361 67.6069L22.3335 71.4707Z" fill="url(#paint4_linear_1666_22715)" style=""/>
</g>
<path d="M85.2984 75.0542C107.54 75.0542 125.569 70.4871 125.569 64.8506C125.569 59.214 107.54 54.647 85.2984 54.647C63.0569 54.647 45.0281 59.214 45.0281 64.8506C45.0281 70.4871 63.0569 75.0542 85.2984 75.0542Z" fill="#1B1E1E" style="fill:#1B1E1E;fill:color(display-p3 0.1059 0.1176 0.1176);fill-opacity:1;"/>
<path d="M85.296 54.9645C107.342 54.9645 125.215 59.3916 125.215 64.851C125.215 70.3103 107.342 74.7374 85.296 74.7374C63.2503 74.7374 45.3769 70.3103 45.3769 64.851C45.3769 59.3916 63.2503 54.9645 85.296 54.9645ZM85.296 54.3271C74.5732 54.3271 64.4815 55.3624 56.8863 57.2433C46.7915 59.743 44.6743 62.7586 44.6743 64.8479C44.6743 66.9371 46.7915 69.9528 56.8863 72.4524C64.4846 74.3333 74.5732 75.3717 85.296 75.3717C96.0187 75.3717 106.11 74.3364 113.709 72.4524C123.8 69.9528 125.921 66.9371 125.921 64.8479C125.921 62.7586 123.803 59.743 113.709 57.2433C106.11 55.3624 96.0219 54.3271 85.296 54.3271Z" fill="black" style="fill:black;fill-opacity:1;"/>
<g opacity="0.46">
<path d="M85.2941 70.2694C105.981 70.2694 122.751 67.0579 122.751 63.0939C122.751 59.13 105.981 55.9185 85.2941 55.9185C64.6071 55.9185 47.8374 59.13 47.8374 63.0939C47.8374 67.0579 64.6071 70.2694 85.2941 70.2694Z" fill="black" style="fill:black;fill-opacity:1;"/>
</g>
<path d="M45.3977 65.1677C45.2143 65.1677 45.0588 65.0402 45.0464 64.8723V45.0807C45.0464 45.0434 45.0526 45.003 45.0681 44.9688C46.8185 40.694 54.5816 39.7302 54.9111 39.6929H54.9577C55.0417 39.6929 55.1256 39.7209 55.1909 39.7737C55.2686 39.8328 55.3091 39.9198 55.3091 40.0131V59.727C55.3091 59.8855 55.1785 60.0192 55.0075 60.0441C46.1936 61.1602 45.7708 64.3966 45.749 64.7884V64.8599C45.749 65.0309 45.5998 65.1677 45.4101 65.177H45.3946L45.3977 65.1677Z" fill="#1D1E1E" style="fill:#1D1E1E;fill:color(display-p3 0.1137 0.1176 0.1176);fill-opacity:1;"/>
<path d="M54.962 40.0065V59.7204C45.9335 60.8614 45.4268 64.2221 45.4019 64.7755V45.0803C47.0963 40.9361 54.962 40.0065 54.962 40.0065ZM54.962 39.3691C54.9309 39.3691 54.9029 39.3691 54.8718 39.3754C54.5329 39.4158 46.5678 40.4044 44.7459 44.8596C44.7179 44.9311 44.7024 45.0057 44.7024 45.0834V64.8999C44.7335 65.2326 45.0413 65.4875 45.4019 65.4875H45.433C45.8092 65.4719 46.1045 65.1984 46.1045 64.8564V64.7942C46.1263 64.4087 46.5615 61.4334 55.0552 60.3577C55.4034 60.3142 55.6615 60.0437 55.6615 59.7266V40.0127C55.6615 39.8293 55.5744 39.6552 55.4221 39.5339C55.2915 39.4313 55.1267 39.3754 54.9588 39.3754H54.962V39.3691Z" fill="black" style="fill:black;fill-opacity:1;"/>
<path d="M85.1162 73.7797C79.3304 73.7797 73.6846 71.8584 69.2201 68.3608C67.3765 66.9183 65.0386 66.1255 62.6322 66.1255H62.2809V65.8052C62.2809 62.6217 59.2777 60.0381 55.5842 60.0381H55.2329V39.6869H55.5842C59.2777 39.6869 62.2809 37.0971 62.2809 33.9198V33.5996H62.6322C65.0386 33.5996 67.3765 32.8068 69.2201 31.3642C73.6846 27.8698 79.3273 25.9453 85.1162 25.9453C90.9051 25.9453 96.5478 27.8666 101.012 31.3642C102.856 32.8068 105.194 33.5996 107.6 33.5996H108.321V33.9198C108.321 37.1034 111.325 39.6869 115.018 39.6869H115.369V60.0381H115.018C111.325 60.0381 108.321 62.6279 108.321 65.8052V66.1255H107.6C105.194 66.1255 102.856 66.9183 101.012 68.3608C96.5447 71.8553 90.902 73.7797 85.1162 73.7797Z" fill="#9E7852" style="fill:#9E7852;fill:color(display-p3 0.6196 0.4706 0.3216);fill-opacity:1;"/>
<path d="M85.1152 26.2653C91.0626 26.2653 96.5188 28.2674 100.784 31.6065C102.659 33.0739 105.072 33.9195 107.605 33.9195H107.975C107.975 37.2803 111.131 40.0069 115.023 40.0069V59.7208C111.131 59.7208 107.975 62.4473 107.975 65.8081H107.605C105.078 65.8081 102.665 66.6568 100.784 68.1212C96.5188 71.4571 91.0626 73.4623 85.1152 73.4623C79.1677 73.4623 73.7115 71.4602 69.446 68.1212C67.5713 66.6537 65.1588 65.8081 62.625 65.8081C62.625 62.4473 59.4694 59.7208 55.577 59.7208V40.0069C59.4694 40.0069 62.625 37.2803 62.625 33.9195C65.1525 33.9195 67.5651 33.0708 69.446 31.6065C73.7115 28.2705 79.1677 26.2653 85.1152 26.2653ZM85.1152 25.6279C79.2454 25.6279 73.5156 27.5804 68.9859 31.1215C67.2076 32.5112 64.9474 33.2791 62.6281 33.2791H61.9254V33.9164C61.9254 36.9197 59.0808 39.3664 55.5801 39.3664H54.8774V60.355H55.5801C59.0808 60.355 61.9254 62.8017 61.9254 65.805V66.4423H62.6281C64.9505 66.4423 67.2076 67.2071 68.9859 68.5999C73.5156 72.1441 79.2454 74.0935 85.1152 74.0935C90.9849 74.0935 96.7147 72.141 101.244 68.5999C103.023 67.2102 105.283 66.4423 107.602 66.4423H108.675V65.805C108.675 62.8017 111.52 60.355 115.02 60.355H115.723V39.3695H115.02C111.52 39.3695 108.675 36.9228 108.675 33.9195V33.2822H107.602C105.28 33.2822 103.023 32.5174 101.244 31.1246C96.7116 27.5804 90.9849 25.631 85.1152 25.631V25.6279Z" fill="black" style="fill:black;fill-opacity:1;"/>
<path d="M85.1195 69.3147C96.9677 69.3147 106.574 60.6065 106.574 49.8619C106.574 39.1174 96.9677 30.4092 85.1195 30.4092C73.2712 30.4092 63.6646 39.1174 63.6646 49.8619C63.6646 60.6065 73.2712 69.3147 85.1195 69.3147Z" fill="#D6CA85" style="fill:#D6CA85;fill:color(display-p3 0.8392 0.7922 0.5216);fill-opacity:1;"/>
<path d="M106.079 34.8932L107.516 33.917C105.019 33.8983 102.635 33.0558 100.782 31.6039C100.293 31.2215 99.7867 30.8578 99.2675 30.5127L80.8843 73.1116C82.2584 73.3386 83.673 73.4598 85.1156 73.4598C91.063 73.4598 96.5192 71.4577 100.785 68.1186C102.659 66.6512 105.072 65.8056 107.606 65.8056H107.976L106.085 64.1951V34.8932H106.082H106.079Z" fill="#6D4424" style="fill:#6D4424;fill:color(display-p3 0.4275 0.2667 0.1412);fill-opacity:1;"/>
<path d="M85.0785 70.9097C79.9207 70.9097 74.8935 69.1936 70.9078 66.0784C69.1761 64.726 67.0061 63.9519 64.7552 63.8804C64.5718 60.8678 61.7706 58.4428 58.2886 58.2874V40.7933C61.7706 40.6409 64.5749 38.2159 64.7552 35.2003C67.0061 35.1287 69.1793 34.3546 70.9078 33.0022C74.8904 29.887 79.9207 28.1709 85.0785 28.1709C90.2362 28.1709 95.2634 29.887 99.246 33.0022C101.062 34.4199 103.368 35.2065 105.737 35.2065C105.924 38.219 108.722 40.6409 112.204 40.7933V58.2874C108.722 58.4397 105.921 60.8616 105.737 63.8742C103.368 63.8742 101.058 64.6576 99.246 66.0784C95.2634 69.1936 90.2331 70.9097 85.0785 70.9097Z" fill="#A36934" style="fill:#A36934;fill:color(display-p3 0.6392 0.4118 0.2039);fill-opacity:1;"/>
<path d="M85.0782 28.4972C90.1489 28.4972 95.0984 30.1854 99.0157 33.2477C100.813 34.6529 103.07 35.455 105.414 35.5234C105.759 38.4645 108.464 40.8056 111.853 41.0916V57.9888C108.461 58.2748 105.756 60.6189 105.414 63.5569C103.076 63.6284 100.813 64.4274 99.0157 65.8327C95.0984 68.8981 90.1489 70.5832 85.0782 70.5832C80.0075 70.5832 75.058 68.895 71.1408 65.8327C69.4308 64.4958 67.3043 63.7061 65.0845 63.5725C64.7518 60.6252 62.0377 58.2748 58.6459 57.9888V41.0916C62.0439 40.8056 64.7518 38.4552 65.0845 35.5079C67.3043 35.3742 69.4308 34.5845 71.1408 33.2477C75.058 30.1823 80.0075 28.4972 85.0782 28.4972ZM85.0782 27.8599C79.6127 27.8599 74.601 29.7004 70.6775 32.7658C68.9552 34.1151 66.7354 34.8923 64.413 34.8923C64.413 37.9826 61.5154 40.4853 57.937 40.4853V58.6012C61.5154 58.6012 64.413 61.1039 64.413 64.1942C66.7385 64.1942 68.9583 64.9715 70.6775 66.3208C74.5979 69.3893 79.6127 71.2267 85.0782 71.2267C90.5438 71.2267 95.5554 69.3862 99.4758 66.3208C101.198 64.9715 103.418 64.1942 105.74 64.1942H106.079C106.079 61.1039 108.977 58.6012 112.555 58.6012V40.4853C108.977 40.4853 106.079 37.9826 106.079 34.8923H105.74C103.415 34.8923 101.195 34.1151 99.4758 32.7658C95.5554 29.6973 90.5438 27.8599 85.0782 27.8599Z" fill="#D3AB84" style="fill:#D3AB84;fill:color(display-p3 0.8275 0.6706 0.5176);fill-opacity:1;"/>
<path d="M85.0782 27.8599C79.6127 27.8599 74.601 29.7004 70.6775 32.7689C68.9552 34.1182 66.7354 34.8954 64.413 34.8954C64.413 37.9857 61.5154 40.4884 57.937 40.4884V58.6043C61.5154 58.6043 64.413 61.1071 64.413 64.1974C66.7385 64.1974 68.9583 64.9746 70.6775 66.3239C71.004 66.5788 71.3428 66.8213 71.6848 67.0607L89.1976 28.2174C87.8607 27.9842 86.4866 27.8599 85.0751 27.8599H85.0782Z" fill="#D3AB84" style="fill:#D3AB84;fill:color(display-p3 0.8275 0.6706 0.5176);fill-opacity:1;"/>
<path d="M115.017 59.7207L112.558 58.6015V40.4887L115.017 40.0068V59.7207Z" fill="#6D4424" style="fill:#6D4424;fill:color(display-p3 0.4275 0.2667 0.1412);fill-opacity:1;"/>
<path d="M55.5774 40.0068L57.9371 40.4887V58.6015L55.5774 59.7207V40.0068Z" fill="#84532A" style="fill:#84532A;fill:color(display-p3 0.5176 0.3255 0.1647);fill-opacity:1;"/>
<path d="M125.267 65.1677C125.078 65.1615 124.929 65.0216 124.929 64.8506V64.7791C124.91 64.3874 124.49 61.1509 115.673 60.0348C115.499 60.0131 115.372 59.8794 115.372 59.7177V40.0038C115.372 39.9105 115.415 39.8266 115.49 39.7644C115.552 39.7147 115.639 39.6836 115.723 39.6836H115.77C116.099 39.7209 123.862 40.6847 125.616 44.9595C125.628 44.9937 125.637 45.0341 125.637 45.0714V64.863C125.622 65.0278 125.469 65.1584 125.286 65.1584H125.274L125.267 65.1677Z" fill="#1D1E1E" style="fill:#1D1E1E;fill:color(display-p3 0.1137 0.1176 0.1176);fill-opacity:1;"/>
<path d="M115.72 40.0065C115.72 40.0065 123.582 40.9329 125.28 45.0803V64.7755C125.258 64.2253 124.748 60.8645 115.72 59.7204V40.0065ZM115.72 39.3691C115.552 39.3691 115.387 39.422 115.256 39.5277C115.104 39.6489 115.017 39.823 115.017 40.0065V59.7204C115.017 60.0406 115.278 60.308 115.623 60.3515C124.117 61.4272 124.555 64.4025 124.574 64.788V64.8533C124.574 65.1952 124.869 65.4688 125.246 65.4844H125.277C125.64 65.4844 125.945 65.2263 125.976 64.8968C125.976 64.8968 125.979 64.8533 125.976 64.7662V45.0834C125.976 45.0057 125.961 44.9342 125.933 44.8596C124.111 40.4044 116.146 39.4158 115.807 39.3754C115.776 39.3722 115.748 39.3691 115.717 39.3691H115.72Z" fill="black" style="fill:black;fill-opacity:1;"/>
<path d="M85.0492 70.9127C79.8914 70.9127 74.8642 69.1965 70.8785 66.0813C69.1468 64.7289 66.9768 63.9548 64.7259 63.8833C64.5425 60.8707 61.7413 58.4457 58.2593 58.2903V40.7962C61.7413 40.6439 64.5456 38.2189 64.7259 35.2032C66.9768 35.1317 69.15 34.3575 70.8785 33.0051C74.8611 29.89 79.8914 28.1738 85.0492 28.1738C90.2069 28.1738 95.2341 29.89 99.2167 33.0051C101.032 34.4228 103.339 35.2094 105.708 35.2094C105.895 38.222 108.693 40.6439 112.175 40.7962V58.2903C108.693 58.4426 105.892 60.8645 105.708 63.8771C103.339 63.8771 101.029 64.6605 99.2167 66.0813C95.2341 69.1965 90.2038 70.9127 85.0492 70.9127Z" fill="black" style="fill:black;fill-opacity:1;"/>
<g opacity="0.6">
<mask id="mask0_1666_22715" style="mask-type:luminance" maskUnits="userSpaceOnUse" x="58" y="28" width="55" height="43">
<path d="M85.0492 70.9146C79.8914 70.9146 74.8642 69.1985 70.8785 66.0833C69.1468 64.7309 66.9768 63.9568 64.7259 63.8853C64.5425 60.8727 61.7413 58.4477 58.2593 58.2922V40.7981C61.7413 40.6458 64.5456 38.2208 64.7259 35.2051C66.9768 35.1336 69.15 34.3595 70.8785 33.0071C74.8611 29.8919 79.8914 28.1758 85.0492 28.1758C90.2069 28.1758 95.2341 29.8919 99.2167 33.0071C101.032 34.4248 103.339 35.2114 105.708 35.2114C105.895 38.2239 108.693 40.6458 112.175 40.7981V58.2922C108.693 58.4446 105.892 60.8665 105.708 63.879C103.339 63.879 101.029 64.6625 99.2167 66.0833C95.2341 69.1985 90.2038 70.9146 85.0492 70.9146Z" fill="white" style="fill:white;fill-opacity:1;"/>
</mask>
<g mask="url(#mask0_1666_22715)">
<path d="M84.3182 12.9297L53.8131 65.241L53.7603 67.7686L93.2969 13.1193L84.3182 12.9297Z" fill="#FF0080" style="fill:#FF0080;fill:color(display-p3 1.0000 0.0000 0.5020);fill-opacity:1;"/>
<path d="M54.0184 55.445L73.8753 23.9326L53.9282 59.7105L54.0184 55.445Z" fill="#F4FA23" style="fill:#F4FA23;fill:color(display-p3 0.9569 0.9804 0.1373);fill-opacity:1;"/>
<path d="M54.2144 46.1241L54.3418 40.0399L63.5723 22.2939L70.81 23.8671L54.2144 46.1241Z" fill="#FF0080" style="fill:#FF0080;fill:color(display-p3 1.0000 0.0000 0.5020);fill-opacity:1;"/>
<path d="M92.3623 80.0892L115.857 39.8002L115.897 37.854L85.4448 79.9462L92.3623 80.0892Z" fill="#FF0080" style="fill:#FF0080;fill:color(display-p3 1.0000 0.0000 0.5020);fill-opacity:1;"/>
<path d="M115.698 47.3462L100.405 71.6147L115.766 44.0601L115.698 47.3462Z" fill="#F4FA23" style="fill:#F4FA23;fill:color(display-p3 0.9569 0.9804 0.1373);fill-opacity:1;"/>
<path d="M115.549 54.5254L115.45 59.2106L108.339 72.8807L102.765 71.6651L115.549 54.5254Z" fill="#FF0080" style="fill:#FF0080;fill:color(display-p3 1.0000 0.0000 0.5020);fill-opacity:1;"/>
<path d="M115.066 77.4036L97.1558 72.0967L103.722 69.5566L102.96 71.0614L99.5963 71.8417L115.119 74.8481L115.066 77.4036Z" fill="#F4FA23" style="fill:#F4FA23;fill:color(display-p3 0.9569 0.9804 0.1373);fill-opacity:1;"/>
<path d="M115.167 72.7186L110.575 70.9185L115.254 68.5215L115.052 69.3081L112.589 70.5641L115.188 71.6833L115.167 72.7186Z" fill="#F4FA23" style="fill:#F4FA23;fill:color(display-p3 0.9569 0.9804 0.1373);fill-opacity:1;"/>
<path d="M92.7322 60.807L116.23 20.518L116.27 18.5718L85.8179 60.664L92.7322 60.807Z" fill="#FF0080" style="fill:#FF0080;fill:color(display-p3 1.0000 0.0000 0.5020);fill-opacity:1;"/>
<path d="M116.071 28.064L100.775 52.3325L116.139 24.7778L116.071 28.064Z" fill="#F4FA23" style="fill:#F4FA23;fill:color(display-p3 0.9569 0.9804 0.1373);fill-opacity:1;"/>
<path d="M80.7807 38.604L57.2863 78.893L57.2458 80.8392L87.6981 38.7501L80.7807 38.604Z" fill="#FF0080" style="fill:#FF0080;fill:color(display-p3 1.0000 0.0000 0.5020);fill-opacity:1;"/>
<path d="M57.4451 71.3471L72.7381 47.0786L57.3767 74.6333L57.4451 71.3471Z" fill="#F4FA23" style="fill:#F4FA23;fill:color(display-p3 0.9569 0.9804 0.1373);fill-opacity:1;"/>
</g>
</g>
<g opacity="0.44">
<mask id="mask1_1666_22715" style="mask-type:luminance" maskUnits="userSpaceOnUse" x="45" y="40" width="12" height="26">
<path d="M46.095 65.4777C45.9115 65.4777 45.7561 65.3503 45.7437 65.1824V45.3908C45.7437 45.3534 45.7499 45.313 45.7654 45.2788C47.5158 41.004 55.2788 40.0402 55.6084 40.0029H55.655C55.7389 40.0029 55.8229 40.0309 55.8882 40.0838C55.9659 40.1428 56.0063 40.2299 56.0063 40.3232V60.0371C56.0063 60.1956 55.8757 60.3293 55.7048 60.3542C46.8909 61.4703 46.468 64.7067 46.4463 65.0984V65.1699C46.4463 65.3409 46.297 65.4777 46.1074 65.4871H46.0919L46.095 65.4777Z" fill="white" style="fill:white;fill-opacity:1;"/>
</mask>
<g mask="url(#mask1_1666_22715)">
<path d="M49.7987 60.3926H48.269L53.3677 51.3984H55.0621V51.8555L54.232 51.9581L49.7987 60.3926Z" fill="#FF0080" style="fill:#FF0080;fill:color(display-p3 1.0000 0.0000 0.5020);fill-opacity:1;"/>
<path d="M52.5007 60.3921L55.3672 55.3711V57.8831L53.934 60.3921H52.5007Z" fill="#FF0080" style="fill:#FF0080;fill:color(display-p3 1.0000 0.0000 0.5020);fill-opacity:1;"/>
<path d="M50.6248 60.3919H51.43L55.0612 53.6641V52.4019L50.6248 60.3919Z" fill="#F4FA23" style="fill:#F4FA23;fill:color(display-p3 0.9569 0.9804 0.1373);fill-opacity:1;"/>
<path d="M55.0615 50.798L48.6384 51.1027L55.0615 49.7285V50.798Z" fill="#FF0080" style="fill:#FF0080;fill:color(display-p3 1.0000 0.0000 0.5020);fill-opacity:1;"/>
<path d="M47.952 50.7203L55.0622 37.9145V37.3052L45.7788 50.7203H47.952Z" fill="#FF0080" style="fill:#FF0080;fill:color(display-p3 1.0000 0.0000 0.5020);fill-opacity:1;"/>
<path d="M55.0628 40.2866L50.4211 48.0061L55.0628 39.2544V40.2866Z" fill="#F4FA23" style="fill:#F4FA23;fill:color(display-p3 0.9569 0.9804 0.1373);fill-opacity:1;"/>
<path d="M55.0622 42.54V44.0137L52.9201 48.3507L51.1636 48.0056L55.0622 42.54Z" fill="#FF0080" style="fill:#FF0080;fill:color(display-p3 1.0000 0.0000 0.5020);fill-opacity:1;"/>
<path d="M55.0621 49.7282L49.4038 48.1799L51.4495 47.3374L51.2194 47.8162L50.1686 48.0836L55.0621 48.9261V49.7282Z" fill="#F4FA23" style="fill:#F4FA23;fill:color(display-p3 0.9569 0.9804 0.1373);fill-opacity:1;"/>
<path d="M55.0619 48.2552L53.6069 47.7205L55.0619 46.937L55.0029 47.1857L54.2381 47.5961L55.0619 47.9319V48.2552Z" fill="#F4FA23" style="fill:#F4FA23;fill:color(display-p3 0.9569 0.9804 0.1373);fill-opacity:1;"/>
</g>
</g>
<g opacity="0.44">
<mask id="mask2_1666_22715" style="mask-type:luminance" maskUnits="userSpaceOnUse" x="114" y="39" width="12" height="27">
<path d="M124.883 65.4788C124.693 65.4725 124.544 65.3357 124.544 65.1616V65.0901C124.522 64.6984 124.099 61.462 115.285 60.3459C115.114 60.3241 114.984 60.1904 114.984 60.0287V40.3149C114.984 40.2216 115.027 40.1376 115.102 40.0755C115.164 40.0257 115.251 39.9946 115.335 39.9946H115.382C115.711 40.0319 123.474 40.9957 125.225 45.2705C125.24 45.3047 125.247 45.3451 125.247 45.3825V65.0684C125.247 65.1399 125.247 65.1741 125.247 65.1741C125.231 65.342 125.079 65.4694 124.895 65.4694H124.88L124.883 65.4788Z" fill="white" style="fill:white;fill-opacity:1;"/>
</mask>
<g mask="url(#mask2_1666_22715)">
<path d="M121.195 60.3926H122.724L117.629 51.3984H115.931V51.8555L116.761 51.9581L121.195 60.3926Z" fill="#FF0080" style="fill:#FF0080;fill:color(display-p3 1.0000 0.0000 0.5020);fill-opacity:1;"/>
<path d="M118.493 60.3921L115.626 55.3711V57.8831L117.06 60.3921H118.493Z" fill="#FF0080" style="fill:#FF0080;fill:color(display-p3 1.0000 0.0000 0.5020);fill-opacity:1;"/>
<path d="M120.368 60.3924H119.566L115.931 53.6646V52.4023L120.368 60.3924Z" fill="#F4FA23" style="fill:#F4FA23;fill:color(display-p3 0.9569 0.9804 0.1373);fill-opacity:1;"/>
<path d="M115.931 50.798L122.354 51.1027L115.931 49.7285V50.798Z" fill="#FF0080" style="fill:#FF0080;fill:color(display-p3 1.0000 0.0000 0.5020);fill-opacity:1;"/>
<path d="M123.041 50.7203L115.931 37.9145V37.3052L125.214 50.7203H123.041Z" fill="#FF0080" style="fill:#FF0080;fill:color(display-p3 1.0000 0.0000 0.5020);fill-opacity:1;"/>
<path d="M115.931 40.2866L120.573 48.0061L115.931 39.2544V40.2866Z" fill="#F4FA23" style="fill:#F4FA23;fill:color(display-p3 0.9569 0.9804 0.1373);fill-opacity:1;"/>
<path d="M115.931 42.5405V44.0142L118.073 48.3512L119.833 48.0061L115.931 42.5405Z" fill="#FF0080" style="fill:#FF0080;fill:color(display-p3 1.0000 0.0000 0.5020);fill-opacity:1;"/>
<path d="M115.931 49.7282L121.589 48.1799L119.544 47.3374L119.774 47.8162L120.825 48.0836L115.931 48.9261V49.7282Z" fill="#F4FA23" style="fill:#F4FA23;fill:color(display-p3 0.9569 0.9804 0.1373);fill-opacity:1;"/>
<path d="M115.931 48.2552L117.386 47.7205L115.931 46.937L115.99 47.1857L116.755 47.5961L115.931 47.9319V48.2552Z" fill="#F4FA23" style="fill:#F4FA23;fill:color(display-p3 0.9569 0.9804 0.1373);fill-opacity:1;"/>
</g>
</g>
<path opacity="0.42" d="M47.8703 42.584V62.0056C45.7779 63.327 45.6163 64.7695 45.6069 65.0897V45.3385C46.0266 44.1913 46.8723 43.2897 47.8703 42.584Z" fill="#484F51" style="fill:#484F51;fill:color(display-p3 0.2824 0.3098 0.3176);fill-opacity:1;"/>
<path opacity="0.42" d="M125.245 45.3136V64.8783C125.236 64.5581 125.071 63.1311 122.982 61.8222V42.584C123.983 43.2835 124.826 44.1758 125.245 45.3136Z" fill="#484F51" style="fill:#484F51;fill:color(display-p3 0.2824 0.3098 0.3176);fill-opacity:1;"/>
<path d="M90.4004 47.686C91.4295 48.0342 92.1974 48.6032 92.701 49.3928C93.2047 50.1825 93.4565 52.0355 93.4565 54.9486C93.4565 57.1124 93.2109 58.7881 92.7166 59.982C92.2222 61.1758 91.3735 62.0836 90.1641 62.7054C88.9547 63.3272 87.4034 63.6381 85.51 63.6381C83.3586 63.6381 81.6704 63.2774 80.4455 62.5562C79.2206 61.8349 78.4123 60.9488 78.0268 59.9011C77.6412 58.8534 77.4485 57.0378 77.4485 54.4511V52.2997H84.2353V56.7176C84.2353 57.8927 84.3037 58.642 84.4467 58.9591C84.5866 59.2793 84.8975 59.4379 85.3794 59.4379C85.9048 59.4379 86.2531 59.2358 86.4209 58.8316C86.5888 58.4275 86.6728 57.3766 86.6728 55.6729V53.792C86.6728 52.7505 86.5546 51.9888 86.3215 51.5069C86.0883 51.0251 85.7401 50.7079 85.2799 50.5587C84.8198 50.4064 83.9307 50.3224 82.6094 50.2976V46.3492C84.2229 46.3492 85.2178 46.287 85.6002 46.1658C85.9795 46.0414 86.2562 45.774 86.424 45.3605C86.5919 44.947 86.6759 44.2973 86.6759 43.4112V41.9003C86.6759 40.9489 86.5764 40.3209 86.3805 40.0193C86.1847 39.7178 85.88 39.5654 85.4665 39.5654C84.997 39.5654 84.6737 39.724 84.4996 40.0442C84.3255 40.3644 84.2384 41.0422 84.2384 42.0837V44.319H77.4516V41.9997C77.4516 39.4007 78.0454 37.6472 79.233 36.7332C80.4207 35.8223 82.3078 35.3652 84.8944 35.3652C88.1309 35.3652 90.3258 35.9964 91.4792 37.2617C92.6326 38.527 93.2078 40.2836 93.2078 42.5314C93.2078 44.0548 92.9995 45.1522 92.586 45.83C92.1725 46.5077 91.445 47.1264 90.4035 47.686H90.4004Z" fill="#CE996A" style="fill:#CE996A;fill:color(display-p3 0.8078 0.6000 0.4157);fill-opacity:1;"/>
<path opacity="0.28" d="M85.504 28.1772C80.0384 28.1772 75.0268 30.0177 71.1033 33.0863C69.3809 34.4356 67.1611 35.2128 64.8388 35.2128C64.8388 38.3031 61.9412 40.8058 58.3628 40.8058V58.9217C61.9412 58.9217 64.8388 61.4244 64.8388 64.5147C67.1643 64.5147 69.384 65.292 71.1033 66.6413C71.4297 66.8962 71.7686 67.1387 72.1106 67.3781L89.6234 28.5348C88.2865 28.3016 86.9123 28.1772 85.5009 28.1772H85.504Z" fill="white" style="fill:white;fill-opacity:1;"/>
<path d="M61.1614 50.9448L58.6587 48.3862L62.1159 47.8576L63.661 44.5684L65.2093 47.8576L68.6664 48.3862L66.1637 50.9448L66.7544 54.5605L63.661 52.8537L60.5676 54.5605L61.1583 50.9448H61.1614Z" fill="#C4844B" style="fill:#C4844B;fill:color(display-p3 0.7686 0.5176 0.2941);fill-opacity:1;"/>
<path d="M63.6625 44.7826L65.1486 47.9444L68.4721 48.4511L66.0658 50.9103L66.6347 54.383L63.6625 52.7446L60.6904 54.383L61.2593 50.9103L58.853 48.4511L62.1765 47.9444L63.6625 44.7826ZM63.6625 44.3535L63.5009 44.6986L62.0583 47.7703L58.8281 48.2615L58.4644 48.3174L58.7255 48.5879L61.0634 50.9787L60.5132 54.355L60.451 54.7343L60.7774 54.554L63.6656 52.9622L66.5539 54.554L66.8803 54.7343L66.8181 54.355L66.2678 50.9787L68.6058 48.5879L68.87 48.3174L68.5063 48.2615L65.2761 47.7703L63.8335 44.6986L63.6719 44.3535H63.6625Z" fill="black" style="fill:black;fill-opacity:1;"/>
<path d="M63.6628 51.8746L61.3497 53.1523L61.7912 50.4475L59.9165 48.5324L62.5032 48.1376L63.6597 45.6753L64.8162 48.1376L67.406 48.5324L65.5313 50.4475L65.9728 53.1523L63.6566 51.8746H63.6628Z" fill="#C6986F" style="fill:#C6986F;fill:color(display-p3 0.7765 0.5961 0.4353);fill-opacity:1;"/>
<path opacity="0.28" d="M63.6622 45.89L64.7161 48.1346L64.7597 48.2248L64.8529 48.2403L67.2126 48.601L65.5058 50.3482L65.4374 50.4166L65.453 50.5161L65.8571 52.9815L63.7461 51.8156L63.6622 51.769L63.5782 51.8156L61.4673 52.9815L61.8714 50.5161L61.887 50.4166L61.8186 50.3482L60.1118 48.601L62.4715 48.2403L62.5647 48.2248L62.6083 48.1346L63.6622 45.89ZM63.6653 45.4609L62.4466 48.0507L59.7231 48.4673L61.6942 50.4819L61.2279 53.3266L63.6653 51.9835L66.0996 53.3266L65.6333 50.4819L67.6044 48.4673L64.8809 48.0507L63.6622 45.4609H63.6653Z" fill="white" style="fill:white;fill-opacity:1;"/>
<path d="M63.6616 52.7441V51.9824L66.099 53.3255L66.6369 54.3825L63.6647 52.7441H63.6616Z" fill="#6D4424" style="fill:#6D4424;fill:color(display-p3 0.4275 0.2667 0.1412);fill-opacity:1;"/>
<path d="M65.6333 50.4808L66.0686 50.9099L68.4749 48.4507L67.6075 48.4662L65.6364 50.4839L65.6333 50.4808Z" fill="#6D4424" style="fill:#6D4424;fill:color(display-p3 0.4275 0.2667 0.1412);fill-opacity:1;"/>
<path d="M64.8803 48.0493L63.6616 45.4595V44.7817L65.1477 47.9435L64.8803 48.0493Z" fill="#6D4424" style="fill:#6D4424;fill:color(display-p3 0.4275 0.2667 0.1412);fill-opacity:1;"/>
<path d="M61.228 53.3261L60.6902 54.3832L61.2591 50.9105L61.6944 50.4814L61.2311 53.3261H61.228Z" fill="#9E7852" style="fill:#9E7852;fill:color(display-p3 0.6196 0.4706 0.3216);fill-opacity:1;"/>
<path d="M59.7241 48.4632L58.8567 48.4477L62.1802 47.9409L62.4475 48.0466L59.7241 48.4632Z" fill="#9E7852" style="fill:#9E7852;fill:color(display-p3 0.6196 0.4706 0.3216);fill-opacity:1;"/>
<path d="M63.6625 51.9832L66.0968 53.3263L65.6304 50.4816L67.6015 48.467L65.3599 48.125C64.4583 49.7292 63.2987 51.4609 61.8655 52.975L63.6593 51.9863L63.6625 51.9832Z" fill="#9E7852" style="fill:#9E7852;fill:color(display-p3 0.6196 0.4706 0.3216);fill-opacity:1;"/>
<path d="M104.275 50.9443L101.773 48.3857L105.23 47.8571L106.775 44.5679L108.323 47.8571L111.78 48.3857L109.278 50.9443L109.868 54.5601L106.775 52.8532L103.682 54.5601L104.272 50.9443H104.275Z" fill="#C4844B" style="fill:#C4844B;fill:color(display-p3 0.7686 0.5176 0.2941);fill-opacity:1;"/>
<path d="M106.778 44.7821L108.265 47.9439L111.588 48.4506L109.182 50.9098L109.751 54.3825L106.778 52.7441L103.806 54.3825L104.375 50.9098L101.969 48.4506L105.292 47.9439L106.778 44.7821ZM106.778 44.353L106.617 44.6981L105.174 47.7698L101.944 48.261L101.58 48.3169L101.841 48.5874L104.179 50.9782L103.629 54.3545L103.567 54.7338L103.893 54.5535L106.782 52.9617L109.67 54.5535L109.996 54.7338L109.934 54.3545L109.384 50.9782L111.722 48.5874L111.986 48.3169L111.622 48.261L108.392 47.7698L106.949 44.6981L106.788 44.353H106.778Z" fill="black" style="fill:black;fill-opacity:1;"/>
<path d="M106.779 51.8741L104.466 53.1518L104.907 50.4471L103.032 48.5319L105.619 48.1371L106.776 45.6748L107.932 48.1371L110.522 48.5319L108.647 50.4471L109.089 53.1518L106.773 51.8741H106.779Z" fill="#C6986F" style="fill:#C6986F;fill:color(display-p3 0.7765 0.5961 0.4353);fill-opacity:1;"/>
<path opacity="0.28" d="M106.777 45.8895L107.831 48.1342L107.875 48.2243L107.968 48.2399L110.328 48.6005L108.621 50.3477L108.552 50.4161L108.568 50.5156L108.972 52.981L106.861 51.8152L106.777 51.7685L106.693 51.8152L104.582 52.981L104.986 50.5156L105.002 50.4161L104.934 50.3477L103.227 48.6005L105.586 48.2399L105.68 48.2243L105.723 48.1342L106.777 45.8895ZM106.78 45.4604L105.562 48.0502L102.838 48.4668L104.809 50.4814L104.343 53.3261L106.78 51.983L109.215 53.3261L108.748 50.4814L110.719 48.4668L107.996 48.0502L106.777 45.4604H106.78Z" fill="white" style="fill:white;fill-opacity:1;"/>
<path d="M106.778 52.7441V51.9824L109.215 53.3255L109.753 54.3825L106.781 52.7441H106.778Z" fill="#6D4424" style="fill:#6D4424;fill:color(display-p3 0.4275 0.2667 0.1412);fill-opacity:1;"/>
<path d="M108.75 50.4808L109.185 50.9099L111.592 48.4507L110.724 48.4662L108.753 50.4839L108.75 50.4808Z" fill="#6D4424" style="fill:#6D4424;fill:color(display-p3 0.4275 0.2667 0.1412);fill-opacity:1;"/>
<path d="M107.996 48.0493L106.778 45.4595V44.7817L108.264 47.9435L107.996 48.0493Z" fill="#6D4424" style="fill:#6D4424;fill:color(display-p3 0.4275 0.2667 0.1412);fill-opacity:1;"/>
<path d="M104.344 53.3261L103.806 54.3832L104.375 50.9105L104.81 50.4814L104.347 53.3261H104.344Z" fill="#9E7852" style="fill:#9E7852;fill:color(display-p3 0.6196 0.4706 0.3216);fill-opacity:1;"/>
<path d="M102.84 48.4627L101.973 48.4472L105.296 47.9404L105.564 48.0461L102.84 48.4627Z" fill="#9E7852" style="fill:#9E7852;fill:color(display-p3 0.6196 0.4706 0.3216);fill-opacity:1;"/>
<path d="M106.778 51.9827L109.213 53.3258L108.746 50.4811L110.717 48.4665L108.476 48.1245C107.574 49.7287 106.415 51.4604 104.981 52.9745L106.775 51.9858L106.778 51.9827Z" fill="#9E7852" style="fill:#9E7852;fill:color(display-p3 0.6196 0.4706 0.3216);fill-opacity:1;"/>
<defs>
<filter id="filter0_f_1666_22715" x="52.6353" y="-20" width="69.0632" height="104.885" filterUnits="userSpaceOnUse" color-interpolation-filters="sRGB">
<feFlood flood-opacity="0" result="BackgroundImageFix"/>
<feBlend mode="normal" in="SourceGraphic" in2="BackgroundImageFix" result="shape"/>
<feGaussianBlur stdDeviation="11" result="effect1_foregroundBlur_1666_22715"/>
</filter>
<filter id="filter1_f_1666_22715" x="64.8972" y="-10.6072" width="94.5537" height="99.9919" filterUnits="userSpaceOnUse" color-interpolation-filters="sRGB">
<feFlood flood-opacity="0" result="BackgroundImageFix"/>
<feBlend mode="normal" in="SourceGraphic" in2="BackgroundImageFix" result="shape"/>
<feGaussianBlur stdDeviation="11" result="effect1_foregroundBlur_1666_22715"/>
</filter>
<filter id="filter2_f_1666_22715" x="62.4788" y="30.0566" width="109.855" height="65.6582" filterUnits="userSpaceOnUse" color-interpolation-filters="sRGB">
<feFlood flood-opacity="0" result="BackgroundImageFix"/>
<feBlend mode="normal" in="SourceGraphic" in2="BackgroundImageFix" result="shape"/>
<feGaussianBlur stdDeviation="11" result="effect1_foregroundBlur_1666_22715"/>
</filter>
<filter id="filter3_f_1666_22715" x="8.26318" y="-5.30322" width="103.27" height="94.5923" filterUnits="userSpaceOnUse" color-interpolation-filters="sRGB">
<feFlood flood-opacity="0" result="BackgroundImageFix"/>
<feBlend mode="normal" in="SourceGraphic" in2="BackgroundImageFix" result="shape"/>
<feGaussianBlur stdDeviation="11" result="effect1_foregroundBlur_1666_22715"/>
</filter>
<filter id="filter4_f_1666_22715" x="0.333496" y="27.8457" width="110.746" height="65.625" filterUnits="userSpaceOnUse" color-interpolation-filters="sRGB">
<feFlood flood-opacity="0" result="BackgroundImageFix"/>
<feBlend mode="normal" in="SourceGraphic" in2="BackgroundImageFix" result="shape"/>
<feGaussianBlur stdDeviation="11" result="effect1_foregroundBlur_1666_22715"/>
</filter>
<linearGradient id="paint0_linear_1666_22715" x1="90.4915" y1="88.0671" x2="90.4915" y2="5.36939" gradientUnits="userSpaceOnUse">
<stop stop-color="#936B3E" style="stop-color:#936B3E;stop-color:color(display-p3 0.5765 0.4196 0.2431);stop-opacity:1;"/>
<stop offset="1" stop-color="#EACC81" stop-opacity="0" style="stop-color:none;stop-opacity:0;"/>
</linearGradient>
<linearGradient id="paint1_linear_1666_22715" x1="78.2694" y1="85.9802" x2="118.337" y2="16.1853" gradientUnits="userSpaceOnUse">
<stop stop-color="#936B3E" style="stop-color:#936B3E;stop-color:color(display-p3 0.5765 0.4196 0.2431);stop-opacity:1;"/>
<stop offset="1" stop-color="#EACC81" stop-opacity="0" style="stop-color:none;stop-opacity:0;"/>
</linearGradient>
<linearGradient id="paint2_linear_1666_22715" x1="57.2418" y1="65.7586" x2="146.689" y2="65.7586" gradientUnits="userSpaceOnUse">
<stop stop-color="#936B3E" style="stop-color:#936B3E;stop-color:color(display-p3 0.5765 0.4196 0.2431);stop-opacity:1;"/>
<stop offset="1" stop-color="#EACC81" stop-opacity="0" style="stop-color:none;stop-opacity:0;"/>
</linearGradient>
<linearGradient id="paint3_linear_1666_22715" x1="107.301" y1="79.2048" x2="53.2231" y2="16.6245" gradientUnits="userSpaceOnUse">
<stop stop-color="#936B3E" style="stop-color:#936B3E;stop-color:color(display-p3 0.5765 0.4196 0.2431);stop-opacity:1;"/>
<stop offset="1" stop-color="#EACC81" stop-opacity="0" style="stop-color:none;stop-opacity:0;"/>
</linearGradient>
<linearGradient id="paint4_linear_1666_22715" x1="116.159" y1="62.2314" x2="26.9401" y2="56.5219" gradientUnits="userSpaceOnUse">
<stop stop-color="#936B3E" style="stop-color:#936B3E;stop-color:color(display-p3 0.5765 0.4196 0.2431);stop-opacity:1;"/>
<stop offset="1" stop-color="#EACC81" stop-opacity="0" style="stop-color:none;stop-opacity:0;"/>
</linearGradient>
</defs>
</svg>
