<svg width="12" height="14" viewBox="0 0 12 14" fill="none" xmlns="http://www.w3.org/2000/svg">
<path d="M0.157608 7.95049C0.0591694 7.84171 0.00713125 7.69876 0.0125882 7.55215C0.0180461 7.40554 0.080569 7.26686 0.186824 7.1657C0.293078 7.06453 0.434654 7.00888 0.581358 7.01062C0.72806 7.01235 0.868279 7.07134 0.972109 7.17499L5.43761 11.8632L5.43761 0.812744C5.43761 0.66356 5.49687 0.520485 5.60236 0.414996C5.70785 0.309507 5.85092 0.250244 6.00011 0.250244C6.14929 0.250244 6.29237 0.309507 6.39786 0.414996C6.50335 0.520485 6.56261 0.66356 6.56261 0.812744L6.56261 11.8632L11.0289 7.17499C11.1327 7.07134 11.2729 7.01235 11.4196 7.01062C11.5663 7.00888 11.7079 7.06453 11.8141 7.1657C11.9204 7.26686 11.9829 7.40554 11.9884 7.55215C11.9938 7.69876 11.9418 7.84171 11.8434 7.95049L6.54311 13.5155C6.42737 13.6371 6.2742 13.7163 6.10811 13.7405C6.03641 13.7534 5.96296 13.7532 5.89136 13.7397C5.72553 13.7154 5.57265 13.6362 5.45711 13.5147L0.157608 7.95049Z" fill="#FEFEFE" style="fill:#FEFEFE;fill:color(display-p3 0.9961 0.9961 0.9961);fill-opacity:1;"/>
</svg>
