<svg width="14" height="12" viewBox="0 0 14 12" fill="none" xmlns="http://www.w3.org/2000/svg">
<path d="M7.95025 11.8425C7.84146 11.941 7.69852 11.993 7.55191 11.9875C7.4053 11.9821 7.26662 11.9196 7.16545 11.8133C7.06429 11.707 7.00864 11.5655 7.01037 11.4188C7.01211 11.2721 7.0711 11.1318 7.17475 11.028L11.863 6.56251L0.8125 6.56251C0.663316 6.56251 0.520241 6.50325 0.414752 6.39776C0.309263 6.29227 0.25 6.1492 0.25 6.00001C0.25 5.85083 0.309263 5.70776 0.414752 5.60227C0.520241 5.49678 0.663316 5.43751 0.8125 5.43751L11.863 5.43751L7.17475 0.971263C7.0711 0.867433 7.01211 0.727214 7.01037 0.580511C7.00864 0.433809 7.06429 0.292233 7.16545 0.185978C7.26662 0.0797237 7.4053 0.0172001 7.55191 0.0117423C7.69852 0.0062845 7.84146 0.0583245 7.95025 0.156763L13.5152 5.45701C13.6368 5.57275 13.716 5.72592 13.7402 5.89201C13.7532 5.96371 13.7529 6.03716 13.7395 6.10876C13.7151 6.27459 13.6359 6.42747 13.5145 6.54301L7.95025 11.8425Z" fill="#FEFEFE" style="fill:#FEFEFE;fill:color(display-p3 0.9961 0.9961 0.9961);fill-opacity:1;"/>
</svg>
