<svg width="19" height="18" viewBox="0 0 19 18" fill="none" xmlns="http://www.w3.org/2000/svg">
<path d="M6.87506 12.4396L4.03031 9.59481C3.88886 9.45819 3.69941 9.3826 3.50276 9.38431C3.30611 9.38601 3.118 9.46489 2.97895 9.60395C2.83989 9.743 2.76101 9.93111 2.75931 10.1278C2.7576 10.3244 2.83319 10.5139 2.96981 10.6553L6.34481 14.0303C6.48546 14.1709 6.67619 14.2499 6.87506 14.2499C7.07393 14.2499 7.26467 14.1709 7.40531 14.0303L15.6553 5.78031C15.7919 5.63886 15.8675 5.44941 15.8658 5.25276C15.8641 5.05611 15.7852 4.868 15.6462 4.72895C15.5071 4.58989 15.319 4.51101 15.1224 4.50931C14.9257 4.5076 14.7363 4.58319 14.5948 4.71981L6.87506 12.4396Z" fill="#F0AC5D" style="fill:#F0AC5D;fill:color(display-p3 0.9393 0.6753 0.3654);fill-opacity:1;"/>
</svg>
