<svg width="37" height="37" viewBox="0 0 37 37" fill="none" xmlns="http://www.w3.org/2000/svg">
<path d="M0.59668 0.596436C0.931555 2.20216 1.2288 3.97309 1.46758 5.85546H7.26256V9.52898H3.05309C3.63306 11.5148 4.01127 14.3726 4.0692 17.6017H7.20676V19.9801H4.04685C4.03506 20.3517 4.03369 20.7144 4.0134 21.0743H7.20676V23.4526H3.80122C3.62333 24.9753 3.36942 26.3224 3.05317 27.4052H7.26264V31.0788H1.46758C1.2288 32.9611 0.931631 34.721 0.59668 36.3265C4.11405 35.6611 8.28118 35.1918 12.8343 34.9756V27.4052H15.5029C16.0963 32.7337 17.1917 36.3266 18.4618 36.3266C19.7318 36.3266 20.8371 32.7337 21.4319 27.4052H24.1004V34.9756C28.6535 35.1919 32.8095 35.6611 36.3269 36.3266C35.992 34.7209 35.7059 32.9611 35.467 31.0788H29.6721V27.4052H33.8815C33.5653 26.3224 33.3059 24.9753 33.1223 23.4526H29.7168V21.0743H32.9101C32.8889 20.7143 32.8779 20.3517 32.8655 19.9801H29.7168V17.6017H32.8432C32.9041 14.3725 33.3016 11.5147 33.8816 9.52898H29.6721V5.85538H35.4671C35.7059 3.97316 35.992 2.20216 36.3269 0.596436C32.8095 1.26193 28.6535 1.74231 24.1004 1.95867V9.52898H21.4319C20.8371 4.19842 19.7319 0.596436 18.4618 0.596436C17.1916 0.596436 16.0964 4.19842 15.5029 9.52898H12.8343V1.95874C8.28118 1.74231 4.11405 1.26193 0.59668 0.596436ZM9.74132 13.6156H27.1933V23.3186H9.7414L9.74132 13.6156ZM11.9745 17.3003V22.2578H24.949V17.3003H11.9745Z" fill="#EACC81" style="fill:#EACC81;fill:color(display-p3 0.9176 0.8000 0.5059);fill-opacity:1;"/>
</svg>
