<svg width="16" height="17" viewBox="0 0 16 17" fill="none" xmlns="http://www.w3.org/2000/svg">
<path fill-rule="evenodd" clip-rule="evenodd" d="M4.68311 2.99992C4.68311 2.35592 5.20577 1.83325 5.84977 1.83325H13.5004C14.1444 1.83325 14.6671 2.35592 14.6671 2.99992V10.6653C14.6671 10.9747 14.5442 11.2714 14.3254 11.4902C14.1066 11.709 13.8099 11.8319 13.5004 11.8319H5.84977C5.54035 11.8319 5.24361 11.709 5.02481 11.4902C4.80602 11.2714 4.68311 10.9747 4.68311 10.6653V2.99992ZM5.84977 2.83325C5.80557 2.83325 5.76318 2.85081 5.73192 2.88207C5.70066 2.91332 5.68311 2.95572 5.68311 2.99992V10.6653C5.68311 10.7579 5.75777 10.8319 5.84977 10.8319H13.5004C13.5446 10.8319 13.587 10.8144 13.6183 10.7831C13.6495 10.7518 13.6671 10.7095 13.6671 10.6653V2.99992C13.6671 2.95572 13.6495 2.91332 13.6183 2.88207C13.587 2.85081 13.5446 2.83325 13.5004 2.83325H5.84977Z" fill="#FEFEFE" style="fill:#FEFEFE;fill:color(display-p3 0.9961 0.9961 0.9961);fill-opacity:1;"/>
<path d="M1.33008 7.66611C1.32999 7.51285 1.3601 7.36107 1.41869 7.21944C1.47729 7.07782 1.56321 6.94913 1.67155 6.84072C1.7799 6.73232 1.90854 6.64632 2.05013 6.58765C2.19172 6.52898 2.34348 6.49878 2.49674 6.49878H3.50008C3.63269 6.49878 3.75986 6.55146 3.85363 6.64523C3.9474 6.73899 4.00008 6.86617 4.00008 6.99878C4.00008 7.13139 3.9474 7.25856 3.85363 7.35233C3.75986 7.4461 3.63269 7.49878 3.50008 7.49878H2.49674C2.45254 7.49878 2.41015 7.51634 2.37889 7.54759C2.34764 7.57885 2.33008 7.62124 2.33008 7.66545L2.33341 14.0001C2.33341 14.0921 2.40741 14.1668 2.50008 14.1668H8.83341C8.87761 14.1668 8.92001 14.1492 8.95126 14.118C8.98252 14.0867 9.00008 14.0443 9.00008 14.0001V12.9934C9.00008 12.8608 9.05276 12.7337 9.14653 12.6399C9.24029 12.5461 9.36747 12.4934 9.50008 12.4934C9.63269 12.4934 9.75986 12.5461 9.85363 12.6399C9.9474 12.7337 10.0001 12.8608 10.0001 12.9934V14.0001C10.0001 14.3095 9.87716 14.6063 9.65837 14.8251C9.43958 15.0439 9.14283 15.1668 8.83341 15.1668H2.50008C2.19066 15.1668 1.89391 15.0439 1.67512 14.8251C1.45633 14.6063 1.33341 14.3095 1.33341 14.0001L1.33008 7.66611Z" fill="#FEFEFE" style="fill:#FEFEFE;fill:color(display-p3 0.9961 0.9961 0.9961);fill-opacity:1;"/>
</svg>
