<svg width="17" height="17" viewBox="0 0 17 17" fill="none" xmlns="http://www.w3.org/2000/svg">
<path d="M8.77074 0.75C8.93688 0.750007 9.09739 0.810172 9.2226 0.91937C9.3478 1.02857 9.42923 1.17941 9.45183 1.344L9.45824 1.4375L9.45916 8.08333H16.1077C16.2819 8.08339 16.4496 8.14956 16.5769 8.26848C16.7042 8.38739 16.7816 8.55019 16.7934 8.72397C16.8053 8.89776 16.7508 9.06957 16.6408 9.20469C16.5309 9.33981 16.3738 9.42817 16.2012 9.45192L16.1077 9.45833H9.45916L9.46099 16.1042C9.46071 16.2783 9.39438 16.4458 9.27538 16.5729C9.15639 16.7 8.99361 16.7772 8.8199 16.789C8.64618 16.8007 8.47448 16.7461 8.33946 16.6362C8.20443 16.5263 8.11614 16.3692 8.09241 16.1968L8.08599 16.1033L8.08416 9.45833H1.43924C1.26506 9.45828 1.09738 9.39211 0.970101 9.27319C0.842821 9.15427 0.765426 8.99148 0.753553 8.81769C0.74168 8.64391 0.796216 8.4721 0.90614 8.33698C1.01606 8.20185 1.17318 8.11349 1.34574 8.08975L1.43924 8.08333H8.08508L8.08324 1.4375C8.08324 1.25516 8.15568 1.0803 8.28461 0.951364C8.41354 0.822433 8.58841 0.75 8.77074 0.75Z" fill="#FEFEFE" style="fill:#FEFEFE;fill:color(display-p3 0.9961 0.9961 0.9961);fill-opacity:1;"/>
</svg>
