<svg width="64" height="64" viewBox="0 0 64 64" fill="none" xmlns="http://www.w3.org/2000/svg">
  <g clip-path="url(#clip0_768_8057)">
    <path
      d="M9.94368 2C9.94368 1.46957 10.155 0.960859 10.5311 0.585786C10.9073 0.210714 11.4174 0 11.9493 0L52.0627 0C52.5946 0 53.1048 0.210714 53.4809 0.585786C53.857 0.960859 54.0683 1.46957 54.0683 2C54.0683 4.152 54.0202 6.2 53.932 8.144C55.517 8.40572 57.0334 8.98128 58.3918 9.83672C59.7501 10.6922 60.923 11.8102 61.8412 13.1248C62.7593 14.4395 63.4042 15.9242 63.7378 17.4913C64.0713 19.0585 64.0868 20.6763 63.7833 22.2495C63.4799 23.8228 62.8636 25.3194 61.9707 26.6514C61.0779 27.9833 59.9267 29.1234 58.585 30.0046C57.2432 30.8857 55.7381 31.4901 54.1584 31.782C52.5787 32.0738 50.9564 32.0473 49.3871 31.704C46.2182 39.164 41.8538 42.812 38.023 43.748V52.44L43.7392 53.864C44.5174 54.056 45.2514 54.404 45.8932 54.884L53.2661 60.4C53.6028 60.6519 53.8516 61.003 53.9771 61.4037C54.1026 61.8043 54.0985 62.2342 53.9654 62.6325C53.8323 63.0307 53.5769 63.377 53.2354 63.6225C52.8939 63.8679 52.4836 64 52.0627 64H11.9493C11.5284 64 11.1181 63.8679 10.7766 63.6225C10.4351 63.377 10.1797 63.0307 10.0466 62.6325C9.91348 62.2342 9.90939 61.8043 10.0349 61.4037C10.1604 61.003 10.4092 60.6519 10.7459 60.4L18.1188 54.884C18.7606 54.404 19.4947 54.056 20.2729 53.864L25.989 52.44V43.748C22.1582 42.812 17.7939 39.164 14.6249 31.7C13.0548 32.0452 11.4313 32.0731 9.85018 31.7822C8.26908 31.4912 6.76247 30.8873 5.41934 30.0061C4.07621 29.1248 2.92379 27.9841 2.03014 26.6513C1.13649 25.3185 0.519726 23.8207 0.216277 22.2463C-0.087172 20.6718 -0.0711539 19.0527 0.263385 17.4845C0.597925 15.9164 1.2442 14.431 2.16405 13.116C3.08389 11.8011 4.25866 10.6833 5.61896 9.82861C6.97926 8.97396 8.49752 8.39978 10.0841 8.14C9.98964 6.09469 9.94282 4.04747 9.94368 2ZM10.3408 12.16C8.24763 12.5419 6.39234 13.7373 5.18306 15.4833C3.97378 17.2293 3.50958 19.3827 3.89258 21.47C4.27557 23.5573 5.47439 25.4073 7.2253 26.6132C8.97621 27.819 11.1358 28.2819 13.229 27.9C11.8932 23.7 10.8703 18.516 10.3408 12.16ZM50.7871 27.9C52.8802 28.2819 55.0398 27.819 56.7907 26.6132C58.5416 25.4073 59.7405 23.5573 60.1235 21.47C60.5064 19.3827 60.0422 17.2293 58.833 15.4833C57.6237 13.7373 55.7684 12.5419 53.6752 12.16C53.1417 18.52 52.1188 23.7 50.7871 27.9Z"
      fill="#D08B05"
      style="fill:#D08B05;fill:color(display-p3 0.8157 0.5451 0.0196);fill-opacity:1;" />
    <path opacity="0.7" d="M31.8104 28V12.52H28.3784V10.12H34.6184V28H31.8104Z" fill="black"
      style="fill:black;fill-opacity:1;" />
  </g>
  <defs>
    <clipPath id="clip0_768_8057">
      <rect width="64" height="64" fill="white" style="fill:white;fill-opacity:1;" />
    </clipPath>
  </defs>
</svg>