<svg width="57" height="57" viewBox="0 0 57 57" fill="none" xmlns="http://www.w3.org/2000/svg">
  <g clip-path="url(#clip0_768_7693)">
    <path
      d="M9.20072 2.25C9.20072 1.78587 9.38561 1.34075 9.71473 1.01256C10.0438 0.684374 10.4902 0.5 10.9557 0.5L46.0548 0.5C46.5203 0.5 46.9667 0.684374 47.2958 1.01256C47.6249 1.34075 47.8098 1.78587 47.8098 2.25C47.8098 4.133 47.7677 5.925 47.6905 7.626C49.0773 7.85501 50.4042 8.35862 51.5928 9.10713C52.7814 9.85565 53.8076 10.8339 54.611 11.9842C55.4144 13.1346 55.9787 14.4336 56.2705 15.8049C56.5624 17.1761 56.576 18.5918 56.3104 19.9684C56.0449 21.3449 55.5056 22.6545 54.7244 23.8199C53.9432 24.9854 52.9359 25.983 51.7619 26.754C50.5878 27.525 49.2709 28.0538 47.8886 28.3092C46.5064 28.5646 45.0868 28.5414 43.7137 28.241C40.9409 34.7685 37.1221 37.9605 33.7701 38.7795V46.385L38.7718 47.631C39.4527 47.799 40.095 48.1035 40.6566 48.5235L47.1078 53.35C47.4025 53.5704 47.6201 53.8776 47.73 54.2282C47.8398 54.5788 47.8362 54.955 47.7197 55.3034C47.6033 55.6518 47.3798 55.9549 47.081 56.1697C46.7822 56.3844 46.4232 56.5 46.0548 56.5H10.9557C10.5873 56.5 10.2283 56.3844 9.92953 56.1697C9.63072 55.9549 9.40725 55.6518 9.29077 55.3034C9.1743 54.955 9.17072 54.5788 9.28054 54.2282C9.39037 53.8776 9.60803 53.5704 9.9027 53.35L16.3539 48.5235C16.9155 48.1035 17.5578 47.799 18.2388 47.631L23.2404 46.385V38.7795C19.8884 37.9605 16.0696 34.7685 13.2968 28.2375C11.923 28.5395 10.5024 28.564 9.1189 28.3094C7.73544 28.0548 6.41716 27.5264 5.24193 26.7553C4.06669 25.9842 3.05832 24.9861 2.27637 23.8199C1.49443 22.6537 0.95476 21.3431 0.689242 19.9655C0.423724 18.5878 0.43774 17.1711 0.730462 15.799C1.02318 14.4268 1.58868 13.1271 2.39354 11.9765C3.19841 10.8259 4.22633 9.84786 5.41659 9.10004C6.60686 8.35221 7.93533 7.84981 9.32356 7.6225C9.24093 5.83286 9.19997 4.04154 9.20072 2.25ZM9.5482 11.14C7.71668 11.4742 6.09329 12.5202 5.03518 14.0479C3.97706 15.5756 3.57089 17.4599 3.90601 19.2862C4.24113 21.1126 5.29009 22.7314 6.82214 23.7865C8.35418 24.8416 10.2438 25.2467 12.0753 24.9125C10.9065 21.2375 10.0115 16.7015 9.5482 11.14ZM44.9387 24.9125C46.7702 25.2467 48.6598 24.8416 50.1919 23.7865C51.7239 22.7314 52.7729 21.1126 53.108 19.2862C53.4431 17.4599 53.037 15.5756 51.9788 14.0479C50.9207 12.5202 49.2974 11.4742 47.4658 11.14C46.999 16.705 46.104 21.2375 44.9387 24.9125Z"
      fill="#AA4B05"
      style="fill:#AA4B05;fill:color(display-p3 0.6667 0.2941 0.0196);fill-opacity:1;" />
    <path opacity="0.7"
      d="M28.4818 28.788C27.5218 28.788 26.6178 28.612 25.7698 28.26C24.9378 27.908 24.2178 27.412 23.6098 26.772C23.0178 26.132 22.5938 25.38 22.3378 24.516L24.7378 23.604C25.0578 24.452 25.5458 25.108 26.2018 25.572C26.8578 26.036 27.6178 26.268 28.4818 26.268C29.1858 26.268 29.7938 26.132 30.3058 25.86C30.8338 25.588 31.2418 25.204 31.5298 24.708C31.8338 24.212 31.9858 23.612 31.9858 22.908C31.9858 22.22 31.8338 21.628 31.5298 21.132C31.2418 20.636 30.8338 20.26 30.3058 20.004C29.7938 19.748 29.1858 19.62 28.4818 19.62C28.1938 19.62 27.8978 19.644 27.5938 19.692C27.3058 19.74 27.0498 19.804 26.8258 19.884L26.2018 18.564L30.9058 13.02H23.2978V10.62H34.0738V12.9L29.4658 18.42L29.3938 17.508C30.4658 17.524 31.4098 17.764 32.2258 18.228C33.0418 18.676 33.6738 19.3 34.1218 20.1C34.5858 20.884 34.8178 21.796 34.8178 22.836C34.8178 23.956 34.5458 24.972 34.0018 25.884C33.4578 26.78 32.7058 27.492 31.7458 28.02C30.8018 28.532 29.7138 28.788 28.4818 28.788Z"
      fill="black" style="fill:black;fill-opacity:1;" />
  </g>
  <defs>
    <clipPath id="clip0_768_7693">
      <rect width="56" height="56" fill="white" style="fill:white;fill-opacity:1;"
        transform="translate(0.5 0.5)" />
    </clipPath>
  </defs>
</svg>