<svg width="57" height="57" viewBox="0 0 57 57" fill="none" xmlns="http://www.w3.org/2000/svg">
  <g clip-path="url(#clip0_768_9220)">
    <path
      d="M9.20072 2.25C9.20072 1.78587 9.38561 1.34075 9.71473 1.01256C10.0438 0.684374 10.4902 0.5 10.9557 0.5L46.0548 0.5C46.5203 0.5 46.9667 0.684374 47.2958 1.01256C47.6249 1.34075 47.8098 1.78587 47.8098 2.25C47.8098 4.133 47.7677 5.925 47.6905 7.626C49.0773 7.85501 50.4042 8.35862 51.5928 9.10713C52.7814 9.85565 53.8076 10.8339 54.611 11.9842C55.4144 13.1346 55.9787 14.4336 56.2705 15.8049C56.5624 17.1761 56.576 18.5918 56.3104 19.9684C56.0449 21.3449 55.5056 22.6545 54.7244 23.8199C53.9432 24.9854 52.9359 25.983 51.7619 26.754C50.5878 27.525 49.2709 28.0538 47.8886 28.3092C46.5064 28.5646 45.0868 28.5414 43.7137 28.241C40.9409 34.7685 37.1221 37.9605 33.7701 38.7795V46.385L38.7718 47.631C39.4527 47.799 40.095 48.1035 40.6566 48.5235L47.1078 53.35C47.4025 53.5704 47.6201 53.8776 47.73 54.2282C47.8398 54.5788 47.8362 54.955 47.7197 55.3034C47.6033 55.6518 47.3798 55.9549 47.081 56.1697C46.7822 56.3844 46.4232 56.5 46.0548 56.5H10.9557C10.5873 56.5 10.2283 56.3844 9.92953 56.1697C9.63072 55.9549 9.40725 55.6518 9.29077 55.3034C9.1743 54.955 9.17072 54.5788 9.28054 54.2282C9.39037 53.8776 9.60803 53.5704 9.9027 53.35L16.3539 48.5235C16.9155 48.1035 17.5578 47.799 18.2388 47.631L23.2404 46.385V38.7795C19.8884 37.9605 16.0696 34.7685 13.2968 28.2375C11.923 28.5395 10.5024 28.564 9.1189 28.3094C7.73544 28.0548 6.41716 27.5264 5.24193 26.7553C4.06669 25.9842 3.05832 24.9861 2.27637 23.8199C1.49443 22.6537 0.95476 21.3431 0.689242 19.9655C0.423724 18.5878 0.43774 17.1711 0.730462 15.799C1.02318 14.4268 1.58868 13.1271 2.39354 11.9765C3.19841 10.8259 4.22633 9.84786 5.41659 9.10004C6.60686 8.35221 7.93533 7.84981 9.32356 7.6225C9.24093 5.83286 9.19997 4.04154 9.20072 2.25ZM9.5482 11.14C7.71668 11.4742 6.09329 12.5202 5.03518 14.0479C3.97706 15.5756 3.57089 17.4599 3.90601 19.2862C4.24113 21.1126 5.29009 22.7314 6.82214 23.7865C8.35418 24.8416 10.2438 25.2467 12.0753 24.9125C10.9065 21.2375 10.0115 16.7015 9.5482 11.14ZM44.9387 24.9125C46.7702 25.2467 48.6598 24.8416 50.1919 23.7865C51.7239 22.7314 52.7729 21.1126 53.108 19.2862C53.4431 17.4599 53.037 15.5756 51.9788 14.0479C50.9207 12.5202 49.2974 11.4742 47.4658 11.14C46.999 16.705 46.104 21.2375 44.9387 24.9125Z"
      fill="#969798"
      style="fill:#969798;fill:color(display-p3 0.5882 0.5922 0.5961);fill-opacity:1;" />
    <path opacity="0.7"
      d="M22.8138 28.5V26.46L27.7098 21.228C28.6698 20.204 29.4218 19.38 29.9658 18.756C30.5258 18.116 30.9258 17.556 31.1658 17.076C31.4218 16.596 31.5498 16.092 31.5498 15.564C31.5498 14.7 31.2858 14.036 30.7578 13.572C30.2298 13.092 29.5498 12.852 28.7178 12.852C27.8538 12.852 27.1098 13.1 26.4858 13.596C25.8618 14.076 25.4298 14.78 25.1898 15.708L22.6938 14.988C22.8858 14.044 23.2698 13.228 23.8458 12.54C24.4218 11.836 25.1258 11.292 25.9578 10.908C26.8058 10.524 27.7178 10.332 28.6938 10.332C29.8298 10.332 30.8218 10.548 31.6698 10.98C32.5178 11.396 33.1738 11.98 33.6378 12.732C34.1178 13.484 34.3578 14.356 34.3578 15.348C34.3578 16.004 34.2298 16.644 33.9738 17.268C33.7338 17.876 33.3578 18.524 32.8458 19.212C32.3338 19.884 31.6778 20.644 30.8778 21.492L26.5578 26.1H34.6938V28.5H22.8138Z"
      fill="black" style="fill:black;fill-opacity:1;" />
  </g>
  <defs>
    <clipPath id="clip0_768_9220">
      <rect width="56" height="56" fill="white" style="fill:white;fill-opacity:1;"
        transform="translate(0.5 0.5)" />
    </clipPath>
  </defs>
</svg>