<svg width="121" height="71" viewBox="0 0 121 71" fill="none" xmlns="http://www.w3.org/2000/svg">
<g filter="url(#filter0_d_3506_98082)">
<path d="M60.4512 58.1874C86.4488 58.1874 107.522 53.8276 107.522 48.4469C107.522 43.0662 86.4488 38.7064 60.4512 38.7064C34.4535 38.7064 13.3799 43.0662 13.3799 48.4469C13.3799 53.8276 34.4535 58.1874 60.4512 58.1874Z" fill="#1B1E1E" style="fill:#1B1E1E;fill:color(display-p3 0.1059 0.1176 0.1176);fill-opacity:1;"/>
<path d="M60.4467 39.0086C86.2154 39.0086 107.107 43.2348 107.107 48.4463C107.107 53.6579 86.2154 57.8841 60.4467 57.8841C34.6779 57.8841 13.786 53.6579 13.786 48.4463C13.786 43.2348 34.6779 39.0086 60.4467 39.0086ZM60.4467 38.4002C47.913 38.4002 36.117 39.3885 27.2391 41.184C15.4395 43.5702 12.9648 46.449 12.9648 48.4434C12.9648 50.4378 15.4395 53.3166 27.2391 55.7027C36.1206 57.4983 47.913 58.4895 60.4467 58.4895C72.9804 58.4895 84.7763 57.5012 93.6579 55.7027C105.454 53.3166 107.932 50.4378 107.932 48.4434C107.932 46.449 105.457 43.5702 93.6579 41.184C84.7763 39.3885 72.984 38.4002 60.4467 38.4002Z" fill="black" style="fill:black;fill-opacity:1;"/>
<g opacity="0.46">
<path d="M60.4491 53.6215C84.6298 53.6215 104.232 50.5557 104.232 46.7717C104.232 42.9877 84.6298 39.9219 60.4491 39.9219C36.2684 39.9219 16.6666 42.9877 16.6666 46.7717C16.6666 50.5557 36.2684 53.6215 60.4491 53.6215Z" fill="black" style="fill:black;fill-opacity:1;"/>
</g>
<path d="M13.8145 48.7466C13.6001 48.7466 13.4184 48.6249 13.4039 48.4647V29.5713C13.4039 29.5357 13.4112 29.4971 13.4293 29.4645C15.4753 25.3837 24.5494 24.4637 24.9346 24.4281H24.9891C25.0872 24.4281 25.1853 24.4548 25.2617 24.5052C25.3525 24.5616 25.3998 24.6447 25.3998 24.7337V43.5529C25.3998 43.7042 25.2471 43.8319 25.0473 43.8556C14.7448 44.9211 14.2506 48.0106 14.2252 48.3845V48.4528C14.2252 48.616 14.0508 48.7466 13.8291 48.7555H13.8109L13.8145 48.7466Z" fill="#1D1E1E" style="fill:#1D1E1E;fill:color(display-p3 0.1137 0.1176 0.1176);fill-opacity:1;"/>
<path d="M24.989 24.732V43.5511C14.4359 44.6403 13.8435 47.8486 13.8144 48.3769V29.5755C15.795 25.6194 24.989 24.732 24.989 24.732ZM24.989 24.1206C24.9527 24.1206 24.92 24.1206 24.8836 24.1266C24.4875 24.1652 15.1772 25.1089 13.0477 29.3619C13.015 29.4301 12.9968 29.5013 12.9968 29.5755V48.4926C13.0331 48.8102 13.3929 49.0535 13.8144 49.0535H13.8508C14.2905 49.0387 14.6357 48.7775 14.6357 48.4511V48.3917C14.6612 48.0237 15.1699 45.1835 25.098 44.1566C25.505 44.115 25.8067 43.8568 25.8067 43.5541V24.735C25.8067 24.5599 25.7049 24.3937 25.5268 24.2779C25.3742 24.18 25.1816 24.1266 24.9854 24.1266H24.989V24.1206Z" fill="black" style="fill:black;fill-opacity:1;"/>
<path d="M60.2364 56.9678C53.4735 56.9678 46.8742 55.1336 41.6557 51.7948C39.5008 50.4177 36.768 49.6609 33.9553 49.6609H33.5446V49.3552C33.5446 46.3161 30.0342 43.8499 25.717 43.8499H25.3063V24.4253H25.717C30.0342 24.4253 33.5446 21.9531 33.5446 18.9199V18.6142H33.9553C36.768 18.6142 39.5008 17.8574 41.6557 16.4804C46.8742 13.1445 53.4699 11.3074 60.2364 11.3074C67.0029 11.3074 73.5986 13.1415 78.8171 16.4804C80.972 17.8574 83.7048 18.6142 86.5175 18.6142H87.3606V18.9199C87.3606 21.959 90.8711 24.4253 95.1883 24.4253H95.5989V43.8528H95.1883C90.8711 43.8528 87.3606 46.325 87.3606 49.3582V49.6639H86.5175C83.7048 49.6639 80.972 50.4207 78.8171 51.7978C73.595 55.1336 66.9993 56.9707 60.2364 56.9707V56.9678Z" fill="#654B4B" style="fill:#654B4B;fill:color(display-p3 0.3946 0.2939 0.2939);fill-opacity:1;"/>
<path d="M60.2342 11.6128C67.1861 11.6128 73.5637 13.5241 78.5496 16.7115C80.7409 18.1124 83.5609 18.9196 86.5226 18.9196H86.955C86.955 22.1279 90.6436 24.7307 95.1933 24.7307V43.5498C90.6436 43.5498 86.955 46.1526 86.955 49.3608H86.5226C83.5682 49.3608 80.7482 50.1711 78.5496 51.5689C73.5637 54.7534 67.1861 56.6677 60.2342 56.6677C53.2824 56.6677 46.9047 54.7564 41.9188 51.5689C39.7275 50.1681 36.9075 49.3608 33.9458 49.3608C33.9458 46.1526 30.2573 43.5498 25.7075 43.5498V24.7307C30.2573 24.7307 33.9458 22.1279 33.9458 18.9196C36.9003 18.9196 39.7202 18.1094 41.9188 16.7115C46.9047 13.527 53.2824 11.6128 60.2342 11.6128ZM60.2342 11.0044C53.3732 11.0044 46.6757 12.8682 41.381 16.2486C39.3023 17.5752 36.6604 18.3082 33.9494 18.3082H33.1282V18.9166C33.1282 21.7836 29.803 24.1193 25.7112 24.1193H24.8899V44.1552H25.7112C29.803 44.1552 33.1282 46.4909 33.1282 49.3579V49.9663H33.9494C36.664 49.9663 39.3023 50.6964 41.381 52.026C46.6757 55.4093 53.3732 57.2702 60.2342 57.2702C67.0952 57.2702 73.7927 55.4063 79.0874 52.026C81.1661 50.6993 83.808 49.9663 86.519 49.9663H87.7727V49.3579C87.7727 46.4909 91.0978 44.1552 95.1897 44.1552H96.011V24.1193H95.1897C91.0978 24.1193 87.7727 21.7836 87.7727 18.9166V18.3082H86.519C83.8044 18.3082 81.1661 17.5781 79.0874 16.2486C73.789 12.8652 67.0952 11.0044 60.2342 11.0044Z" fill="black" style="fill:black;fill-opacity:1;"/>
<path d="M60.2394 52.7062C74.0886 52.7062 85.3177 44.3932 85.3177 34.1363C85.3177 23.8794 74.0886 15.5665 60.2394 15.5665C46.3902 15.5665 35.1612 23.8794 35.1612 34.1363C35.1612 44.3932 46.3902 52.7062 60.2394 52.7062Z" fill="#D6CA85" style="fill:#D6CA85;fill:color(display-p3 0.8392 0.7922 0.5216);fill-opacity:1;"/>
<path d="M84.74 19.8463L86.4189 18.9144C83.5008 18.8966 80.7135 18.0923 78.5476 16.7063C77.9771 16.3413 77.3847 15.994 76.7778 15.6646L55.29 56.3301C56.8962 56.5467 58.5497 56.6625 60.2359 56.6625C67.1877 56.6625 73.5654 54.7512 78.5512 51.5637C80.7425 50.1629 83.5625 49.3556 86.5242 49.3556H86.9567L84.7472 47.8183V19.8463H84.7436H84.74Z" fill="#565656" style="fill:#565656;fill:color(display-p3 0.3373 0.3373 0.3373);fill-opacity:1;"/>
<path d="M60.1925 54.2278C54.1637 54.2278 48.2875 52.5895 43.6287 49.6157C41.6045 48.3247 39.068 47.5857 36.437 47.5175C36.2226 44.6416 32.9483 42.3267 28.8783 42.1783V25.4782C32.9483 25.3328 36.2262 23.0179 36.437 20.1391C39.068 20.0708 41.6082 19.3318 43.6287 18.0408C48.2838 15.067 54.1637 13.4288 60.1925 13.4288C66.2213 13.4288 72.0975 15.067 76.7527 18.0408C78.8749 19.3941 81.5713 20.145 84.3405 20.145C84.5585 23.0209 87.8291 25.3328 91.8992 25.4782V42.1783C87.8291 42.3237 84.5549 44.6357 84.3405 47.5115C81.5713 47.5115 78.8713 48.2594 76.7527 49.6157C72.0975 52.5895 66.2177 54.2278 60.1925 54.2278Z" fill="#999999" style="fill:#999999;fill:color(display-p3 0.6000 0.6000 0.6000);fill-opacity:1;"/>
<path d="M60.192 13.7436C66.1191 13.7436 71.9044 15.3552 76.4833 18.2785C78.5837 19.62 81.222 20.3857 83.962 20.451C84.3654 23.2586 87.527 25.4934 91.4881 25.7664V41.8967C87.5234 42.1697 84.3618 44.4075 83.962 47.2121C81.2293 47.2803 78.5837 48.0431 76.4833 49.3845C71.9044 52.3108 66.1191 53.9194 60.192 53.9194C54.2649 53.9194 48.4796 52.3079 43.9008 49.3845C41.9021 48.1084 39.4164 47.3545 36.8217 47.2269C36.4329 44.4134 33.2604 42.1697 29.2957 41.8967V25.7664C33.2677 25.4934 36.4329 23.2497 36.8217 20.4361C39.4164 20.3085 41.9021 19.5547 43.9008 18.2785C48.4796 15.3522 54.2649 13.7436 60.192 13.7436ZM60.192 13.1323C53.8034 13.1323 47.9454 14.8892 43.3593 17.8155C41.3461 19.1036 38.7514 19.8455 36.0368 19.8455C36.0368 22.7956 32.6499 25.1847 28.4671 25.1847V42.4783C32.6499 42.4783 36.0368 44.8675 36.0368 47.8175C38.755 47.8175 41.3497 48.5595 43.3593 49.8475C47.9418 52.7768 53.8034 54.5308 60.192 54.5308C66.5806 54.5308 72.4386 52.7738 77.0211 49.8475C79.0343 48.5595 81.629 47.8175 84.3436 47.8175H84.7397C84.7397 44.8675 88.1266 42.4783 92.3093 42.4783V25.1847C88.1266 25.1847 84.7397 22.7956 84.7397 19.8455H84.3436C81.6254 19.8455 79.0307 19.1036 77.0211 17.8155C72.4386 14.8863 66.5806 13.1323 60.192 13.1323Z" fill="#C4C4C4" style="fill:#C4C4C4;fill:color(display-p3 0.7686 0.7686 0.7686);fill-opacity:1;"/>
<path d="M60.192 13.1323C53.8034 13.1323 47.9454 14.8892 43.3593 17.8185C41.3461 19.1065 38.7514 19.8485 36.0368 19.8485C36.0368 22.7985 32.6499 25.1877 28.4671 25.1877V42.4813C32.6499 42.4813 36.0368 44.8704 36.0368 47.8205C38.755 47.8205 41.3497 48.5625 43.3593 49.8505C43.7409 50.0939 44.137 50.3254 44.5367 50.5539L65.0071 13.4736C63.4444 13.251 61.8382 13.1323 60.1884 13.1323H60.192Z" fill="#C4C4C4" style="fill:#C4C4C4;fill:color(display-p3 0.7686 0.7686 0.7686);fill-opacity:1;"/>
<path d="M95.1879 43.547L92.3134 42.4785V25.1879L95.1879 24.7278V43.547Z" fill="#565656" style="fill:#565656;fill:color(display-p3 0.3373 0.3373 0.3373);fill-opacity:1;"/>
<path d="M25.7081 24.7278L28.4663 25.1879V42.4785L25.7081 43.547V24.7278Z" fill="#898989" style="fill:#898989;fill:color(display-p3 0.5373 0.5373 0.5373);fill-opacity:1;"/>
<path d="M107.168 48.7468C106.946 48.7409 106.772 48.6073 106.772 48.4441V48.3758C106.75 48.0019 106.26 44.9123 95.9535 43.8469C95.75 43.8261 95.601 43.6985 95.601 43.5442V24.725C95.601 24.636 95.6519 24.5559 95.7391 24.4965C95.8118 24.449 95.9135 24.4193 96.0116 24.4193H96.0661C96.4513 24.455 105.525 25.375 107.575 29.4558C107.59 29.4884 107.6 29.527 107.6 29.5626V48.456C107.582 48.6132 107.404 48.7379 107.19 48.7379H107.175L107.168 48.7468Z" fill="#1D1E1E" style="fill:#1D1E1E;fill:color(display-p3 0.1137 0.1176 0.1176);fill-opacity:1;"/>
<path d="M96.0098 24.732C96.0098 24.732 105.2 25.6164 107.184 29.5755V48.3769C107.159 47.8516 106.563 44.6433 96.0098 43.5511V24.732ZM96.0098 24.1206C95.8135 24.1206 95.6209 24.1711 95.4683 24.272C95.2903 24.3877 95.1885 24.5539 95.1885 24.729V43.5482C95.1885 43.8539 95.4938 44.1091 95.8971 44.1507C105.825 45.1775 106.338 48.0178 106.359 48.3858V48.4481C106.359 48.7746 106.705 49.0357 107.144 49.0506H107.181C107.606 49.0506 107.962 48.8042 107.998 48.4896C107.998 48.4896 108.002 48.4481 107.998 48.365V29.5755C107.998 29.5013 107.98 29.4331 107.948 29.3619C105.818 25.1089 96.5076 24.1652 96.1115 24.1266C96.0752 24.1236 96.0425 24.1206 96.0062 24.1206H96.0098Z" fill="black" style="fill:black;fill-opacity:1;"/>
<g opacity="0.6">
<mask id="mask0_3506_98082" style="mask-type:luminance" maskUnits="userSpaceOnUse" x="28" y="13" width="64" height="42">
<path d="M60.2551 54.2398C54.2263 54.2398 48.3501 52.6015 43.6913 49.6277C41.6671 48.3367 39.1306 47.5977 36.4996 47.5295C36.2852 44.6536 33.0109 42.3387 28.9408 42.1903V25.4902C33.0109 25.3448 36.2888 23.0299 36.4996 20.1511C39.1306 20.0828 41.6708 19.3438 43.6913 18.0528C48.3464 15.079 54.2263 13.4408 60.2551 13.4408C66.2839 13.4408 72.1601 15.079 76.8152 18.0528C78.9375 19.4061 81.6339 20.157 84.403 20.157C84.6211 23.0329 87.8917 25.3448 91.9618 25.4902V42.1903C87.8917 42.3357 84.6175 44.6477 84.403 47.5235C81.6339 47.5235 78.9339 48.2714 76.8152 49.6277C72.1601 52.6015 66.2803 54.2398 60.2551 54.2398Z" fill="white" style="fill:white;fill-opacity:1;"/>
</mask>
<g mask="url(#mask0_3506_98082)">
<path d="M59.4 -1.11337L23.7431 48.8207L23.6813 51.2336L69.8986 -0.935302L59.4 -1.11337Z" fill="#FF0080" style="fill:#FF0080;fill:color(display-p3 1.0000 0.0000 0.5020);fill-opacity:1;"/>
<path d="M23.9829 39.469L47.1933 9.38989L23.8775 43.5439L23.9829 39.469Z" fill="#F4FA23" style="fill:#F4FA23;fill:color(display-p3 0.9569 0.9804 0.1373);fill-opacity:1;"/>
<path d="M24.2112 30.5723L24.3639 24.7671L35.1496 7.82666L43.6096 9.32839L24.2112 30.5723Z" fill="#FF0080" style="fill:#FF0080;fill:color(display-p3 1.0000 0.0000 0.5020);fill-opacity:1;"/>
<path d="M68.8001 62.9966L96.2659 24.5363L96.3131 22.6784L60.718 62.8571L68.8001 62.9966Z" fill="#FF0080" style="fill:#FF0080;fill:color(display-p3 1.0000 0.0000 0.5020);fill-opacity:1;"/>
<path d="M96.0771 31.7391L78.2014 54.9061L96.1607 28.6021L96.0771 31.7391Z" fill="#F4FA23" style="fill:#F4FA23;fill:color(display-p3 0.9569 0.9804 0.1373);fill-opacity:1;"/>
<path d="M95.9025 38.5919L95.7862 43.0645L87.4789 56.1111L80.9631 54.9537L95.9025 38.5919Z" fill="#FF0080" style="fill:#FF0080;fill:color(display-p3 1.0000 0.0000 0.5020);fill-opacity:1;"/>
<path d="M95.3394 60.4298L74.4039 55.3637L82.0826 52.9389L81.1922 54.3784L77.2566 55.1233L95.4012 57.9902L95.3394 60.4298Z" fill="#F4FA23" style="fill:#F4FA23;fill:color(display-p3 0.9569 0.9804 0.1373);fill-opacity:1;"/>
<path d="M95.4566 55.9598L90.0892 54.2384L95.5584 51.9502L95.3222 52.7011L92.444 53.9031L95.482 54.9715L95.4566 55.9598Z" fill="#F4FA23" style="fill:#F4FA23;fill:color(display-p3 0.9569 0.9804 0.1373);fill-opacity:1;"/>
</g>
</g>
<path d="M60.1297 54.2463C54.1009 54.2463 48.2247 52.6081 43.5659 49.6343C41.5418 48.3433 39.0053 47.6043 36.3743 47.536C36.1598 44.6602 32.8856 42.3453 28.8155 42.1969V25.4968C32.8856 25.3514 36.1635 23.0364 36.3743 20.1576C39.0053 20.0894 41.5454 19.3504 43.5659 18.0594C48.2211 15.0856 54.1009 13.4473 60.1297 13.4473C66.1586 13.4473 72.0348 15.0856 76.6899 18.0594C78.8122 19.4127 81.5086 20.1636 84.2777 20.1636C84.4958 23.0394 87.7664 25.3514 91.8365 25.4968V42.1969C87.7664 42.3423 84.4921 44.6543 84.2777 47.5301C81.5086 47.5301 78.8085 48.278 76.6899 49.6343C72.0348 52.6081 66.1549 54.2463 60.1297 54.2463Z" fill="black" style="fill:black;fill-opacity:1;"/>
<g opacity="0.6">
<mask id="mask1_3506_98082" style="mask-type:luminance" maskUnits="userSpaceOnUse" x="28" y="13" width="64" height="42">
<path d="M60.1301 54.2452C54.1013 54.2452 48.2251 52.607 43.5663 49.6332C41.5422 48.3422 39.0057 47.6032 36.3747 47.5349C36.1602 44.6591 32.886 42.3442 28.8159 42.1958V25.4957C32.886 25.3503 36.1639 23.0353 36.3747 20.1565C39.0057 20.0883 41.5458 19.3493 43.5663 18.0583C48.2215 15.0845 54.1013 13.4462 60.1301 13.4462C66.159 13.4462 72.0352 15.0845 76.6903 18.0583C78.8126 19.4116 81.509 20.1625 84.2781 20.1625C84.4962 23.0383 87.7668 25.3503 91.8369 25.4957V42.1958C87.7668 42.3412 84.4925 44.6532 84.2781 47.529C81.509 47.529 78.8089 48.2769 76.6903 49.6332C72.0352 52.607 66.1553 54.2452 60.1301 54.2452Z" fill="white" style="fill:white;fill-opacity:1;"/>
</mask>
<g mask="url(#mask1_3506_98082)">
<path d="M59.271 -1.10791L23.6178 48.8291L23.5524 51.242L69.7697 -0.926872L59.271 -1.10791Z" fill="#D2297E" style="fill:#D2297E;fill:color(display-p3 0.8228 0.1615 0.4934);fill-opacity:1;"/>
<path d="M23.858 39.4775L47.0684 9.39536L23.7526 43.5494L23.858 39.4775Z" fill="#F4FA23" style="fill:#F4FA23;fill:color(display-p3 0.9569 0.9804 0.1373);fill-opacity:1;"/>
<path d="M24.0863 30.5796L24.2353 24.7715L35.0246 7.83105L43.4846 9.33279L24.0863 30.5796Z" fill="#D2297E" style="fill:#D2297E;fill:color(display-p3 0.8228 0.1615 0.4934);fill-opacity:1;"/>
<path d="M68.6751 63.0043L96.1373 24.5439L96.1846 22.6861L60.5895 62.8678L68.6751 63.0043Z" fill="#D2297E" style="fill:#D2297E;fill:color(display-p3 0.8228 0.1615 0.4934);fill-opacity:1;"/>
<path d="M95.9522 31.7479L78.0765 54.9149L96.0321 28.6108L95.9522 31.7479Z" fill="#F4FA23" style="fill:#F4FA23;fill:color(display-p3 0.9569 0.9804 0.1373);fill-opacity:1;"/>
<path d="M95.7749 38.5996L95.6623 43.0721L87.3513 56.1218L80.8355 54.9613L95.7749 38.5996Z" fill="#D2297E" style="fill:#D2297E;fill:color(display-p3 0.8228 0.1615 0.4934);fill-opacity:1;"/>
<path d="M95.2158 60.4396L74.2803 55.3735L81.9554 52.9488L81.065 54.3852L77.133 55.1301L95.2776 58.0001L95.2158 60.4396Z" fill="#F4FA23" style="fill:#F4FA23;fill:color(display-p3 0.9569 0.9804 0.1373);fill-opacity:1;"/>
<path d="M95.3277 55.9688L89.9603 54.2504L95.4331 51.9622L95.1969 52.7131L92.3187 53.9121L95.3531 54.9805L95.3277 55.9688Z" fill="#F4FA23" style="fill:#F4FA23;fill:color(display-p3 0.9569 0.9804 0.1373);fill-opacity:1;"/>
<path d="M69.1089 44.5977L96.5711 6.13732L96.622 4.27945L61.0233 44.4612L69.1089 44.5977Z" fill="#D2297E" style="fill:#D2297E;fill:color(display-p3 0.8228 0.1615 0.4934);fill-opacity:1;"/>
<path d="M96.3859 13.3412L78.5103 36.5112L96.4695 10.2042L96.3859 13.3412Z" fill="#F4FA23" style="fill:#F4FA23;fill:color(display-p3 0.9569 0.9804 0.1373);fill-opacity:1;"/>
<path d="M55.1409 23.4012L27.6787 61.8615L27.6315 63.7194L63.2266 23.5407L55.1409 23.4012Z" fill="#D2297E" style="fill:#D2297E;fill:color(display-p3 0.8228 0.1615 0.4934);fill-opacity:1;"/>
<path d="M27.8636 54.659L45.7393 31.492L27.7836 57.7961L27.8636 54.659Z" fill="#F4FA23" style="fill:#F4FA23;fill:color(display-p3 0.9569 0.9804 0.1373);fill-opacity:1;"/>
</g>
</g>
<g filter="url(#filter1_d_3506_98082)">
<mask id="path-40-outside-1_3506_98082" maskUnits="userSpaceOnUse" x="37" y="26" width="47" height="14" fill="black">
<rect fill="white" x="37" y="26" width="47" height="14"/>
<path d="M38 39.112V27.192H42.56C43.3813 27.192 44.1067 27.336 44.736 27.624C45.376 27.912 45.8773 28.3387 46.24 28.904C46.6027 29.4693 46.784 30.168 46.784 31C46.784 31.8107 46.5973 32.504 46.224 33.08C45.8507 33.6453 45.3493 34.072 44.72 34.36L47.44 39.112H44.656L41.712 33.848L43.312 34.792H40.48V39.112H38ZM40.48 32.632H42.576C42.928 32.632 43.232 32.5627 43.488 32.424C43.744 32.2853 43.9413 32.0933 44.08 31.848C44.2293 31.6027 44.304 31.32 44.304 31C44.304 30.6693 44.2293 30.3813 44.08 30.136C43.9413 29.8907 43.744 29.6987 43.488 29.56C43.232 29.4213 42.928 29.352 42.576 29.352H40.48V32.632Z"/>
<path d="M51.1999 39.304C50.5705 39.304 50.0265 39.2027 49.5679 39C49.1092 38.7973 48.7572 38.5093 48.5119 38.136C48.2665 37.752 48.1439 37.2987 48.1439 36.776C48.1439 36.2853 48.2559 35.8533 48.4799 35.48C48.7039 35.096 49.0452 34.776 49.5039 34.52C49.9732 34.264 50.5545 34.0827 51.2479 33.976L53.9199 33.544V35.304L51.6799 35.704C51.3385 35.768 51.0772 35.88 50.8959 36.04C50.7145 36.1893 50.6239 36.408 50.6239 36.696C50.6239 36.9627 50.7252 37.1707 50.9279 37.32C51.1305 37.4693 51.3812 37.544 51.6799 37.544C52.0745 37.544 52.4212 37.4587 52.7199 37.288C53.0185 37.1173 53.2479 36.888 53.4079 36.6C53.5785 36.3013 53.6639 35.976 53.6639 35.624V33.352C53.6639 33.0213 53.5305 32.744 53.2639 32.52C53.0079 32.296 52.6559 32.184 52.2079 32.184C51.7812 32.184 51.4025 32.3013 51.0719 32.536C50.7519 32.7707 50.5172 33.08 50.3679 33.464L48.4479 32.552C48.6185 32.0613 48.8905 31.64 49.2639 31.288C49.6372 30.936 50.0852 30.664 50.6079 30.472C51.1305 30.28 51.7012 30.184 52.3199 30.184C53.0559 30.184 53.7065 30.3173 54.2719 30.584C54.8372 30.8507 55.2745 31.224 55.5839 31.704C55.9039 32.1733 56.0639 32.7227 56.0639 33.352V39.112H53.8239V37.704L54.3679 37.608C54.1119 37.992 53.8292 38.312 53.5199 38.568C53.2105 38.8133 52.8639 38.9947 52.4799 39.112C52.0959 39.24 51.6692 39.304 51.1999 39.304Z"/>
<path d="M58.7238 39.112V32.456H57.2518V30.376H58.7238V30.248C58.7238 29.5547 58.8571 28.968 59.1238 28.488C59.4011 28.008 59.7958 27.64 60.3078 27.384C60.8198 27.128 61.4384 27 62.1637 27C62.3024 27 62.4517 27.0107 62.6117 27.032C62.7717 27.0427 62.9051 27.0587 63.0118 27.08V29.128C62.9051 29.1067 62.8091 29.096 62.7238 29.096C62.6491 29.0853 62.5691 29.08 62.4837 29.08C62.0357 29.08 61.6944 29.1813 61.4598 29.384C61.2358 29.576 61.1238 29.864 61.1238 30.248V30.376H64.5958V32.456H61.1238V39.112H58.7238ZM70.6278 39.112V27H73.0278V39.112H70.6278ZM65.1238 39.112V32.456H63.6518V30.376H65.1238V30.248C65.1238 29.5547 65.2571 28.968 65.5238 28.488C65.8011 28.008 66.1958 27.64 66.7078 27.384C67.2198 27.128 67.8384 27 68.5638 27C68.7024 27 68.8518 27.0107 69.0118 27.032C69.1718 27.0427 69.3051 27.0587 69.4118 27.08V29.128C69.3051 29.1067 69.2091 29.096 69.1238 29.096C69.0491 29.0853 68.9691 29.08 68.8838 29.08C68.4358 29.08 68.0944 29.1813 67.8598 29.384C67.6358 29.576 67.5238 29.864 67.5238 30.248V30.376H70.9958V32.456H67.5238V39.112H65.1238Z"/>
<path d="M79.0008 39.304C78.0728 39.304 77.2674 39.1013 76.5848 38.696C75.9021 38.28 75.3741 37.7253 75.0008 37.032C74.6274 36.3387 74.4408 35.5707 74.4408 34.728C74.4408 33.8533 74.6328 33.0747 75.0168 32.392C75.4114 31.7093 75.9394 31.1707 76.6007 30.776C77.2621 30.3813 78.0088 30.184 78.8408 30.184C79.5341 30.184 80.1474 30.296 80.6808 30.52C81.2141 30.7333 81.6621 31.0373 82.0247 31.432C82.3981 31.8267 82.6807 32.2853 82.8727 32.808C83.0647 33.32 83.1608 33.88 83.1608 34.488C83.1608 34.6587 83.1501 34.8293 83.1287 35C83.1181 35.16 83.0914 35.2987 83.0488 35.416H76.5047V33.656H81.6888L80.5527 34.488C80.6594 34.0293 80.6541 33.624 80.5368 33.272C80.4194 32.9093 80.2114 32.6267 79.9128 32.424C79.6248 32.2107 79.2674 32.104 78.8408 32.104C78.4248 32.104 78.0674 32.2053 77.7687 32.408C77.4701 32.6107 77.2461 32.9093 77.0967 33.304C76.9474 33.6987 76.8887 34.1787 76.9207 34.744C76.8781 35.2347 76.9367 35.6667 77.0967 36.04C77.2567 36.4133 77.5021 36.7067 77.8327 36.92C78.1634 37.1227 78.5634 37.224 79.0327 37.224C79.4594 37.224 79.8221 37.1387 80.1208 36.968C80.4301 36.7973 80.6701 36.5627 80.8408 36.264L82.7607 37.176C82.5901 37.6027 82.3181 37.976 81.9448 38.296C81.5821 38.616 81.1501 38.8667 80.6488 39.048C80.1474 39.2187 79.5981 39.304 79.0008 39.304Z"/>
</mask>
<path d="M38 39.112V27.192H42.56C43.3813 27.192 44.1067 27.336 44.736 27.624C45.376 27.912 45.8773 28.3387 46.24 28.904C46.6027 29.4693 46.784 30.168 46.784 31C46.784 31.8107 46.5973 32.504 46.224 33.08C45.8507 33.6453 45.3493 34.072 44.72 34.36L47.44 39.112H44.656L41.712 33.848L43.312 34.792H40.48V39.112H38ZM40.48 32.632H42.576C42.928 32.632 43.232 32.5627 43.488 32.424C43.744 32.2853 43.9413 32.0933 44.08 31.848C44.2293 31.6027 44.304 31.32 44.304 31C44.304 30.6693 44.2293 30.3813 44.08 30.136C43.9413 29.8907 43.744 29.6987 43.488 29.56C43.232 29.4213 42.928 29.352 42.576 29.352H40.48V32.632Z" fill="#F5F5F5" fill-opacity="0.9" style="fill:#F5F5F5;fill:color(display-p3 0.9604 0.9604 0.9604);fill-opacity:0.9;" shape-rendering="crispEdges"/>
<path d="M51.1999 39.304C50.5705 39.304 50.0265 39.2027 49.5679 39C49.1092 38.7973 48.7572 38.5093 48.5119 38.136C48.2665 37.752 48.1439 37.2987 48.1439 36.776C48.1439 36.2853 48.2559 35.8533 48.4799 35.48C48.7039 35.096 49.0452 34.776 49.5039 34.52C49.9732 34.264 50.5545 34.0827 51.2479 33.976L53.9199 33.544V35.304L51.6799 35.704C51.3385 35.768 51.0772 35.88 50.8959 36.04C50.7145 36.1893 50.6239 36.408 50.6239 36.696C50.6239 36.9627 50.7252 37.1707 50.9279 37.32C51.1305 37.4693 51.3812 37.544 51.6799 37.544C52.0745 37.544 52.4212 37.4587 52.7199 37.288C53.0185 37.1173 53.2479 36.888 53.4079 36.6C53.5785 36.3013 53.6639 35.976 53.6639 35.624V33.352C53.6639 33.0213 53.5305 32.744 53.2639 32.52C53.0079 32.296 52.6559 32.184 52.2079 32.184C51.7812 32.184 51.4025 32.3013 51.0719 32.536C50.7519 32.7707 50.5172 33.08 50.3679 33.464L48.4479 32.552C48.6185 32.0613 48.8905 31.64 49.2639 31.288C49.6372 30.936 50.0852 30.664 50.6079 30.472C51.1305 30.28 51.7012 30.184 52.3199 30.184C53.0559 30.184 53.7065 30.3173 54.2719 30.584C54.8372 30.8507 55.2745 31.224 55.5839 31.704C55.9039 32.1733 56.0639 32.7227 56.0639 33.352V39.112H53.8239V37.704L54.3679 37.608C54.1119 37.992 53.8292 38.312 53.5199 38.568C53.2105 38.8133 52.8639 38.9947 52.4799 39.112C52.0959 39.24 51.6692 39.304 51.1999 39.304Z" fill="#F5F5F5" fill-opacity="0.9" style="fill:#F5F5F5;fill:color(display-p3 0.9604 0.9604 0.9604);fill-opacity:0.9;" shape-rendering="crispEdges"/>
<path d="M58.7238 39.112V32.456H57.2518V30.376H58.7238V30.248C58.7238 29.5547 58.8571 28.968 59.1238 28.488C59.4011 28.008 59.7958 27.64 60.3078 27.384C60.8198 27.128 61.4384 27 62.1637 27C62.3024 27 62.4517 27.0107 62.6117 27.032C62.7717 27.0427 62.9051 27.0587 63.0118 27.08V29.128C62.9051 29.1067 62.8091 29.096 62.7238 29.096C62.6491 29.0853 62.5691 29.08 62.4837 29.08C62.0357 29.08 61.6944 29.1813 61.4598 29.384C61.2358 29.576 61.1238 29.864 61.1238 30.248V30.376H64.5958V32.456H61.1238V39.112H58.7238ZM70.6278 39.112V27H73.0278V39.112H70.6278ZM65.1238 39.112V32.456H63.6518V30.376H65.1238V30.248C65.1238 29.5547 65.2571 28.968 65.5238 28.488C65.8011 28.008 66.1958 27.64 66.7078 27.384C67.2198 27.128 67.8384 27 68.5638 27C68.7024 27 68.8518 27.0107 69.0118 27.032C69.1718 27.0427 69.3051 27.0587 69.4118 27.08V29.128C69.3051 29.1067 69.2091 29.096 69.1238 29.096C69.0491 29.0853 68.9691 29.08 68.8838 29.08C68.4358 29.08 68.0944 29.1813 67.8598 29.384C67.6358 29.576 67.5238 29.864 67.5238 30.248V30.376H70.9958V32.456H67.5238V39.112H65.1238Z" fill="#F5F5F5" fill-opacity="0.9" style="fill:#F5F5F5;fill:color(display-p3 0.9604 0.9604 0.9604);fill-opacity:0.9;" shape-rendering="crispEdges"/>
<path d="M79.0008 39.304C78.0728 39.304 77.2674 39.1013 76.5848 38.696C75.9021 38.28 75.3741 37.7253 75.0008 37.032C74.6274 36.3387 74.4408 35.5707 74.4408 34.728C74.4408 33.8533 74.6328 33.0747 75.0168 32.392C75.4114 31.7093 75.9394 31.1707 76.6007 30.776C77.2621 30.3813 78.0088 30.184 78.8408 30.184C79.5341 30.184 80.1474 30.296 80.6808 30.52C81.2141 30.7333 81.6621 31.0373 82.0247 31.432C82.3981 31.8267 82.6807 32.2853 82.8727 32.808C83.0647 33.32 83.1608 33.88 83.1608 34.488C83.1608 34.6587 83.1501 34.8293 83.1287 35C83.1181 35.16 83.0914 35.2987 83.0488 35.416H76.5047V33.656H81.6888L80.5527 34.488C80.6594 34.0293 80.6541 33.624 80.5368 33.272C80.4194 32.9093 80.2114 32.6267 79.9128 32.424C79.6248 32.2107 79.2674 32.104 78.8408 32.104C78.4248 32.104 78.0674 32.2053 77.7687 32.408C77.4701 32.6107 77.2461 32.9093 77.0967 33.304C76.9474 33.6987 76.8887 34.1787 76.9207 34.744C76.8781 35.2347 76.9367 35.6667 77.0967 36.04C77.2567 36.4133 77.5021 36.7067 77.8327 36.92C78.1634 37.1227 78.5634 37.224 79.0327 37.224C79.4594 37.224 79.8221 37.1387 80.1208 36.968C80.4301 36.7973 80.6701 36.5627 80.8408 36.264L82.7607 37.176C82.5901 37.6027 82.3181 37.976 81.9448 38.296C81.5821 38.616 81.1501 38.8667 80.6488 39.048C80.1474 39.2187 79.5981 39.304 79.0008 39.304Z" fill="#F5F5F5" fill-opacity="0.9" style="fill:#F5F5F5;fill:color(display-p3 0.9604 0.9604 0.9604);fill-opacity:0.9;" shape-rendering="crispEdges"/>
<path d="M38 39.112V27.192H42.56C43.3813 27.192 44.1067 27.336 44.736 27.624C45.376 27.912 45.8773 28.3387 46.24 28.904C46.6027 29.4693 46.784 30.168 46.784 31C46.784 31.8107 46.5973 32.504 46.224 33.08C45.8507 33.6453 45.3493 34.072 44.72 34.36L47.44 39.112H44.656L41.712 33.848L43.312 34.792H40.48V39.112H38ZM40.48 32.632H42.576C42.928 32.632 43.232 32.5627 43.488 32.424C43.744 32.2853 43.9413 32.0933 44.08 31.848C44.2293 31.6027 44.304 31.32 44.304 31C44.304 30.6693 44.2293 30.3813 44.08 30.136C43.9413 29.8907 43.744 29.6987 43.488 29.56C43.232 29.4213 42.928 29.352 42.576 29.352H40.48V32.632Z" stroke="black" style="stroke:black;stroke-opacity:1;" stroke-width="0.4" shape-rendering="crispEdges" mask="url(#path-40-outside-1_3506_98082)"/>
<path d="M51.1999 39.304C50.5705 39.304 50.0265 39.2027 49.5679 39C49.1092 38.7973 48.7572 38.5093 48.5119 38.136C48.2665 37.752 48.1439 37.2987 48.1439 36.776C48.1439 36.2853 48.2559 35.8533 48.4799 35.48C48.7039 35.096 49.0452 34.776 49.5039 34.52C49.9732 34.264 50.5545 34.0827 51.2479 33.976L53.9199 33.544V35.304L51.6799 35.704C51.3385 35.768 51.0772 35.88 50.8959 36.04C50.7145 36.1893 50.6239 36.408 50.6239 36.696C50.6239 36.9627 50.7252 37.1707 50.9279 37.32C51.1305 37.4693 51.3812 37.544 51.6799 37.544C52.0745 37.544 52.4212 37.4587 52.7199 37.288C53.0185 37.1173 53.2479 36.888 53.4079 36.6C53.5785 36.3013 53.6639 35.976 53.6639 35.624V33.352C53.6639 33.0213 53.5305 32.744 53.2639 32.52C53.0079 32.296 52.6559 32.184 52.2079 32.184C51.7812 32.184 51.4025 32.3013 51.0719 32.536C50.7519 32.7707 50.5172 33.08 50.3679 33.464L48.4479 32.552C48.6185 32.0613 48.8905 31.64 49.2639 31.288C49.6372 30.936 50.0852 30.664 50.6079 30.472C51.1305 30.28 51.7012 30.184 52.3199 30.184C53.0559 30.184 53.7065 30.3173 54.2719 30.584C54.8372 30.8507 55.2745 31.224 55.5839 31.704C55.9039 32.1733 56.0639 32.7227 56.0639 33.352V39.112H53.8239V37.704L54.3679 37.608C54.1119 37.992 53.8292 38.312 53.5199 38.568C53.2105 38.8133 52.8639 38.9947 52.4799 39.112C52.0959 39.24 51.6692 39.304 51.1999 39.304Z" stroke="black" style="stroke:black;stroke-opacity:1;" stroke-width="0.4" shape-rendering="crispEdges" mask="url(#path-40-outside-1_3506_98082)"/>
<path d="M58.7238 39.112V32.456H57.2518V30.376H58.7238V30.248C58.7238 29.5547 58.8571 28.968 59.1238 28.488C59.4011 28.008 59.7958 27.64 60.3078 27.384C60.8198 27.128 61.4384 27 62.1637 27C62.3024 27 62.4517 27.0107 62.6117 27.032C62.7717 27.0427 62.9051 27.0587 63.0118 27.08V29.128C62.9051 29.1067 62.8091 29.096 62.7238 29.096C62.6491 29.0853 62.5691 29.08 62.4837 29.08C62.0357 29.08 61.6944 29.1813 61.4598 29.384C61.2358 29.576 61.1238 29.864 61.1238 30.248V30.376H64.5958V32.456H61.1238V39.112H58.7238ZM70.6278 39.112V27H73.0278V39.112H70.6278ZM65.1238 39.112V32.456H63.6518V30.376H65.1238V30.248C65.1238 29.5547 65.2571 28.968 65.5238 28.488C65.8011 28.008 66.1958 27.64 66.7078 27.384C67.2198 27.128 67.8384 27 68.5638 27C68.7024 27 68.8518 27.0107 69.0118 27.032C69.1718 27.0427 69.3051 27.0587 69.4118 27.08V29.128C69.3051 29.1067 69.2091 29.096 69.1238 29.096C69.0491 29.0853 68.9691 29.08 68.8838 29.08C68.4358 29.08 68.0944 29.1813 67.8598 29.384C67.6358 29.576 67.5238 29.864 67.5238 30.248V30.376H70.9958V32.456H67.5238V39.112H65.1238Z" stroke="black" style="stroke:black;stroke-opacity:1;" stroke-width="0.4" shape-rendering="crispEdges" mask="url(#path-40-outside-1_3506_98082)"/>
<path d="M79.0008 39.304C78.0728 39.304 77.2674 39.1013 76.5848 38.696C75.9021 38.28 75.3741 37.7253 75.0008 37.032C74.6274 36.3387 74.4408 35.5707 74.4408 34.728C74.4408 33.8533 74.6328 33.0747 75.0168 32.392C75.4114 31.7093 75.9394 31.1707 76.6007 30.776C77.2621 30.3813 78.0088 30.184 78.8408 30.184C79.5341 30.184 80.1474 30.296 80.6808 30.52C81.2141 30.7333 81.6621 31.0373 82.0247 31.432C82.3981 31.8267 82.6807 32.2853 82.8727 32.808C83.0647 33.32 83.1608 33.88 83.1608 34.488C83.1608 34.6587 83.1501 34.8293 83.1287 35C83.1181 35.16 83.0914 35.2987 83.0488 35.416H76.5047V33.656H81.6888L80.5527 34.488C80.6594 34.0293 80.6541 33.624 80.5368 33.272C80.4194 32.9093 80.2114 32.6267 79.9128 32.424C79.6248 32.2107 79.2674 32.104 78.8408 32.104C78.4248 32.104 78.0674 32.2053 77.7687 32.408C77.4701 32.6107 77.2461 32.9093 77.0967 33.304C76.9474 33.6987 76.8887 34.1787 76.9207 34.744C76.8781 35.2347 76.9367 35.6667 77.0967 36.04C77.2567 36.4133 77.5021 36.7067 77.8327 36.92C78.1634 37.1227 78.5634 37.224 79.0327 37.224C79.4594 37.224 79.8221 37.1387 80.1208 36.968C80.4301 36.7973 80.6701 36.5627 80.8408 36.264L82.7607 37.176C82.5901 37.6027 82.3181 37.976 81.9448 38.296C81.5821 38.616 81.1501 38.8667 80.6488 39.048C80.1474 39.2187 79.5981 39.304 79.0008 39.304Z" stroke="black" style="stroke:black;stroke-opacity:1;" stroke-width="0.4" shape-rendering="crispEdges" mask="url(#path-40-outside-1_3506_98082)"/>
</g>
<path opacity="0.42" d="M16.4352 26.8917V45.4319C13.9895 46.6932 13.8006 48.0703 13.7897 48.376V29.5212C14.2802 28.4261 15.2687 27.5654 16.4352 26.8917Z" fill="#484F51" style="fill:#484F51;fill:color(display-p3 0.2824 0.3098 0.3176);fill-opacity:1;"/>
<path opacity="0.42" d="M106.879 29.4975V48.1742C106.868 47.8685 106.675 46.5062 104.233 45.2568V26.8917C105.403 27.5595 106.388 28.4113 106.879 29.4975Z" fill="#484F51" style="fill:#484F51;fill:color(display-p3 0.2824 0.3098 0.3176);fill-opacity:1;"/>
<path opacity="0.28" d="M60.2427 13.5291C53.8541 13.5291 47.9961 15.2861 43.41 18.2153C41.3968 19.5034 38.8021 20.2453 36.0875 20.2453C36.0875 23.1954 32.7006 25.5845 28.5179 25.5845V42.8781C32.7006 42.8781 36.0875 45.2673 36.0875 48.2173C38.8057 48.2173 41.4004 48.9593 43.41 50.2473C43.7916 50.4907 44.1877 50.7222 44.5874 50.9507L65.0578 13.8704C63.4952 13.6478 61.8889 13.5291 60.2391 13.5291H60.2427Z" fill="white" style="fill:white;fill-opacity:1;"/>
</g>
<defs>
<filter id="filter0_d_3506_98082" x="0.464752" y="0.504364" width="120.035" height="72.4852" filterUnits="userSpaceOnUse" color-interpolation-filters="sRGB">
<feFlood flood-opacity="0" result="BackgroundImageFix"/>
<feColorMatrix in="SourceAlpha" type="matrix" values="0 0 0 0 0 0 0 0 0 0 0 0 0 0 0 0 0 0 127 0" result="hardAlpha"/>
<feOffset dy="2"/>
<feGaussianBlur stdDeviation="6.25"/>
<feComposite in2="hardAlpha" operator="out"/>
<feColorMatrix type="matrix" values="0 0 0 0 1 0 0 0 0 1 0 0 0 0 1 0 0 0 0.35 0"/>
<feBlend mode="normal" in2="BackgroundImageFix" result="effect1_dropShadow_3506_98082"/>
<feBlend mode="normal" in="SourceGraphic" in2="effect1_dropShadow_3506_98082" result="shape"/>
</filter>
<filter id="filter1_d_3506_98082" x="37.8" y="26.8" width="45.5607" height="13.704" filterUnits="userSpaceOnUse" color-interpolation-filters="sRGB">
<feFlood flood-opacity="0" result="BackgroundImageFix"/>
<feColorMatrix in="SourceAlpha" type="matrix" values="0 0 0 0 0 0 0 0 0 0 0 0 0 0 0 0 0 0 127 0" result="hardAlpha"/>
<feOffset dy="1"/>
<feComposite in2="hardAlpha" operator="out"/>
<feColorMatrix type="matrix" values="0 0 0 0 0 0 0 0 0 0 0 0 0 0 0 0 0 0 1 0"/>
<feBlend mode="normal" in2="BackgroundImageFix" result="effect1_dropShadow_3506_98082"/>
<feBlend mode="normal" in="SourceGraphic" in2="effect1_dropShadow_3506_98082" result="shape"/>
</filter>
</defs>
</svg>
