<svg width="80" height="58" viewBox="0 0 80 58" fill="none" xmlns="http://www.w3.org/2000/svg">
<g filter="url(#filter0_d_1389_14826)">
<path d="M40.0852 47.7318C56.4896 47.7318 69.7868 44.2859 69.7868 40.0331C69.7868 35.7802 56.4896 32.3343 40.0852 32.3343C23.6809 32.3343 10.3836 35.7802 10.3836 40.0331C10.3836 44.2859 23.6809 47.7318 40.0852 47.7318Z" fill="#1B1E1E"/>
<path d="M40.0854 32.576C56.3453 32.576 69.5279 35.9164 69.5279 40.0355C69.5279 44.1547 56.3453 47.4951 40.0854 47.4951C23.8255 47.4951 10.6429 44.1547 10.6429 40.0355C10.6429 35.9164 23.8255 32.576 40.0854 32.576ZM40.0854 32.0952C32.1768 32.0952 24.7336 32.8763 19.1317 34.2955C11.6862 36.1815 10.1247 38.4569 10.1247 40.0332C10.1247 41.6096 11.6862 43.8849 19.1317 45.7709C24.7359 47.1901 32.1768 47.9736 40.0854 47.9736C47.9941 47.9736 55.4373 47.1925 61.0414 45.7709C68.4846 43.8849 70.0484 41.6096 70.0484 40.0332C70.0484 38.4569 68.4869 36.1815 61.0414 34.2955C55.4373 32.8763 47.9964 32.0952 40.0854 32.0952Z" fill="black"/>
<g opacity="0.46">
<path d="M40.083 44.1242C55.3408 44.1242 67.7094 41.7011 67.7094 38.7102C67.7094 35.7194 55.3408 33.2962 40.083 33.2962C24.8252 33.2962 12.4566 35.7194 12.4566 38.7102C12.4566 41.7011 24.8252 44.1242 40.083 44.1242Z" fill="black"/>
</g>
<path d="M10.659 40.2724C10.5237 40.2724 10.4091 40.1762 10.3999 40.0495V25.1164C10.3999 25.0883 10.4045 25.0578 10.416 25.032C11.7069 21.8065 17.4326 21.0794 17.6757 21.0512H17.7101C17.772 21.0512 17.8339 21.0723 17.8821 21.1122C17.9394 21.1568 17.9692 21.2224 17.9692 21.2928V36.1673C17.9692 36.2869 17.8729 36.3878 17.7468 36.4065C11.246 37.2487 10.9342 39.6906 10.9181 39.9862V40.0401C10.9181 40.1691 10.8081 40.2724 10.6682 40.2794H10.6567L10.659 40.2724Z" fill="#1D1E1E"/>
<path d="M39.9501 46.7702C35.6828 46.7702 31.5187 45.3205 28.2259 42.6815C26.8661 41.5931 25.1418 40.9949 23.367 40.9949H23.1078V40.7533C23.1078 38.3512 20.8928 36.4019 18.1687 36.4019H17.9095V21.0466H18.1687C20.8928 21.0466 23.1078 19.0926 23.1078 16.6952V16.4536H23.367C25.1418 16.4536 26.8661 15.8554 28.2259 14.767C31.5187 12.1304 35.6805 10.6783 39.9501 10.6783C44.2198 10.6783 48.3816 12.128 51.6744 14.767C53.0342 15.8554 54.7585 16.4536 56.5333 16.4536H57.0653V16.6952C57.0653 19.0973 59.2804 21.0466 62.0045 21.0466H62.2636V36.4019H62.0045C59.2804 36.4019 57.0653 38.3559 57.0653 40.7533V40.9949H56.5333C54.7585 40.9949 53.0342 41.5931 51.6744 42.6815C48.3793 45.3181 44.2175 46.7702 39.9501 46.7702Z" fill="#A5874A"/>
<path d="M39.9501 10.9223C44.3366 10.9223 48.3609 12.433 51.507 14.9523C52.8897 16.0595 54.669 16.6975 56.5379 16.6975H56.8107C56.8107 19.2333 59.1382 21.2905 62.009 21.2905V36.165C59.1382 36.165 56.8107 38.2222 56.8107 40.758H56.5379C54.6736 40.758 52.8942 41.3984 51.507 42.5032C48.3609 45.0202 44.3366 46.5332 39.9501 46.5332C35.5635 46.5332 31.5392 45.0226 28.3932 42.5032C27.0105 41.396 25.2311 40.758 23.3623 40.758C23.3623 38.2222 21.0349 36.165 18.164 36.165V21.2905C21.0349 21.2905 23.3623 19.2333 23.3623 16.6975C25.2265 16.6975 27.0059 16.0572 28.3932 14.9523C31.5392 12.4353 35.5635 10.9223 39.9501 10.9223ZM39.9501 10.4414C35.6208 10.4414 31.3948 11.9145 28.0538 14.5864C26.7422 15.6349 25.0752 16.2143 23.3646 16.2143H22.8464V16.6952C22.8464 18.9612 20.7482 20.8073 18.1663 20.8073H17.6481V36.6435H18.1663C20.7482 36.6435 22.8464 38.4896 22.8464 40.7556V41.2365H23.3646C25.0775 41.2365 26.7422 41.8136 28.0538 42.8645C31.3948 45.5386 35.6208 47.0094 39.9501 47.0094C44.2793 47.0094 48.5054 45.5363 51.8463 42.8645C53.1579 41.8159 54.825 41.2365 56.5356 41.2365H57.3267V40.7556C57.3267 38.4896 59.4248 36.6435 62.0067 36.6435H62.525V20.8073H62.0067C59.4248 20.8073 57.3267 18.9612 57.3267 16.6952V16.2143H56.5356C54.8227 16.2143 53.1579 15.6373 51.8463 14.5864C48.5031 11.9122 44.2793 10.4414 39.9501 10.4414Z" fill="black"/>
<path d="M39.9546 43.4017C48.6933 43.4017 55.7788 36.8312 55.7788 28.7243C55.7788 20.6173 48.6933 14.0469 39.9546 14.0469C31.2158 14.0469 24.1304 20.6173 24.1304 28.7243C24.1304 36.8312 31.2158 43.4017 39.9546 43.4017Z" fill="#D6CA85"/>
<path d="M55.4144 17.4295L56.4738 16.6929C54.6325 16.6789 52.8737 16.0432 51.5071 14.9477C51.1471 14.6592 50.7733 14.3847 50.3904 14.1243L36.8317 46.2659C37.8452 46.4371 38.8885 46.5286 39.9525 46.5286C44.339 46.5286 48.3633 45.018 51.5093 42.4986C52.892 41.3914 54.6714 40.7534 56.5403 40.7534H56.8131L55.419 39.5383V17.4295H55.4167H55.4144Z" fill="#936B3E"/>
<path d="M39.9225 44.6049C36.1184 44.6049 32.4105 43.3101 29.4709 40.9596C28.1936 39.9392 26.5931 39.3551 24.933 39.3012C24.7977 37.0281 22.7316 35.1984 20.1635 35.0811V21.8816C22.7316 21.7666 24.8 19.9369 24.933 17.6615C26.5931 17.6076 28.1959 17.0235 29.4709 16.0031C32.4082 13.6526 36.1184 12.3578 39.9225 12.3578C43.7266 12.3578 47.4345 13.6526 50.3718 16.0031C51.711 17.0728 53.4124 17.6662 55.1597 17.6662C55.2973 19.9393 57.361 21.7666 59.9292 21.8816V35.0811C57.361 35.1961 55.295 37.0234 55.1597 39.2965C53.4124 39.2965 51.7087 39.8876 50.3718 40.9596C47.4345 43.3101 43.7243 44.6049 39.9225 44.6049Z" fill="#C9A753"/>
<path d="M39.9224 12.6065C43.6624 12.6065 47.3129 13.8803 50.2021 16.1908C51.5275 17.2511 53.1922 17.8563 54.9212 17.9079C55.1757 20.127 57.1706 21.8934 59.67 22.1092V34.8584C57.1683 35.0742 55.1734 36.8429 54.9212 39.0596C53.1968 39.1136 51.5275 39.7164 50.2021 40.7767C47.3129 43.0896 43.6624 44.361 39.9224 44.361C36.1825 44.361 32.532 43.0873 29.6428 40.7767C28.3816 39.7681 26.8132 39.1722 25.176 39.0714C24.9306 36.8476 22.9288 35.0742 20.4271 34.8584V22.1092C22.9334 21.8934 24.9306 20.12 25.176 17.8962C26.8132 17.7953 28.3816 17.1995 29.6428 16.1908C32.532 13.8779 36.1825 12.6065 39.9224 12.6065ZM39.9224 12.1233C35.8913 12.1233 32.1949 13.512 29.3011 15.8249C28.0308 16.843 26.3936 17.4294 24.6807 17.4294C24.6807 19.7611 22.5436 21.6494 19.9043 21.6494V35.3181C22.5436 35.3181 24.6807 37.2065 24.6807 39.5382C26.3959 39.5382 28.0331 40.1246 29.3011 41.1427C32.1926 43.4579 35.8913 44.8443 39.9224 44.8443C43.9536 44.8443 47.65 43.4556 50.5415 41.1427C51.8118 40.1246 53.449 39.5382 55.1619 39.5382H55.4119C55.4119 37.2065 57.549 35.3181 60.1882 35.3181V21.6494C57.549 21.6494 55.4119 19.7611 55.4119 17.4294H55.1619C53.4467 17.4294 51.8095 16.843 50.5415 15.8249C47.65 13.5096 43.9536 12.1233 39.9224 12.1233Z" fill="#EACC81"/>
<path d="M62.0045 36.1628L60.1907 35.3183V21.6519L62.0045 21.2883V36.1628Z" fill="#936B3E"/>
<path d="M18.1641 21.2883L19.9045 21.6519V35.3183L18.1641 36.1628V21.2883Z" fill="#936B3E"/>
<path d="M69.5645 40.2724C69.4246 40.2677 69.3145 40.1622 69.3145 40.0332V39.9792C69.3008 39.6836 68.9912 37.2417 62.4882 36.3996C62.3598 36.3832 62.2657 36.2823 62.2657 36.1603V21.2859C62.2657 21.2155 62.2979 21.1522 62.3529 21.1052C62.3987 21.0677 62.4629 21.0443 62.5249 21.0443H62.5593C62.8023 21.0724 68.528 21.7996 69.8213 25.025C69.8305 25.0508 69.8373 25.0813 69.8373 25.1094V40.0425C69.8259 40.1669 69.7135 40.2654 69.5782 40.2654H69.569L69.5645 40.2724Z" fill="#1D1E1E"/>
<path d="M39.9616 44.6074C36.1575 44.6074 32.4496 43.3125 29.51 40.9621C28.2328 39.9417 26.6322 39.3576 24.9721 39.3036C24.8368 37.0306 22.7708 35.2009 20.2026 35.0836V21.884C22.7708 21.7691 24.8391 19.9394 24.9721 17.664C26.6322 17.61 28.2351 17.0259 29.51 16.0055C32.4474 13.6551 36.1575 12.3602 39.9616 12.3602C43.7657 12.3602 47.4736 13.6551 50.4109 16.0055C51.7501 17.0752 53.4515 17.6687 55.1988 17.6687C55.3364 19.9417 57.4001 21.7691 59.9683 21.884V35.0836C57.4001 35.1985 55.3341 37.0259 55.1988 39.2989C53.4515 39.2989 51.7478 39.89 50.4109 40.9621C47.4736 43.3125 43.7635 44.6074 39.9616 44.6074Z" fill="black"/>
<path d="M40.0303 44.6215C36.2261 44.6215 32.5183 43.3267 29.5786 40.9762C28.3014 39.9558 26.7009 39.3717 25.0407 39.3178C24.9055 37.0447 22.8394 35.215 20.2712 35.0977V21.8982C22.8394 21.7832 24.9077 19.9535 25.0407 17.6781C26.7009 17.6242 28.3037 17.0401 29.5786 16.0197C32.516 13.6692 36.2261 12.3744 40.0303 12.3744C43.8344 12.3744 47.5422 13.6692 50.4796 16.0197C51.8187 17.0894 53.5202 17.6828 55.2675 17.6828C55.405 19.9559 57.4688 21.7832 60.037 21.8982V35.0977C57.4688 35.2127 55.4027 37.04 55.2675 39.3131C53.5202 39.3131 51.8165 39.9042 50.4796 40.9762C47.5422 43.3267 43.8321 44.6215 40.0303 44.6215Z" fill="black"/>
<g opacity="0.6">
<mask id="mask0_1389_14826" style="mask-type:luminance" maskUnits="userSpaceOnUse" x="20" y="12" width="41" height="33">
<path d="M40.0303 44.6215C36.2261 44.6215 32.5183 43.3267 29.5786 40.9762C28.3014 39.9558 26.7009 39.3717 25.0407 39.3178C24.9055 37.0447 22.8394 35.215 20.2712 35.0977V21.8982C22.8394 21.7832 24.9077 19.9535 25.0407 17.6781C26.7009 17.6242 28.3037 17.0401 29.5786 16.0197C32.516 13.6692 36.2261 12.3744 40.0303 12.3744C43.8344 12.3744 47.5422 13.6692 50.4796 16.0197C51.8187 17.0894 53.5202 17.6828 55.2675 17.6828C55.405 19.9559 57.4688 21.7832 60.037 21.8982V35.0977C57.4688 35.2127 55.4027 37.04 55.2675 39.3131C53.5202 39.3131 51.8165 39.9042 50.4796 40.9762C47.5422 43.3267 43.8321 44.6215 40.0303 44.6215Z" fill="white"/>
</mask>
<g mask="url(#mask0_1389_14826)">
<path d="M39.4913 0.870728L16.9921 40.3381L16.9531 42.2452L46.1159 1.01147L39.4913 0.870728Z" fill="#FF0080"/>
<path d="M17.1457 32.9467L31.7912 9.17249L17.0792 36.1675L17.1457 32.9467Z" fill="#F4FA23"/>
<path d="M17.2903 25.914L17.3844 21.3257L24.1901 7.93616L29.5282 9.12311L17.2903 25.914Z" fill="#FF0080"/>
<path d="M45.4258 51.5438L62.7542 21.1451L62.784 19.6767L40.3238 51.4336L45.4258 51.5438Z" fill="#FF0080"/>
<path d="M62.6373 26.8383L51.3556 45.1493L62.6877 24.3588L62.6373 26.8383Z" fill="#F4FA23"/>
<path d="M62.5248 32.2546L62.4514 35.7896L57.2095 46.1016L53.0981 45.1867L62.5248 32.2546Z" fill="#FF0080"/>
<path d="M62.1693 49.5146L48.9614 45.5104L53.8043 43.5939L53.2425 44.7316L50.7615 45.3204L62.2106 47.5864L62.1693 49.5146Z" fill="#F4FA23"/>
<path d="M62.2426 45.9821L58.8558 44.6215L62.3068 42.8129L62.1578 43.4064L60.344 44.3564L62.2587 45.2009L62.2426 45.9821Z" fill="#F4FA23"/>
<path d="M45.6984 36.9954L63.0269 6.59674L63.0567 5.1283L40.5964 36.8852L45.6984 36.9954Z" fill="#FF0080"/>
<path d="M62.9097 12.2899L51.6303 30.6009L62.9602 9.81042L62.9097 12.2899Z" fill="#F4FA23"/>
<path d="M36.884 20.242L19.5556 50.6407L19.5235 52.1091L41.986 20.3499L36.884 20.242Z" fill="#FF0080"/>
<path d="M19.6723 44.9475L30.9517 26.6342L19.6196 47.427L19.6723 44.9475Z" fill="#F4FA23"/>
</g>
</g>
<g opacity="0.44">
<mask id="mask1_1389_14826" style="mask-type:luminance" maskUnits="userSpaceOnUse" x="10" y="21" width="9" height="20">
<path d="M11.0029 40.4881C10.8677 40.4881 10.753 40.3919 10.7438 40.2653V25.3322C10.7438 25.304 10.7484 25.2735 10.7599 25.2477C12.0509 22.0223 17.7766 21.2951 18.0196 21.267H18.054C18.1159 21.267 18.1778 21.2881 18.226 21.328C18.2833 21.3725 18.3131 21.4382 18.3131 21.5086V36.383C18.3131 36.5027 18.2168 36.6035 18.0907 36.6223C11.59 37.4644 11.2781 39.9064 11.2621 40.2019V40.2559C11.2621 40.3849 11.152 40.4881 11.0121 40.4951H11.0007L11.0029 40.4881Z" fill="white"/>
</mask>
<g mask="url(#mask1_1389_14826)">
<path d="M13.7318 36.6505H12.606L16.3642 29.8642H17.6162V30.209L17.004 30.2864L13.7318 36.6505Z" fill="#FF0080"/>
<path d="M15.7244 36.6506L17.8409 32.8622V34.7576L16.7838 36.6506H15.7244Z" fill="#FF0080"/>
<path d="M14.3439 36.6505H14.9355L17.616 31.5743V30.6219L14.3439 36.6505Z" fill="#F4FA23"/>
<path d="M17.6162 29.4116L12.8765 29.6415L17.6162 28.6047V29.4116Z" fill="#FF0080"/>
<path d="M12.3695 29.3529L17.6159 19.6908V19.2286L10.7667 29.3529H12.3695Z" fill="#FF0080"/>
<path d="M17.6163 21.4782L14.1905 27.305L17.6163 20.7017V21.4782Z" fill="#F4FA23"/>
<path d="M17.6161 23.1812V24.2908L16.0362 27.5654L14.7383 27.3051L17.6161 23.1812Z" fill="#FF0080"/>
<path d="M17.616 28.6045L13.4404 27.4364L14.9492 26.8007L14.7796 27.1619L14.0045 27.3636L17.616 27.997V28.6045Z" fill="#F4FA23"/>
<path d="M17.616 27.4929L16.5428 27.0894L17.616 26.4983L17.5724 26.686L17.0083 26.9956L17.616 27.2489V27.4929Z" fill="#F4FA23"/>
</g>
</g>
<g opacity="0.44">
<mask id="mask2_1389_14826" style="mask-type:luminance" maskUnits="userSpaceOnUse" x="61" y="21" width="9" height="20">
<path d="M69.113 40.4882C68.9731 40.4835 68.863 40.3803 68.863 40.2489V40.195C68.847 39.8994 68.5351 37.4575 62.0344 36.6153C61.9083 36.5989 61.812 36.4981 61.812 36.3761V21.5016C61.812 21.4312 61.8441 21.3679 61.8991 21.321C61.9449 21.2835 62.0092 21.26 62.0711 21.26H62.1055C62.3485 21.2882 68.0742 22.0153 69.3652 25.2408C69.3767 25.2666 69.3812 25.2971 69.3812 25.3252V40.1785C69.3812 40.2325 69.3812 40.2583 69.3812 40.2583C69.3698 40.385 69.2574 40.4812 69.1221 40.4812H69.1107L69.113 40.4882Z" fill="white"/>
</mask>
<g mask="url(#mask2_1389_14826)">
<path d="M66.393 36.6505H67.5211L63.7606 29.8642H62.5109V30.209L63.1208 30.2864L66.393 36.6505Z" fill="#FF0080"/>
<path d="M64.4005 36.6506L62.2841 32.8622V34.7576L63.3434 36.6506H64.4005Z" fill="#FF0080"/>
<path d="M65.7807 36.6505H65.1891L62.5109 31.5743V30.6219L65.7807 36.6505Z" fill="#F4FA23"/>
<path d="M62.5109 29.4116L67.2483 29.6415L62.5109 28.6047V29.4116Z" fill="#FF0080"/>
<path d="M67.755 29.3529L62.5109 19.6908V19.2286L69.3578 29.3529H67.755Z" fill="#FF0080"/>
<path d="M62.5109 21.4782L65.9344 27.305L62.5109 20.7017V21.4782Z" fill="#F4FA23"/>
<path d="M62.5109 23.1812V24.2908L64.0908 27.5654L65.3863 27.3051L62.5109 23.1812Z" fill="#FF0080"/>
<path d="M62.5109 28.6045L66.6842 27.4364L65.1754 26.8007L65.345 27.1619L66.1201 27.3636L62.5109 27.997V28.6045Z" fill="#F4FA23"/>
<path d="M62.5109 27.4929L63.5817 27.0894L62.5109 26.4983L62.5521 26.686L63.1162 26.9956L62.5109 27.2489V27.4929Z" fill="#F4FA23"/>
</g>
</g>
<path d="M17.7101 21.2905V36.165C11.0511 37.0259 10.6773 39.5616 10.659 39.9792V25.1188C11.9087 21.9919 17.7101 21.2905 17.7101 21.2905ZM17.7101 20.8073C17.6871 20.8073 17.6665 20.8073 17.6436 20.812C17.3936 20.8425 11.5189 21.5884 10.1752 24.9499C10.1545 25.0039 10.1431 25.0602 10.1431 25.1188V40.0707C10.166 40.3217 10.393 40.514 10.659 40.514H10.6819C10.9594 40.5023 11.1772 40.2959 11.1772 40.0378V39.9909C11.1933 39.7 11.5143 37.4552 17.7789 36.6435C18.0357 36.6107 18.226 36.4066 18.226 36.1673V21.2929C18.226 21.1545 18.1618 21.0231 18.0494 20.9316C17.9531 20.8542 17.8316 20.812 17.7078 20.812H17.7101V20.8073Z" fill="black"/>
<path d="M62.5248 21.2576C62.5248 21.2576 68.3239 21.9566 69.5759 25.0859V39.9462C69.5598 39.531 69.1838 36.9953 62.5248 36.132V21.2576ZM62.5248 20.7744C62.401 20.7744 62.2795 20.8142 62.1832 20.894C62.0708 20.9855 62.0066 21.1168 62.0066 21.2552V36.1297C62.0066 36.3713 62.1992 36.573 62.4537 36.6059C68.7183 37.4175 69.0416 39.6624 69.0554 39.9533V40.0025C69.0554 40.2606 69.2732 40.467 69.5507 40.4787H69.5736C69.8419 40.4787 70.0666 40.284 70.0895 40.0354C70.0895 40.0354 70.0918 40.0025 70.0895 39.9368V25.0859C70.0895 25.0272 70.0781 24.9733 70.0574 24.917C68.7137 21.5555 62.839 20.8095 62.589 20.779C62.5661 20.7767 62.5455 20.7744 62.5225 20.7744H62.5248Z" fill="black"/>
<path opacity="0.42" d="M12.3121 23.2141V37.8681C10.7689 38.865 10.6496 39.9534 10.6428 40.1951V25.2925C10.9523 24.4269 11.576 23.7466 12.3121 23.2141Z" fill="#484F51"/>
<path opacity="0.42" d="M69.381 25.2737V40.0355C69.3741 39.7939 69.2526 38.7172 67.7117 37.7297V23.2141C68.45 23.7419 69.0714 24.4151 69.381 25.2737Z" fill="#484F51"/>
<path opacity="0.28" d="M40.1036 12.6065C36.0725 12.6065 32.3761 13.9952 29.4823 16.3105C28.2119 17.3285 26.5747 17.915 24.8618 17.915C24.8618 20.2466 22.7247 22.135 20.0854 22.135V35.8037C22.7247 35.8037 24.8618 37.692 24.8618 40.0237C26.577 40.0237 28.2142 40.6102 29.4823 41.6282C29.7231 41.8206 29.973 42.0035 30.2252 42.1842L43.1419 12.8763C42.1559 12.7003 41.1423 12.6065 40.1013 12.6065H40.1036Z" fill="white"/>
<path d="M22.4969 32.8596V33.0596H22.6969H24.511H24.711V32.8596V24.1404V23.9404H24.511H20.9999H20.7999V24.1404V25.6736V25.8736H20.9999H22.4969V32.8596ZM27.5831 32.927L27.5831 32.9271L27.586 32.9282C28.0386 33.1093 28.5086 33.2 28.9944 33.2C29.6321 33.2 30.2077 33.0649 30.7164 32.7897L30.7164 32.7897L30.7186 32.7885C31.2238 32.5069 31.6241 32.1239 31.9158 31.6408C32.2167 31.1474 32.3661 30.5962 32.3661 29.9922C32.3661 29.3952 32.2433 28.8623 31.9912 28.3996C31.7475 27.9379 31.3975 27.5753 30.9444 27.3149C30.4869 27.0441 29.9473 26.9131 29.3338 26.9131C28.9451 26.9131 28.6007 26.9605 28.3059 27.0613L28.4645 25.8619H31.8501H32.0501V25.6619V24.1404V23.9404H31.8501H26.9814H26.8082L26.7835 24.112L26.0813 28.9923L26.0552 29.1734L26.2332 29.2154L27.7196 29.5666L27.8864 29.6059L27.9509 29.4472C28.0364 29.2367 28.1662 29.0912 28.3399 28.9981L28.3399 28.9982L28.3446 28.9955C28.5295 28.8899 28.7442 28.8346 28.9944 28.8346C29.2383 28.8346 29.4407 28.8866 29.6084 28.9834L29.6084 28.9835L29.6135 28.9862C29.7819 29.0769 29.9097 29.2047 30.0004 29.3731L30.0003 29.3731L30.0033 29.3782C30.1 29.546 30.1521 29.7483 30.1521 29.9922C30.1521 30.2359 30.1001 30.4435 30.0017 30.6207L30.0017 30.6207L30.0004 30.623C29.9095 30.7918 29.7809 30.9243 29.6109 31.023C29.4427 31.1129 29.2393 31.1615 28.9944 31.1615C28.7126 31.1615 28.4628 31.0866 28.2393 30.9376C28.0292 30.7975 27.8646 30.5679 27.7575 30.2251L27.6966 30.0302L27.503 30.0952L25.8996 30.6335L25.7314 30.69L25.7674 30.8637C25.8681 31.3507 26.0836 31.7742 26.4136 32.1296L26.4135 32.1296L26.4152 32.1313C26.7396 32.4724 27.1298 32.7375 27.5831 32.927ZM34.8732 32.6008L34.8743 32.6016C35.441 33.0016 36.0944 33.2 36.8271 33.2C37.5671 33.2 38.2212 33.0019 38.781 32.6008L38.7815 32.6005C39.3447 32.1947 39.7757 31.6378 40.0769 30.9378C40.3864 30.2291 40.5382 29.413 40.5382 28.4941C40.5382 27.5756 40.3865 26.7633 40.0769 26.0621C39.7758 25.3547 39.3447 24.7972 38.7805 24.3988C38.2203 23.9977 37.5624 23.8 36.8154 23.8C36.0827 23.8 35.4293 23.9984 34.8626 24.3984L34.8615 24.3992C34.3058 24.7973 33.875 25.3502 33.5661 26.0492L33.5654 26.051C33.2637 26.7522 33.1161 27.5682 33.1161 28.4941C33.1161 29.4133 33.2679 30.2295 33.5775 30.9383C33.8862 31.645 34.3169 32.2023 34.8732 32.6008ZM38.1341 27.0201L38.1344 27.021C38.2592 27.4174 38.3241 27.9069 38.3241 28.4941C38.3241 29.0812 38.2592 29.5752 38.1341 29.98C38.0086 30.3859 37.833 30.6785 37.6174 30.8739C37.407 31.0645 37.1516 31.1615 36.8388 31.1615C36.5182 31.1615 36.2548 31.0644 36.037 30.874C35.8204 30.67 35.6452 30.3728 35.5201 29.9682C35.395 29.5632 35.3301 29.0731 35.3301 28.4941C35.3301 27.9069 35.3951 27.4174 35.5198 27.021L35.5201 27.02C35.6456 26.6141 35.8212 26.3215 36.0368 26.1261C36.2472 25.9355 36.5026 25.8385 36.8154 25.8385C37.1372 25.8385 37.3962 25.9362 37.6057 26.1261L37.6057 26.1261L37.608 26.1281C37.8304 26.3236 38.009 26.6155 38.1341 27.0201ZM42.99 32.7501L42.7875 33.0596H43.1573H45.2406H45.3484L45.4077 32.9695L47.0263 30.5084L48.6309 32.9688L48.6901 33.0596H48.7984H50.8817H51.2506L51.0492 32.7504L48.2765 28.4943L51.0491 24.2498L51.2512 23.9404H50.8817H48.7984H48.6903L48.6311 24.0309L47.0236 26.4875L45.4077 24.0305L45.3484 23.9404H45.2406H43.1573H42.787L42.9901 24.2501L45.7739 28.4943L42.99 32.7501ZM51.5786 32.8596V33.0596H51.7786H53.5927H53.7927V32.8596V29.8996H55.1258C55.7426 29.8996 56.2985 29.79 56.789 29.5655L56.7904 29.5649C57.2905 29.3314 57.6868 28.9912 57.9735 28.5447C58.2717 28.0928 58.4156 27.5497 58.4156 26.9259C58.4156 26.2882 58.2764 25.7374 57.986 25.2847C57.6989 24.8372 57.3017 24.5001 56.8002 24.2743C56.3094 24.0499 55.7498 23.9404 55.1258 23.9404H51.7786H51.5786V24.1404V32.8596ZM56.0668 27.4422L56.0667 27.4421L56.0635 27.4478C55.9812 27.5934 55.8647 27.7075 55.7094 27.7916C55.5569 27.8742 55.3686 27.9196 55.1375 27.9196H53.7927V25.9204H55.1375C55.3686 25.9204 55.5569 25.9658 55.7094 26.0484C55.8647 26.1326 55.9812 26.2467 56.0635 26.3923L56.0635 26.3924L56.0668 26.3979C56.1542 26.5415 56.2015 26.715 56.2015 26.9259C56.2015 27.1276 56.1549 27.2975 56.0668 27.4422Z" fill="#F9E0A1" stroke="#010101" stroke-width="0.4"/>
</g>
<defs>
<filter id="filter0_d_1389_14826" x="2.12469" y="2.44141" width="75.9659" height="53.5322" filterUnits="userSpaceOnUse" color-interpolation-filters="sRGB">
<feFlood flood-opacity="0" result="BackgroundImageFix"/>
<feColorMatrix in="SourceAlpha" type="matrix" values="0 0 0 0 0 0 0 0 0 0 0 0 0 0 0 0 0 0 127 0" result="hardAlpha"/>
<feOffset/>
<feGaussianBlur stdDeviation="4"/>
<feComposite in2="hardAlpha" operator="out"/>
<feColorMatrix type="matrix" values="0 0 0 0 0.917647 0 0 0 0 0.8 0 0 0 0 0.505882 0 0 0 0.32 0"/>
<feBlend mode="normal" in2="BackgroundImageFix" result="effect1_dropShadow_1389_14826"/>
<feBlend mode="normal" in="SourceGraphic" in2="effect1_dropShadow_1389_14826" result="shape"/>
</filter>
</defs>
</svg>
