<svg width="86" height="64" viewBox="0 0 86 64" fill="none" xmlns="http://www.w3.org/2000/svg">
<g filter="url(#filter0_d_1389_14913)">
<path d="M42.98 50.5614C59.3936 50.5614 72.6984 47.1106 72.6984 42.8516C72.6984 38.5926 59.3936 35.1417 42.98 35.1417C26.5664 35.1417 13.2617 38.5926 13.2617 42.8516C13.2617 47.1106 26.5664 50.5614 42.98 50.5614Z" fill="#1B1E1E"/>
<path d="M42.9776 35.3813C59.2467 35.3813 72.4367 38.7265 72.4367 42.8515C72.4367 46.9766 59.2467 50.3218 42.9776 50.3218C26.7086 50.3218 13.5185 46.9766 13.5185 42.8515C13.5185 38.7265 26.7086 35.3813 42.9776 35.3813ZM42.9776 34.8997C35.0645 34.8997 27.6171 35.682 22.0121 37.1032C14.5624 38.9919 13 41.2706 13 42.8492C13 44.4278 14.5624 46.7065 22.0121 48.5952C27.6194 50.0164 35.0645 50.801 42.9776 50.801C50.8907 50.801 58.3381 50.0187 63.9454 48.5952C71.3928 46.7065 72.9575 44.4278 72.9575 42.8492C72.9575 41.2706 71.3951 38.9919 63.9454 37.1032C58.3381 35.682 50.893 34.8997 42.9776 34.8997Z" fill="black"/>
<g opacity="0.46">
<path d="M42.9777 46.946C58.2441 46.946 70.6197 44.5194 70.6197 41.5242C70.6197 38.5291 58.2441 36.1024 42.9777 36.1024C27.7113 36.1024 15.3357 38.5291 15.3357 41.5242C15.3357 44.5194 27.7113 46.946 42.9777 46.946Z" fill="black"/>
</g>
<path d="M13.5369 43.0888C13.4015 43.0888 13.2868 42.9925 13.2776 42.8656V27.9111C13.2776 27.8829 13.2822 27.8523 13.2937 27.8265C14.5854 24.5964 20.3143 23.8682 20.5575 23.84H20.592C20.6539 23.84 20.7158 23.8612 20.764 23.9011C20.8214 23.9457 20.8512 24.0115 20.8512 24.082V38.9778C20.8512 39.0976 20.7548 39.1987 20.6287 39.2174C14.1243 40.0608 13.8122 42.5062 13.7962 42.8022V42.8563C13.7962 42.9855 13.686 43.0888 13.5461 43.0959H13.5346L13.5369 43.0888Z" fill="#1D1E1E"/>
<path d="M20.592 24.0796V38.9755C13.9292 39.8376 13.5553 42.377 13.5369 42.7952V27.9134C14.7873 24.782 20.592 24.0796 20.592 24.0796ZM20.592 23.5957C20.569 23.5957 20.5484 23.5957 20.5254 23.6004C20.2753 23.6309 14.3973 24.378 13.0528 27.7443C13.0322 27.7983 13.0207 27.8547 13.0207 27.9134V42.8868C13.0436 43.1381 13.2708 43.3308 13.5369 43.3308H13.5599C13.8375 43.319 14.0554 43.1123 14.0554 42.8539V42.8069C14.0715 42.5156 14.3927 40.2675 20.6608 39.4547C20.9177 39.4218 21.1082 39.2174 21.1082 38.9778V24.082C21.1082 23.9434 21.0439 23.8118 20.9315 23.7202C20.8352 23.6427 20.7136 23.6004 20.5897 23.6004H20.592V23.5957Z" fill="black"/>
<path d="M42.8445 49.5957C38.5748 49.5957 34.4083 48.144 31.1137 45.5012C29.7531 44.4112 28.0278 43.8122 26.252 43.8122H25.9927V43.5702C25.9927 41.1647 23.7764 39.2126 21.0508 39.2126H20.7915V23.8375H21.0508C23.7764 23.8375 25.9927 21.8807 25.9927 19.4799V19.2379H26.252C28.0278 19.2379 29.7531 18.6389 31.1137 17.5489C34.4083 14.9085 38.5725 13.4543 42.8445 13.4543C47.1166 13.4543 51.2808 14.9061 54.5754 17.5489C55.9359 18.6389 57.6613 19.2379 59.4371 19.2379H59.9694V19.4799C59.9694 21.8854 62.1857 23.8375 64.9113 23.8375H65.1706V39.2149H64.9113C62.1857 39.2149 59.9694 41.1718 59.9694 43.5726V43.8145H59.4371C57.6613 43.8145 55.9359 44.4136 54.5754 45.5036C51.2785 48.144 47.1143 49.5981 42.8445 49.5981V49.5957Z" fill="#A0A0A0"/>
<path d="M42.8444 13.6965C47.2335 13.6965 51.26 15.2093 54.4078 17.7323C55.7913 18.8411 57.5717 19.48 59.4416 19.48H59.7146C59.7146 22.0195 62.0433 24.0796 64.9158 24.0796V38.9755C62.0433 38.9755 59.7146 41.0357 59.7146 43.5751H59.4416C57.5763 43.5751 55.7959 44.2164 54.4078 45.3228C51.26 47.8435 47.2335 49.3586 42.8444 49.3586C38.4554 49.3586 34.4289 47.8458 31.281 45.3228C29.8976 44.214 28.1172 43.5751 26.2473 43.5751C26.2473 41.0357 23.9186 38.9755 21.0461 38.9755V24.0796C23.9186 24.0796 26.2473 22.0195 26.2473 19.48C28.1126 19.48 29.893 18.8387 31.281 17.7323C34.4289 15.2117 38.4554 13.6965 42.8444 13.6965ZM42.8444 13.2149C38.5128 13.2149 34.2843 14.6902 30.9415 17.3658C29.6291 18.4159 27.9612 18.9961 26.2496 18.9961H25.7311V19.4777C25.7311 21.747 23.6318 23.5957 21.0484 23.5957H20.5298V39.4547H21.0484C23.6318 39.4547 25.7311 41.3035 25.7311 43.5727V44.0543H26.2496C27.9635 44.0543 29.6291 44.6322 30.9415 45.6846C34.2843 48.3626 38.5128 49.8355 42.8444 49.8355C47.1761 49.8355 51.4045 48.3603 54.7474 45.6846C56.0597 44.6345 57.7277 44.0543 59.4393 44.0543H60.2308V43.5727C60.2308 41.3035 62.3301 39.4547 64.9135 39.4547H65.432V23.5957H64.9135C62.3301 23.5957 60.2308 21.747 60.2308 19.4777V18.9961H59.4393C57.7254 18.9961 56.0597 18.4182 54.7474 17.3658C51.4023 14.6878 47.1761 13.2149 42.8444 13.2149Z" fill="black"/>
<path d="M42.847 46.2224C51.5906 46.2224 58.6801 39.6424 58.6801 31.5238C58.6801 23.4052 51.5906 16.8253 42.847 16.8253C34.1033 16.8253 27.0139 23.4052 27.0139 31.5238C27.0139 39.6424 34.1033 46.2224 42.847 46.2224Z" fill="#D6CA85"/>
<path d="M58.3154 20.2132L59.3754 19.4756C57.5331 19.4615 55.7733 18.8249 54.4059 17.7279C54.0457 17.4389 53.6717 17.1641 53.2886 16.9033L39.7222 49.0911C40.7363 49.2626 41.7802 49.3542 42.8448 49.3542C47.2338 49.3542 51.2604 47.8414 54.4082 45.3184C55.7917 44.2096 57.5721 43.5707 59.4419 43.5707H59.715L58.32 42.3538V20.2132H58.3177H58.3154Z" fill="#565656"/>
<path d="M42.817 47.4275C39.0107 47.4275 35.3008 46.1308 32.3595 43.777C31.0815 42.7551 29.4801 42.1702 27.819 42.1162C27.6836 39.8399 25.6165 38.0075 23.0468 37.8901V24.6715C25.6165 24.5564 27.6859 22.7241 27.819 20.4454C29.4801 20.3914 31.0838 19.8065 32.3595 18.7846C35.2985 16.4308 39.0107 15.134 42.817 15.134C46.6233 15.134 50.3332 16.4308 53.2722 18.7846C54.6121 19.8558 56.3145 20.4501 58.0628 20.4501C58.2004 22.7264 60.2653 24.5564 62.835 24.6715V37.8901C60.2653 38.0052 58.1981 39.8352 58.0628 42.1115C56.3145 42.1115 54.6098 42.7034 53.2722 43.777C50.3332 46.1308 46.621 47.4275 42.817 47.4275Z" fill="#999999"/>
<path d="M42.8171 15.3833C46.5591 15.3833 50.2117 16.6589 53.1025 18.9728C54.4287 20.0346 56.0943 20.6407 57.8243 20.6924C58.0789 22.9147 60.075 24.6835 62.5758 24.8997V37.6672C60.0727 37.8833 58.0766 39.6546 57.8243 41.8745C56.0989 41.9285 54.4287 42.5323 53.1025 43.5941C50.2117 45.9103 46.5591 47.1835 42.8171 47.1835C39.0751 47.1835 35.4225 45.908 32.5316 43.5941C31.2698 42.5839 29.7005 41.9873 28.0623 41.8862C27.8168 39.6593 25.8139 37.8833 23.3108 37.6672V24.8997C25.8185 24.6835 27.8168 22.9076 28.0623 20.6806C29.7005 20.5796 31.2698 19.9829 32.5316 18.9728C35.4225 16.6566 39.0751 15.3833 42.8171 15.3833ZM42.8171 14.8994C38.7837 14.8994 35.0852 16.2901 32.1898 18.6063C30.9187 19.6259 29.2806 20.2132 27.5667 20.2132C27.5667 22.5482 25.4284 24.4392 22.7877 24.4392V38.1276C25.4284 38.1276 27.5667 40.0187 27.5667 42.3537C29.2829 42.3537 30.921 42.941 32.1898 43.9605C35.0829 46.2791 38.7837 47.6675 42.8171 47.6675C46.8505 47.6675 50.549 46.2768 53.4421 43.9605C54.7132 42.941 56.3513 42.3537 58.0652 42.3537H58.3152C58.3152 40.0187 60.4536 38.1276 63.0943 38.1276V24.4392C60.4536 24.4392 58.3152 22.5482 58.3152 20.2132H58.0652C56.349 20.2132 54.7109 19.6259 53.4421 18.6063C50.549 16.2878 46.8505 14.8994 42.8171 14.8994Z" fill="#C4C4C4"/>
<path d="M42.8171 14.8994C38.7837 14.8994 35.0852 16.2901 32.1898 18.6087C30.9187 19.6282 29.2806 20.2155 27.5667 20.2155C27.5667 22.5505 25.4284 24.4416 22.7877 24.4416V38.13C25.4284 38.13 27.5667 40.021 27.5667 42.3561C29.2829 42.3561 30.921 42.9434 32.1898 43.9629C32.4307 44.1555 32.6808 44.3387 32.9332 44.5196L45.8571 15.1696C44.8705 14.9934 43.8564 14.8994 42.8148 14.8994H42.8171Z" fill="#C4C4C4"/>
<path d="M64.9114 38.9731L63.0966 38.1274V24.4413L64.9114 24.0772V38.9731Z" fill="#565656"/>
<path d="M21.0463 24.0772L22.7877 24.4413V38.1274L21.0463 38.9731V24.0772Z" fill="#898989"/>
<path d="M72.4757 43.0887C72.3358 43.084 72.2257 42.9783 72.2257 42.8491V42.7951C72.2119 42.4991 71.9022 40.0536 65.3955 39.2103C65.267 39.1939 65.1729 39.0928 65.1729 38.9707V24.0748C65.1729 24.0044 65.205 23.9409 65.2601 23.894C65.306 23.8564 65.3702 23.8329 65.4322 23.8329H65.4666C65.7098 23.8611 71.4387 24.5893 72.7327 27.8194C72.7419 27.8452 72.7488 27.8757 72.7488 27.9039V42.8585C72.7373 42.983 72.6249 43.0817 72.4895 43.0817H72.4803L72.4757 43.0887Z" fill="#1D1E1E"/>
<path d="M65.4301 24.0796C65.4301 24.0796 71.2324 24.7797 72.4851 27.9134V42.7952C72.4691 42.3794 72.0928 39.8399 65.4301 38.9755V24.0796ZM65.4301 23.5957C65.3062 23.5957 65.1846 23.6356 65.0882 23.7155C64.9758 23.8071 64.9116 23.9387 64.9116 24.0773V38.9731C64.9116 39.2151 65.1043 39.4171 65.3589 39.45C71.627 40.2628 71.9505 42.5109 71.9643 42.8022V42.8515C71.9643 43.1099 72.1823 43.3167 72.4599 43.3284H72.4828C72.7513 43.3284 72.9761 43.1334 72.9991 42.8844C72.9991 42.8844 73.0013 42.8515 72.9991 42.7858V27.9134C72.9991 27.8547 72.9876 27.8006 72.9669 27.7443C71.6225 24.378 65.7444 23.6309 65.4943 23.6004C65.4714 23.5981 65.4507 23.5957 65.4278 23.5957H65.4301Z" fill="black"/>
<g opacity="0.6">
<mask id="mask0_1389_14913" style="mask-type:luminance" maskUnits="userSpaceOnUse" x="23" y="15" width="40" height="33">
<path d="M42.8561 47.4369C39.0498 47.4369 35.3399 46.1402 32.3985 43.7863C31.1206 42.7645 29.5192 42.1795 27.8581 42.1255C27.7227 39.8492 25.6555 38.0169 23.0859 37.8994V24.6808C25.6555 24.5657 27.725 22.7334 27.8581 20.4548C29.5192 20.4007 31.1229 19.8158 32.3985 18.7939C35.3376 16.4401 39.0498 15.1434 42.8561 15.1434C46.6623 15.1434 50.3723 16.4401 53.3113 18.7939C54.6512 19.8651 56.3536 20.4595 58.1018 20.4595C58.2395 22.7358 60.3044 24.5657 62.874 24.6808V37.8994C60.3044 38.0145 58.2372 39.8445 58.1018 42.1208C56.3536 42.1208 54.6489 42.7128 53.3113 43.7863C50.3723 46.1402 46.66 47.4369 42.8561 47.4369Z" fill="white"/>
</mask>
<g mask="url(#mask0_1389_14913)">
<path d="M42.3168 3.62329L19.8049 43.1474L19.7659 45.0573L48.9451 3.76424L42.3168 3.62329Z" fill="#FF0080"/>
<path d="M19.956 35.7452L34.6098 11.9367L19.8895 38.9705L19.956 35.7452Z" fill="#F4FA23"/>
<path d="M20.1006 28.7025L20.1969 24.1076L27.0065 10.6987L32.3477 11.8874L20.1006 28.7025Z" fill="#FF0080"/>
<path d="M48.2521 54.369L65.5925 23.9266L65.6224 22.4561L43.1495 54.2586L48.2521 54.369Z" fill="#FF0080"/>
<path d="M65.4731 29.6284L54.1873 47.9657L65.5259 27.1453L65.4731 29.6284Z" fill="#F4FA23"/>
<path d="M65.3632 35.0524L65.2898 38.5926L60.045 48.9194L55.9313 48.0032L65.3632 35.0524Z" fill="#FF0080"/>
<path d="M65.0079 52.337L51.7903 48.3271L56.6382 46.4078L56.0761 47.5472L53.5913 48.1368L65.0469 50.4061L65.0079 52.337Z" fill="#F4FA23"/>
<path d="M65.0807 48.7995L61.692 47.437L65.145 45.6258L64.9958 46.2201L63.1787 47.1715L65.0968 48.0172L65.0807 48.7995Z" fill="#F4FA23"/>
</g>
</g>
<path d="M42.7781 47.4418C38.9718 47.4418 35.2619 46.145 32.3206 43.7912C31.0427 42.7693 29.4412 42.1844 27.7801 42.1304C27.6448 39.8541 25.5776 38.0217 23.0079 37.9043V24.6857C25.5776 24.5706 27.6471 22.7383 27.7801 20.4596C29.4412 20.4056 31.0449 19.8207 32.3206 18.7988C35.2596 16.445 38.9718 15.1483 42.7781 15.1483C46.5844 15.1483 50.2943 16.445 53.2333 18.7988C54.5732 19.87 56.2756 20.4643 58.0239 20.4643C58.1616 22.7406 60.2264 24.5706 62.7961 24.6857V37.9043C60.2264 38.0194 58.1593 39.8494 58.0239 42.1257C56.2756 42.1257 54.5709 42.7177 53.2333 43.7912C50.2943 46.145 46.5821 47.4418 42.7781 47.4418Z" fill="black"/>
<g opacity="0.6">
<mask id="mask1_1389_14913" style="mask-type:luminance" maskUnits="userSpaceOnUse" x="23" y="15" width="40" height="33">
<path d="M42.7702 47.2935C38.9639 47.2935 35.254 45.9968 32.3127 43.643C31.0347 42.6211 29.4333 42.0362 27.7722 41.9821C27.6368 39.7058 25.5696 37.8735 23 37.756V24.5375C25.5696 24.4224 27.6391 22.59 27.7722 20.3114C29.4333 20.2574 31.037 19.6724 32.3127 18.6506C35.2517 16.2967 38.9639 15 42.7702 15C46.5765 15 50.2864 16.2967 53.2254 18.6506C54.5653 19.7218 56.2677 20.3161 58.016 20.3161C58.1536 22.5924 60.2185 24.4224 62.7882 24.5375V37.756C60.2185 37.8711 58.1513 39.7011 58.016 41.9774C56.2677 41.9774 54.563 42.5694 53.2254 43.643C50.2864 45.9968 46.5742 47.2935 42.7702 47.2935Z" fill="white"/>
</mask>
<g mask="url(#mask1_1389_14913)">
<path d="M42.2369 3.62775L19.7273 43.1542L19.686 45.0641L48.8652 3.77104L42.2369 3.62775Z" fill="#FF0080"/>
<path d="M19.8788 35.7522L34.5326 11.9414L19.8123 38.9752L19.8788 35.7522Z" fill="#F4FA23"/>
<path d="M20.0234 28.7092L20.1174 24.1119L26.9293 10.7031L32.2705 11.8917L20.0234 28.7092Z" fill="#FF0080"/>
<path d="M48.1744 54.3733L65.5126 23.9309L65.5425 22.4604L43.0696 54.2653L48.1744 54.3733Z" fill="#FF0080"/>
<path d="M65.3958 29.6326L54.11 47.9699L65.4463 27.1495L65.3958 29.6326Z" fill="#F4FA23"/>
<path d="M65.2834 35.0569L65.2123 38.5971L59.9652 48.9262L55.8514 48.0077L65.2834 35.0569Z" fill="#FF0080"/>
<path d="M64.9299 52.3442L51.7123 48.3342L56.558 46.415L55.9958 47.552L53.5134 48.1416L64.9689 50.4132L64.9299 52.3442Z" fill="#F4FA23"/>
<path d="M65.0011 48.8039L61.6124 47.4438L65.0676 45.6326L64.9185 46.2269L63.1014 47.1759L65.0171 48.0216L65.0011 48.8039Z" fill="#F4FA23"/>
<path d="M48.4475 39.8042L65.7857 9.36179L65.8178 7.89124L43.3427 39.6961L48.4475 39.8042Z" fill="#FF0080"/>
<path d="M65.6687 15.0634L54.3829 33.4031L65.7215 12.5804L65.6687 15.0634Z" fill="#F4FA23"/>
<path d="M39.6283 23.0269L22.2901 53.4693L22.2603 54.9399L44.7332 23.1373L39.6283 23.0269Z" fill="#FF0080"/>
<path d="M22.4072 47.768L33.6929 29.4307L22.3567 50.251L22.4072 47.768Z" fill="#F4FA23"/>
</g>
</g>
<g opacity="0.44">
<mask id="mask2_1389_14913" style="mask-type:luminance" maskUnits="userSpaceOnUse" x="13" y="23" width="9" height="21">
<path d="M13.8788 43.0888C13.7435 43.0888 13.6287 42.9925 13.6196 42.8656V27.9111C13.6196 27.8829 13.6242 27.8523 13.6356 27.8265C14.9273 24.5964 20.6563 23.8682 20.8995 23.84H20.9339C20.9958 23.84 21.0578 23.8612 21.1059 23.9011C21.1633 23.9457 21.1931 24.0115 21.1931 24.082V38.9778C21.1931 39.0976 21.0968 39.1987 20.9706 39.2174C14.4662 40.0608 14.1541 42.5062 14.1381 42.8022V42.8563C14.1381 42.9855 14.028 43.0888 13.888 43.0959H13.8765L13.8788 43.0888Z" fill="white"/>
</mask>
<g mask="url(#mask2_1389_14913)">
<path d="M16.6109 39.2482H15.4821L19.2448 32.4498H20.4952V32.7975L19.8849 32.8727L16.6109 39.2482Z" fill="#FF0080"/>
<path d="M18.6047 39.2483L20.7224 35.4545V37.3502L19.6624 39.2483H18.6047Z" fill="#FF0080"/>
<path d="M17.2238 39.2481H17.8157L20.4955 34.1646V33.2109L17.2238 39.2481Z" fill="#F4FA23"/>
<path d="M20.4954 31.9963L15.7553 32.2289L20.4954 31.1882V31.9963Z" fill="#FF0080"/>
<path d="M15.2482 31.9398L20.4953 22.2637V21.801L13.6445 31.9398H15.2482Z" fill="#FF0080"/>
<path d="M20.4956 24.0539L17.0701 29.8891L20.4956 23.274V24.0539Z" fill="#F4FA23"/>
<path d="M20.4954 25.7571V26.8706L18.9146 30.1476L17.6183 29.8892L20.4954 25.7571Z" fill="#FF0080"/>
<path d="M20.4956 31.1881L16.3199 30.0182L17.8296 29.384L17.6598 29.7434L16.8843 29.9454L20.4956 30.582V31.1881Z" fill="#F4FA23"/>
<path d="M20.4955 30.0771L19.424 29.6731L20.4955 29.0811L20.4542 29.2667L19.8898 29.5791L20.4955 29.8305V30.0771Z" fill="#F4FA23"/>
</g>
</g>
<g opacity="0.44">
<mask id="mask3_1389_14913" style="mask-type:luminance" maskUnits="userSpaceOnUse" x="64" y="23" width="9" height="21">
<path d="M72.0239 43.0887C71.8839 43.084 71.7738 42.9807 71.7738 42.8491V42.7951C71.7577 42.4991 71.4457 40.0536 64.9413 39.2103C64.8151 39.1939 64.7188 39.0928 64.7188 38.9707V24.0748C64.7188 24.0044 64.7509 23.9409 64.8059 23.894C64.8518 23.8564 64.9161 23.8329 64.978 23.8329H65.0124C65.2556 23.8611 70.9845 24.5893 72.2763 27.8194C72.2877 27.8452 72.2923 27.8757 72.2923 27.9039V42.7786C72.2923 42.8327 72.2923 42.8585 72.2923 42.8585C72.2808 42.9854 72.1684 43.0817 72.0331 43.0817H72.0216L72.0239 43.0887Z" fill="white"/>
</mask>
<g mask="url(#mask3_1389_14913)">
<path d="M69.3007 39.2482H70.4295L66.6691 32.4498H65.4164V32.7975L66.029 32.8727L69.3007 39.2482Z" fill="#FF0080"/>
<path d="M67.3091 39.2483L65.1914 35.4545V37.3502L66.2491 39.2483H67.3091Z" fill="#FF0080"/>
<path d="M68.6904 39.2481H68.0985L65.4164 34.1646V33.2109L68.6904 39.2481Z" fill="#F4FA23"/>
<path d="M65.4164 31.9963L70.1565 32.2289L65.4164 31.1882V31.9963Z" fill="#FF0080"/>
<path d="M70.6659 31.9399L65.4164 22.2639V21.8011L72.2696 31.9399H70.6659Z" fill="#FF0080"/>
<path d="M65.4164 24.0539L68.8442 29.8891L65.4164 23.274V24.0539Z" fill="#F4FA23"/>
<path d="M65.4164 25.7571V26.8706L66.9972 30.1476L68.2958 29.8892L65.4164 25.7571Z" fill="#FF0080"/>
<path d="M65.4164 31.1884L69.5944 30.0185L68.0847 29.3843L68.2522 29.7437L69.03 29.9457L65.4164 30.5823V31.1884Z" fill="#F4FA23"/>
<path d="M65.4164 30.0771L66.4902 29.6731L65.4164 29.0811L65.46 29.2667L66.0244 29.5791L65.4164 29.8305V30.0771Z" fill="#F4FA23"/>
</g>
</g>
<path opacity="0.42" d="M15.1911 25.7896V40.4646C13.647 41.463 13.5277 42.553 13.5208 42.7949V27.8709C13.8305 27.0041 14.4546 26.3228 15.1911 25.7896Z" fill="#484F51"/>
<path opacity="0.42" d="M72.2923 27.8521V42.6352C72.2855 42.3932 72.1639 41.315 70.6221 40.326V25.7896C71.3608 26.3181 71.9826 26.9923 72.2923 27.8521Z" fill="#484F51"/>
<path opacity="0.28" d="M42.8492 15.2139C38.8158 15.2139 35.1173 16.6046 32.2219 18.9232C30.9508 19.9427 29.3127 20.53 27.5988 20.53C27.5988 22.8651 25.4605 24.7561 22.8198 24.7561V38.4445C25.4605 38.4445 27.5988 40.3355 27.5988 42.6706C29.315 42.6706 30.9531 43.2579 32.2219 44.2774C32.4628 44.47 32.7129 44.6532 32.9653 44.8341L45.8892 15.4841C44.9026 15.3079 43.8885 15.2139 42.8469 15.2139H42.8492Z" fill="white"/>
<path d="M62.1191 31.547C62.4264 31.0948 62.575 30.5509 62.575 29.9259C62.575 29.2871 62.4313 28.7355 62.1319 28.2824C61.8361 27.8348 61.4274 27.4985 60.9122 27.2734C60.4082 27.0496 59.8333 26.9404 59.192 26.9404H55.7438H55.5438V27.1404V35.8596V36.0596H55.7438H57.6126H57.8126V35.8596V32.8996H59.192C59.826 32.8996 60.397 32.7902 60.9009 32.5664L60.9022 32.5658C61.4159 32.3331 61.8237 31.9936 62.1191 31.547ZM62.1191 31.547C62.1194 31.5466 62.1196 31.5463 62.1199 31.5459L61.953 31.4356L62.1184 31.5481C62.1186 31.5478 62.1189 31.5474 62.1191 31.547ZM24.5482 35.8596V36.0596H24.7482H26.617H26.817V35.8596V27.1404V26.9404H26.617H23H22.8V27.1404V28.6736V28.8736H23H24.5482V35.8596ZM29.8918 35.6024L29.893 35.6032C30.4755 36.0024 31.1466 36.2 31.8989 36.2C32.6588 36.2 33.3305 36.0026 33.906 35.6024L33.9065 35.6021C34.4857 35.197 34.9298 34.6404 35.2404 33.9398C35.5594 33.2306 35.7159 32.4138 35.7159 31.4941C35.7159 30.5749 35.5596 29.7619 35.2404 29.0602C34.93 28.3522 34.4858 27.795 33.9055 27.3972C33.3297 26.997 32.654 26.8 31.8869 26.8C31.1345 26.8 30.4634 26.9976 29.8809 27.3968L29.8809 27.3968L29.8798 27.3976C29.3082 27.7951 28.8644 28.3476 28.546 29.0472L28.546 29.0472L28.5451 29.049C28.2341 29.7507 28.0819 30.5675 28.0819 31.4941C28.0819 32.414 28.2385 33.231 28.5577 33.9403C28.8759 34.6476 29.3197 35.2046 29.8918 35.6024ZM33.2516 30.0217L33.2519 30.0227C33.3803 30.4184 33.4471 30.9074 33.4471 31.4941C33.4471 32.0808 33.3803 32.5741 33.2516 32.9783C33.1226 33.3835 32.942 33.6761 32.7193 33.8719C32.5016 34.0634 32.2363 34.1615 31.911 34.1615C31.5777 34.1615 31.3041 34.0634 31.0787 33.872C30.8551 33.6677 30.6748 33.3705 30.5462 32.9666C30.4175 32.5622 30.3507 32.0727 30.3507 31.4941C30.3507 30.9074 30.4176 30.4184 30.5459 30.0227L30.5462 30.0217C30.6752 29.6165 30.8559 29.3239 31.0785 29.1281C31.2962 28.9366 31.5616 28.8385 31.8869 28.8385C32.2214 28.8385 32.4904 28.9373 32.7072 29.1281L32.7072 29.1281L32.7095 29.1301C32.9392 29.326 33.123 29.6179 33.2516 30.0217ZM38.3339 35.6024L38.335 35.6032C38.9176 36.0024 39.5887 36.2 40.341 36.2C41.1008 36.2 41.7726 36.0026 42.3481 35.6024L42.3485 35.6021C42.9278 35.1969 43.3719 34.6404 43.6826 33.9397C44.0015 33.2305 44.158 32.4137 44.158 31.4941C44.158 30.575 44.0017 29.762 43.6825 29.0602C43.3721 28.3522 42.9279 27.795 42.3475 27.3972C41.7718 26.997 41.0961 26.8 40.3289 26.8C39.5766 26.8 38.9055 26.9976 38.323 27.3968L38.3218 27.3976C37.7503 27.7951 37.3065 28.3476 36.988 29.0472L36.9872 29.049C36.6762 29.7507 36.524 30.5675 36.524 31.4941C36.524 32.414 36.6806 33.231 36.9997 33.9403C37.318 34.6476 37.7618 35.2046 38.3339 35.6024ZM41.6937 30.0217L41.694 30.0227C41.8224 30.4184 41.8892 30.9074 41.8892 31.4941C41.8892 32.0808 41.8224 32.5741 41.6937 32.9783C41.5647 33.3835 41.3841 33.6761 41.1614 33.8719C40.9437 34.0634 40.6784 34.1615 40.3531 34.1615C40.0198 34.1615 39.7462 34.0634 39.5207 33.872C39.2972 33.6677 39.1169 33.3705 38.9883 32.9666C38.8595 32.5622 38.7928 32.0727 38.7928 31.4941C38.7928 30.9074 38.8596 30.4184 38.988 30.0227L38.9883 30.0217C39.1173 29.6165 39.298 29.3239 39.5206 29.1281C39.7383 28.9366 40.0037 28.8385 40.3289 28.8385C40.6635 28.8385 40.9325 28.9373 41.1493 29.1281L41.1493 29.1281L41.1516 29.1301C41.3813 29.326 41.5651 29.6179 41.6937 30.0217ZM46.6964 35.7478L46.4863 36.0596H46.8623H49.0084H49.1145L49.174 35.9717L50.8481 33.501L52.5076 35.9711L52.5671 36.0596H52.6736H54.8197H55.1948L54.9858 35.7481L52.1309 31.4943L54.9857 27.2521L55.1954 26.9404H54.8197H52.6736H52.5673L52.5078 27.0286L50.8453 29.4949L49.174 27.0283L49.1145 26.9404H49.0084H46.8623H46.4858L46.6966 27.2524L49.5629 31.4943L46.6964 35.7478ZM60.168 30.4399L60.1679 30.4399L60.1646 30.4455C60.0799 30.5909 59.9596 30.7056 59.7982 30.7905C59.6396 30.8739 59.4439 30.9196 59.2041 30.9196H57.8126V28.9204H59.2041C59.4439 28.9204 59.6396 28.9662 59.7982 29.0496C59.9596 29.1345 60.0799 29.2492 60.1646 29.3945L60.1645 29.3946L60.168 29.4001C60.2578 29.5434 60.3062 29.7161 60.3062 29.9259C60.3062 30.1264 60.2585 30.2956 60.168 30.4399Z" fill="#CDCDCD" stroke="#010101" stroke-width="0.4"/>
</g>
<defs>
<filter id="filter0_d_1389_14913" x="0.5" y="0.714905" width="85.0001" height="62.5861" filterUnits="userSpaceOnUse" color-interpolation-filters="sRGB">
<feFlood flood-opacity="0" result="BackgroundImageFix"/>
<feColorMatrix in="SourceAlpha" type="matrix" values="0 0 0 0 0 0 0 0 0 0 0 0 0 0 0 0 0 0 127 0" result="hardAlpha"/>
<feOffset/>
<feGaussianBlur stdDeviation="6.25"/>
<feComposite in2="hardAlpha" operator="out"/>
<feColorMatrix type="matrix" values="0 0 0 0 0.97207 0 0 0 0 0.97207 0 0 0 0 0.97207 0 0 0 0.25 0"/>
<feBlend mode="normal" in2="BackgroundImageFix" result="effect1_dropShadow_1389_14913"/>
<feBlend mode="normal" in="SourceGraphic" in2="effect1_dropShadow_1389_14913" result="shape"/>
</filter>
</defs>
</svg>
