<svg width="86" height="64" viewBox="0 0 86 64" fill="none" xmlns="http://www.w3.org/2000/svg">
<g filter="url(#filter0_d_1389_15020)">
<path d="M42.9801 50.6799C59.3937 50.6799 72.6985 47.1706 72.6985 42.8394C72.6985 38.5082 59.3937 34.9988 42.9801 34.9988C26.5664 34.9988 13.2616 38.5082 13.2616 42.8394C13.2616 47.1706 26.5664 50.6799 42.9801 50.6799Z" fill="#1B1E1E"/>
<path d="M42.9777 35.2427C59.2468 35.2427 72.4369 38.6446 72.4369 42.8396C72.4369 47.0346 59.2468 50.4365 42.9777 50.4365C26.7086 50.4365 13.5185 47.0346 13.5185 42.8396C13.5185 38.6446 26.7086 35.2427 42.9777 35.2427ZM42.9777 34.753C35.0646 34.753 27.6172 35.5485 22.0121 36.9938C14.5624 38.9146 13 41.2318 13 42.8372C13 44.4426 14.5624 46.7599 22.0121 48.6806C27.6195 50.1259 35.0646 50.9238 42.9777 50.9238C50.8909 50.9238 58.3383 50.1283 63.9456 48.6806C71.393 46.7599 72.9577 44.4426 72.9577 42.8372C72.9577 41.2318 71.3953 38.9146 63.9456 36.9938C58.3383 35.5485 50.8932 34.753 42.9777 34.753Z" fill="black"/>
<g opacity="0.46">
<path d="M42.9777 47.0036C58.2441 47.0036 70.6198 44.5358 70.6198 41.4898C70.6198 38.4439 58.2441 35.9761 42.9777 35.9761C27.7112 35.9761 15.3356 38.4439 15.3356 41.4898C15.3356 44.5358 27.7112 47.0036 42.9777 47.0036Z" fill="black"/>
</g>
<path d="M13.5345 43.0832C13.3992 43.0832 13.2844 42.9852 13.2753 42.8562V27.6481C13.2753 27.6194 13.2799 27.5884 13.2913 27.5621C14.583 24.2773 20.312 23.5367 20.5552 23.5081H20.5896C20.6515 23.5081 20.7135 23.5296 20.7617 23.5702C20.819 23.6156 20.8489 23.6825 20.8489 23.7541V38.9025C20.8489 39.0243 20.7525 39.127 20.6263 39.1462C14.1219 40.0038 13.8098 42.4907 13.7938 42.7917V42.8466C13.7938 42.978 13.6837 43.0832 13.5437 43.0903H13.5322L13.5345 43.0832Z" fill="#1D1E1E"/>
<path d="M20.5919 23.7493V38.8976C13.9292 39.7744 13.5552 42.3568 13.5369 42.7821V27.648C14.7873 24.4636 20.5919 23.7493 20.5919 23.7493ZM20.5919 23.2595C20.569 23.2595 20.5483 23.2595 20.5254 23.2643C20.2753 23.2954 14.3972 24.055 13.0528 27.4784C13.0321 27.5334 13.0206 27.5907 13.0206 27.6504V42.8776C13.0436 43.1332 13.2707 43.3291 13.5369 43.3291H13.5598C13.8374 43.3172 14.0554 43.107 14.0554 42.8442V42.7964C14.0714 42.5002 14.3926 40.2139 20.6608 39.3874C20.9177 39.3539 21.1081 39.1461 21.1081 38.9024V23.754C21.1081 23.6131 21.0439 23.4793 20.9315 23.3861C20.8351 23.3073 20.7135 23.2643 20.5896 23.2643H20.5919V23.2595Z" fill="black"/>
<path d="M42.8447 49.7007C38.5749 49.7007 34.4084 48.2243 31.1138 45.5367C29.7532 44.4283 28.0279 43.8191 26.2521 43.8191H25.9928V43.573C25.9928 41.1267 23.7765 39.1415 21.0508 39.1415H20.7916V23.5034H21.0508C23.7765 23.5034 25.9928 21.5134 25.9928 19.0719V18.8258H26.2521C28.0279 18.8258 29.7532 18.2166 31.1138 17.1082C34.4084 14.423 38.5726 12.9442 42.8447 12.9442C47.1167 12.9442 51.2809 14.4206 54.5756 17.1082C55.9361 18.2166 57.6615 18.8258 59.4373 18.8258H59.9696V19.0719C59.9696 21.5182 62.1859 23.5034 64.9115 23.5034H65.1708V39.1415H64.9115C62.1859 39.1415 59.9696 41.1315 59.9696 43.573V43.8191H59.4373C57.6615 43.8191 55.9361 44.4283 54.5756 45.5367C51.2786 48.2219 47.1144 49.7007 42.8447 49.7007Z" fill="#9E7852"/>
<path d="M42.8446 13.1902C47.2336 13.1902 51.2602 14.7287 54.408 17.2945C55.7915 18.422 57.5719 19.0718 59.4418 19.0718H59.7148C59.7148 21.6543 62.0435 23.7494 64.916 23.7494V38.8978C62.0435 38.8978 59.7148 40.9929 59.7148 43.5754H59.4418C57.5765 43.5754 55.7961 44.2275 54.408 45.3527C51.2602 47.9161 47.2336 49.457 42.8446 49.457C38.4555 49.457 34.429 47.9185 31.2811 45.3527C29.8977 44.2252 28.1173 43.5754 26.2474 43.5754C26.2474 40.9929 23.9186 38.8978 21.0461 38.8978V23.7494C23.9186 23.7494 26.2474 21.6543 26.2474 19.0718C28.1127 19.0718 29.8931 18.4197 31.2811 17.2945C34.429 14.7311 38.4555 13.1902 42.8446 13.1902ZM42.8446 12.7005C38.5129 12.7005 34.2844 14.2008 30.9416 16.9218C29.6292 17.9896 27.9612 18.5797 26.2497 18.5797H25.7312V19.0695C25.7312 21.3772 23.6318 23.2573 21.0484 23.2573H20.5299V39.3851H21.0484C23.6318 39.3851 25.7312 41.2652 25.7312 43.573V44.0627H26.2497C27.9635 44.0627 29.6292 44.6504 30.9416 45.7206C34.2844 48.4441 38.5129 49.9419 42.8446 49.9419C47.1763 49.9419 51.4047 48.4417 54.7476 45.7206C56.0599 44.6528 57.7279 44.0627 59.4395 44.0627H60.231V43.573C60.231 41.2652 62.3303 39.3851 64.9137 39.3851H65.4322V23.2597H64.9137C62.3303 23.2597 60.231 21.3796 60.231 19.0718V18.5821H59.4395C57.7256 18.5821 56.0599 17.9944 54.7476 16.9242C51.4024 14.2008 47.1763 12.7029 42.8446 12.7029V12.7005Z" fill="black"/>
<path d="M42.8469 46.2701C51.5906 46.2701 58.6801 39.5787 58.6801 31.3224C58.6801 23.0662 51.5906 16.3748 42.8469 16.3748C34.1032 16.3748 27.0137 23.0662 27.0137 31.3224C27.0137 39.5787 34.1032 46.2701 42.8469 46.2701Z" fill="#D6CA85"/>
<path d="M58.3153 19.8195L59.3753 19.0693C57.5329 19.055 55.7732 18.4076 54.4058 17.292C54.0456 16.9981 53.6716 16.7186 53.2884 16.4534L39.722 49.1869C40.7361 49.3613 41.7801 49.4545 42.8446 49.4545C47.2337 49.4545 51.2602 47.916 54.4081 45.3502C55.7915 44.2226 57.5719 43.5729 59.4418 43.5729H59.7148L58.3199 42.3354V19.8195H58.3176H58.3153Z" fill="#6D4424"/>
<path d="M42.8171 47.4955C39.0108 47.4955 35.3008 46.1768 32.3595 43.7831C31.0816 42.7439 29.4801 42.149 27.819 42.0941C27.6837 39.7792 25.6165 37.9158 23.0468 37.7964V24.3537C25.6165 24.2366 27.6859 22.3733 27.819 20.056C29.4801 20.001 31.0839 19.4062 32.3595 18.367C35.2985 15.9732 39.0108 14.6545 42.8171 14.6545C46.6234 14.6545 50.3333 15.9732 53.2723 18.367C54.6122 19.4563 56.3146 20.0607 58.0629 20.0607C58.2005 22.3756 60.2654 24.2366 62.8351 24.3537V37.7964C60.2654 37.9134 58.1983 39.7744 58.0629 42.0893C56.3146 42.0893 54.6099 42.6913 53.2723 43.7831C50.3333 46.1768 46.6211 47.4955 42.8171 47.4955Z" fill="#A36934"/>
<path d="M42.8172 14.9056C46.5592 14.9056 50.2118 16.2028 53.1026 18.556C54.4288 19.6358 56.0945 20.2521 57.8244 20.3047C58.0791 22.5646 60.0751 24.3635 62.5759 24.5833V37.5673C60.0728 37.787 58.0768 39.5883 57.8244 41.8459C56.099 41.9008 54.4288 42.5148 53.1026 43.5946C50.2118 45.9501 46.5592 47.2449 42.8172 47.2449C39.0751 47.2449 35.4225 45.9477 32.5317 43.5946C31.2698 42.5673 29.7005 41.9605 28.0623 41.8578C27.8168 39.5931 25.8139 37.787 23.3108 37.5673V24.5833C25.8185 24.3635 27.8168 22.5575 28.0623 20.2927C29.7005 20.19 31.2698 19.5832 32.5317 18.556C35.4225 16.2004 39.0751 14.9056 42.8172 14.9056ZM42.8172 14.4159C38.7837 14.4159 35.0853 15.8302 32.1898 18.1857C30.9188 19.2225 29.2806 19.8197 27.5667 19.8197C27.5667 22.1943 25.4284 24.1174 22.7877 24.1174V38.0379C25.4284 38.0379 27.5667 39.961 27.5667 42.3356C29.2829 42.3356 30.9211 42.9329 32.1898 43.9697C35.083 46.3276 38.7837 47.7394 42.8172 47.7394C46.8506 47.7394 50.5491 46.3252 53.4422 43.9697C54.7133 42.9329 56.3514 42.3356 58.0653 42.3356H58.3154C58.3154 39.961 60.4537 38.0379 63.0945 38.0379V24.1174C60.4537 24.1174 58.3154 22.1943 58.3154 19.8197H58.0653C56.3491 19.8197 54.711 19.2225 53.4422 18.1857C50.5491 15.8278 46.8506 14.4159 42.8172 14.4159Z" fill="#D3AB84"/>
<path d="M42.8172 14.4159C38.7837 14.4159 35.0853 15.8302 32.1898 18.1881C30.9188 19.2249 29.2806 19.8221 27.5667 19.8221C27.5667 22.1967 25.4284 24.1198 22.7877 24.1198V38.0403C25.4284 38.0403 27.5667 39.9634 27.5667 42.338C29.2829 42.338 30.9211 42.9352 32.1898 43.9721C32.4307 44.1679 32.6808 44.3543 32.9332 44.5382L45.8571 14.6906C44.8706 14.5115 43.8565 14.4159 42.8149 14.4159H42.8172Z" fill="#D3AB84"/>
<path d="M64.9114 38.8978L63.0966 38.0377V24.1197L64.9114 23.7494V38.8978Z" fill="#6D4424"/>
<path d="M21.0461 23.7494L22.7875 24.1197V38.0377L21.0461 38.8978V23.7494Z" fill="#84532A"/>
<path d="M72.4759 43.0831C72.3359 43.0783 72.2258 42.9708 72.2258 42.8394V42.7845C72.212 42.4835 71.9023 39.9966 65.3956 39.139C65.2671 39.1222 65.173 39.0195 65.173 38.8953V23.7469C65.173 23.6752 65.2052 23.6107 65.2602 23.563C65.3061 23.5247 65.3703 23.5009 65.4323 23.5009H65.4667C65.7099 23.5295 71.4389 24.2701 72.7329 27.5549C72.742 27.5812 72.7489 27.6122 72.7489 27.6409V42.849C72.7374 42.9756 72.625 43.076 72.4897 43.076H72.4805L72.4759 43.0831Z" fill="#1D1E1E"/>
<path d="M65.43 23.7493C65.43 23.7493 71.2323 24.4612 72.485 27.648V42.7821C72.469 42.3592 72.0927 39.7768 65.43 38.8976V23.7493ZM65.43 23.2595C65.3061 23.2595 65.1845 23.3001 65.0881 23.3814C64.9757 23.4745 64.9114 23.6083 64.9114 23.7493V38.8976C64.9114 39.1437 65.1042 39.3491 65.3588 39.3826C71.6269 40.2092 71.9504 42.4954 71.9642 42.7916V42.8418C71.9642 43.1046 72.1822 43.3148 72.4598 43.3267H72.4827C72.7512 43.3267 72.976 43.1285 72.999 42.8752C72.999 42.8752 73.0012 42.8418 72.999 42.7749V27.6504C72.999 27.5907 72.9875 27.5358 72.9668 27.4784C71.6224 24.055 65.7443 23.2954 65.4942 23.2643C65.4712 23.2619 65.4506 23.2595 65.4277 23.2595H65.43Z" fill="black"/>
<path d="M42.7965 47.4979C38.9902 47.4979 35.2803 46.1792 32.3389 43.7855C31.061 42.7463 29.4595 42.1514 27.7985 42.0965C27.6631 39.7816 25.5959 37.9182 23.0262 37.7987V24.3561C25.5959 24.239 27.6654 22.3756 27.7985 20.0584C29.4595 20.0034 31.0633 19.4086 32.3389 18.3694C35.278 15.9756 38.9902 14.6569 42.7965 14.6569C46.6028 14.6569 50.3127 15.9756 53.2518 18.3694C54.5916 19.4587 56.294 20.0631 58.0423 20.0631C58.18 22.378 60.2449 24.239 62.8145 24.3561V37.7987C60.2449 37.9158 58.1777 39.7768 58.0423 42.0917C56.294 42.0917 54.5894 42.6937 53.2518 43.7855C50.3127 46.1792 46.6005 47.4979 42.7965 47.4979Z" fill="black"/>
<g opacity="0.6">
<mask id="mask0_1389_15020" style="mask-type:luminance" maskUnits="userSpaceOnUse" x="23" y="14" width="40" height="34">
<path d="M42.7967 47.4982C38.9904 47.4982 35.2805 46.1795 32.3392 43.7858C31.0612 42.7466 29.4598 42.1517 27.7987 42.0968C27.6633 39.7819 25.5961 37.9185 23.0265 37.799V24.3564C25.5961 24.2393 27.6656 22.3759 27.7987 20.0587C29.4598 20.0037 31.0635 19.4089 32.3392 18.3697C35.2782 15.9759 38.9904 14.6572 42.7967 14.6572C46.603 14.6572 50.313 15.9759 53.252 18.3697C54.5919 19.459 56.2943 20.0634 58.0426 20.0634C58.1802 22.3783 60.2451 24.2393 62.8148 24.3564V37.799C60.2451 37.9161 58.1779 39.7771 58.0426 42.092C56.2943 42.092 54.5896 42.694 53.252 43.7858C50.313 46.1795 46.6007 47.4982 42.7967 47.4982Z" fill="white"/>
</mask>
<g mask="url(#mask0_1389_15020)">
<path d="M42.2573 2.94141L19.7454 43.138L19.7064 45.0802L48.8834 3.08713L42.2573 2.94141Z" fill="#FF0080"/>
<path d="M19.8968 35.6105L34.5507 11.3961L19.8303 38.8882L19.8968 35.6105Z" fill="#F4FA23"/>
<path d="M20.0414 28.4482L20.1354 23.7731L26.9473 10.1369L32.2885 11.3457L20.0414 28.4482Z" fill="#FF0080"/>
<path d="M48.1928 54.5477L65.5311 23.5892L65.5609 22.0938L43.088 54.4378L48.1928 54.5477Z" fill="#FF0080"/>
<path d="M65.4141 29.3874L54.1283 48.0356L65.4646 26.8622L65.4141 29.3874Z" fill="#F4FA23"/>
<path d="M65.3039 34.9036L65.2304 38.5037L59.9833 49.008L55.8696 48.0739L65.3039 34.9036Z" fill="#FF0080"/>
<path d="M64.9482 52.4839L51.7306 48.4059L56.5762 46.4542L56.0141 47.6104L53.5316 48.21L64.9872 50.5202L64.9482 52.4839Z" fill="#F4FA23"/>
<path d="M65.0217 48.8837L61.633 47.5005L65.086 45.6586L64.9368 46.263L63.1197 47.2281L65.0378 48.0881L65.0217 48.8837Z" fill="#F4FA23"/>
<path d="M48.4657 39.7315L65.8062 8.77301L65.8361 7.27753L43.3631 39.6216L48.4657 39.7315Z" fill="#FF0080"/>
<path d="M65.6892 14.571L54.4011 33.2192L65.7397 12.0459L65.6892 14.571Z" fill="#F4FA23"/>
<path d="M39.6465 22.6695L22.3082 53.628L22.2784 55.1235L44.7513 22.7818L39.6465 22.6695Z" fill="#FF0080"/>
<path d="M22.4251 47.83L33.7109 29.1818L22.3746 50.3551L22.4251 47.83Z" fill="#F4FA23"/>
</g>
</g>
<g opacity="0.44">
<mask id="mask1_1389_15020" style="mask-type:luminance" maskUnits="userSpaceOnUse" x="13" y="23" width="9" height="21">
<path d="M14.0484 43.3221C13.913 43.3221 13.7983 43.2242 13.7891 43.0952V27.8871C13.7891 27.8584 13.7937 27.8273 13.8052 27.8011C15.0969 24.5163 20.8258 23.7757 21.069 23.747H21.1034C21.1654 23.747 21.2273 23.7685 21.2755 23.8091C21.3329 23.8545 21.3627 23.9214 21.3627 23.9931V39.1414C21.3627 39.2633 21.2663 39.366 21.1402 39.3851C14.6357 40.2427 14.3237 42.7296 14.3076 43.0307V43.0856C14.3076 43.217 14.1975 43.3221 14.0576 43.3293H14.0461L14.0484 43.3221Z" fill="white"/>
</mask>
<g mask="url(#mask1_1389_15020)">
<path d="M16.7807 39.4136H15.6519L19.4146 32.5023H20.665V32.8535L20.0524 32.9323L16.7807 39.4136Z" fill="#FF0080"/>
<path d="M18.7747 39.4134L20.89 35.5552V37.4855L19.8323 39.4134H18.7747Z" fill="#FF0080"/>
<path d="M17.3911 39.4137H17.9853L20.6651 34.244V33.274L17.3911 39.4137Z" fill="#F4FA23"/>
<path d="M20.6651 32.0412L15.925 32.2753L20.6651 31.2194V32.0412Z" fill="#FF0080"/>
<path d="M15.418 31.9814L20.6651 22.1413V21.673L13.8143 31.9814H15.418Z" fill="#FF0080"/>
<path d="M20.6652 23.964L17.2397 29.8958L20.6652 23.1709V23.964Z" fill="#F4FA23"/>
<path d="M20.6651 25.6962V26.8285L19.0843 30.1611L17.788 29.896L20.6651 25.6962Z" fill="#FF0080"/>
<path d="M20.6652 31.2196L16.4895 30.0299L17.9992 29.3824L17.8294 29.7503L17.0539 29.9558L20.6652 30.6032V31.2196Z" fill="#F4FA23"/>
<path d="M20.6652 30.0871L19.5914 29.6762L20.6652 29.0742L20.6216 29.2653L20.0572 29.5806L20.6652 29.8386V30.0871Z" fill="#F4FA23"/>
</g>
</g>
<g opacity="0.44">
<mask id="mask2_1389_15020" style="mask-type:luminance" maskUnits="userSpaceOnUse" x="64" y="23" width="9" height="21">
<path d="M72.1914 43.3221C72.0514 43.3173 71.9413 43.2122 71.9413 43.0784V43.0235C71.9252 42.7224 71.6132 40.2355 65.1088 39.3779C64.9826 39.3612 64.8862 39.2585 64.8862 39.1342V23.9859C64.8862 23.9142 64.9184 23.8497 64.9734 23.8019C65.0193 23.7637 65.0835 23.7398 65.1455 23.7398H65.1799C65.4231 23.7685 71.152 24.5091 72.4438 27.7939C72.4552 27.8201 72.4598 27.8512 72.4598 27.8799V43.0067C72.4598 43.0617 72.4598 43.088 72.4598 43.088C72.4483 43.217 72.3359 43.3149 72.2006 43.3149H72.1891L72.1914 43.3221Z" fill="white"/>
</mask>
<g mask="url(#mask2_1389_15020)">
<path d="M69.4704 39.4136H70.5992L66.8388 32.5024H65.5861V32.8536L66.1986 32.9324L69.4704 39.4136Z" fill="#FF0080"/>
<path d="M67.4766 39.4135L65.3612 35.5553V37.4856L66.4189 39.4135H67.4766Z" fill="#FF0080"/>
<path d="M68.8601 39.4137H68.2681L65.5861 34.244V33.2741L68.8601 39.4137Z" fill="#F4FA23"/>
<path d="M65.5861 32.0413L70.3261 32.2754L65.5861 31.2195V32.0413Z" fill="#FF0080"/>
<path d="M70.8332 31.9815L65.5861 22.1414V21.6732L72.4369 31.9815H70.8332Z" fill="#FF0080"/>
<path d="M65.5861 23.9641L69.0115 29.8959L65.5861 23.171V23.9641Z" fill="#F4FA23"/>
<path d="M65.5861 25.6962V26.8286L67.1668 30.1612L68.4654 29.896L65.5861 25.6962Z" fill="#FF0080"/>
<path d="M65.5861 31.2196L69.7617 30.0299L68.2521 29.3825L68.4218 29.7504L69.1973 29.9559L65.5861 30.6033V31.2196Z" fill="#F4FA23"/>
<path d="M65.5861 30.0871L66.6598 29.6762L65.5861 29.0742L65.6297 29.2653L66.1941 29.5807L65.5861 29.8387V30.0871Z" fill="#F4FA23"/>
</g>
</g>
<path opacity="0.42" d="M15.3585 25.7299V40.6537C13.8144 41.669 13.6951 42.7774 13.6882 43.0235V27.8465C13.998 26.9649 14.622 26.2722 15.3585 25.7299Z" fill="#484F51"/>
<path opacity="0.42" d="M72.4599 27.8274V42.8611C72.453 42.615 72.3314 41.5185 70.7896 40.5127V25.7299C71.5284 26.2674 72.1501 26.953 72.4599 27.8274Z" fill="#484F51"/>
<path opacity="0.28" d="M43.1314 14.6594C39.0979 14.6594 35.3995 16.0736 32.504 18.4315C31.233 19.4683 29.5948 20.0656 27.881 20.0656C27.881 22.4402 25.7426 24.3633 23.1019 24.3633V38.2837C25.7426 38.2837 27.881 40.2069 27.881 42.5815C29.5971 42.5815 31.2353 43.1787 32.504 44.2155C32.7449 44.4114 32.995 44.5978 33.2474 44.7817L46.1714 14.9341C45.1848 14.7549 44.1707 14.6594 43.1291 14.6594H43.1314Z" fill="white"/>
<path d="M28.6402 35.9274L28.6402 35.9274L28.6431 35.9285C29.1005 36.1094 29.5753 36.2 30.0662 36.2C30.7105 36.2 31.2921 36.065 31.8061 35.7901L31.8061 35.7902L31.8083 35.789C32.3189 35.5076 32.7238 35.1249 33.0188 34.6417C33.3233 34.1482 33.4745 33.5966 33.4745 32.9922C33.4745 32.3949 33.3503 31.8617 33.0952 31.3988C32.8486 30.9369 32.4946 30.5745 32.0367 30.3144C31.5745 30.044 31.0294 29.9131 30.4096 29.9131C30.015 29.9131 29.6658 29.9609 29.3673 30.0624L29.5279 28.8619H32.9549H33.1549V28.6619V27.1404V26.9404H32.9549H28.03H27.857L27.8321 27.1116L27.1217 31.992L27.0953 32.1738L27.2742 32.2156L28.7777 32.5667L28.9435 32.6054L29.0082 32.4479C29.0945 32.2378 29.2259 32.092 29.4022 31.9986L29.4022 31.9987L29.4069 31.996C29.5944 31.8901 29.8124 31.8346 30.0662 31.8346C30.3137 31.8346 30.5191 31.8868 30.6893 31.9839L30.6893 31.9839L30.6944 31.9867C30.8653 32.0777 30.9947 32.2057 31.0863 32.3739L31.0862 32.374L31.0892 32.3791C31.187 32.5467 31.2395 32.7487 31.2395 32.9922C31.2395 33.2355 31.1871 33.4428 31.0876 33.6198L31.0876 33.6198L31.0863 33.6221C30.9945 33.7908 30.8643 33.9236 30.6919 34.0225C30.5211 34.1128 30.3146 34.1615 30.0662 34.1615C29.7802 34.1615 29.5267 34.0863 29.3002 33.937C29.0872 33.7966 28.9208 33.5668 28.8126 33.2245L28.7515 33.0311L28.5589 33.095L26.937 33.6333L26.7677 33.6895L26.8042 33.8641C26.9063 34.3516 27.1243 34.7752 27.458 35.1304L27.458 35.1304L27.4597 35.1322C27.7877 35.4731 28.1821 35.738 28.6402 35.9274ZM36.0151 35.6014L36.0163 35.6022C36.589 36.0019 37.2492 36.2 37.9894 36.2C38.737 36.2 39.3978 36.0022 39.9637 35.6014L39.9641 35.6011C40.5335 35.1956 40.9695 34.6388 41.2743 33.9386C41.5874 33.2297 41.741 32.4133 41.741 31.4941C41.741 30.5754 41.5876 29.7628 41.2743 29.0614C40.9697 28.3538 40.5335 27.7964 39.9631 27.3982C39.397 26.9974 38.7323 26.8 37.9776 26.8C37.2374 26.8 36.5772 26.9981 36.0044 27.3977L36.0033 27.3986C35.4415 27.7964 35.0058 28.3492 34.6932 29.0484L34.6932 29.0484L34.6924 29.0502C34.3872 29.7516 34.2378 30.5679 34.2378 31.4941C34.2378 32.4136 34.3915 33.2301 34.7047 33.9391C35.0171 34.646 35.4528 35.2032 36.0151 35.6014ZM39.3139 30.0207L39.3142 30.0217C39.4403 30.4178 39.506 30.9071 39.506 31.4941C39.506 32.081 39.4404 32.5748 39.3139 32.9793C39.1871 33.385 39.0096 33.6775 38.7912 33.8731C38.5781 34.0641 38.3188 34.1615 38.0012 34.1615C37.6758 34.1615 37.4085 34.064 37.1877 33.8732C36.9685 33.6691 36.7913 33.3719 36.6649 32.9676C36.5384 32.5628 36.4728 32.0729 36.4728 31.4941C36.4728 30.9071 36.5385 30.4178 36.6646 30.0217L36.6649 30.0207C36.7918 29.615 36.9693 29.3225 37.1876 29.1269C37.4008 28.9359 37.66 28.8385 37.9776 28.8385C38.3043 28.8385 38.5671 28.9366 38.7794 29.1269L38.7794 29.1269L38.7817 29.1289C39.0068 29.3245 39.1875 29.6164 39.3139 30.0207ZM44.226 35.7492L44.0206 36.0596H44.3928H46.5001H46.6072L46.6666 35.9703L48.3065 33.5055L49.9321 35.9697L49.9914 36.0596H50.0991H52.2064H52.5777L52.3734 35.7495L49.5692 31.4943L52.3732 27.2507L52.5782 26.9404H52.2064H50.0991H49.9916L49.9323 27.03L48.3037 29.4904L46.6666 27.0297L46.6072 26.9404H46.5001H44.3928H44.0201L44.2261 27.251L47.0415 31.4943L44.226 35.7492ZM52.9137 35.8596V36.0596H53.1137H54.9487H55.1487V35.8596V32.8996H56.4996C57.1229 32.8996 57.6846 32.7901 58.1802 32.5658L58.1816 32.5652C58.6869 32.3321 59.0876 31.9922 59.3777 31.5456C59.6793 31.0935 59.825 30.5502 59.825 29.9259C59.825 29.2877 59.6841 28.7367 59.3903 28.2838C59.0998 27.8363 58.6982 27.4995 58.1914 27.2739C57.6956 27.0497 57.1302 26.9404 56.4996 26.9404H53.1137H52.9137V27.1404V35.8596ZM57.4539 30.4413L57.4539 30.4412L57.4506 30.4469C57.3674 30.5924 57.2495 30.7067 57.0918 30.7912C56.937 30.8741 56.7459 30.9196 56.5114 30.9196H55.1487V28.9204H56.5114C56.7459 28.9204 56.937 28.966 57.0918 29.0489C57.2495 29.1333 57.3674 29.2476 57.4506 29.3932L57.4505 29.3932L57.4539 29.3987C57.5423 29.5422 57.59 29.7155 57.59 29.9259C57.59 30.1271 57.5429 30.2968 57.4539 30.4413Z" fill="#F7BF8D" stroke="#010101" stroke-width="0.4"/>
</g>
<defs>
<filter id="filter0_d_1389_15020" x="0.5" y="0.2005" width="85" height="63.2233" filterUnits="userSpaceOnUse" color-interpolation-filters="sRGB">
<feFlood flood-opacity="0" result="BackgroundImageFix"/>
<feColorMatrix in="SourceAlpha" type="matrix" values="0 0 0 0 0 0 0 0 0 0 0 0 0 0 0 0 0 0 127 0" result="hardAlpha"/>
<feOffset/>
<feGaussianBlur stdDeviation="6.25"/>
<feComposite in2="hardAlpha" operator="out"/>
<feColorMatrix type="matrix" values="0 0 0 0 0.807843 0 0 0 0 0.6 0 0 0 0 0.415686 0 0 0 0.25 0"/>
<feBlend mode="normal" in2="BackgroundImageFix" result="effect1_dropShadow_1389_15020"/>
<feBlend mode="normal" in="SourceGraphic" in2="effect1_dropShadow_1389_15020" result="shape"/>
</filter>
</defs>
</svg>
