<svg width="12" height="9" viewBox="0 0 12 9" fill="none" xmlns="http://www.w3.org/2000/svg">
<path d="M3.66678 7.05744L1.13811 4.52878C1.01237 4.40734 0.843972 4.34014 0.669174 4.34166C0.494377 4.34318 0.327168 4.41329 0.203563 4.5369C0.0799576 4.6605 0.00984493 4.82771 0.00832598 5.00251C0.00680704 5.17731 0.0740032 5.34571 0.195442 5.47144L3.19544 8.47144C3.32046 8.59642 3.49 8.66663 3.66678 8.66663C3.84355 8.66663 4.01309 8.59642 4.13811 8.47144L11.4714 1.13811C11.5929 1.01237 11.6601 0.843972 11.6586 0.669175C11.657 0.494377 11.5869 0.327169 11.4633 0.203563C11.3397 0.0799577 11.1725 0.00984493 10.9977 0.00832598C10.8229 0.00680704 10.6545 0.0740036 10.5288 0.195442L3.66678 7.05744Z" fill="#FEFEFE" style="fill:#FEFEFE;fill:color(display-p3 0.9961 0.9961 0.9961);fill-opacity:1;"/>
</svg>
