<svg width="16" height="20" viewBox="0 0 16 20" fill="none" xmlns="http://www.w3.org/2000/svg">
<path d="M9.14567 5.41634C9.14567 5.65946 9.04909 5.89261 8.87718 6.06452C8.70528 6.23643 8.47212 6.33301 8.229 6.33301C7.98589 6.33301 7.75273 6.23643 7.58082 6.06452C7.40891 5.89261 7.31234 5.65946 7.31234 5.41634C7.31234 5.17323 7.40891 4.94007 7.58082 4.76816C7.75273 4.59625 7.98589 4.49967 8.229 4.49967C8.47212 4.49967 8.70528 4.59625 8.87718 4.76816C9.04909 4.94007 9.14567 5.17323 9.14567 5.41634ZM7.5415 7.93717V12.5205C7.5415 12.7028 7.61394 12.8777 7.74287 13.0066C7.8718 13.1356 8.04667 13.208 8.229 13.208C8.41134 13.208 8.58621 13.1356 8.71514 13.0066C8.84407 12.8777 8.9165 12.7028 8.9165 12.5205V7.93717C8.9165 7.75484 8.84407 7.57997 8.71514 7.45104C8.58621 7.32211 8.41134 7.24967 8.229 7.24967C8.04667 7.24967 7.8718 7.32211 7.74287 7.45104C7.61394 7.57997 7.5415 7.75484 7.5415 7.93717ZM0.666504 3.12467C0.666504 2.51689 0.907947 1.93399 1.33772 1.50422C1.76749 1.07445 2.35038 0.833008 2.95817 0.833008H13.4998C13.8008 0.833008 14.0988 0.892284 14.3768 1.00745C14.6549 1.12262 14.9075 1.29142 15.1203 1.50422C15.3331 1.71702 15.5019 1.96965 15.6171 2.24769C15.7322 2.52573 15.7915 2.82373 15.7915 3.12467V16.1872C15.7915 16.3695 15.7191 16.5444 15.5901 16.6733C15.4612 16.8022 15.2863 16.8747 15.104 16.8747H2.0415C2.0415 17.1178 2.13808 17.3509 2.30999 17.5229C2.4819 17.6948 2.71506 17.7913 2.95817 17.7913H15.104C15.2863 17.7913 15.4612 17.8638 15.5901 17.9927C15.7191 18.1216 15.7915 18.2965 15.7915 18.4788C15.7915 18.6612 15.7191 18.836 15.5901 18.965C15.4612 19.0939 15.2863 19.1663 15.104 19.1663H2.95817C2.35038 19.1663 1.76749 18.9249 1.33772 18.4951C0.907947 18.0654 0.666504 17.4825 0.666504 16.8747V3.12467ZM14.4165 15.4997V3.12467C14.4165 2.88156 14.3199 2.6484 14.148 2.47649C13.9761 2.30458 13.743 2.20801 13.4998 2.20801H2.95817C2.71506 2.20801 2.4819 2.30458 2.30999 2.47649C2.13808 2.6484 2.0415 2.88156 2.0415 3.12467V15.4997H14.4165Z" fill="#FEFEFE" style="fill:#FEFEFE;fill:color(display-p3 0.9961 0.9961 0.9961);fill-opacity:1;"/>
</svg>
