<svg width="48" height="31" viewBox="0 0 48 31" fill="none" xmlns="http://www.w3.org/2000/svg">
<path d="M23.9823 30.2106C37.1132 30.2106 47.7571 27.4467 47.7571 24.0355C47.7571 20.6243 37.1132 17.8604 23.9823 17.8604C10.8514 17.8604 0.20752 20.6243 0.20752 24.0355C0.20752 27.4467 10.8514 30.2106 23.9823 30.2106Z" fill="#1B1E1E" style="fill:#1B1E1E;fill:color(display-p3 0.1059 0.1176 0.1176);fill-opacity:1;"/>
<path d="M23.9822 18.0542C36.9974 18.0542 47.5495 20.7334 47.5495 24.0374C47.5495 27.3413 36.9974 30.0206 23.9822 30.0206C10.9669 30.0206 0.414815 27.3413 0.414815 24.0374C0.414815 20.7334 10.9669 18.0542 23.9822 18.0542ZM23.9822 17.6685C17.6517 17.6685 11.6937 18.295 7.2097 19.4333C1.24995 20.9461 0 22.7711 0 24.0355C0 25.2999 1.24995 27.125 7.2097 28.6377C11.6956 29.776 17.6517 30.4044 23.9822 30.4044C30.3127 30.4044 36.2706 29.7779 40.7565 28.6377C46.7144 27.125 47.9662 25.2999 47.9662 24.0355C47.9662 22.7711 46.7162 20.9461 40.7565 19.4333C36.2706 18.295 30.3145 17.6685 23.9822 17.6685Z" fill="black" style="fill:black;fill-opacity:1;"/>
<g opacity="0.46">
<path d="M23.9804 27.3169C36.1935 27.3169 46.094 25.3733 46.094 22.9744C46.094 20.5754 36.1935 18.6318 23.9804 18.6318C11.7672 18.6318 1.8667 20.5754 1.8667 22.9744C1.8667 25.3733 11.7672 27.3169 23.9804 27.3169Z" fill="black" style="fill:black;fill-opacity:1;"/>
</g>
<path d="M0.427134 24.2272C0.318842 24.2272 0.227068 24.1501 0.219727 24.0485V12.0707C0.219727 12.0481 0.223397 12.0237 0.232575 12.003C1.26594 9.41591 5.84909 8.83264 6.04365 8.81006H6.07119C6.12074 8.81006 6.1703 8.82699 6.20885 8.85898C6.25473 8.89473 6.27859 8.94741 6.27859 9.00385V20.9346C6.27859 21.0305 6.2015 21.1114 6.10055 21.1265C0.897014 21.8019 0.64739 23.7606 0.634542 23.9977V24.0409C0.634542 24.1444 0.54644 24.2272 0.434476 24.2328H0.425299L0.427134 24.2272Z" fill="#1D1E1E" style="fill:#1D1E1E;fill:color(display-p3 0.1137 0.1176 0.1176);fill-opacity:1;"/>
<path d="M23.8739 29.4392C20.4581 29.4392 17.1249 28.2765 14.4892 26.1598C13.4008 25.2867 12.0205 24.8069 10.5998 24.8069H10.3924V24.6131C10.3924 22.6865 8.61938 21.1229 6.43885 21.1229H6.23145V8.80653H6.43885C8.61938 8.80653 10.3924 7.23923 10.3924 5.31632V5.12253H10.5998C12.0205 5.12253 13.4008 4.64274 14.4892 3.76972C17.1249 1.65489 20.4563 0.490234 23.8739 0.490234C27.2916 0.490234 30.6229 1.65301 33.2587 3.76972C34.3471 4.64274 35.7274 5.12253 37.148 5.12253H37.5738V5.31632C37.5738 7.243 39.3469 8.80653 41.5274 8.80653H41.7348V21.1229H41.5274C39.3469 21.1229 37.5738 22.6902 37.5738 24.6131V24.8069H37.148C35.7274 24.8069 34.3471 25.2867 33.2587 26.1598C30.6211 28.2746 27.2897 29.4392 23.8739 29.4392Z" fill="#A5874A" style="fill:#A5874A;fill:color(display-p3 0.6471 0.5294 0.2902);fill-opacity:1;"/>
<path d="M23.8737 0.685759C27.3849 0.685759 30.6062 1.89746 33.1244 3.9182C34.2312 4.80628 35.6555 5.31805 37.1514 5.31805H37.3698C37.3698 7.35197 39.2328 9.00206 41.5308 9.00206V20.9327C39.2328 20.9327 37.3698 22.5828 37.3698 24.6168H37.1514C35.6592 24.6168 34.2349 25.1304 33.1244 26.0166C30.6062 28.0355 27.3849 29.249 23.8737 29.249C20.3624 29.249 17.1412 28.0374 14.623 26.0166C13.5162 25.1285 12.0918 24.6168 10.5959 24.6168C10.5959 22.5828 8.73295 20.9327 6.43495 20.9327V9.00206C8.73295 9.00206 10.5959 7.35197 10.5959 5.31805C12.0882 5.31805 13.5125 4.8044 14.623 3.9182C17.1412 1.89934 20.3624 0.685759 23.8737 0.685759ZM23.8737 0.300049C20.4083 0.300049 17.0256 1.48164 14.3513 3.62469C13.3014 4.46572 11.967 4.93046 10.5978 4.93046H10.183V5.31617C10.183 7.13371 8.50352 8.61447 6.43679 8.61447H6.02197V21.3166H6.43679C8.50352 21.3166 10.183 22.7973 10.183 24.6149V25.0006H10.5978C11.9689 25.0006 13.3014 25.4634 14.3513 26.3064C17.0256 28.4513 20.4083 29.631 23.8737 29.631C27.339 29.631 30.7218 28.4494 33.3961 26.3064C34.446 25.4653 35.7803 25.0006 37.1496 25.0006H37.7828V24.6149C37.7828 22.7973 39.4623 21.3166 41.529 21.3166H41.9438V8.61447H41.529C39.4623 8.61447 37.7828 7.13371 37.7828 5.31617V4.93046H37.1496C35.7785 4.93046 34.446 4.46761 33.3961 3.62469C30.72 1.47976 27.339 0.300049 23.8737 0.300049Z" fill="black" style="fill:black;fill-opacity:1;"/>
<path d="M23.878 26.7372C30.8729 26.7372 36.5445 21.4671 36.5445 14.9645C36.5445 8.46202 30.8729 3.19189 23.878 3.19189C16.883 3.19189 11.2114 8.46202 11.2114 14.9645C11.2114 21.4671 16.883 26.7372 23.878 26.7372Z" fill="#D6CA85" style="fill:#D6CA85;fill:color(display-p3 0.8392 0.7922 0.5216);fill-opacity:1;"/>
<path d="M36.2525 5.90521L37.1005 5.31441C35.6266 5.30312 34.2188 4.79323 33.1249 3.91456C32.8367 3.68314 32.5375 3.463 32.231 3.25415L21.3779 29.0347C22.1892 29.172 23.0243 29.2454 23.876 29.2454C27.3872 29.2454 30.6085 28.0337 33.1267 26.013C34.2335 25.1249 35.6578 24.6131 37.1537 24.6131H37.3722L36.2562 23.6385V5.90521H36.2544H36.2525Z" fill="#936B3E" style="fill:#936B3E;fill:color(display-p3 0.5765 0.4196 0.2431);fill-opacity:1;"/>
<path d="M23.8518 27.7024C20.8068 27.7024 17.8389 26.6638 15.4858 24.7785C14.4634 23.96 13.1823 23.4915 11.8534 23.4483C11.7451 21.6251 10.0914 20.1575 8.03564 20.0634V9.47611C10.0914 9.38392 11.747 7.91634 11.8534 6.09127C13.1823 6.04799 14.4653 5.57949 15.4858 4.76103C17.837 2.87575 20.8068 1.83716 23.8518 1.83716C26.8969 1.83716 29.8648 2.87575 32.216 4.76103C33.288 5.61901 34.6499 6.09503 36.0485 6.09503C36.1586 7.91822 37.8105 9.38392 39.8663 9.47611V20.0634C37.8105 20.1556 36.1568 21.6213 36.0485 23.4445C34.6499 23.4445 33.2861 23.9186 32.216 24.7785C29.8648 26.6638 26.895 27.7024 23.8518 27.7024Z" fill="#C9A753" style="fill:#C9A753;fill:color(display-p3 0.7882 0.6549 0.3255);fill-opacity:1;"/>
<path d="M23.8517 2.03652C26.8454 2.03652 29.7674 3.05818 32.0801 4.91147C33.141 5.76192 34.4736 6.24735 35.8575 6.28874C36.0612 8.06866 37.6581 9.48544 39.6587 9.65854V19.8846C37.6562 20.0577 36.0594 21.4763 35.8575 23.2544C34.4772 23.2976 33.141 23.7812 32.0801 24.6316C29.7674 26.4868 26.8454 27.5066 23.8517 27.5066C20.8581 27.5066 17.936 26.4849 15.6233 24.6316C14.6138 23.8226 13.3584 23.3447 12.0479 23.2638C11.8515 21.4801 10.2491 20.0577 8.24661 19.8846V9.65854C10.2528 9.48544 11.8515 8.06301 12.0479 6.27934C13.3584 6.19843 14.6138 5.72053 15.6233 4.91147C17.936 3.0563 20.8581 2.03652 23.8517 2.03652ZM23.8517 1.64893C20.625 1.64893 17.6662 2.76278 15.3499 4.61796C14.333 5.43454 13.0225 5.90491 11.6514 5.90491C11.6514 7.77514 9.94074 9.28976 7.82812 9.28976V20.2534C9.94074 20.2534 11.6514 21.768 11.6514 23.6382C13.0243 23.6382 14.3348 24.1086 15.3499 24.9252C17.6644 26.7822 20.625 27.8942 23.8517 27.8942C27.0785 27.8942 30.0372 26.7803 32.3518 24.9252C33.3686 24.1086 34.6791 23.6382 36.0502 23.6382H36.2503C36.2503 21.768 37.9609 20.2534 40.0736 20.2534V9.28976C37.9609 9.28976 36.2503 7.77514 36.2503 5.90491H36.0502C34.6773 5.90491 33.3668 5.43454 32.3518 4.61796C30.0372 2.7609 27.0785 1.64893 23.8517 1.64893Z" fill="#EACC81" style="fill:#EACC81;fill:color(display-p3 0.9176 0.8000 0.5059);fill-opacity:1;"/>
<path d="M41.5275 20.9312L40.0757 20.2538V9.29212L41.5275 9.00049V20.9312Z" fill="#936B3E" style="fill:#936B3E;fill:color(display-p3 0.5765 0.4196 0.2431);fill-opacity:1;"/>
<path d="M6.43506 9.00049L7.82818 9.29212V20.2538L6.43506 20.9312V9.00049Z" fill="#936B3E" style="fill:#936B3E;fill:color(display-p3 0.5765 0.4196 0.2431);fill-opacity:1;"/>
<path d="M47.5786 24.2275C47.4666 24.2237 47.3785 24.139 47.3785 24.0356V23.9923C47.3675 23.7552 47.1197 21.7966 41.9144 21.1211C41.8116 21.1079 41.7363 21.027 41.7363 20.9292V8.99848C41.7363 8.94204 41.762 8.89124 41.8061 8.85361C41.8428 8.8235 41.8942 8.80469 41.9437 8.80469H41.9713C42.1658 8.82727 46.749 9.41054 47.7842 11.9976C47.7915 12.0183 47.797 12.0428 47.797 12.0654V24.0431C47.7879 24.1428 47.6979 24.2218 47.5896 24.2218H47.5823L47.5786 24.2275Z" fill="#1D1E1E" style="fill:#1D1E1E;fill:color(display-p3 0.1137 0.1176 0.1176);fill-opacity:1;"/>
<path d="M23.8826 27.7046C20.8376 27.7046 17.8696 26.666 15.5166 24.7807C14.4942 23.9622 13.213 23.4937 11.8842 23.4505C11.7759 21.6273 10.1221 20.1597 8.06641 20.0656V9.47831C10.1221 9.38612 11.7777 7.91853 11.8842 6.09346C13.213 6.05019 14.496 5.58169 15.5166 4.76323C17.8678 2.87795 20.8376 1.83936 23.8826 1.83936C26.9276 1.83936 29.8956 2.87795 32.2468 4.76323C33.3187 5.6212 34.6806 6.09723 36.0793 6.09723C36.1894 7.92042 37.8413 9.38612 39.897 9.47831V20.0656C37.8413 20.1578 36.1875 21.6235 36.0793 23.4467C34.6806 23.4467 33.3169 23.9208 32.2468 24.7807C29.8956 26.666 26.9258 27.7046 23.8826 27.7046Z" fill="black" style="fill:black;fill-opacity:1;"/>
<path d="M23.9378 27.7158C20.8927 27.7158 17.9248 26.6772 15.5717 24.7919C14.5494 23.9735 13.2682 23.505 11.9393 23.4617C11.8311 21.6385 10.1773 20.1709 8.12158 20.0768V9.48954C10.1773 9.39735 11.8329 7.92976 11.9393 6.10469C13.2682 6.06142 14.5512 5.59292 15.5717 4.77446C17.923 2.88918 20.8927 1.85059 23.9378 1.85059C26.9828 1.85059 29.9508 2.88918 32.302 4.77446C33.3739 5.63243 34.7358 6.10846 36.1344 6.10846C36.2446 7.93165 37.8965 9.39735 39.9522 9.48954V20.0768C37.8965 20.169 36.2427 21.6347 36.1344 23.4579C34.7358 23.4579 33.3721 23.9321 32.302 24.7919C29.9508 26.6772 26.981 27.7158 23.9378 27.7158Z" fill="black" style="fill:black;fill-opacity:1;"/>
<g opacity="0.6">
<mask id="mask0_2458_19284" style="mask-type:luminance" maskUnits="userSpaceOnUse" x="8" y="1" width="32" height="27">
<path d="M23.9383 27.7158C20.8932 27.7158 17.9253 26.6772 15.5722 24.7919C14.5499 23.9735 13.2687 23.505 11.9398 23.4617C11.8315 21.6385 10.1778 20.1709 8.12207 20.0768V9.48954C10.1778 9.39735 11.8334 7.92976 11.9398 6.10469C13.2687 6.06142 14.5517 5.59292 15.5722 4.77446C17.9234 2.88918 20.8932 1.85059 23.9383 1.85059C26.9833 1.85059 29.9512 2.88918 32.3025 4.77446C33.3744 5.63243 34.7363 6.10846 36.1349 6.10846C36.245 7.93165 37.897 9.39735 39.9527 9.48954V20.0768C37.897 20.169 36.2432 21.6347 36.1349 23.4579C34.7363 23.4579 33.3725 23.9321 32.3025 24.7919C29.9512 26.6772 26.9815 27.7158 23.9383 27.7158Z" fill="white" style="fill:white;fill-opacity:1;"/>
</mask>
<g mask="url(#mask0_2458_19284)">
<path d="M23.5066 -7.37646L5.49702 24.2801L5.46582 25.8097L28.8092 -7.26357L23.5066 -7.37646Z" fill="#FF0080" style="fill:#FF0080;fill:color(display-p3 1.0000 0.0000 0.5020);fill-opacity:1;"/>
<path d="M5.61963 18.3516L17.3427 -0.717529L5.56641 20.935L5.61963 18.3516Z" fill="#F4FA23" style="fill:#F4FA23;fill:color(display-p3 0.9569 0.9804 0.1373);fill-opacity:1;"/>
<path d="M5.73584 12.7105L5.81109 9.03022L11.2588 -1.70947L15.5317 -0.757426L5.73584 12.7105Z" fill="#FF0080" style="fill:#FF0080;fill:color(display-p3 1.0000 0.0000 0.5020);fill-opacity:1;"/>
<path d="M28.2572 33.2682L42.1279 8.88559L42.1517 7.70776L24.1733 33.1797L28.2572 33.2682Z" fill="#FF0080" style="fill:#FF0080;fill:color(display-p3 1.0000 0.0000 0.5020);fill-opacity:1;"/>
<path d="M42.0344 13.4521L33.0039 28.1393L42.0748 11.4634L42.0344 13.4521Z" fill="#F4FA23" style="fill:#F4FA23;fill:color(display-p3 0.9569 0.9804 0.1373);fill-opacity:1;"/>
<path d="M41.944 17.7964L41.8853 20.6318L37.6894 28.903L34.3984 28.1692L41.944 17.7964Z" fill="#FF0080" style="fill:#FF0080;fill:color(display-p3 1.0000 0.0000 0.5020);fill-opacity:1;"/>
<path d="M41.6592 31.6406L31.0869 28.4288L34.9634 26.8916L34.5137 27.8041L32.5278 28.2764L41.6922 30.0939L41.6592 31.6406Z" fill="#F4FA23" style="fill:#F4FA23;fill:color(display-p3 0.9569 0.9804 0.1373);fill-opacity:1;"/>
<path d="M41.7183 28.8073L39.0073 27.716L41.7697 26.2654L41.6504 26.7414L40.1985 27.5034L41.7312 28.1808L41.7183 28.8073Z" fill="#F4FA23" style="fill:#F4FA23;fill:color(display-p3 0.9569 0.9804 0.1373);fill-opacity:1;"/>
<path d="M28.4755 21.599L42.3461 -2.7836L42.37 -3.96143L24.3916 21.5105L28.4755 21.599Z" fill="#FF0080" style="fill:#FF0080;fill:color(display-p3 1.0000 0.0000 0.5020);fill-opacity:1;"/>
<path d="M42.2528 1.78295L33.2241 16.4701L42.2931 -0.205811L42.2528 1.78295Z" fill="#F4FA23" style="fill:#F4FA23;fill:color(display-p3 0.9569 0.9804 0.1373);fill-opacity:1;"/>
<path d="M21.4197 8.16113L7.54913 32.5437L7.52344 33.7215L25.5036 8.24768L21.4197 8.16113Z" fill="#FF0080" style="fill:#FF0080;fill:color(display-p3 1.0000 0.0000 0.5020);fill-opacity:1;"/>
<path d="M7.6428 27.9771L16.6714 13.2881L7.60059 29.9658L7.6428 27.9771Z" fill="#F4FA23" style="fill:#F4FA23;fill:color(display-p3 0.9569 0.9804 0.1373);fill-opacity:1;"/>
</g>
</g>
<g opacity="0.44">
<mask id="mask1_2458_19284" style="mask-type:luminance" maskUnits="userSpaceOnUse" x="0" y="8" width="7" height="17">
<path d="M0.703013 24.3998C0.594721 24.3998 0.502947 24.3227 0.495605 24.2211V12.2433C0.495605 12.2208 0.499276 12.1963 0.508454 12.1756C1.54182 9.58851 6.12497 9.00524 6.31953 8.98267H6.34706C6.39662 8.98267 6.44618 8.9996 6.48472 9.03158C6.53061 9.06733 6.55447 9.12002 6.55447 9.17646V21.1072C6.55447 21.2031 6.47738 21.284 6.37643 21.2991C1.17289 21.9745 0.923269 23.9332 0.910421 24.1703V24.2135C0.910421 24.317 0.822318 24.3998 0.710355 24.4055H0.701178L0.703013 24.3998Z" fill="white" style="fill:white;fill-opacity:1;"/>
</mask>
<g mask="url(#mask1_2458_19284)">
<path d="M2.88705 21.3219H1.98584L4.99416 15.8787H5.99633V16.1552L5.50626 16.2173L2.88705 21.3219Z" fill="#FF0080" style="fill:#FF0080;fill:color(display-p3 1.0000 0.0000 0.5020);fill-opacity:1;"/>
<path d="M4.48193 21.3221L6.17607 18.2834V19.8037L5.32992 21.3221H4.48193Z" fill="#FF0080" style="fill:#FF0080;fill:color(display-p3 1.0000 0.0000 0.5020);fill-opacity:1;"/>
<path d="M3.37695 21.3218H3.8505L5.99616 17.2502V16.4863L3.37695 21.3218Z" fill="#F4FA23" style="fill:#F4FA23;fill:color(display-p3 0.9569 0.9804 0.1373);fill-opacity:1;"/>
<path d="M5.99654 15.5157L2.20264 15.7L5.99654 14.8684V15.5157Z" fill="#FF0080" style="fill:#FF0080;fill:color(display-p3 1.0000 0.0000 0.5020);fill-opacity:1;"/>
<path d="M1.79666 15.4685L5.9962 7.71856V7.3479L0.513672 15.4685H1.79666Z" fill="#FF0080" style="fill:#FF0080;fill:color(display-p3 1.0000 0.0000 0.5020);fill-opacity:1;"/>
<path d="M5.99707 9.15232L3.25488 13.826L5.99707 8.52954V9.15232Z" fill="#F4FA23" style="fill:#F4FA23;fill:color(display-p3 0.9569 0.9804 0.1373);fill-opacity:1;"/>
<path d="M5.99638 10.5183V11.4083L4.73174 14.0349L3.69287 13.826L5.99638 10.5183Z" fill="#FF0080" style="fill:#FF0080;fill:color(display-p3 1.0000 0.0000 0.5020);fill-opacity:1;"/>
<path d="M5.99619 14.8683L2.65381 13.9313L3.86154 13.4214L3.72572 13.7111L3.10533 13.873L5.99619 14.381V14.8683Z" fill="#F4FA23" style="fill:#F4FA23;fill:color(display-p3 0.9569 0.9804 0.1373);fill-opacity:1;"/>
<path d="M5.9962 13.9767L5.13721 13.6531L5.9962 13.179L5.96133 13.3295L5.50981 13.5778L5.9962 13.781V13.9767Z" fill="#F4FA23" style="fill:#F4FA23;fill:color(display-p3 0.9569 0.9804 0.1373);fill-opacity:1;"/>
</g>
</g>
<g opacity="0.44">
<mask id="mask2_2458_19284" style="mask-type:luminance" maskUnits="userSpaceOnUse" x="41" y="8" width="7" height="17">
<path d="M47.2172 24.4006C47.1052 24.3968 47.0171 24.314 47.0171 24.2087V24.1654C47.0042 23.9283 46.7546 21.9697 41.5511 21.2942C41.4501 21.281 41.373 21.2001 41.373 21.1023V9.17158C41.373 9.11513 41.3987 9.06433 41.4428 9.0267C41.4795 8.9966 41.5309 8.97778 41.5805 8.97778H41.608C41.8025 9.00036 46.3857 9.58363 47.4191 12.1707C47.4282 12.1914 47.4319 12.2159 47.4319 12.2385V24.1522C47.4319 24.1955 47.4319 24.2162 47.4319 24.2162C47.4227 24.3178 47.3328 24.3949 47.2245 24.3949H47.2153L47.2172 24.4006Z" fill="white" style="fill:white;fill-opacity:1;"/>
</mask>
<g mask="url(#mask2_2458_19284)">
<path d="M45.0401 21.3219H45.9431L42.9329 15.8787H41.9326V16.1552L42.4209 16.2173L45.0401 21.3219Z" fill="#FF0080" style="fill:#FF0080;fill:color(display-p3 1.0000 0.0000 0.5020);fill-opacity:1;"/>
<path d="M43.4446 21.3221L41.7505 18.2834V19.8037L42.5985 21.3221H43.4446Z" fill="#FF0080" style="fill:#FF0080;fill:color(display-p3 1.0000 0.0000 0.5020);fill-opacity:1;"/>
<path d="M44.55 21.3221H44.0764L41.9326 17.2505V16.4866L44.55 21.3221Z" fill="#F4FA23" style="fill:#F4FA23;fill:color(display-p3 0.9569 0.9804 0.1373);fill-opacity:1;"/>
<path d="M41.9326 15.5157L45.7247 15.7L41.9326 14.8684V15.5157Z" fill="#FF0080" style="fill:#FF0080;fill:color(display-p3 1.0000 0.0000 0.5020);fill-opacity:1;"/>
<path d="M46.1303 15.4688L41.9326 7.7188V7.34814L47.4133 15.4688H46.1303Z" fill="#FF0080" style="fill:#FF0080;fill:color(display-p3 1.0000 0.0000 0.5020);fill-opacity:1;"/>
<path d="M41.9326 9.15257L44.673 13.8263L41.9326 8.52979V9.15257Z" fill="#F4FA23" style="fill:#F4FA23;fill:color(display-p3 0.9569 0.9804 0.1373);fill-opacity:1;"/>
<path d="M41.9326 10.5186V11.4085L43.1972 14.0351L44.2343 13.8263L41.9326 10.5186Z" fill="#FF0080" style="fill:#FF0080;fill:color(display-p3 1.0000 0.0000 0.5020);fill-opacity:1;"/>
<path d="M41.9326 14.8685L45.2732 13.9315L44.0654 13.4216L44.2012 13.7114L44.8216 13.8732L41.9326 14.3812V14.8685Z" fill="#F4FA23" style="fill:#F4FA23;fill:color(display-p3 0.9569 0.9804 0.1373);fill-opacity:1;"/>
<path d="M41.9326 13.9767L42.7898 13.6531L41.9326 13.179L41.9657 13.3295L42.4172 13.5778L41.9326 13.781V13.9767Z" fill="#F4FA23" style="fill:#F4FA23;fill:color(display-p3 0.9569 0.9804 0.1373);fill-opacity:1;"/>
</g>
</g>
<path d="M6.07168 9.00209V20.9328C0.741492 21.6233 0.442311 23.6572 0.427628 23.9921V12.0727C1.42796 9.56467 6.07168 9.00209 6.07168 9.00209ZM6.07168 8.6145C6.05332 8.6145 6.03681 8.6145 6.01845 8.61827C5.81838 8.64272 1.11593 9.24105 0.0403448 11.9373C0.0238256 11.9805 0.0146484 12.0257 0.0146484 12.0727V24.0655C0.0330031 24.2668 0.214714 24.4211 0.427628 24.4211H0.445982C0.668073 24.4117 0.842442 24.2461 0.842442 24.0392V24.0015C0.855291 23.7682 1.11226 21.9676 6.12674 21.3166C6.33232 21.2903 6.48466 21.1266 6.48466 20.9347V9.00398C6.48466 8.89297 6.43327 8.7876 6.34333 8.71422C6.26624 8.65213 6.16896 8.61827 6.06984 8.61827H6.07168V8.6145Z" fill="black" style="fill:black;fill-opacity:1;"/>
<path d="M41.9441 8.97573C41.9441 8.97573 46.586 9.53642 47.5882 12.0464V23.9658C47.5753 23.6327 47.2743 21.5988 41.9441 20.9064V8.97573ZM41.9441 8.58813C41.845 8.58813 41.7477 8.62012 41.6706 8.68409C41.5807 8.75747 41.5293 8.86284 41.5293 8.97385V20.9045C41.5293 21.0983 41.6835 21.2601 41.8872 21.2865C46.9017 21.9375 47.1605 23.7381 47.1715 23.9714V24.0109C47.1715 24.2179 47.3459 24.3835 47.568 24.3929H47.5863C47.8011 24.3929 47.981 24.2367 47.9993 24.0373C47.9993 24.0373 48.0011 24.0109 47.9993 23.9582V12.0464C47.9993 11.9993 47.9901 11.956 47.9736 11.9109C46.898 9.21468 42.1956 8.61636 41.9955 8.5919C41.9772 8.59002 41.9606 8.58813 41.9423 8.58813H41.9441Z" fill="black" style="fill:black;fill-opacity:1;"/>
<path opacity="0.42" d="M1.75126 10.5449V22.2988C0.515989 23.0984 0.420545 23.9714 0.415039 24.1652V12.2119C0.662827 11.5177 1.16207 10.972 1.75126 10.5449Z" fill="#484F51" style="fill:#484F51;fill:color(display-p3 0.2824 0.3098 0.3176);fill-opacity:1;"/>
<path opacity="0.42" d="M47.4319 12.1969V24.0373C47.4264 23.8435 47.3291 22.9799 46.0957 22.1877V10.5449C46.6867 10.9683 47.1841 11.5083 47.4319 12.1969Z" fill="#484F51" style="fill:#484F51;fill:color(display-p3 0.2824 0.3098 0.3176);fill-opacity:1;"/>
<path d="M25.7187 5.8073V22.2649H21.7118V13.4406C21.7118 12.1668 21.6825 11.401 21.6219 11.1433C21.5632 10.8855 21.398 10.6917 21.1318 10.5581C20.8639 10.4264 20.2673 10.3606 19.3423 10.3606H18.9458V8.44142C20.8822 8.01432 22.3543 7.13565 23.3583 5.80542H25.7187V5.8073Z" fill="#C9A753" style="fill:#C9A753;fill:color(display-p3 0.7882 0.6549 0.3255);fill-opacity:1;"/>
<path opacity="0.28" d="M23.9967 2.03662C20.77 2.03662 17.8112 3.15048 15.4949 5.00754C14.478 5.82411 13.1675 6.29449 11.7964 6.29449C11.7964 8.16472 10.0858 9.67934 7.97314 9.67934V20.6429C10.0858 20.6429 11.7964 22.1576 11.7964 24.0278C13.1693 24.0278 14.4799 24.4982 15.4949 25.3147C15.6876 25.469 15.8877 25.6158 16.0896 25.7607L26.4287 2.253C25.6395 2.11188 24.8282 2.03662 23.9949 2.03662H23.9967Z" fill="white" style="fill:white;fill-opacity:1;"/>
<path d="M10.1998 15.5534L8.83789 14.1235L10.7211 13.8281L11.5636 11.9917L12.406 13.8281L14.2892 14.1235L12.9273 15.5534L13.2485 17.5704L11.5636 16.6183L9.8786 17.5704L10.1998 15.5534Z" fill="#A5874A" style="fill:#A5874A;fill:color(display-p3 0.6471 0.5294 0.2902);fill-opacity:1;"/>
<path d="M11.5632 12.1139L12.3726 13.8787L14.1824 14.161L12.8719 15.5345L13.1821 17.4743L11.5632 16.558L9.94432 17.4743L10.2545 15.5345L8.94399 14.161L10.7538 13.8787L11.5632 12.1139ZM11.5632 11.873L11.4751 12.065L10.6895 13.779L8.93114 14.0537L8.73291 14.0838L8.87608 14.2343L10.1481 15.5683L9.84704 17.4536L9.81216 17.6662L9.9902 17.5665L11.5632 16.6766L13.1362 17.5665L13.3124 17.6662L13.2775 17.4536L12.9765 15.5683L14.2485 14.2343L14.3916 14.0838L14.1934 14.0537L12.435 13.779L11.6495 12.065L11.5614 11.873H11.5632Z" fill="black" style="fill:black;fill-opacity:1;"/>
<path d="M11.563 16.0728L10.302 16.7859L10.5425 15.275L9.52197 14.2044L10.9316 13.9843L11.5612 12.6089L12.1907 13.9843L13.6004 14.2044L12.5799 15.275L12.8203 16.7859L11.5593 16.0728H11.563Z" fill="#C9A753" style="fill:#C9A753;fill:color(display-p3 0.7882 0.6549 0.3255);fill-opacity:1;"/>
<path d="M11.5631 12.7311L12.1376 13.9842L12.1615 14.035L12.2129 14.0426L13.4977 14.2439L12.5671 15.2185L12.5304 15.258L12.5396 15.3126L12.7599 16.6898L11.6109 16.0407L11.565 16.0144L11.5191 16.0407L10.3701 16.6898L10.5903 15.3126L10.5995 15.258L10.5628 15.2185L9.63223 14.2439L10.9171 14.0426L10.9684 14.035L10.9923 13.9842L11.5668 12.7311M11.5631 12.4922L10.9005 13.9372L9.41748 14.1686L10.4912 15.2938L10.2379 16.8818L11.565 16.131L12.892 16.8818L12.6387 15.2938L13.7125 14.1686L12.2294 13.9372L11.5668 12.4922H11.5631Z" fill="#EACC81" style="fill:#EACC81;fill:color(display-p3 0.9176 0.8000 0.5059);fill-opacity:1;"/>
<path d="M11.5635 16.5583V16.1331L12.8905 16.8838L13.1824 17.4746L11.5635 16.5583Z" fill="#936B3E" style="fill:#936B3E;fill:color(display-p3 0.5765 0.4196 0.2431);fill-opacity:1;"/>
<path d="M12.6367 15.2937L12.8735 15.5327L14.184 14.1592L13.7105 14.1667L12.6367 15.2919V15.2937Z" fill="#936B3E" style="fill:#936B3E;fill:color(display-p3 0.5765 0.4196 0.2431);fill-opacity:1;"/>
<path d="M12.226 13.9372L11.5615 12.4922V12.114L12.371 13.8789L12.2241 13.9372H12.226Z" fill="#936B3E" style="fill:#936B3E;fill:color(display-p3 0.5765 0.4196 0.2431);fill-opacity:1;"/>
<path d="M10.2362 16.8837L9.94434 17.4745L10.2545 15.5346L10.4913 15.2957L10.238 16.8837H10.2362Z" fill="#EACC81" style="fill:#EACC81;fill:color(display-p3 0.9176 0.8000 0.5059);fill-opacity:1;"/>
<path d="M9.41691 14.1689L8.94336 14.1614L10.7531 13.8792L10.9 13.9375L9.41691 14.1689Z" fill="#EACC81" style="fill:#EACC81;fill:color(display-p3 0.9176 0.8000 0.5059);fill-opacity:1;"/>
<path d="M11.5634 16.1329L12.8904 16.8836L12.6371 15.2956L13.7109 14.1705L12.4903 13.9805C12.0002 14.8761 11.3688 15.8413 10.5869 16.688L11.5634 16.1348V16.1329Z" fill="#EACC81" style="fill:#EACC81;fill:color(display-p3 0.9176 0.8000 0.5059);fill-opacity:1;"/>
<path d="M35.1798 15.5534L33.8179 14.1235L35.7011 13.8281L36.5435 11.9917L37.386 13.8281L39.2692 14.1235L37.9073 15.5534L38.2285 17.5704L36.5435 16.6183L34.8586 17.5704L35.1798 15.5534Z" fill="#A5874A" style="fill:#A5874A;fill:color(display-p3 0.6471 0.5294 0.2902);fill-opacity:1;"/>
<path d="M36.5417 12.1139L37.3512 13.8787L39.1609 14.161L37.8504 15.5345L38.1606 17.4743L36.5417 16.558L34.9228 17.4743L35.233 15.5345L33.9225 14.161L35.7323 13.8787L36.5417 12.1139ZM36.5417 11.873L36.4536 12.065L35.668 13.779L33.9097 14.0537L33.7114 14.0838L33.8546 14.2343L35.1266 15.5683L34.8256 17.4536L34.7907 17.6662L34.9687 17.5665L36.5417 16.6766L38.1147 17.5665L38.2909 17.6662L38.256 17.4536L37.955 15.5683L39.227 14.2343L39.3702 14.0838L39.1719 14.0537L37.4136 13.779L36.628 12.065L36.5399 11.873H36.5417Z" fill="black" style="fill:black;fill-opacity:1;"/>
<path d="M36.5415 16.073L35.2806 16.7861L35.521 15.2752L34.5005 14.2047L35.9101 13.9845L36.5397 12.6091L37.1693 13.9845L38.5789 14.2047L37.5584 15.2752L37.7988 16.7861L36.5379 16.073H36.5415Z" fill="#C9A753" style="fill:#C9A753;fill:color(display-p3 0.7882 0.6549 0.3255);fill-opacity:1;"/>
<path d="M36.5413 12.7311L37.1158 13.9842L37.1396 14.035L37.191 14.0426L38.4759 14.2439L37.5453 15.2185L37.5086 15.258L37.5177 15.3126L37.738 16.6898L36.589 16.0407L36.5431 16.0144L36.4972 16.0407L35.3482 16.6898L35.5685 15.3126L35.5777 15.258L35.541 15.2185L34.6104 14.2439L35.8952 14.0426L35.9466 14.035L35.9705 13.9842L36.545 12.7311M36.5431 12.4922L35.8805 13.9372L34.3975 14.1686L35.4712 15.2938L35.2179 16.8818L36.545 16.131L37.872 16.8818L37.6187 15.2938L38.6924 14.1686L37.2094 13.9372L36.5468 12.4922H36.5431Z" fill="#EACC81" style="fill:#EACC81;fill:color(display-p3 0.9176 0.8000 0.5059);fill-opacity:1;"/>
<path d="M36.5415 16.5583V16.1331L37.8685 16.8838L38.1604 17.4746L36.5415 16.5583Z" fill="#936B3E" style="fill:#936B3E;fill:color(display-p3 0.5765 0.4196 0.2431);fill-opacity:1;"/>
<path d="M37.6152 15.294L37.852 15.5329L39.1625 14.1594L38.689 14.167L37.6152 15.2921V15.294Z" fill="#936B3E" style="fill:#936B3E;fill:color(display-p3 0.5765 0.4196 0.2431);fill-opacity:1;"/>
<path d="M37.2059 13.9372L36.5415 12.4922V12.114L37.3509 13.8789L37.2041 13.9372H37.2059Z" fill="#936B3E" style="fill:#936B3E;fill:color(display-p3 0.5765 0.4196 0.2431);fill-opacity:1;"/>
<path d="M35.2162 16.8837L34.9243 17.4745L35.2345 15.5346L35.4713 15.2957L35.218 16.8837H35.2162Z" fill="#EACC81" style="fill:#EACC81;fill:color(display-p3 0.9176 0.8000 0.5059);fill-opacity:1;"/>
<path d="M34.3959 14.1687L33.9224 14.1611L35.7321 13.8789L35.879 13.9372L34.3959 14.1687Z" fill="#EACC81" style="fill:#EACC81;fill:color(display-p3 0.9176 0.8000 0.5059);fill-opacity:1;"/>
<path d="M36.5419 16.1329L37.8689 16.8836L37.6156 15.2956L38.6894 14.1705L37.4688 13.9805C36.9787 14.8761 36.3473 15.8413 35.5654 16.688L36.5419 16.1348V16.1329Z" fill="#EACC81" style="fill:#EACC81;fill:color(display-p3 0.9176 0.8000 0.5059);fill-opacity:1;"/>
</svg>
