<svg width="49" height="30" viewBox="0 0 49 30" fill="none" xmlns="http://www.w3.org/2000/svg">
<path d="M24.1741 29.7115C37.409 29.7115 48.1372 26.9939 48.1372 23.6398C48.1372 20.2858 37.409 17.5681 24.1741 17.5681C10.9391 17.5681 0.210938 20.2858 0.210938 23.6398C0.210938 26.9939 10.9391 29.7115 24.1741 29.7115Z" fill="#1B1E1E" style="fill:#1B1E1E;fill:color(display-p3 0.1059 0.1176 0.1176);fill-opacity:1;"/>
<path d="M24.1722 17.7567C37.2906 17.7567 47.9263 20.3911 47.9263 23.6397C47.9263 26.8883 37.2906 29.5227 24.1722 29.5227C11.0538 29.5227 0.418101 26.8883 0.418101 23.6397C0.418101 20.3911 11.0538 17.7567 24.1722 17.7567ZM24.1722 17.3774C17.7915 17.3774 11.7864 17.9935 7.26682 19.1127C1.25985 20.6002 0 22.3947 0 23.6379C0 24.8811 1.25985 26.6756 7.26682 28.163C11.7882 29.2822 17.7915 29.9001 24.1722 29.9001C30.5528 29.9001 36.558 29.2841 41.0794 28.163C47.0845 26.6756 48.3462 24.8811 48.3462 23.6379C48.3462 22.3947 47.0863 20.6002 41.0794 19.1127C36.558 17.9935 30.5547 17.3774 24.1722 17.3774Z" fill="black" style="fill:black;fill-opacity:1;"/>
<g opacity="0.46">
<path d="M24.1727 26.8648C36.4826 26.8648 46.4615 24.9538 46.4615 22.595C46.4615 20.2362 36.4826 18.3252 24.1727 18.3252C11.8627 18.3252 1.88379 20.2362 1.88379 22.595C1.88379 24.9538 11.8627 26.8648 24.1727 26.8648Z" fill="black" style="fill:black;fill-opacity:1;"/>
</g>
<path d="M0.432684 23.8264C0.323533 23.8264 0.231033 23.7506 0.223633 23.6507V11.8735C0.223633 11.8513 0.227333 11.8273 0.236583 11.8069C1.27814 9.26318 5.8976 8.68968 6.0937 8.66748H6.12145C6.1714 8.66748 6.22135 8.68413 6.2602 8.71558C6.30645 8.75073 6.3305 8.80253 6.3305 8.85803V20.5889C6.3305 20.6833 6.2528 20.7628 6.15105 20.7776C0.906284 21.4418 0.654684 23.3676 0.641734 23.6007V23.6433C0.641734 23.745 0.552933 23.8264 0.440083 23.832H0.430833L0.432684 23.8264Z" fill="#1D1E1E" style="fill:#1D1E1E;fill:color(display-p3 0.1137 0.1176 0.1176);fill-opacity:1;"/>
<path d="M6.12162 8.85669V20.5876C0.749204 21.2665 0.447653 23.2664 0.432853 23.5957V11.8759C1.44111 9.40984 6.12162 8.85669 6.12162 8.85669ZM6.12162 8.47559C6.10312 8.47559 6.08647 8.47559 6.06797 8.47929C5.86632 8.50334 1.1266 9.09164 0.0425015 11.7427C0.0258515 11.7852 0.0166016 11.8296 0.0166016 11.8759V23.6678C0.0351016 23.8658 0.218252 24.0175 0.432853 24.0175H0.451353C0.675203 24.0082 0.850954 23.8454 0.850954 23.6419V23.6049C0.863904 23.3755 1.1229 21.6051 6.17712 20.965C6.38432 20.9391 6.53787 20.7781 6.53787 20.5894V8.85854C6.53787 8.74939 6.48607 8.64579 6.39542 8.57364C6.31772 8.51259 6.21967 8.47929 6.11977 8.47929H6.12162V8.47559Z" fill="black" style="fill:black;fill-opacity:1;"/>
<path d="M24.065 28.9516C20.6221 28.9516 17.2625 27.8083 14.6059 25.727C13.5088 24.8686 12.1176 24.3969 10.6857 24.3969H10.4767V24.2063C10.4767 22.3119 8.68957 20.7746 6.49177 20.7746H6.28271V8.66628H6.49177C8.68957 8.66628 10.4767 7.12523 10.4767 5.23452V5.04397H10.6857C12.1176 5.04397 13.5088 4.57222 14.6059 3.71382C17.2625 1.63441 20.6203 0.489258 24.065 0.489258C27.5097 0.489258 30.8674 1.63256 33.524 3.71382C34.6211 4.57222 36.0123 5.04397 37.4442 5.04397H37.8734V5.23452C37.8734 7.12893 39.6605 8.66628 41.8583 8.66628H42.0674V20.7764H41.8583C39.6605 20.7764 37.8734 22.3175 37.8734 24.2082V24.3987H37.4442C36.0123 24.3987 34.6211 24.8705 33.524 25.7289C30.8656 27.8083 27.5078 28.9534 24.065 28.9534V28.9516Z" fill="#A0A0A0" style="fill:#A0A0A0;fill:color(display-p3 0.6275 0.6275 0.6275);fill-opacity:1;"/>
<path d="M24.0644 0.6793C27.6035 0.6793 30.8503 1.8707 33.3885 3.85761C34.504 4.73081 35.9396 5.23401 37.4474 5.23401H37.6675C37.6675 7.23387 39.5453 8.85632 41.8615 8.85632V20.5872C39.5453 20.5872 37.6675 22.2097 37.6675 24.2095H37.4474C35.9433 24.2095 34.5077 24.7146 33.3885 25.5859C30.8503 27.571 27.6035 28.7642 24.0644 28.7642C20.5254 28.7642 17.2786 27.5728 14.7404 25.5859C13.6249 24.7127 12.1893 24.2095 10.6815 24.2095C10.6815 22.2097 8.80375 20.5872 6.48754 20.5872V8.85632C8.80375 8.85632 10.6815 7.23387 10.6815 5.23401C12.1856 5.23401 13.6212 4.72896 14.7404 3.85761C17.2786 1.87255 20.5254 0.6793 24.0644 0.6793ZM24.0644 0.300049C20.5716 0.300049 17.1621 1.46185 14.4666 3.56901C13.4084 4.39596 12.0635 4.85291 10.6834 4.85291H10.2653V5.23216C10.2653 7.01927 8.5725 8.47522 6.48939 8.47522H6.07129V20.9646H6.48939C8.5725 20.9646 10.2653 22.4206 10.2653 24.2077V24.5869H10.6834C12.0653 24.5869 13.4084 25.042 14.4666 25.8708C17.1621 27.9798 20.5716 29.1398 24.0644 29.1398C27.5573 29.1398 30.9668 27.978 33.6623 25.8708C34.7205 25.0439 36.0654 24.5869 37.4455 24.5869H38.0838V24.2077C38.0838 22.4206 39.7765 20.9646 41.8596 20.9646H42.2778V8.47522H41.8596C39.7765 8.47522 38.0838 7.01927 38.0838 5.23216V4.85291H37.4455C36.0636 4.85291 34.7205 4.39781 33.6623 3.56901C30.965 1.46 27.5573 0.300049 24.0644 0.300049Z" fill="black" style="fill:black;fill-opacity:1;"/>
<path d="M24.0667 26.2945C31.1171 26.2945 36.8336 21.1127 36.8336 14.719C36.8336 8.32542 31.1171 3.14355 24.0667 3.14355C17.0163 3.14355 11.2998 8.32542 11.2998 14.719C11.2998 21.1127 17.0163 26.2945 24.0667 26.2945Z" fill="#D6CA85" style="fill:#D6CA85;fill:color(display-p3 0.8392 0.7922 0.5216);fill-opacity:1;"/>
<path d="M36.5398 5.81149L37.3945 5.23059C35.909 5.21949 34.49 4.71814 33.3874 3.85419C33.0969 3.62664 32.7954 3.41018 32.4864 3.20483L21.5474 28.5536C22.3651 28.6887 23.2068 28.7608 24.0652 28.7608C27.6043 28.7608 30.851 27.5694 33.3892 25.5825C34.5048 24.7093 35.9404 24.2061 37.4482 24.2061H37.6683L36.5435 23.2478V5.81149H36.5417H36.5398Z" fill="#565656" style="fill:#565656;fill:color(display-p3 0.3373 0.3373 0.3373);fill-opacity:1;"/>
<path d="M24.0431 27.2435C20.9739 27.2435 17.9824 26.2223 15.6107 24.3686C14.5803 23.5639 13.289 23.1032 11.9496 23.0607C11.8404 21.268 10.1736 19.825 8.10156 19.7325V9.32254C10.1736 9.23189 11.8423 7.78889 11.9496 5.99438C13.289 5.95183 14.5821 5.49118 15.6107 4.68643C17.9806 2.83273 20.9739 1.81152 24.0431 1.81152C27.1122 1.81152 30.1037 2.83273 32.4735 4.68643C33.5539 5.53003 34.9266 5.99808 36.3364 5.99808C36.4474 7.79074 38.1124 9.23189 40.1844 9.32254V19.7325C38.1124 19.8232 36.4455 21.2643 36.3364 23.057C34.9266 23.057 33.5521 23.5232 32.4735 24.3686C30.1037 26.2223 27.1104 27.2435 24.0431 27.2435Z" fill="#999999" style="fill:#999999;fill:color(display-p3 0.6000 0.6000 0.6000);fill-opacity:1;"/>
<path d="M24.0426 2.00781C27.06 2.00781 30.0052 3.01236 32.3362 4.83462C33.4055 5.67082 34.7486 6.14812 36.1435 6.18882C36.3489 7.93893 37.9584 9.33198 39.9749 9.50218V19.557C37.9565 19.7272 36.347 21.1221 36.1435 22.8703C34.7523 22.9129 33.4055 23.3883 32.3362 24.2245C30.0052 26.0486 27.06 27.0513 24.0426 27.0513C21.0253 27.0513 18.0801 26.0468 15.7491 24.2245C14.7316 23.429 13.4662 22.9591 12.1453 22.8796C11.9473 21.1258 10.3322 19.7272 8.31389 19.557V9.50218C10.3359 9.33198 11.9473 7.93338 12.1453 6.17957C13.4662 6.10002 14.7316 5.63012 15.7491 4.83462C18.0801 3.01051 21.0253 2.00781 24.0426 2.00781ZM24.0426 1.62671C20.7903 1.62671 17.8081 2.72191 15.4734 4.54602C14.4485 5.34892 13.1276 5.81142 11.7457 5.81142C11.7457 7.65032 10.0214 9.13958 7.89209 9.13958V19.9196C10.0214 19.9196 11.7457 21.4088 11.7457 23.2477C13.1295 23.2477 14.4504 23.7102 15.4734 24.5131C17.8063 26.3391 20.7903 27.4324 24.0426 27.4324C27.2949 27.4324 30.2771 26.3372 32.61 24.5131C33.6349 23.7102 34.9558 23.2477 36.3378 23.2477H36.5394C36.5394 21.4088 38.2636 19.9196 40.393 19.9196V9.13958C38.2636 9.13958 36.5394 7.65032 36.5394 5.81142H36.3378C34.954 5.81142 33.6331 5.34892 32.61 4.54602C30.2771 2.72006 27.2949 1.62671 24.0426 1.62671Z" fill="#C4C4C4" style="fill:#C4C4C4;fill:color(display-p3 0.7686 0.7686 0.7686);fill-opacity:1;"/>
<path d="M24.0426 1.62671C20.7903 1.62671 17.8081 2.72191 15.4734 4.54787C14.4485 5.35077 13.1276 5.81327 11.7457 5.81327C11.7457 7.65218 10.0214 9.14143 7.89209 9.14143V19.9214C10.0214 19.9214 11.7457 21.4107 11.7457 23.2496C13.1295 23.2496 14.4504 23.7121 15.4734 24.515C15.6677 24.6667 15.8693 24.811 16.0728 24.9534L26.4939 1.83946C25.6984 1.70071 24.8807 1.62671 24.0408 1.62671H24.0426Z" fill="#C4C4C4" style="fill:#C4C4C4;fill:color(display-p3 0.7686 0.7686 0.7686);fill-opacity:1;"/>
<path d="M41.8584 20.5859L40.395 19.9199V9.14173L41.8584 8.85498V20.5859Z" fill="#565656" style="fill:#565656;fill:color(display-p3 0.3373 0.3373 0.3373);fill-opacity:1;"/>
<path d="M6.48779 8.85498L7.89195 9.14173V19.9199L6.48779 20.5859V8.85498Z" fill="#898989" style="fill:#898989;fill:color(display-p3 0.5373 0.5373 0.5373);fill-opacity:1;"/>
<path d="M47.9579 23.8266C47.8451 23.8229 47.7563 23.7397 47.7563 23.6379V23.5953C47.7452 23.3622 47.4954 21.4364 42.2488 20.7722C42.1452 20.7593 42.0693 20.6797 42.0693 20.5835V8.85266C42.0693 8.79716 42.0952 8.74721 42.1396 8.71021C42.1766 8.68061 42.2284 8.66211 42.2784 8.66211H42.3061C42.5022 8.68431 47.1217 9.25781 48.1651 11.8016C48.1725 11.8219 48.1781 11.846 48.1781 11.8682V23.6453C48.1688 23.7433 48.0782 23.821 47.969 23.821H47.9616L47.9579 23.8266Z" fill="#1D1E1E" style="fill:#1D1E1E;fill:color(display-p3 0.1137 0.1176 0.1176);fill-opacity:1;"/>
<path d="M42.2765 8.85669C42.2765 8.85669 46.9552 9.40799 47.9653 11.8759V23.5957C47.9523 23.2682 47.6489 21.2684 42.2765 20.5876V8.85669ZM42.2765 8.47559C42.1766 8.47559 42.0785 8.50704 42.0008 8.56994C41.9102 8.64209 41.8584 8.74569 41.8584 8.85484V20.5857C41.8584 20.7763 42.0138 20.9354 42.2191 20.9613C47.2734 21.6014 47.5342 23.3718 47.5453 23.6012V23.6401C47.5453 23.8436 47.7211 24.0064 47.9449 24.0156H47.9634C48.1799 24.0156 48.3612 23.8621 48.3797 23.666C48.3797 23.666 48.3815 23.6401 48.3797 23.5883V11.8759C48.3797 11.8296 48.3704 11.7871 48.3538 11.7427C47.2697 9.09164 42.5299 8.50334 42.3283 8.47929C42.3098 8.47744 42.2931 8.47559 42.2746 8.47559H42.2765Z" fill="black" style="fill:black;fill-opacity:1;"/>
<g opacity="0.6">
<mask id="mask0_2458_19403" style="mask-type:luminance" maskUnits="userSpaceOnUse" x="8" y="1" width="33" height="27">
<path d="M24.0738 27.2514C21.0047 27.2514 18.0132 26.2301 15.6415 24.3764C14.611 23.5717 13.3197 23.111 11.9803 23.0685C11.8712 21.2758 10.2043 19.8328 8.13232 19.7403V9.33036C10.2043 9.23971 11.873 7.7967 11.9803 6.0022C13.3197 5.95965 14.6129 5.499 15.6415 4.69424C18.0114 2.84054 21.0047 1.81934 24.0738 1.81934C27.143 1.81934 30.1344 2.84054 32.5043 4.69424C33.5847 5.53785 34.9574 6.0059 36.3671 6.0059C36.4781 7.79855 38.1431 9.23971 40.2151 9.33036V19.7403C38.1431 19.831 36.4763 21.2721 36.3671 23.0648C34.9574 23.0648 33.5829 23.531 32.5043 24.3764C30.1344 26.2301 27.1411 27.2514 24.0738 27.2514Z" fill="white" style="fill:white;fill-opacity:1;"/>
</mask>
<g mask="url(#mask0_2458_19403)">
<path d="M23.6388 -7.25293L5.48653 23.8734L5.45508 25.3775L28.9835 -7.14193L23.6388 -7.25293Z" fill="#FF0080" style="fill:#FF0080;fill:color(display-p3 1.0000 0.0000 0.5020);fill-opacity:1;"/>
<path d="M5.60834 18.0438L17.4243 -0.706055L5.55469 20.5838L5.60834 18.0438Z" fill="#F4FA23" style="fill:#F4FA23;fill:color(display-p3 0.9569 0.9804 0.1373);fill-opacity:1;"/>
<path d="M5.7251 12.4978L5.8028 8.87917L11.2936 -1.68066L15.6004 -0.744561L5.7251 12.4978Z" fill="#FF0080" style="fill:#FF0080;fill:color(display-p3 1.0000 0.0000 0.5020);fill-opacity:1;"/>
<path d="M28.4245 32.7104L42.4068 8.73623L42.4309 7.57812L24.3101 32.6235L28.4245 32.7104Z" fill="#FF0080" style="fill:#FF0080;fill:color(display-p3 1.0000 0.0000 0.5020);fill-opacity:1;"/>
<path d="M42.3106 13.2262L33.2104 27.6673L42.3532 11.2708L42.3106 13.2262Z" fill="#F4FA23" style="fill:#F4FA23;fill:color(display-p3 0.9569 0.9804 0.1373);fill-opacity:1;"/>
<path d="M42.2216 17.498L42.1624 20.286L37.9333 28.4186L34.6162 27.6971L42.2216 17.498Z" fill="#FF0080" style="fill:#FF0080;fill:color(display-p3 1.0000 0.0000 0.5020);fill-opacity:1;"/>
<path d="M41.9347 31.1101L31.2769 27.9521L35.1859 26.4407L34.7327 27.3379L32.7291 27.8023L41.9662 29.5894L41.9347 31.1101Z" fill="#F4FA23" style="fill:#F4FA23;fill:color(display-p3 0.9569 0.9804 0.1373);fill-opacity:1;"/>
<path d="M41.9947 28.3241L39.2622 27.2511L42.0465 25.8247L41.9262 26.2928L40.461 27.042L42.0076 27.708L41.9947 28.3241Z" fill="#F4FA23" style="fill:#F4FA23;fill:color(display-p3 0.9569 0.9804 0.1373);fill-opacity:1;"/>
</g>
</g>
<path d="M24.0108 27.255C20.9417 27.255 17.9502 26.2338 15.5785 24.3801C14.5481 23.5754 13.2568 23.1147 11.9173 23.0721C11.8082 21.2795 10.1413 19.8365 8.06934 19.744V9.33402C10.1413 9.24337 11.81 7.80036 11.9173 6.00586C13.2568 5.96331 14.5499 5.50266 15.5785 4.69791C17.9484 2.8442 20.9417 1.823 24.0108 1.823C27.08 1.823 30.0715 2.8442 32.4413 4.69791C33.5217 5.54151 34.8944 6.00956 36.3041 6.00956C36.4151 7.80221 38.0801 9.24337 40.1521 9.33402V19.744C38.0801 19.8346 36.4133 21.2758 36.3041 23.0685C34.8944 23.0685 33.5199 23.5347 32.4413 24.3801C30.0715 26.2338 27.0781 27.255 24.0108 27.255Z" fill="black" style="fill:black;fill-opacity:1;"/>
<g opacity="0.6">
<mask id="mask1_2458_19403" style="mask-type:luminance" maskUnits="userSpaceOnUse" x="8" y="1" width="33" height="27">
<path d="M24.0108 27.2543C20.9417 27.2543 17.9502 26.2331 15.5785 24.3794C14.5481 23.5746 13.2568 23.114 11.9173 23.0714C11.8082 21.2788 10.1413 19.8358 8.06934 19.7433V9.33328C10.1413 9.24263 11.81 7.79963 11.9173 6.00513C13.2568 5.96258 14.5499 5.50192 15.5785 4.69717C17.9484 2.84347 20.9417 1.82227 24.0108 1.82227C27.08 1.82227 30.0715 2.84347 32.4413 4.69717C33.5217 5.54077 34.8944 6.00883 36.3041 6.00883C36.4151 7.80148 38.0801 9.24263 40.1521 9.33328V19.7433C38.0801 19.8339 36.4133 21.2751 36.3041 23.0677C34.8944 23.0677 33.5199 23.5339 32.4413 24.3794C30.0715 26.2331 27.0781 27.2543 24.0108 27.2543Z" fill="white" style="fill:white;fill-opacity:1;"/>
</mask>
<g mask="url(#mask1_2458_19403)">
<path d="M23.5743 -7.25049L5.42393 23.8777L5.39062 25.3818L28.919 -7.13764L23.5743 -7.25049Z" fill="#FF0080" style="fill:#FF0080;fill:color(display-p3 1.0000 0.0000 0.5020);fill-opacity:1;"/>
<path d="M5.54633 18.048L17.3623 -0.703613L5.49268 20.5863L5.54633 18.048Z" fill="#F4FA23" style="fill:#F4FA23;fill:color(display-p3 0.9569 0.9804 0.1373);fill-opacity:1;"/>
<path d="M5.66211 12.5021L5.73796 8.88161L11.2306 -1.67822L15.5374 -0.74212L5.66211 12.5021Z" fill="#FF0080" style="fill:#FF0080;fill:color(display-p3 1.0000 0.0000 0.5020);fill-opacity:1;"/>
<path d="M28.3614 32.7136L42.3419 8.7394L42.3659 7.5813L24.2451 32.6285L28.3614 32.7136Z" fill="#FF0080" style="fill:#FF0080;fill:color(display-p3 1.0000 0.0000 0.5020);fill-opacity:1;"/>
<path d="M42.2476 13.2296L33.1475 27.6708L42.2883 11.2742L42.2476 13.2296Z" fill="#F4FA23" style="fill:#F4FA23;fill:color(display-p3 0.9569 0.9804 0.1373);fill-opacity:1;"/>
<path d="M42.1571 17.5012L42.0998 20.2892L37.8688 28.4237L34.5518 27.7003L42.1571 17.5012Z" fill="#FF0080" style="fill:#FF0080;fill:color(display-p3 1.0000 0.0000 0.5020);fill-opacity:1;"/>
<path d="M41.8727 31.1152L31.2148 27.9573L35.1221 26.4458L34.6688 27.3412L32.6671 27.8056L41.9042 29.5945L41.8727 31.1152Z" fill="#F4FA23" style="fill:#F4FA23;fill:color(display-p3 0.9569 0.9804 0.1373);fill-opacity:1;"/>
<path d="M41.9297 28.3276L39.1973 27.2564L41.9834 25.8301L41.8631 26.2981L40.3979 27.0455L41.9427 27.7115L41.9297 28.3276Z" fill="#F4FA23" style="fill:#F4FA23;fill:color(display-p3 0.9569 0.9804 0.1373);fill-opacity:1;"/>
<path d="M28.5821 21.24L42.5626 -2.73423L42.5885 -3.89233L24.4658 21.1549L28.5821 21.24Z" fill="#FF0080" style="fill:#FF0080;fill:color(display-p3 1.0000 0.0000 0.5020);fill-opacity:1;"/>
<path d="M42.4683 1.75624L33.3682 16.1992L42.5109 -0.199219L42.4683 1.75624Z" fill="#F4FA23" style="fill:#F4FA23;fill:color(display-p3 0.9569 0.9804 0.1373);fill-opacity:1;"/>
<path d="M21.4713 8.0271L7.49085 32.0013L7.4668 33.1594L25.5876 8.11405L21.4713 8.0271Z" fill="#FF0080" style="fill:#FF0080;fill:color(display-p3 1.0000 0.0000 0.5020);fill-opacity:1;"/>
<path d="M7.58513 27.5117L16.6853 13.0706L7.54443 29.4672L7.58513 27.5117Z" fill="#F4FA23" style="fill:#F4FA23;fill:color(display-p3 0.9569 0.9804 0.1373);fill-opacity:1;"/>
</g>
</g>
<g opacity="0.44">
<mask id="mask2_2458_19403" style="mask-type:luminance" maskUnits="userSpaceOnUse" x="0" y="8" width="7" height="16">
<path d="M0.70905 23.8264C0.5999 23.8264 0.5074 23.7506 0.5 23.6507V11.8735C0.5 11.8513 0.5037 11.8273 0.51295 11.8069C1.5545 9.26318 6.17397 8.68968 6.37007 8.66748H6.39782C6.44777 8.66748 6.49772 8.68413 6.53657 8.71558C6.58282 8.75073 6.60687 8.80253 6.60687 8.85803V20.5889C6.60687 20.6833 6.52917 20.7628 6.42742 20.7776C1.18265 21.4418 0.931051 23.3676 0.918101 23.6007V23.6433C0.918101 23.745 0.829301 23.8264 0.71645 23.832H0.7072L0.70905 23.8264Z" fill="white" style="fill:white;fill-opacity:1;"/>
</mask>
<g mask="url(#mask2_2458_19403)">
<path d="M2.91216 20.8012H2.00195L5.03596 15.4473H6.04422V15.7211L5.55211 15.7803L2.91216 20.8012Z" fill="#FF0080" style="fill:#FF0080;fill:color(display-p3 1.0000 0.0000 0.5020);fill-opacity:1;"/>
<path d="M4.51953 20.8012L6.22709 17.8135V19.3064L5.37238 20.8012H4.51953Z" fill="#FF0080" style="fill:#FF0080;fill:color(display-p3 1.0000 0.0000 0.5020);fill-opacity:1;"/>
<path d="M3.40674 20.8014H3.88404L6.04485 16.798V16.0469L3.40674 20.8014Z" fill="#F4FA23" style="fill:#F4FA23;fill:color(display-p3 0.9569 0.9804 0.1373);fill-opacity:1;"/>
<path d="M6.04428 15.0905L2.22217 15.2737L6.04428 14.4541V15.0905Z" fill="#FF0080" style="fill:#FF0080;fill:color(display-p3 1.0000 0.0000 0.5020);fill-opacity:1;"/>
<path d="M1.81317 15.0459L6.04414 7.42573V7.06128L0.52002 15.0459H1.81317Z" fill="#FF0080" style="fill:#FF0080;fill:color(display-p3 1.0000 0.0000 0.5020);fill-opacity:1;"/>
<path d="M6.04428 8.83539L3.28223 13.4308L6.04428 8.22119V8.83539Z" fill="#F4FA23" style="fill:#F4FA23;fill:color(display-p3 0.9569 0.9804 0.1373);fill-opacity:1;"/>
<path d="M6.04452 10.1768V11.0537L4.76986 13.6344L3.72461 13.4309L6.04452 10.1768Z" fill="#FF0080" style="fill:#FF0080;fill:color(display-p3 1.0000 0.0000 0.5020);fill-opacity:1;"/>
<path d="M6.04474 14.454L2.67773 13.5327L3.89504 13.0332L3.75814 13.3163L3.13284 13.4754L6.04474 13.9767V14.454Z" fill="#F4FA23" style="fill:#F4FA23;fill:color(display-p3 0.9569 0.9804 0.1373);fill-opacity:1;"/>
<path d="M6.04462 13.5791L5.18066 13.2609L6.04462 12.7947L6.01132 12.9408L5.55622 13.1869L6.04462 13.3848V13.5791Z" fill="#F4FA23" style="fill:#F4FA23;fill:color(display-p3 0.9569 0.9804 0.1373);fill-opacity:1;"/>
</g>
</g>
<g opacity="0.44">
<mask id="mask3_2458_19403" style="mask-type:luminance" maskUnits="userSpaceOnUse" x="41" y="8" width="7" height="16">
<path d="M47.5921 23.8266C47.4792 23.8229 47.3904 23.7415 47.3904 23.6379V23.5953C47.3775 23.3622 47.1259 21.4364 41.8811 20.7722C41.7794 20.7593 41.7017 20.6797 41.7017 20.5835V8.85266C41.7017 8.79716 41.7276 8.74721 41.772 8.71021C41.809 8.68061 41.8608 8.66211 41.9107 8.66211H41.9385C42.1346 8.68431 46.754 9.25781 47.7956 11.8016C47.8048 11.8219 47.8085 11.846 47.8085 11.8682V23.5824C47.8085 23.6249 47.8085 23.6453 47.8085 23.6453C47.7993 23.7452 47.7086 23.821 47.5995 23.821H47.5902L47.5921 23.8266Z" fill="white" style="fill:white;fill-opacity:1;"/>
</mask>
<g mask="url(#mask3_2458_19403)">
<path d="M45.3977 20.8014H46.3079L43.2757 15.4475H42.2656V15.7213L42.7596 15.7805L45.3977 20.8014Z" fill="#FF0080" style="fill:#FF0080;fill:color(display-p3 1.0000 0.0000 0.5020);fill-opacity:1;"/>
<path d="M43.7911 20.8012L42.0835 17.8135V19.3064L42.9364 20.8012H43.7911Z" fill="#FF0080" style="fill:#FF0080;fill:color(display-p3 1.0000 0.0000 0.5020);fill-opacity:1;"/>
<path d="M44.9056 20.8014H44.4283L42.2656 16.798V16.0469L44.9056 20.8014Z" fill="#F4FA23" style="fill:#F4FA23;fill:color(display-p3 0.9569 0.9804 0.1373);fill-opacity:1;"/>
<path d="M42.2656 15.0905L46.0877 15.2737L42.2656 14.4541V15.0905Z" fill="#FF0080" style="fill:#FF0080;fill:color(display-p3 1.0000 0.0000 0.5020);fill-opacity:1;"/>
<path d="M46.4984 15.0461L42.2656 7.42597V7.06152L47.7916 15.0461H46.4984Z" fill="#FF0080" style="fill:#FF0080;fill:color(display-p3 1.0000 0.0000 0.5020);fill-opacity:1;"/>
<path d="M42.2656 8.83539L45.0295 13.4308L42.2656 8.22119V8.83539Z" fill="#F4FA23" style="fill:#F4FA23;fill:color(display-p3 0.9569 0.9804 0.1373);fill-opacity:1;"/>
<path d="M42.2656 10.1768V11.0537L43.5403 13.6344L44.5874 13.4309L42.2656 10.1768Z" fill="#FF0080" style="fill:#FF0080;fill:color(display-p3 1.0000 0.0000 0.5020);fill-opacity:1;"/>
<path d="M42.2656 14.454L45.6345 13.5327L44.4172 13.0332L44.5522 13.3163L45.1794 13.4754L42.2656 13.9767V14.454Z" fill="#F4FA23" style="fill:#F4FA23;fill:color(display-p3 0.9569 0.9804 0.1373);fill-opacity:1;"/>
<path d="M42.2656 13.5793L43.1314 13.2611L42.2656 12.7949L42.3008 12.9411L42.7559 13.1871L42.2656 13.3851V13.5793Z" fill="#F4FA23" style="fill:#F4FA23;fill:color(display-p3 0.9569 0.9804 0.1373);fill-opacity:1;"/>
</g>
</g>
<path opacity="0.42" d="M1.76673 10.2031V21.7601C0.521672 22.5464 0.425472 23.4048 0.419922 23.5953V11.8422C0.669673 11.1596 1.17287 10.6231 1.76673 10.2031Z" fill="#484F51" style="fill:#484F51;fill:color(display-p3 0.2824 0.3098 0.3176);fill-opacity:1;"/>
<path opacity="0.42" d="M47.8097 11.8274V23.4695C47.8041 23.279 47.7061 22.4298 46.4629 21.651V10.2031C47.0586 10.6194 47.5599 11.1503 47.8097 11.8274Z" fill="#484F51" style="fill:#484F51;fill:color(display-p3 0.2824 0.3098 0.3176);fill-opacity:1;"/>
<path d="M28.2369 19.1241V21.8824H19.3514V19.5736C21.9858 15.2687 23.5509 12.6047 24.0467 11.5816C24.5425 10.5586 24.7904 9.76121 24.7904 9.18771C24.7904 8.74741 24.7145 8.41996 24.5647 8.20351C24.4148 7.98706 24.1854 7.87791 23.8783 7.87791C23.5712 7.87791 23.3437 7.99816 23.192 8.23866C23.0421 8.47916 22.9663 8.95461 22.9663 9.66871V11.2079H19.3477V10.6178C19.3477 9.71126 19.3939 8.99716 19.4883 8.47361C19.5808 7.95006 19.812 7.43575 20.1783 6.92885C20.5446 6.42195 21.0219 6.039 21.6084 5.78C22.1948 5.51915 22.8978 5.38965 23.7174 5.38965C25.3232 5.38965 26.5368 5.7874 27.36 6.58475C28.1833 7.38025 28.594 8.38851 28.594 9.60766C28.594 10.5345 28.3627 11.5132 27.8984 12.5455C27.434 13.5778 26.0706 15.77 23.8043 19.1222H28.2332L28.2369 19.1241Z" fill="#B7B7B7" style="fill:#B7B7B7;fill:color(display-p3 0.7176 0.7176 0.7176);fill-opacity:1;"/>
<path opacity="0.28" d="M24.0685 1.87427C20.8162 1.87427 17.834 2.96947 15.4993 4.79543C14.4744 5.59833 13.1535 6.06083 11.7715 6.06083C11.7715 7.89974 10.0473 9.38899 7.91797 9.38899V20.169C10.0473 20.169 11.7715 21.6582 11.7715 23.4971C13.1553 23.4971 14.4762 23.9596 15.4993 24.7625C15.6935 24.9142 15.8952 25.0585 16.0987 25.201L26.5198 2.08702C25.7243 1.94827 24.9066 1.87427 24.0667 1.87427H24.0685Z" fill="white" style="fill:white;fill-opacity:1;"/>
<path opacity="0.28" d="M10.1138 15.3717L8.60791 13.8307L10.6892 13.5125L11.6197 11.533L12.5503 13.5125L14.6315 13.8307L13.1256 15.3717L13.4808 17.5473L11.6197 16.5206L9.75861 17.5473L10.1138 15.3717Z" fill="white" style="fill:white;fill-opacity:1;"/>
<path d="M11.6201 11.6645L12.5155 13.5663L14.5153 13.8716L13.0686 15.3516L13.4109 17.4421L11.6219 16.456L9.83295 17.4421L10.1752 15.3516L8.7285 13.8716L10.7284 13.5663L11.6238 11.6645H11.6201ZM11.6201 11.4055L11.522 11.6127L10.6525 13.4609L8.71 13.7569L8.4917 13.7902L8.64895 13.9511L10.055 15.3904L9.7238 17.4217L9.6868 17.6493L9.8829 17.542L11.6219 16.5837L13.3609 17.542L13.557 17.6493L13.52 17.4217L13.1889 15.3904L14.5949 13.9511L14.7521 13.7902L14.5338 13.7569L12.5895 13.4609L11.72 11.6127L11.6219 11.4055H11.6201Z" fill="black" style="fill:black;fill-opacity:1;"/>
<path d="M11.62 15.9325L10.227 16.7021L10.4934 15.0741L9.3667 13.9215L10.9244 13.6847L11.6219 12.2029L12.3193 13.6847L13.877 13.9215L12.7504 15.0741L13.0168 16.7021L11.6237 15.9325H11.62Z" fill="#C9C9C9" style="fill:#C9C9C9;fill:color(display-p3 0.7882 0.7882 0.7882);fill-opacity:1;"/>
<path opacity="0.28" d="M11.6194 12.3308L12.2539 13.6813L12.2798 13.7349L12.3372 13.7442L13.758 13.9606L12.7312 15.0114L12.6905 15.054L12.6998 15.1132L12.9421 16.5969L11.6712 15.8957L11.6212 15.868L11.5713 15.8957L10.3003 16.5969L10.5427 15.1132L10.5519 15.054L10.5112 15.0114L9.48446 13.9606L10.9053 13.7442L10.9626 13.7349L10.9885 13.6813L11.6231 12.3308M11.6212 12.0718L10.8886 13.6295L9.24951 13.8792L10.4354 15.0928L10.156 16.8059L11.6212 15.9975L13.0864 16.8059L12.8071 15.0928L13.9929 13.8792L12.3538 13.6295L11.6212 12.0718Z" fill="white" style="fill:white;fill-opacity:1;"/>
<path d="M11.6196 16.4561V15.9973L13.0848 16.8058L13.4086 17.4422L11.6196 16.4561Z" fill="#565656" style="fill:#565656;fill:color(display-p3 0.3373 0.3373 0.3373);fill-opacity:1;"/>
<path d="M12.806 15.0928L13.0669 15.3518L14.5136 13.8718L13.9901 13.8811L12.8042 15.0947L12.806 15.0928Z" fill="#565656" style="fill:#565656;fill:color(display-p3 0.3373 0.3373 0.3373);fill-opacity:1;"/>
<path d="M12.3522 13.6295L11.6196 12.0718V11.6648L12.515 13.5666L12.3541 13.6295H12.3522Z" fill="#565656" style="fill:#565656;fill:color(display-p3 0.3373 0.3373 0.3373);fill-opacity:1;"/>
<path d="M10.1548 16.8056L9.83105 17.442L10.1733 15.3515L10.4342 15.0925L10.1548 16.8056Z" fill="#C4C4C4" style="fill:#C4C4C4;fill:color(display-p3 0.7686 0.7686 0.7686);fill-opacity:1;"/>
<path d="M9.24767 13.8809L8.72412 13.8717L10.724 13.5664L10.8849 13.6293L9.24582 13.8791L9.24767 13.8809Z" fill="#C4C4C4" style="fill:#C4C4C4;fill:color(display-p3 0.7686 0.7686 0.7686);fill-opacity:1;"/>
<path d="M11.62 15.9972L13.0852 16.8056L12.8058 15.0925L13.9917 13.8789L12.643 13.6736C12.101 14.6393 11.4035 15.6808 10.5396 16.591L11.6181 15.9953L11.62 15.9972Z" fill="#A0A0A0" style="fill:#A0A0A0;fill:color(display-p3 0.6275 0.6275 0.6275);fill-opacity:1;"/>
<path opacity="0.28" d="M35.3296 15.3717L33.8237 13.8307L35.905 13.5125L36.8355 11.533L37.7661 13.5125L39.8473 13.8307L38.3414 15.3717L38.6966 17.5473L36.8355 16.5206L34.9744 17.5473L35.3296 15.3717Z" fill="white" style="fill:white;fill-opacity:1;"/>
<path d="M36.8349 11.6645L37.7303 13.5663L39.7302 13.8716L38.2835 15.3516L38.6257 17.4421L36.8368 16.456L35.0478 17.4421L35.39 15.3516L33.9433 13.8716L35.9432 13.5663L36.8386 11.6645H36.8349ZM36.8349 11.4055L36.7369 11.6127L35.8673 13.4609L33.9248 13.7569L33.7065 13.7902L33.8638 13.9511L35.2698 15.3904L34.9386 17.4217L34.9016 17.6493L35.0977 17.542L36.8368 16.5837L38.5758 17.542L38.7719 17.6493L38.7349 17.4217L38.4037 15.3904L39.8097 13.9511L39.967 13.7902L39.7487 13.7569L37.8043 13.4609L36.9348 11.6127L36.8368 11.4055H36.8349Z" fill="black" style="fill:black;fill-opacity:1;"/>
<path d="M36.8349 15.9325L35.4418 16.7021L35.7082 15.0741L34.5815 13.9215L36.1392 13.6847L36.8367 12.2029L37.5342 13.6847L39.0919 13.9215L37.9652 15.0741L38.2316 16.7021L36.8385 15.9325H36.8349Z" fill="#C9C9C9" style="fill:#C9C9C9;fill:color(display-p3 0.7882 0.7882 0.7882);fill-opacity:1;"/>
<path opacity="0.28" d="M36.8351 12.331L37.4696 13.6815L37.4955 13.7352L37.5529 13.7444L38.9737 13.9609L37.9469 15.0117L37.9062 15.0542L37.9155 15.1134L38.1578 16.5971L36.8869 15.896L36.8369 15.8682L36.787 15.896L35.516 16.5971L35.7584 15.1134L35.7676 15.0542L35.7269 15.0117L34.7002 13.9609L36.121 13.7444L36.1783 13.7352L36.2042 13.6815L36.8388 12.331M36.8351 12.072L36.1025 13.6297L34.4634 13.8795L35.6492 15.0931L35.3699 16.8062L36.8351 15.9977L38.3003 16.8062L38.0209 15.0931L39.2068 13.8795L37.5677 13.6297L36.8351 12.072Z" fill="white" style="fill:white;fill-opacity:1;"/>
<path d="M36.8335 16.4561V15.9973L38.2987 16.8058L38.6225 17.4422L36.8335 16.4561Z" fill="#565656" style="fill:#565656;fill:color(display-p3 0.3373 0.3373 0.3373);fill-opacity:1;"/>
<path d="M38.0209 15.0928L38.2817 15.3518L39.7284 13.8718L39.2049 13.8811L38.019 15.0947L38.0209 15.0928Z" fill="#565656" style="fill:#565656;fill:color(display-p3 0.3373 0.3373 0.3373);fill-opacity:1;"/>
<path d="M37.568 13.6295L36.8354 12.0718V11.6648L37.7308 13.5666L37.5699 13.6295H37.568Z" fill="#565656" style="fill:#565656;fill:color(display-p3 0.3373 0.3373 0.3373);fill-opacity:1;"/>
<path d="M35.3682 16.8056L35.0444 17.442L35.3867 15.3515L35.6475 15.0925L35.3682 16.8056Z" fill="#C4C4C4" style="fill:#C4C4C4;fill:color(display-p3 0.7686 0.7686 0.7686);fill-opacity:1;"/>
<path d="M34.4635 13.8809L33.9399 13.8717L35.9398 13.5664L36.1007 13.6293L34.4616 13.8791L34.4635 13.8809Z" fill="#C4C4C4" style="fill:#C4C4C4;fill:color(display-p3 0.7686 0.7686 0.7686);fill-opacity:1;"/>
<path d="M36.8353 15.9972L38.3005 16.8056L38.0211 15.0925L39.207 13.8789L37.8583 13.6736C37.3163 14.6393 36.6188 15.6808 35.7549 16.591L36.8334 15.9953L36.8353 15.9972Z" fill="#A0A0A0" style="fill:#A0A0A0;fill:color(display-p3 0.6275 0.6275 0.6275);fill-opacity:1;"/>
</svg>
