<svg width="49" height="30" viewBox="0 0 49 30" fill="none" xmlns="http://www.w3.org/2000/svg">
<path d="M24.1733 29.7112C37.4082 29.7112 48.1362 26.9936 48.1362 23.6395C48.1362 20.2855 37.4082 17.5679 24.1733 17.5679C10.9385 17.5679 0.210449 20.2855 0.210449 23.6395C0.210449 26.9936 10.9385 29.7112 24.1733 29.7112Z" fill="#1B1E1E" style="fill:#1B1E1E;fill:color(display-p3 0.1059 0.1176 0.1176);fill-opacity:1;"/>
<path d="M24.1719 17.7567C37.2902 17.7567 47.9258 20.3911 47.9258 23.6396C47.9258 26.8882 37.2902 29.5226 24.1719 29.5226C11.0537 29.5226 0.418097 26.8882 0.418097 23.6396C0.418097 20.3911 11.0537 17.7567 24.1719 17.7567ZM24.1719 17.3774C17.7913 17.3774 11.7863 17.9935 7.26675 19.1127C1.25984 20.6001 0 22.3946 0 23.6378C0 24.881 1.25984 26.6755 7.26675 28.1629C11.7881 29.2821 17.7913 29.9 24.1719 29.9C30.5525 29.9 36.5576 29.284 41.079 28.1629C47.084 26.6755 48.3457 24.881 48.3457 23.6378C48.3457 22.3946 47.0859 20.6001 41.079 19.1127C36.5576 17.9935 30.5544 17.3774 24.1719 17.3774Z" fill="black" style="fill:black;fill-opacity:1;"/>
<g opacity="0.46">
<path d="M24.171 26.864C36.4808 26.864 46.4596 24.953 46.4596 22.5942C46.4596 20.2355 36.4808 18.3245 24.171 18.3245C11.8612 18.3245 1.88232 20.2355 1.88232 22.5942C1.88232 24.953 11.8612 26.864 24.171 26.864Z" fill="black" style="fill:black;fill-opacity:1;"/>
</g>
<path d="M0.43024 23.8282C0.321091 23.8282 0.228591 23.7524 0.221191 23.6525V11.8755C0.221191 11.8533 0.224891 11.8292 0.234141 11.8089C1.27568 9.26513 5.8951 8.69163 6.0912 8.66943H6.11895C6.1689 8.66943 6.21885 8.68608 6.2577 8.71753C6.30395 8.75268 6.328 8.80448 6.328 8.85998V20.5908C6.328 20.6851 6.2503 20.7647 6.14855 20.7795C0.903836 21.4436 0.652238 23.3694 0.639288 23.6025V23.6451C0.639288 23.7468 0.550489 23.8282 0.43764 23.8338H0.42839L0.43024 23.8282Z" fill="#1D1E1E" style="fill:#1D1E1E;fill:color(display-p3 0.1137 0.1176 0.1176);fill-opacity:1;"/>
<path d="M6.12156 8.85605V20.5868C0.749196 21.2658 0.447649 23.2656 0.432849 23.5949V11.8752C1.44109 9.4092 6.12156 8.85605 6.12156 8.85605ZM6.12156 8.47681C6.10306 8.47681 6.08641 8.47681 6.06791 8.48051C5.86626 8.50456 1.12659 9.09285 0.0425013 11.7439C0.0258514 11.7864 0.0166016 11.8308 0.0166016 11.8771V23.6689C0.0351014 23.8669 0.21825 24.0186 0.432849 24.0186H0.451348C0.675197 24.0093 0.850946 23.8465 0.850946 23.643V23.606C0.863895 23.3766 1.12289 21.6062 6.17706 20.9661C6.38426 20.9402 6.53781 20.7792 6.53781 20.5905V8.85975C6.53781 8.75061 6.48601 8.64701 6.39536 8.57486C6.31766 8.51381 6.21961 8.48051 6.11971 8.48051H6.12156V8.47681Z" fill="black" style="fill:black;fill-opacity:1;"/>
<path d="M24.0648 28.9529C20.622 28.9529 17.2624 27.8096 14.6058 25.7284C13.5088 24.87 12.1176 24.3983 10.6857 24.3983H10.4766V24.2077C10.4766 22.3133 8.68955 20.776 6.49176 20.776H6.28271V8.66596H6.49176C8.68955 8.66596 10.4766 7.12492 10.4766 5.23423V5.04368H10.6857C12.1176 5.04368 13.5088 4.57194 14.6058 3.71354C17.2624 1.63416 20.6201 0.489014 24.0648 0.489014C27.5095 0.489014 30.8672 1.63231 33.5238 3.71354C34.6208 4.57194 36.012 5.04368 37.4439 5.04368H37.8731V5.23423C37.8731 7.12862 39.6602 8.66596 41.858 8.66596H42.067V20.776H41.858C39.6602 20.776 37.8731 22.317 37.8731 24.2077V24.3983H37.4439C36.012 24.3983 34.6208 24.87 33.5238 25.7284C30.8653 27.8078 27.5076 28.9529 24.0648 28.9529Z" fill="#9E7852" style="fill:#9E7852;fill:color(display-p3 0.6196 0.4706 0.3216);fill-opacity:1;"/>
<path d="M24.0643 0.679296C27.6033 0.679296 30.85 1.87069 33.3882 3.85757C34.5037 4.73077 35.9393 5.23397 37.4471 5.23397H37.6672C37.6672 7.2338 39.545 8.85624 41.8611 8.85624V20.587C39.545 20.587 37.6672 22.2095 37.6672 24.2093H37.4471C35.943 24.2093 34.5075 24.7143 33.3882 25.5857C30.85 27.5707 27.6033 28.764 24.0643 28.764C20.5252 28.764 17.2785 27.5726 14.7403 25.5857C13.6248 24.7125 12.1892 24.2093 10.6815 24.2093C10.6815 22.2095 8.80372 20.587 6.48754 20.587V8.85624C8.80372 8.85624 10.6815 7.2338 10.6815 5.23397C12.1855 5.23397 13.6211 4.72892 14.7403 3.85757C17.2785 1.87254 20.5252 0.679296 24.0643 0.679296ZM24.0643 0.300049C20.5715 0.300049 17.162 1.46184 14.4665 3.56898C13.4083 4.39592 12.0634 4.85287 10.6833 4.85287H10.2652V5.23212C10.2652 7.0192 8.57247 8.47514 6.48939 8.47514H6.07129V20.9644H6.48939C8.57247 20.9644 10.2652 22.4203 10.2652 24.2074V24.5867H10.6833C12.0652 24.5867 13.4083 25.0418 14.4665 25.8706C17.162 27.9796 20.5715 29.1395 24.0643 29.1395C27.557 29.1395 30.9666 27.9777 33.662 25.8706C34.7202 25.0436 36.0651 24.5867 37.4452 24.5867H38.0835V24.2074C38.0835 22.4203 39.7762 20.9644 41.8593 20.9644H42.2774V8.47699H41.8593C39.7762 8.47699 38.0835 7.02105 38.0835 5.23397V4.85472H37.4452C36.0633 4.85472 34.7202 4.39962 33.662 3.57083C30.9647 1.46184 27.557 0.301899 24.0643 0.301899V0.300049Z" fill="black" style="fill:black;fill-opacity:1;"/>
<path d="M24.0671 26.2958C31.1174 26.2958 36.8338 21.1139 36.8338 14.7204C36.8338 8.32683 31.1174 3.14502 24.0671 3.14502C17.0168 3.14502 11.3003 8.32683 11.3003 14.7204C11.3003 21.1139 17.0168 26.2958 24.0671 26.2958Z" fill="#D6CA85" style="fill:#D6CA85;fill:color(display-p3 0.8392 0.7922 0.5216);fill-opacity:1;"/>
<path d="M36.5392 5.81342L37.3939 5.23252C35.9083 5.22142 34.4894 4.72008 33.3868 3.85613C33.0963 3.62858 32.7948 3.41214 32.4859 3.20679L21.5469 28.5553C22.3646 28.6904 23.2063 28.7625 24.0647 28.7625C27.6037 28.7625 30.8505 27.5711 33.3886 25.5842C34.5042 24.711 35.9398 24.2078 37.4475 24.2078H37.6677L36.5429 23.2496V5.81342H36.541H36.5392Z" fill="#6D4424" style="fill:#6D4424;fill:color(display-p3 0.4275 0.2667 0.1412);fill-opacity:1;"/>
<path d="M24.0424 27.245C20.9733 27.245 17.9819 26.2238 15.6102 24.3701C14.5797 23.5654 13.2884 23.1047 11.949 23.0622C11.8399 21.2696 10.1731 19.8266 8.10107 19.7341V9.32418C10.1731 9.23353 11.8417 7.79054 11.949 5.99605C13.2884 5.9535 14.5816 5.49286 15.6102 4.68811C17.98 2.83443 20.9733 1.81323 24.0424 1.81323C27.1115 1.81323 30.103 2.83443 32.4728 4.68811C33.5532 5.53171 34.9259 5.99975 36.3356 5.99975C36.4466 7.79239 38.1116 9.23353 40.1836 9.32418V19.7341C38.1116 19.8247 36.4447 21.2659 36.3356 23.0585C34.9259 23.0585 33.5513 23.5247 32.4728 24.3701C30.103 26.2238 27.1097 27.245 24.0424 27.245Z" fill="#A36934" style="fill:#A36934;fill:color(display-p3 0.6392 0.4118 0.2039);fill-opacity:1;"/>
<path d="M24.0425 2.00742C27.0598 2.00742 30.005 3.01196 32.336 4.8342C33.4053 5.6704 34.7484 6.14769 36.1432 6.18839C36.3486 7.93848 37.9581 9.33152 39.9746 9.50172V19.5564C37.9562 19.7266 36.3467 21.1215 36.1432 22.8697C34.7521 22.9123 33.4053 23.3877 32.336 24.2239C30.005 26.048 27.0598 27.0507 24.0425 27.0507C21.0252 27.0507 18.08 26.0462 15.749 24.2239C14.7315 23.4284 13.4661 22.9585 12.1452 22.879C11.9473 21.1252 10.3322 19.7266 8.31389 19.5564V9.50172C10.3359 9.33152 11.9473 7.93293 12.1452 6.17914C13.4661 6.09959 14.7315 5.6297 15.749 4.8342C18.08 3.01011 21.0252 2.00742 24.0425 2.00742ZM24.0425 1.62817C20.7902 1.62817 17.808 2.72337 15.4733 4.54745C14.4484 5.35035 13.1276 5.81285 11.7456 5.81285C11.7456 7.65173 10.0214 9.14097 7.89209 9.14097V19.9209C10.0214 19.9209 11.7456 21.4101 11.7456 23.249C13.1294 23.249 14.4503 23.7115 15.4733 24.5144C17.8062 26.3403 20.7902 27.4337 24.0425 27.4337C27.2948 27.4337 30.2769 26.3385 32.6098 24.5144C33.6347 23.7115 34.9556 23.249 36.3375 23.249H36.5391C36.5391 21.4101 38.2633 19.9209 40.3927 19.9209V9.14097C38.2633 9.14097 36.5391 7.65173 36.5391 5.81285H36.3375C34.9537 5.81285 33.6328 5.35035 32.6098 4.54745C30.2769 2.72152 27.2948 1.62817 24.0425 1.62817Z" fill="#D3AB84" style="fill:#D3AB84;fill:color(display-p3 0.8275 0.6706 0.5176);fill-opacity:1;"/>
<path d="M24.0425 1.62817C20.7902 1.62817 17.808 2.72337 15.4733 4.5493C14.4484 5.3522 13.1276 5.81469 11.7456 5.81469C11.7456 7.65358 10.0214 9.14282 7.89209 9.14282V19.9227C10.0214 19.9227 11.7456 21.4119 11.7456 23.2508C13.1294 23.2508 14.4503 23.7133 15.4733 24.5162C15.6676 24.6679 15.8692 24.8122 16.0727 24.9547L26.4937 1.84092C25.6982 1.70217 24.8805 1.62817 24.0406 1.62817H24.0425Z" fill="#D3AB84" style="fill:#D3AB84;fill:color(display-p3 0.8275 0.6706 0.5176);fill-opacity:1;"/>
<path d="M41.8574 20.587L40.394 19.921V9.14295L41.8574 8.8562V20.587Z" fill="#6D4424" style="fill:#6D4424;fill:color(display-p3 0.4275 0.2667 0.1412);fill-opacity:1;"/>
<path d="M6.48779 8.8562L7.89193 9.14295V19.921L6.48779 20.587V8.8562Z" fill="#84532A" style="fill:#84532A;fill:color(display-p3 0.5176 0.3255 0.1647);fill-opacity:1;"/>
<path d="M47.9569 23.8282C47.844 23.8245 47.7552 23.7412 47.7552 23.6395V23.5969C47.7441 23.3638 47.4944 21.438 42.2478 20.7738C42.1442 20.7609 42.0684 20.6813 42.0684 20.5851V8.85437C42.0684 8.79887 42.0943 8.74892 42.1387 8.71192C42.1757 8.68232 42.2275 8.66382 42.2774 8.66382H42.3052C42.5013 8.68602 47.1207 9.25951 48.1641 11.8032C48.1715 11.8236 48.177 11.8476 48.177 11.8698V23.6469C48.1678 23.7449 48.0771 23.8226 47.968 23.8226H47.9606L47.9569 23.8282Z" fill="#1D1E1E" style="fill:#1D1E1E;fill:color(display-p3 0.1137 0.1176 0.1176);fill-opacity:1;"/>
<path d="M42.2755 8.85605C42.2755 8.85605 46.9541 9.40735 47.9642 11.8752V23.5949C47.9513 23.2675 47.6479 21.2676 42.2755 20.5868V8.85605ZM42.2755 8.47681C42.1756 8.47681 42.0776 8.50826 41.9999 8.57116C41.9092 8.64331 41.8574 8.74691 41.8574 8.85605V20.5868C41.8574 20.7774 42.0128 20.9365 42.2182 20.9624C47.2723 21.6025 47.5332 23.3729 47.5443 23.6023V23.6412C47.5443 23.8447 47.72 24.0074 47.9439 24.0167H47.9624C48.1788 24.0167 48.3601 23.8632 48.3786 23.6671C48.3786 23.6671 48.3805 23.6412 48.3786 23.5894V11.8771C48.3786 11.8308 48.3694 11.7883 48.3527 11.7439C47.2686 9.09285 42.529 8.50456 42.3273 8.48051C42.3088 8.47866 42.2922 8.47681 42.2737 8.47681H42.2755Z" fill="black" style="fill:black;fill-opacity:1;"/>
<path d="M24.0253 27.2467C20.9562 27.2467 17.9648 26.2255 15.5931 24.3718C14.5626 23.5671 13.2713 23.1064 11.932 23.0639C11.8228 21.2713 10.156 19.8283 8.08398 19.7358V9.32589C10.156 9.23524 11.8247 7.79225 11.932 5.99776C13.2713 5.95521 14.5645 5.49457 15.5931 4.68982C17.9629 2.83613 20.9562 1.81494 24.0253 1.81494C27.0945 1.81494 30.0859 2.83613 32.4557 4.68982C33.5361 5.53342 34.9088 6.00146 36.3185 6.00146C36.4295 7.7941 38.0945 9.23524 40.1665 9.32589V19.7358C38.0945 19.8264 36.4276 21.2676 36.3185 23.0602C34.9088 23.0602 33.5343 23.5264 32.4557 24.3718C30.0859 26.2255 27.0926 27.2467 24.0253 27.2467Z" fill="black" style="fill:black;fill-opacity:1;"/>
<g opacity="0.6">
<mask id="mask0_2458_19546" style="mask-type:luminance" maskUnits="userSpaceOnUse" x="8" y="1" width="33" height="27">
<path d="M24.0253 27.2479C20.9562 27.2479 17.9648 26.2267 15.5931 24.3731C14.5626 23.5683 13.2713 23.1077 11.932 23.0651C11.8228 21.2725 10.156 19.8295 8.08398 19.737V9.32711C10.156 9.23646 11.8247 7.79347 11.932 5.99898C13.2713 5.95643 14.5645 5.49579 15.5931 4.69104C17.9629 2.83736 20.9562 1.81616 24.0253 1.81616C27.0945 1.81616 30.0859 2.83736 32.4557 4.69104C33.5361 5.53464 34.9088 6.00268 36.3185 6.00268C36.4295 7.79532 38.0945 9.23646 40.1665 9.32711V19.737C38.0945 19.8276 36.4276 21.2688 36.3185 23.0614C34.9088 23.0614 33.5343 23.5276 32.4557 24.3731C30.0859 26.2267 27.0926 27.2479 24.0253 27.2479Z" fill="white" style="fill:white;fill-opacity:1;"/>
</mask>
<g mask="url(#mask0_2458_19546)">
<path d="M23.5903 -7.2561L5.43819 23.8718L5.40674 25.3758L28.933 -7.14325L23.5903 -7.2561Z" fill="#FF0080" style="fill:#FF0080;fill:color(display-p3 1.0000 0.0000 0.5020);fill-opacity:1;"/>
<path d="M5.56049 18.0427L17.3764 -0.70874L5.50684 20.5809L5.56049 18.0427Z" fill="#F4FA23" style="fill:#F4FA23;fill:color(display-p3 0.9569 0.9804 0.1373);fill-opacity:1;"/>
<path d="M5.67676 12.4963L5.75261 8.87589L11.2452 -1.68384L15.552 -0.747744L5.67676 12.4963Z" fill="#FF0080" style="fill:#FF0080;fill:color(display-p3 1.0000 0.0000 0.5020);fill-opacity:1;"/>
<path d="M28.377 32.7073L42.3573 8.73329L42.3814 7.5752L24.2607 32.6222L28.377 32.7073Z" fill="#FF0080" style="fill:#FF0080;fill:color(display-p3 1.0000 0.0000 0.5020);fill-opacity:1;"/>
<path d="M42.2627 13.2235L33.1626 27.6645L42.3034 11.2681L42.2627 13.2235Z" fill="#F4FA23" style="fill:#F4FA23;fill:color(display-p3 0.9569 0.9804 0.1373);fill-opacity:1;"/>
<path d="M42.1745 17.4956L42.1153 20.2835L37.8844 28.4179L34.5674 27.6946L42.1745 17.4956Z" fill="#FF0080" style="fill:#FF0080;fill:color(display-p3 1.0000 0.0000 0.5020);fill-opacity:1;"/>
<path d="M41.8873 31.1093L31.2295 27.9514L35.1367 26.4399L34.6834 27.3353L32.6817 27.7997L41.9187 29.5886L41.8873 31.1093Z" fill="#F4FA23" style="fill:#F4FA23;fill:color(display-p3 0.9569 0.9804 0.1373);fill-opacity:1;"/>
<path d="M41.9468 28.3212L39.2144 27.2501L41.9986 25.8237L41.8783 26.2918L40.4131 27.0392L41.9597 27.7052L41.9468 28.3212Z" fill="#F4FA23" style="fill:#F4FA23;fill:color(display-p3 0.9569 0.9804 0.1373);fill-opacity:1;"/>
<path d="M28.5968 21.2332L42.579 -2.74083L42.6031 -3.89893L24.4824 21.148L28.5968 21.2332Z" fill="#FF0080" style="fill:#FF0080;fill:color(display-p3 1.0000 0.0000 0.5020);fill-opacity:1;"/>
<path d="M42.4847 1.74938L33.3828 16.1904L42.5254 -0.206055L42.4847 1.74938Z" fill="#F4FA23" style="fill:#F4FA23;fill:color(display-p3 0.9569 0.9804 0.1373);fill-opacity:1;"/>
<path d="M21.4854 8.02148L7.50501 31.9955L7.48096 33.1536L25.6016 8.10843L21.4854 8.02148Z" fill="#FF0080" style="fill:#FF0080;fill:color(display-p3 1.0000 0.0000 0.5020);fill-opacity:1;"/>
<path d="M7.59929 27.5055L16.6994 13.0645L7.55859 29.4609L7.59929 27.5055Z" fill="#F4FA23" style="fill:#F4FA23;fill:color(display-p3 0.9569 0.9804 0.1373);fill-opacity:1;"/>
</g>
</g>
<g opacity="0.44">
<mask id="mask1_2458_19546" style="mask-type:luminance" maskUnits="userSpaceOnUse" x="0" y="8" width="7" height="17">
<path d="M0.845279 24.0128C0.73613 24.0128 0.64363 23.9369 0.63623 23.837V12.06C0.63623 12.0378 0.63993 12.0138 0.64918 11.9934C1.69072 9.4497 6.31014 8.8762 6.50624 8.854H6.53399C6.58394 8.854 6.63389 8.87065 6.67274 8.9021C6.71899 8.93725 6.74304 8.98905 6.74304 9.04455V20.7753C6.74304 20.8697 6.66534 20.9492 6.56359 20.964C1.31888 21.6282 1.06728 23.554 1.05433 23.7871V23.8296C1.05433 23.9314 0.965529 24.0128 0.852679 24.0183H0.84343L0.845279 24.0128Z" fill="white" style="fill:white;fill-opacity:1;"/>
</mask>
<g mask="url(#mask1_2458_19546)">
<path d="M3.04935 20.9868H2.13916L5.17314 15.6348H6.18138V15.9067L5.68744 15.9678L3.04935 20.9868Z" fill="#FF0080" style="fill:#FF0080;fill:color(display-p3 1.0000 0.0000 0.5020);fill-opacity:1;"/>
<path d="M4.65723 20.9865L6.36292 17.9988V19.4936L5.51007 20.9865H4.65723Z" fill="#FF0080" style="fill:#FF0080;fill:color(display-p3 1.0000 0.0000 0.5020);fill-opacity:1;"/>
<path d="M3.54102 20.9866H4.02016L6.18095 16.9833V16.2322L3.54102 20.9866Z" fill="#F4FA23" style="fill:#F4FA23;fill:color(display-p3 0.9569 0.9804 0.1373);fill-opacity:1;"/>
<path d="M6.18096 15.2778L2.35889 15.4591L6.18096 14.6414V15.2778Z" fill="#FF0080" style="fill:#FF0080;fill:color(display-p3 1.0000 0.0000 0.5020);fill-opacity:1;"/>
<path d="M1.95037 15.2315L6.18129 7.61138V7.24878L0.657227 15.2315H1.95037Z" fill="#FF0080" style="fill:#FF0080;fill:color(display-p3 1.0000 0.0000 0.5020);fill-opacity:1;"/>
<path d="M6.18195 9.02289L3.41992 13.6164L6.18195 8.40869V9.02289Z" fill="#F4FA23" style="fill:#F4FA23;fill:color(display-p3 0.9569 0.9804 0.1373);fill-opacity:1;"/>
<path d="M6.18121 10.3638V11.2407L4.90657 13.8214L3.86133 13.616L6.18121 10.3638Z" fill="#FF0080" style="fill:#FF0080;fill:color(display-p3 1.0000 0.0000 0.5020);fill-opacity:1;"/>
<path d="M6.18143 14.6411L2.81445 13.7199L4.03175 13.2185L3.89485 13.5034L3.26955 13.6625L6.18143 14.1638V14.6411Z" fill="#F4FA23" style="fill:#F4FA23;fill:color(display-p3 0.9569 0.9804 0.1373);fill-opacity:1;"/>
<path d="M6.18122 13.7646L5.31543 13.4464L6.18122 12.9802L6.14607 13.1282L5.69098 13.3724L6.18122 13.5722V13.7646Z" fill="#F4FA23" style="fill:#F4FA23;fill:color(display-p3 0.9569 0.9804 0.1373);fill-opacity:1;"/>
</g>
</g>
<g opacity="0.44">
<mask id="mask2_2458_19546" style="mask-type:luminance" maskUnits="userSpaceOnUse" x="41" y="8" width="7" height="17">
<path d="M47.7283 24.0132C47.6154 24.0095 47.5266 23.9281 47.5266 23.8245V23.782C47.5137 23.5489 47.2621 21.623 42.0173 20.9589C41.9156 20.9459 41.8379 20.8664 41.8379 20.7702V9.03943C41.8379 8.98393 41.8638 8.93398 41.9082 8.89698C41.9452 8.86738 41.997 8.84888 42.0469 8.84888H42.0747C42.2708 8.87108 46.8902 9.44457 47.9318 11.9883C47.941 12.0087 47.9447 12.0327 47.9447 12.0549V23.769C47.9447 23.8116 47.9447 23.8319 47.9447 23.8319C47.9355 23.9318 47.8448 24.0077 47.7357 24.0077H47.7264L47.7283 24.0132Z" fill="white" style="fill:white;fill-opacity:1;"/>
</mask>
<g mask="url(#mask2_2458_19546)">
<path d="M45.5334 20.9868H46.4436L43.4115 15.6348H42.4014V15.9067L42.8953 15.9678L45.5334 20.9868Z" fill="#FF0080" style="fill:#FF0080;fill:color(display-p3 1.0000 0.0000 0.5020);fill-opacity:1;"/>
<path d="M43.9259 20.9863L42.2202 17.9985V19.4933L43.0731 20.9863H43.9259Z" fill="#FF0080" style="fill:#FF0080;fill:color(display-p3 1.0000 0.0000 0.5020);fill-opacity:1;"/>
<path d="M45.0413 20.9866H44.564L42.4014 16.9833V16.2322L45.0413 20.9866Z" fill="#F4FA23" style="fill:#F4FA23;fill:color(display-p3 0.9569 0.9804 0.1373);fill-opacity:1;"/>
<path d="M42.4014 15.2775L46.2234 15.4588L42.4014 14.6411V15.2775Z" fill="#FF0080" style="fill:#FF0080;fill:color(display-p3 1.0000 0.0000 0.5020);fill-opacity:1;"/>
<path d="M46.6323 15.2312L42.4014 7.61113V7.24854L47.9254 15.2312H46.6323Z" fill="#FF0080" style="fill:#FF0080;fill:color(display-p3 1.0000 0.0000 0.5020);fill-opacity:1;"/>
<path d="M42.4014 9.02264L45.1634 13.6162L42.4014 8.40845V9.02264Z" fill="#F4FA23" style="fill:#F4FA23;fill:color(display-p3 0.9569 0.9804 0.1373);fill-opacity:1;"/>
<path d="M42.4014 10.3638V11.2407L43.676 13.8214L44.7231 13.616L42.4014 10.3638Z" fill="#FF0080" style="fill:#FF0080;fill:color(display-p3 1.0000 0.0000 0.5020);fill-opacity:1;"/>
<path d="M42.4014 14.6409L45.7683 13.7196L44.5511 13.2183L44.6879 13.5032L45.3132 13.6623L42.4014 14.1636V14.6409Z" fill="#F4FA23" style="fill:#F4FA23;fill:color(display-p3 0.9569 0.9804 0.1373);fill-opacity:1;"/>
<path d="M42.4014 13.7644L43.2672 13.4462L42.4014 12.98L42.4365 13.128L42.8916 13.3722L42.4014 13.572V13.7644Z" fill="#F4FA23" style="fill:#F4FA23;fill:color(display-p3 0.9569 0.9804 0.1373);fill-opacity:1;"/>
</g>
</g>
<path opacity="0.42" d="M1.90197 10.3896V21.9465C0.656925 22.7328 0.560726 23.5912 0.555176 23.7817V12.0287C0.804924 11.3461 1.30812 10.8096 1.90197 10.3896Z" fill="#484F51" style="fill:#484F51;fill:color(display-p3 0.2824 0.3098 0.3176);fill-opacity:1;"/>
<path opacity="0.42" d="M47.944 12.0139V23.6559C47.9384 23.4654 47.8404 22.6162 46.5972 21.8374V10.3896C47.1929 10.8059 47.6942 11.3368 47.944 12.0139Z" fill="#484F51" style="fill:#484F51;fill:color(display-p3 0.2824 0.3098 0.3176);fill-opacity:1;"/>
<path d="M27.2095 13.4257C27.8218 13.6329 28.2788 13.9715 28.5785 14.4414C28.8782 14.9113 29.028 16.0139 29.028 17.7473C29.028 19.0349 28.8819 20.032 28.5877 20.7424C28.2936 21.4528 27.7885 21.993 27.0689 22.363C26.3492 22.733 25.4261 22.918 24.2995 22.918C23.0193 22.918 22.0147 22.7034 21.2858 22.2742C20.5569 21.845 20.0759 21.3178 19.8465 20.6943C19.6171 20.0709 19.5024 18.9905 19.5024 17.4513V16.1711H23.541V18.8C23.541 19.4992 23.5817 19.9451 23.6668 20.1338C23.75 20.3243 23.935 20.4187 24.2218 20.4187C24.5344 20.4187 24.7416 20.2984 24.8415 20.0579C24.9414 19.8174 24.9914 19.1921 24.9914 18.1784V17.0591C24.9914 16.4394 24.9211 15.9861 24.7823 15.6994C24.6436 15.4126 24.4364 15.2239 24.1626 15.1351C23.8888 15.0445 23.3597 14.9945 22.5734 14.9797V12.6302C23.5336 12.6302 24.1256 12.5932 24.3531 12.5211C24.5788 12.4471 24.7435 12.288 24.8434 12.0419C24.9433 11.7959 24.9932 11.4093 24.9932 10.882V9.98291C24.9932 9.41682 24.934 9.04312 24.8175 8.86367C24.7009 8.68422 24.5196 8.59357 24.2736 8.59357C23.9942 8.59357 23.8018 8.68792 23.6982 8.87847C23.5946 9.06902 23.5428 9.47232 23.5428 10.0921V11.4222H19.5043V10.0421C19.5043 8.49552 19.8576 7.45213 20.5643 6.90823C21.271 6.36619 22.394 6.09424 23.9332 6.09424C25.859 6.09424 27.1651 6.46979 27.8514 7.22273C28.5378 7.97568 28.88 9.02092 28.88 10.3585C28.88 11.265 28.7561 11.918 28.51 12.3213C28.264 12.7246 27.8311 13.0927 27.2113 13.4257H27.2095Z" fill="#CE996A" style="fill:#CE996A;fill:color(display-p3 0.8078 0.6000 0.4157);fill-opacity:1;"/>
<path opacity="0.28" d="M24.2959 1.81714C21.0436 1.81714 18.0614 2.91233 15.7268 4.73827C14.7019 5.54116 13.381 6.00366 11.999 6.00366C11.999 7.84255 10.2748 9.33179 8.14551 9.33179V20.1117C10.2748 20.1117 11.999 21.6009 11.999 23.4398C13.3828 23.4398 14.7037 23.9023 15.7268 24.7052C15.921 24.8569 16.1227 25.0012 16.3262 25.1436L26.7471 2.02989C25.9516 1.89114 25.1339 1.81714 24.294 1.81714H24.2959Z" fill="white" style="fill:white;fill-opacity:1;"/>
<path d="M9.81053 15.3649L8.32129 13.8423L10.3785 13.5278L11.2979 11.5706L12.2192 13.5278L14.2764 13.8423L12.7872 15.3649L13.1387 17.5164L11.2979 16.5008L9.45718 17.5164L9.80868 15.3649H9.81053Z" fill="#C4844B" style="fill:#C4844B;fill:color(display-p3 0.7686 0.5176 0.2941);fill-opacity:1;"/>
<path d="M11.2987 11.6979L12.183 13.5794L14.1607 13.8809L12.7288 15.3442L13.0673 17.4107L11.2987 16.4357L9.53016 17.4107L9.86871 15.3442L8.43681 13.8809L10.4145 13.5794L11.2987 11.6979ZM11.2987 11.4426L11.2025 11.648L10.3442 13.4758L8.42201 13.7681L8.20557 13.8014L8.36096 13.9623L9.75216 15.3849L9.42471 17.394L9.38771 17.6197L9.58196 17.5124L11.3006 16.5652L13.0192 17.5124L13.2135 17.6197L13.1765 17.394L12.849 15.3849L14.2402 13.9623L14.3975 13.8014L14.181 13.7681L12.2589 13.4758L11.4005 11.648L11.3043 11.4426H11.2987Z" fill="black" style="fill:black;fill-opacity:1;"/>
<path d="M11.2991 15.9181L9.92267 16.6785L10.1854 15.069L9.06982 13.9294L10.609 13.6944L11.2972 12.2292L11.9854 13.6944L13.5264 13.9294L12.4109 15.069L12.6736 16.6785L11.2954 15.9181H11.2991Z" fill="#C6986F" style="fill:#C6986F;fill:color(display-p3 0.7765 0.5961 0.4353);fill-opacity:1;"/>
<path opacity="0.28" d="M11.2985 12.3569L11.9257 13.6926L11.9516 13.7462L12.0071 13.7555L13.4112 13.97L12.3956 15.0097L12.3549 15.0504L12.3641 15.1096L12.6046 16.5767L11.3485 15.8829L11.2985 15.8552L11.2486 15.8829L9.99243 16.5767L10.2329 15.1096L10.2422 15.0504L10.2015 15.0097L9.18584 13.97L10.59 13.7555L10.6455 13.7462L10.6714 13.6926L11.2985 12.3569ZM11.3004 12.1016L10.5752 13.6426L8.95459 13.8905L10.1275 15.0893L9.84998 16.782L11.3004 15.9828L12.7489 16.782L12.4714 15.0893L13.6443 13.8905L12.0237 13.6426L11.2985 12.1016H11.3004Z" fill="white" style="fill:white;fill-opacity:1;"/>
<path d="M11.2983 16.4354V15.9822L12.7487 16.7814L13.0688 17.4104L11.3002 16.4354H11.2983Z" fill="#6D4424" style="fill:#6D4424;fill:color(display-p3 0.4275 0.2667 0.1412);fill-opacity:1;"/>
<path d="M12.4717 15.0887L12.7307 15.344L14.1626 13.8806L13.6464 13.8899L12.4735 15.0905L12.4717 15.0887Z" fill="#6D4424" style="fill:#6D4424;fill:color(display-p3 0.4275 0.2667 0.1412);fill-opacity:1;"/>
<path d="M12.0235 13.6418L11.2983 12.1008V11.6975L12.1826 13.5789L12.0235 13.6418Z" fill="#6D4424" style="fill:#6D4424;fill:color(display-p3 0.4275 0.2667 0.1412);fill-opacity:1;"/>
<path d="M9.84983 16.7818L9.52979 17.4108L9.86833 15.3444L10.1273 15.0891L9.85168 16.7818H9.84983Z" fill="#9E7852" style="fill:#9E7852;fill:color(display-p3 0.6196 0.4706 0.3216);fill-opacity:1;"/>
<path d="M8.95511 13.8882L8.43896 13.8789L10.4166 13.5774L10.5757 13.6403L8.95511 13.8882Z" fill="#9E7852" style="fill:#9E7852;fill:color(display-p3 0.6196 0.4706 0.3216);fill-opacity:1;"/>
<path d="M11.2988 15.9826L12.7473 16.7818L12.4698 15.0891L13.6427 13.8903L12.3089 13.6868C11.7724 14.6414 11.0823 15.6718 10.2295 16.5727L11.2969 15.9845L11.2988 15.9826Z" fill="#9E7852" style="fill:#9E7852;fill:color(display-p3 0.6196 0.4706 0.3216);fill-opacity:1;"/>
<path d="M35.4658 15.3649L33.9766 13.8423L36.0337 13.5278L36.9532 11.5706L37.8745 13.5278L39.9317 13.8423L38.4424 15.3649L38.7939 17.5164L36.9532 16.5008L35.1125 17.5164L35.464 15.3649H35.4658Z" fill="#C4844B" style="fill:#C4844B;fill:color(display-p3 0.7686 0.5176 0.2941);fill-opacity:1;"/>
<path d="M36.955 11.6979L37.8393 13.5794L39.8169 13.8809L38.385 15.3442L38.7236 17.4107L36.955 16.4357L35.1864 17.4107L35.525 15.3442L34.0931 13.8809L36.0707 13.5794L36.955 11.6979ZM36.955 11.4426L36.8588 11.648L36.0004 13.4758L34.0783 13.7681L33.8618 13.8014L34.0172 13.9623L35.4084 15.3849L35.081 17.394L35.044 17.6197L35.2382 17.5124L36.9568 16.5652L38.6755 17.5124L38.8697 17.6197L38.8327 17.394L38.5053 15.3849L39.8965 13.9623L40.0537 13.8014L39.8373 13.7681L37.9151 13.4758L37.0567 11.648L36.9605 11.4426H36.955Z" fill="black" style="fill:black;fill-opacity:1;"/>
<path d="M36.9553 15.9181L35.5789 16.6785L35.8416 15.069L34.7261 13.9294L36.2653 13.6944L36.9535 12.2292L37.6417 13.6944L39.1827 13.9294L38.0671 15.069L38.3298 16.6785L36.9516 15.9181H36.9553Z" fill="#C6986F" style="fill:#C6986F;fill:color(display-p3 0.7765 0.5961 0.4353);fill-opacity:1;"/>
<path opacity="0.28" d="M36.9543 12.3569L37.5814 13.6926L37.6073 13.7462L37.6628 13.7555L39.067 13.97L38.0513 15.0097L38.0106 15.0504L38.0199 15.1096L38.2604 16.5767L37.0042 15.8829L36.9543 15.8552L36.9043 15.8829L35.6482 16.5767L35.8887 15.1096L35.8979 15.0504L35.8572 15.0097L34.8416 13.97L36.2457 13.7555L36.3012 13.7462L36.3271 13.6926L36.9543 12.3569ZM36.9561 12.1016L36.2309 13.6426L34.6104 13.8905L35.7832 15.0893L35.5057 16.782L36.9561 15.9828L38.4047 16.782L38.1272 15.0893L39.3001 13.8905L37.6795 13.6426L36.9543 12.1016H36.9561Z" fill="white" style="fill:white;fill-opacity:1;"/>
<path d="M36.9546 16.4357V15.9824L38.405 16.7816L38.725 17.4106L36.9564 16.4357H36.9546Z" fill="#6D4424" style="fill:#6D4424;fill:color(display-p3 0.4275 0.2667 0.1412);fill-opacity:1;"/>
<path d="M38.1284 15.0889L38.3874 15.3442L39.8193 13.8809L39.3032 13.8901L38.1303 15.0908L38.1284 15.0889Z" fill="#6D4424" style="fill:#6D4424;fill:color(display-p3 0.4275 0.2667 0.1412);fill-opacity:1;"/>
<path d="M37.6798 13.6421L36.9546 12.1011V11.6978L37.8389 13.5792L37.6798 13.6421Z" fill="#6D4424" style="fill:#6D4424;fill:color(display-p3 0.4275 0.2667 0.1412);fill-opacity:1;"/>
<path d="M35.5066 16.7821L35.1865 17.4111L35.5251 15.3447L35.7841 15.0894L35.5084 16.7821H35.5066Z" fill="#9E7852" style="fill:#9E7852;fill:color(display-p3 0.6196 0.4706 0.3216);fill-opacity:1;"/>
<path d="M34.6114 13.8882L34.0952 13.8789L36.0729 13.5774L36.232 13.6403L34.6114 13.8882Z" fill="#9E7852" style="fill:#9E7852;fill:color(display-p3 0.6196 0.4706 0.3216);fill-opacity:1;"/>
<path d="M36.955 15.9826L38.4036 16.7818L38.1261 15.0891L39.299 13.8903L37.9651 13.6868C37.4286 14.6414 36.7386 15.6718 35.8857 16.5727L36.9532 15.9845L36.955 15.9826Z" fill="#9E7852" style="fill:#9E7852;fill:color(display-p3 0.6196 0.4706 0.3216);fill-opacity:1;"/>
</svg>
