<svg width="48" height="28" viewBox="0 0 48 28" fill="none" xmlns="http://www.w3.org/2000/svg">
<path d="M23.984 27.4268C37.1148 27.4268 47.7586 24.9295 47.7586 21.8474C47.7586 18.7653 37.1148 16.2679 23.984 16.2679C10.8532 16.2679 0.209473 18.7653 0.209473 21.8474C0.209473 24.9295 10.8532 27.4268 23.984 27.4268Z" fill="#1B1E1E" style="fill:#1B1E1E;fill:color(display-p3 0.1059 0.1176 0.1176);fill-opacity:1;"/>
<path d="M23.9819 16.441C36.9971 16.441 47.5491 18.8619 47.5491 21.8471C47.5491 24.8323 36.9971 27.2531 23.9819 27.2531C10.9668 27.2531 0.414811 24.8323 0.414811 21.8471C0.414811 18.8619 10.9668 16.441 23.9819 16.441ZM23.9819 16.0925C17.6515 16.0925 11.6936 16.6586 7.20963 17.6871C1.24994 19.054 0 20.703 0 21.8454C0 22.9878 1.24994 24.6368 7.20963 26.0036C11.6955 27.0321 17.6515 27.5999 23.9819 27.5999C30.3124 27.5999 36.2703 27.0338 40.7561 26.0036C46.7139 24.6368 47.9657 22.9878 47.9657 21.8454C47.9657 20.703 46.7158 19.054 40.7561 17.6871C36.2703 16.6586 30.3142 16.0925 23.9819 16.0925Z" fill="black" style="fill:black;fill-opacity:1;"/>
<g opacity="0.46">
<path d="M23.9841 24.8116C36.1971 24.8116 46.0975 23.0555 46.0975 20.888C46.0975 18.7205 36.1971 16.9644 23.9841 16.9644C11.771 16.9644 1.87061 18.7205 1.87061 20.888C1.87061 23.0555 11.771 24.8116 23.9841 24.8116Z" fill="black" style="fill:black;fill-opacity:1;"/>
</g>
<path d="M0.429574 22.0194C0.321282 22.0194 0.22951 21.9497 0.222168 21.8579V11.0356C0.222168 11.0152 0.225839 10.9931 0.235016 10.9744C1.26837 8.63688 5.85148 8.10988 6.04604 8.08948H6.07357C6.12313 8.08948 6.17269 8.10478 6.21123 8.13368C6.25712 8.16598 6.28098 8.21358 6.28098 8.26458V19.0444C6.28098 19.1311 6.20389 19.2042 6.10294 19.2178C0.899447 19.8281 0.649827 21.5978 0.636979 21.812V21.8511C0.636979 21.9446 0.548877 22.0194 0.436915 22.0245H0.427738L0.429574 22.0194Z" fill="#1D1E1E" style="fill:#1D1E1E;fill:color(display-p3 0.1137 0.1176 0.1176);fill-opacity:1;"/>
<path d="M6.0726 8.26317V19.043C0.742462 19.6669 0.443284 21.5046 0.4286 21.8072V11.0376C1.42892 8.77147 6.0726 8.26317 6.0726 8.26317ZM6.0726 7.91296C6.05424 7.91296 6.03773 7.91296 6.01937 7.91636C5.81931 7.93846 1.11689 8.47907 0.0413211 10.9152C0.0248021 10.9543 0.015625 10.9951 0.015625 11.0376V21.8735C0.0339795 22.0554 0.215689 22.1948 0.4286 22.1948H0.446955C0.669044 22.1863 0.843411 22.0367 0.843411 21.8497V21.8157C0.856259 21.6049 1.11322 19.978 6.12766 19.3898C6.33323 19.366 6.48557 19.2181 6.48557 19.0447V8.26487C6.48557 8.16457 6.43418 8.06936 6.34424 8.00306C6.26716 7.94696 6.16988 7.91636 6.07076 7.91636H6.0726V7.91296Z" fill="black" style="fill:black;fill-opacity:1;"/>
<path d="M23.8757 26.7282C20.4599 26.7282 17.1268 25.6776 14.4911 23.7651C13.4027 22.9763 12.0224 22.5428 10.6018 22.5428H10.3944V22.3677C10.3944 20.6269 8.62132 19.2141 6.4408 19.2141H6.2334V8.08755H6.4408C8.62132 8.08755 10.3944 6.67144 10.3944 4.93402V4.75892H10.6018C12.0224 4.75892 13.4027 4.32542 14.4911 3.53661C17.1268 1.62579 20.4581 0.573486 23.8757 0.573486C27.2933 0.573486 30.6246 1.62409 33.2604 3.53661C34.3488 4.32542 35.729 4.75892 37.1497 4.75892H37.5755V4.93402C37.5755 6.67484 39.3485 8.08755 41.529 8.08755H41.7364V19.2158H41.529C39.3485 19.2158 37.5755 20.6319 37.5755 22.3694V22.5445H37.1497C35.729 22.5445 34.3488 22.978 33.2604 23.7668C30.6228 25.6776 27.2915 26.7299 23.8757 26.7299V26.7282Z" fill="#654B4B" style="fill:#654B4B;fill:color(display-p3 0.3946 0.2939 0.2939);fill-opacity:1;"/>
<path d="M23.8745 0.748527C27.3857 0.748527 30.6069 1.84334 33.1251 3.66915C34.2319 4.47156 35.6562 4.93396 37.1521 4.93396H37.3705C37.3705 6.77168 39.2335 8.26259 41.5315 8.26259V19.0424C39.2335 19.0424 37.3705 20.5333 37.3705 22.371H37.1521C35.6599 22.371 34.2356 22.8351 33.1251 23.6358C30.6069 25.4599 27.3857 26.5564 23.8745 26.5564C20.3633 26.5564 17.1421 25.4616 14.6238 23.6358C13.5171 22.8334 12.0928 22.371 10.5969 22.371C10.5969 20.5333 8.7339 19.0424 6.43592 19.0424V8.26259C8.7339 8.26259 10.5969 6.77168 10.5969 4.93396C12.0891 4.93396 13.5134 4.46986 14.6238 3.66915C17.1421 1.84504 20.3633 0.748527 23.8745 0.748527ZM23.8745 0.400024C20.4092 0.400024 17.0264 1.46763 14.3522 3.40395C13.3023 4.16386 11.968 4.58376 10.5987 4.58376H10.1839V4.93226C10.1839 6.57448 8.50447 7.91239 6.43776 7.91239H6.02295V19.3892H6.43776C8.50447 19.3892 10.1839 20.7271 10.1839 22.3693V22.7178H10.5987C11.9698 22.7178 13.3023 23.136 14.3522 23.8976C17.0264 25.8356 20.4092 26.9016 23.8745 26.9016C27.3398 26.9016 30.7225 25.8339 33.3968 23.8976C34.4467 23.1377 35.781 22.7178 37.1503 22.7178H37.7835V22.3693C37.7835 20.7271 39.4629 19.3892 41.5297 19.3892H41.9445V7.91239H41.5297C39.4629 7.91239 37.7835 6.57448 37.7835 4.93226V4.58376H37.1503C35.7792 4.58376 34.4467 4.16556 33.3968 3.40395C30.7207 1.46593 27.3398 0.400024 23.8745 0.400024Z" fill="black" style="fill:black;fill-opacity:1;"/>
<path d="M23.8778 24.2872C30.8727 24.2872 36.5443 19.5254 36.5443 13.6502C36.5443 7.77492 30.8727 3.01318 23.8778 3.01318C16.883 3.01318 11.2114 7.77492 11.2114 13.6502C11.2114 19.5254 16.883 24.2872 23.8778 24.2872Z" fill="#D6CA85" style="fill:#D6CA85;fill:color(display-p3 0.8392 0.7922 0.5216);fill-opacity:1;"/>
<path d="M36.2514 5.46466L37.0994 4.93085C35.6255 4.92065 34.2177 4.45995 33.1238 3.66604C32.8356 3.45694 32.5365 3.25804 32.2299 3.06934L21.377 26.3629C22.1882 26.487 23.0233 26.5533 23.875 26.5533C27.3862 26.5533 30.6074 25.4585 33.1256 23.6327C34.2324 22.8303 35.6567 22.3679 37.1526 22.3679H37.371L36.2551 21.4873V5.46466H36.2532H36.2514Z" fill="#565656" style="fill:#565656;fill:color(display-p3 0.3373 0.3373 0.3373);fill-opacity:1;"/>
<path d="M23.8536 25.1589C20.8086 25.1589 17.8407 24.2205 15.4877 22.5171C14.4653 21.7776 13.1842 21.3543 11.8553 21.3152C11.747 19.6679 10.0933 18.3419 8.0376 18.2569V8.69088C10.0933 8.60757 11.7489 7.28156 11.8553 5.63255C13.1842 5.59345 14.4672 5.17015 15.4877 4.43064C17.8389 2.72723 20.8086 1.78882 23.8536 1.78882C26.8986 1.78882 29.8666 2.72723 32.2178 4.43064C33.2897 5.20585 34.6516 5.63595 36.0502 5.63595C36.1603 7.28326 37.8122 8.60757 39.8679 8.69088V18.2569C37.8122 18.3402 36.1585 19.6645 36.0502 21.3118C34.6516 21.3118 33.2878 21.7402 32.2178 22.5171C29.8666 24.2205 26.8968 25.1589 23.8536 25.1589Z" fill="#999999" style="fill:#999999;fill:color(display-p3 0.6000 0.6000 0.6000);fill-opacity:1;"/>
<path d="M23.853 1.9691C26.8467 1.9691 29.7687 2.89221 32.0813 4.56672C33.1422 5.33513 34.4748 5.77373 35.8587 5.81113C36.0624 7.41934 37.6593 8.69946 39.6599 8.85586V18.0954C37.6574 18.2518 36.0606 19.5336 35.8587 21.1402C34.4784 21.1793 33.1422 21.6162 32.0813 22.3846C29.7687 24.0608 26.8467 24.9822 23.853 24.9822C20.8594 24.9822 17.9374 24.0591 15.6247 22.3846C14.6152 21.6536 13.3598 21.2218 12.0493 21.1487C11.8529 19.537 10.2505 18.2518 8.24807 18.0954V8.85586C10.2542 8.69946 11.8529 7.41424 12.0493 5.80263C13.3598 5.72953 14.6152 5.29773 15.6247 4.56672C17.9374 2.89051 20.8594 1.9691 23.853 1.9691ZM23.853 1.6189C20.6263 1.6189 17.6676 2.6253 15.3513 4.30152C14.3344 5.03932 13.0239 5.46433 11.6528 5.46433C11.6528 7.15414 9.94219 8.52265 7.82959 8.52265V18.4286C9.94219 18.4286 11.6528 19.7971 11.6528 21.487C13.0257 21.487 14.3362 21.912 15.3513 22.6498C17.6657 24.3277 20.6263 25.3324 23.853 25.3324C27.0798 25.3324 30.0385 24.326 32.353 22.6498C33.3698 21.912 34.6803 21.487 36.0514 21.487H36.2515C36.2515 19.7971 37.9621 18.4286 40.0747 18.4286V8.52265C37.9621 8.52265 36.2515 7.15414 36.2515 5.46433H36.0514C34.6785 5.46433 33.368 5.03932 32.353 4.30152C30.0385 2.6236 27.0798 1.6189 23.853 1.6189Z" fill="#C4C4C4" style="fill:#C4C4C4;fill:color(display-p3 0.7686 0.7686 0.7686);fill-opacity:1;"/>
<path d="M23.853 1.6189C20.6263 1.6189 17.6676 2.62531 15.3513 4.30322C14.3344 5.04103 13.0239 5.46603 11.6528 5.46603C11.6528 7.15584 9.94219 8.52435 7.82959 8.52435V18.4303C9.94219 18.4303 11.6528 19.7989 11.6528 21.4887C13.0257 21.4887 14.3362 21.9137 15.3513 22.6515C15.544 22.7909 15.744 22.9235 15.9459 23.0544L26.285 1.8144C25.4958 1.6869 24.6845 1.6189 23.8512 1.6189H23.853Z" fill="#C4C4C4" style="fill:#C4C4C4;fill:color(display-p3 0.7686 0.7686 0.7686);fill-opacity:1;"/>
<path d="M41.529 19.0405L40.0771 18.4285V8.52424L41.529 8.26074V19.0405Z" fill="#565656" style="fill:#565656;fill:color(display-p3 0.3373 0.3373 0.3373);fill-opacity:1;"/>
<path d="M6.43604 8.26086L7.82914 8.52437V18.4287L6.43604 19.0407V8.26086Z" fill="#898989" style="fill:#898989;fill:color(display-p3 0.5373 0.5373 0.5373);fill-opacity:1;"/>
<path d="M47.58 22.0193C47.4681 22.0159 47.38 21.9394 47.38 21.8459V21.8067C47.3689 21.5925 47.1212 19.8228 41.9158 19.2125C41.813 19.2006 41.7378 19.1275 41.7378 19.0391V8.25933C41.7378 8.20833 41.7635 8.16243 41.8075 8.12843C41.8442 8.10123 41.8956 8.08423 41.9452 8.08423H41.9727C42.1673 8.10463 46.7504 8.63163 47.7856 10.9692C47.7929 10.9879 47.7984 11.01 47.7984 11.0304V21.8527C47.7893 21.9428 47.6993 22.0142 47.591 22.0142H47.5837L47.58 22.0193Z" fill="#1D1E1E" style="fill:#1D1E1E;fill:color(display-p3 0.1137 0.1176 0.1176);fill-opacity:1;"/>
<path d="M41.9441 8.26304C41.9441 8.26304 46.586 8.76965 47.5881 11.0375V21.8071C47.5753 21.5062 47.2742 19.6684 41.9441 19.0428V8.26304ZM41.9441 7.91284C41.845 7.91284 41.7477 7.94174 41.6706 7.99954C41.5807 8.06584 41.5293 8.16104 41.5293 8.26134V19.0411C41.5293 19.2162 41.6835 19.3624 41.8872 19.3862C46.9016 19.9744 47.1604 21.6014 47.1715 21.8122V21.8479C47.1715 22.0349 47.3458 22.1845 47.5679 22.193H47.5863C47.801 22.193 47.9809 22.0519 47.9992 21.8717C47.9992 21.8717 48.0011 21.8479 47.9992 21.8003V11.0375C47.9992 10.995 47.9901 10.9559 47.9735 10.9151C46.898 8.47895 42.1956 7.93834 41.9955 7.91624C41.9771 7.91454 41.9606 7.91284 41.9423 7.91284H41.9441Z" fill="black" style="fill:black;fill-opacity:1;"/>
<g opacity="0.6">
<mask id="mask0_2458_16502" style="mask-type:luminance" maskUnits="userSpaceOnUse" x="8" y="1" width="32" height="25">
<path d="M23.8859 25.1655C20.8409 25.1655 17.8729 24.2271 15.5199 22.5237C14.4976 21.7842 13.2164 21.3609 11.8876 21.3218C11.7793 19.6745 10.1255 18.3484 8.06982 18.2634V8.69747C10.1255 8.61417 11.7811 7.28816 11.8876 5.63914C13.2164 5.60004 14.4994 5.17674 15.5199 4.43723C17.8711 2.73382 20.8409 1.79541 23.8859 1.79541C26.9309 1.79541 29.8988 2.73382 32.25 4.43723C33.3219 5.21244 34.6838 5.64254 36.0824 5.64254C36.1925 7.28986 37.8444 8.61417 39.9001 8.69747V18.2634C37.8444 18.3467 36.1907 19.6711 36.0824 21.3184C34.6838 21.3184 33.3201 21.7468 32.25 22.5237C29.8988 24.2271 26.929 25.1655 23.8859 25.1655Z" fill="white" style="fill:white;fill-opacity:1;"/>
</mask>
<g mask="url(#mask0_2458_16502)">
<path d="M23.4532 -6.54102L5.4438 22.0617L5.4126 23.4438L28.7558 -6.43901L23.4532 -6.54102Z" fill="#FF0080" style="fill:#FF0080;fill:color(display-p3 1.0000 0.0000 0.5020);fill-opacity:1;"/>
<path d="M5.56446 16.7047L17.2875 -0.524902L5.51123 19.0389L5.56446 16.7047Z" fill="#F4FA23" style="fill:#F4FA23;fill:color(display-p3 0.9569 0.9804 0.1373);fill-opacity:1;"/>
<path d="M5.68066 11.6087L5.75775 8.28352L11.2054 -1.42017L15.4783 -0.559959L5.68066 11.6087Z" fill="#FF0080" style="fill:#FF0080;fill:color(display-p3 1.0000 0.0000 0.5020);fill-opacity:1;"/>
<path d="M28.2002 30.1814L42.0725 8.15088L42.0964 7.08667L24.1182 30.1015L28.2002 30.1814Z" fill="#FF0080" style="fill:#FF0080;fill:color(display-p3 1.0000 0.0000 0.5020);fill-opacity:1;"/>
<path d="M41.9778 12.2771L32.9492 25.5475L42.02 10.4802L41.9778 12.2771Z" fill="#F4FA23" style="fill:#F4FA23;fill:color(display-p3 0.9569 0.9804 0.1373);fill-opacity:1;"/>
<path d="M41.8898 16.2024L41.831 18.7643L37.6352 26.2376L34.3442 25.5746L41.8898 16.2024Z" fill="#FF0080" style="fill:#FF0080;fill:color(display-p3 1.0000 0.0000 0.5020);fill-opacity:1;"/>
<path d="M41.6048 28.7114L31.0308 25.8094L34.9091 24.4205L34.4594 25.245L32.4716 25.6717L41.636 27.314L41.6048 28.7114Z" fill="#F4FA23" style="fill:#F4FA23;fill:color(display-p3 0.9569 0.9804 0.1373);fill-opacity:1;"/>
<path d="M41.6641 26.151L38.9531 25.165L41.7155 23.8542L41.5962 24.2844L40.1425 24.9729L41.6769 25.5849L41.6641 26.151Z" fill="#F4FA23" style="fill:#F4FA23;fill:color(display-p3 0.9569 0.9804 0.1373);fill-opacity:1;"/>
</g>
</g>
<path d="M23.8214 25.1697C20.7764 25.1697 17.8085 24.2312 15.4554 22.5278C14.4331 21.7883 13.152 21.365 11.8231 21.3259C11.7148 19.6786 10.0611 18.3526 8.00537 18.2676V8.70162C10.0611 8.61832 11.7166 7.2923 11.8231 5.64329C13.152 5.60419 14.4349 5.18089 15.4554 4.44138C17.8067 2.73797 20.7764 1.79956 23.8214 1.79956C26.8664 1.79956 29.8343 2.73797 32.1855 4.44138C33.2574 5.21659 34.6193 5.64669 36.018 5.64669C36.1281 7.29401 37.78 8.61832 39.8357 8.70162V18.2676C37.78 18.3509 36.1262 19.6752 36.018 21.3225C34.6193 21.3225 33.2556 21.7509 32.1855 22.5278C29.8343 24.2312 26.8646 25.1697 23.8214 25.1697Z" fill="black" style="fill:black;fill-opacity:1;"/>
<g opacity="0.6">
<mask id="mask1_2458_16502" style="mask-type:luminance" maskUnits="userSpaceOnUse" x="8" y="1" width="32" height="25">
<path d="M23.8219 25.1687C20.7769 25.1687 17.809 24.2303 15.4559 22.5269C14.4336 21.7873 13.1525 21.364 11.8236 21.3249C11.7153 19.6776 10.0616 18.3516 8.00586 18.2666V8.70064C10.0616 8.61734 11.7171 7.29133 11.8236 5.64232C13.1525 5.60321 14.4354 5.17991 15.4559 4.44041C17.8071 2.73699 20.7769 1.79858 23.8219 1.79858C26.8669 1.79858 29.8348 2.73699 32.186 4.44041C33.2579 5.21561 34.6198 5.64572 36.0184 5.64572C36.1286 7.29303 37.7805 8.61734 39.8362 8.70064V18.2666C37.7805 18.3499 36.1267 19.6742 36.0184 21.3215C34.6198 21.3215 33.2561 21.7499 32.186 22.5269C29.8348 24.2303 26.8651 25.1687 23.8219 25.1687Z" fill="white" style="fill:white;fill-opacity:1;"/>
</mask>
<g mask="url(#mask1_2458_16502)">
<path d="M23.3878 -6.53784L5.38021 22.0666L5.34717 23.4487L28.6904 -6.43414L23.3878 -6.53784Z" fill="#D2297E" style="fill:#D2297E;fill:color(display-p3 0.8228 0.1615 0.4934);fill-opacity:1;"/>
<path d="M5.50196 16.7096L17.225 -0.521729L5.44873 19.042L5.50196 16.7096Z" fill="#F4FA23" style="fill:#F4FA23;fill:color(display-p3 0.9569 0.9804 0.1373);fill-opacity:1;"/>
<path d="M5.61719 11.6131L5.69244 8.28621L11.1419 -1.41748L15.4148 -0.557273L5.61719 11.6131Z" fill="#D2297E" style="fill:#D2297E;fill:color(display-p3 0.8228 0.1615 0.4934);fill-opacity:1;"/>
<path d="M28.1386 30.186L42.009 8.15552L42.0329 7.09131L24.0547 30.1078L28.1386 30.186Z" fill="#D2297E" style="fill:#D2297E;fill:color(display-p3 0.8228 0.1615 0.4934);fill-opacity:1;"/>
<path d="M41.9143 12.2818L32.8857 25.5521L41.9547 10.4849L41.9143 12.2818Z" fill="#F4FA23" style="fill:#F4FA23;fill:color(display-p3 0.9569 0.9804 0.1373);fill-opacity:1;"/>
<path d="M41.8248 16.2064L41.7679 18.7683L37.5703 26.2433L34.2793 25.5786L41.8248 16.2064Z" fill="#D2297E" style="fill:#D2297E;fill:color(display-p3 0.8228 0.1615 0.4934);fill-opacity:1;"/>
<path d="M41.5432 28.7169L30.9692 25.8149L34.8457 24.426L34.396 25.2488L32.4101 25.6755L41.5745 27.3195L41.5432 28.7169Z" fill="#F4FA23" style="fill:#F4FA23;fill:color(display-p3 0.9569 0.9804 0.1373);fill-opacity:1;"/>
<path d="M41.5982 26.1559L38.8872 25.1716L41.6514 23.8608L41.5321 24.2909L40.0784 24.9778L41.611 25.5898L41.5982 26.1559Z" fill="#F4FA23" style="fill:#F4FA23;fill:color(display-p3 0.9569 0.9804 0.1373);fill-opacity:1;"/>
<path d="M28.3563 19.6427L42.2268 -2.38782L42.2525 -3.45203L24.2725 19.5645L28.3563 19.6427Z" fill="#D2297E" style="fill:#D2297E;fill:color(display-p3 0.8228 0.1615 0.4934);fill-opacity:1;"/>
<path d="M42.134 1.73893L33.1055 15.0109L42.1762 -0.0579834L42.134 1.73893Z" fill="#F4FA23" style="fill:#F4FA23;fill:color(display-p3 0.9569 0.9804 0.1373);fill-opacity:1;"/>
<path d="M21.302 7.50122L7.43158 29.5317L7.40771 30.5959L25.3859 7.58112L21.302 7.50122Z" fill="#D2297E" style="fill:#D2297E;fill:color(display-p3 0.8228 0.1615 0.4934);fill-opacity:1;"/>
<path d="M7.52573 25.4061L16.5543 12.1357L7.48535 27.203L7.52573 25.4061Z" fill="#F4FA23" style="fill:#F4FA23;fill:color(display-p3 0.9569 0.9804 0.1373);fill-opacity:1;"/>
</g>
</g>
<g filter="url(#filter0_d_2458_16502)">
<mask id="path-40-outside-1_2458_16502" maskUnits="userSpaceOnUse" x="11.645" y="8.56226" width="25" height="9" fill="black">
<rect fill="white" x="11.645" y="8.56226" width="25" height="9"/>
<path d="M12.645 16.5001V9.67224H14.9482C15.363 9.67224 15.7293 9.75472 16.0472 9.91969C16.3705 10.0847 16.6237 10.3291 16.8068 10.6529C16.99 10.9767 17.0816 11.3769 17.0816 11.8535C17.0816 12.3179 16.9873 12.715 16.7988 13.0449C16.6102 13.3688 16.357 13.6132 16.0391 13.7781L17.4129 16.5001H16.0068L14.5199 13.4849L15.328 14.0256H13.8976V16.5001H12.645ZM13.8976 12.7883H14.9562C15.134 12.7883 15.2876 12.7486 15.4169 12.6692C15.5462 12.5897 15.6458 12.4798 15.7159 12.3392C15.7913 12.1987 15.829 12.0368 15.829 11.8535C15.829 11.6641 15.7913 11.4991 15.7159 11.3586C15.6458 11.2181 15.5462 11.1081 15.4169 11.0287C15.2876 10.9492 15.134 10.9095 14.9562 10.9095H13.8976V12.7883Z"/>
<path d="M19.312 16.6101C18.9941 16.6101 18.7193 16.5521 18.4877 16.436C18.256 16.3199 18.0782 16.1549 17.9543 15.9411C17.8304 15.7211 17.7684 15.4614 17.7684 15.162C17.7684 14.881 17.825 14.6335 17.9381 14.4197C18.0513 14.1997 18.2237 14.0164 18.4553 13.8698C18.6924 13.7231 18.986 13.6193 19.3362 13.5582L20.6858 13.3107V14.3189L19.5544 14.548C19.382 14.5847 19.25 14.6488 19.1584 14.7405C19.0668 14.826 19.021 14.9513 19.021 15.1162C19.021 15.269 19.0722 15.3881 19.1746 15.4737C19.2769 15.5592 19.4035 15.602 19.5544 15.602C19.7537 15.602 19.9288 15.5531 20.0797 15.4553C20.2305 15.3576 20.3463 15.2262 20.4272 15.0612C20.5134 14.8902 20.5565 14.7038 20.5565 14.5022V13.2007C20.5565 13.0113 20.4891 12.8525 20.3544 12.7242C20.2251 12.5959 20.0473 12.5317 19.8211 12.5317C19.6056 12.5317 19.4143 12.5989 19.2473 12.7333C19.0857 12.8678 18.9672 13.0449 18.8917 13.2649L17.922 12.7425C18.0082 12.4614 18.1456 12.2201 18.3341 12.0185C18.5227 11.8168 18.749 11.661 19.0129 11.5511C19.2769 11.4411 19.5652 11.3861 19.8776 11.3861C20.2494 11.3861 20.578 11.4625 20.8635 11.6152C21.1491 11.768 21.37 11.9818 21.5262 12.2568C21.6878 12.5256 21.7686 12.8403 21.7686 13.2007V16.5001H20.6373V15.6936L20.912 15.6386C20.7827 15.8586 20.64 16.0419 20.4837 16.1885C20.3275 16.3291 20.1524 16.4329 19.9584 16.5001C19.7645 16.5735 19.549 16.6101 19.312 16.6101Z"/>
<path d="M23.1121 16.5001V12.6875H22.3686V11.4961H23.1121V11.4227C23.1121 11.0256 23.1794 10.6895 23.3141 10.4146C23.4542 10.1396 23.6535 9.92885 23.9121 9.78221C24.1707 9.63558 24.4832 9.56226 24.8495 9.56226C24.9196 9.56226 24.995 9.56837 25.0758 9.58059C25.1566 9.5867 25.224 9.59586 25.2778 9.60808V10.7812C25.224 10.769 25.1755 10.7629 25.1324 10.7629C25.0947 10.7568 25.0543 10.7537 25.0112 10.7537C24.7849 10.7537 24.6125 10.8117 24.494 10.9278C24.3808 11.0378 24.3243 11.2028 24.3243 11.4227V11.4961H26.0779V12.6875H24.3243V16.5001H23.1121ZM29.1245 16.5001V9.56226H30.3367V16.5001H29.1245ZM26.3446 16.5001V12.6875H25.6011V11.4961H26.3446V11.4227C26.3446 11.0256 26.4119 10.6895 26.5466 10.4146C26.6867 10.1396 26.886 9.92885 27.1446 9.78221C27.4032 9.63558 27.7157 9.56226 28.082 9.56226C28.1521 9.56226 28.2275 9.56837 28.3083 9.58059C28.3891 9.5867 28.4564 9.59586 28.5103 9.60808V10.7812C28.4564 10.769 28.408 10.7629 28.3649 10.7629C28.3271 10.7568 28.2867 10.7537 28.2436 10.7537C28.0174 10.7537 27.845 10.8117 27.7264 10.9278C27.6133 11.0378 27.5567 11.2028 27.5567 11.4227V11.4961H29.3104V12.6875H27.5567V16.5001H26.3446Z"/>
<path d="M33.3535 16.6101C32.8848 16.6101 32.478 16.494 32.1332 16.2618C31.7884 16.0236 31.5217 15.7058 31.3332 15.3087C31.1446 14.9115 31.0503 14.4716 31.0503 13.9889C31.0503 13.4879 31.1473 13.0419 31.3413 12.6508C31.5406 12.2598 31.8073 11.9513 32.1413 11.7252C32.4753 11.4991 32.8525 11.3861 33.2727 11.3861C33.6229 11.3861 33.9326 11.4502 34.202 11.5785C34.4714 11.7007 34.6977 11.8749 34.8808 12.101C35.0694 12.327 35.2122 12.5897 35.3091 12.8891C35.4061 13.1824 35.4546 13.5032 35.4546 13.8515C35.4546 13.9492 35.4492 14.047 35.4384 14.1447C35.4331 14.2364 35.4196 14.3158 35.398 14.383H32.0928V13.3749H34.7111L34.1374 13.8515C34.1912 13.5887 34.1885 13.3566 34.1293 13.1549C34.07 12.9472 33.965 12.7853 33.8141 12.6692C33.6687 12.547 33.4882 12.4859 33.2727 12.4859C33.0626 12.4859 32.8821 12.5439 32.7312 12.66C32.5804 12.7761 32.4672 12.9472 32.3918 13.1733C32.3164 13.3993 32.2868 13.6743 32.3029 13.9981C32.2814 14.2792 32.311 14.5266 32.3918 14.7405C32.4726 14.9543 32.5965 15.1223 32.7636 15.2445C32.9306 15.3606 33.1326 15.4187 33.3696 15.4187C33.5851 15.4187 33.7683 15.3698 33.9192 15.272C34.0754 15.1743 34.1966 15.0398 34.2828 14.8688L35.2526 15.3912C35.1664 15.6356 35.029 15.8494 34.8404 16.0327C34.6573 16.216 34.4391 16.3596 34.1859 16.4635C33.9326 16.5612 33.6552 16.6101 33.3535 16.6101Z"/>
</mask>
<path d="M12.645 16.5001V9.67224H14.9482C15.363 9.67224 15.7293 9.75472 16.0472 9.91969C16.3705 10.0847 16.6237 10.3291 16.8068 10.6529C16.99 10.9767 17.0816 11.3769 17.0816 11.8535C17.0816 12.3179 16.9873 12.715 16.7988 13.0449C16.6102 13.3688 16.357 13.6132 16.0391 13.7781L17.4129 16.5001H16.0068L14.5199 13.4849L15.328 14.0256H13.8976V16.5001H12.645ZM13.8976 12.7883H14.9562C15.134 12.7883 15.2876 12.7486 15.4169 12.6692C15.5462 12.5897 15.6458 12.4798 15.7159 12.3392C15.7913 12.1987 15.829 12.0368 15.829 11.8535C15.829 11.6641 15.7913 11.4991 15.7159 11.3586C15.6458 11.2181 15.5462 11.1081 15.4169 11.0287C15.2876 10.9492 15.134 10.9095 14.9562 10.9095H13.8976V12.7883Z" fill="#F5F5F5" fill-opacity="0.9" style="fill:#F5F5F5;fill:color(display-p3 0.9604 0.9604 0.9604);fill-opacity:0.9;" shape-rendering="crispEdges"/>
<path d="M19.312 16.6101C18.9941 16.6101 18.7193 16.5521 18.4877 16.436C18.256 16.3199 18.0782 16.1549 17.9543 15.9411C17.8304 15.7211 17.7684 15.4614 17.7684 15.162C17.7684 14.881 17.825 14.6335 17.9381 14.4197C18.0513 14.1997 18.2237 14.0164 18.4553 13.8698C18.6924 13.7231 18.986 13.6193 19.3362 13.5582L20.6858 13.3107V14.3189L19.5544 14.548C19.382 14.5847 19.25 14.6488 19.1584 14.7405C19.0668 14.826 19.021 14.9513 19.021 15.1162C19.021 15.269 19.0722 15.3881 19.1746 15.4737C19.2769 15.5592 19.4035 15.602 19.5544 15.602C19.7537 15.602 19.9288 15.5531 20.0797 15.4553C20.2305 15.3576 20.3463 15.2262 20.4272 15.0612C20.5134 14.8902 20.5565 14.7038 20.5565 14.5022V13.2007C20.5565 13.0113 20.4891 12.8525 20.3544 12.7242C20.2251 12.5959 20.0473 12.5317 19.8211 12.5317C19.6056 12.5317 19.4143 12.5989 19.2473 12.7333C19.0857 12.8678 18.9672 13.0449 18.8917 13.2649L17.922 12.7425C18.0082 12.4614 18.1456 12.2201 18.3341 12.0185C18.5227 11.8168 18.749 11.661 19.0129 11.5511C19.2769 11.4411 19.5652 11.3861 19.8776 11.3861C20.2494 11.3861 20.578 11.4625 20.8635 11.6152C21.1491 11.768 21.37 11.9818 21.5262 12.2568C21.6878 12.5256 21.7686 12.8403 21.7686 13.2007V16.5001H20.6373V15.6936L20.912 15.6386C20.7827 15.8586 20.64 16.0419 20.4837 16.1885C20.3275 16.3291 20.1524 16.4329 19.9584 16.5001C19.7645 16.5735 19.549 16.6101 19.312 16.6101Z" fill="#F5F5F5" fill-opacity="0.9" style="fill:#F5F5F5;fill:color(display-p3 0.9604 0.9604 0.9604);fill-opacity:0.9;" shape-rendering="crispEdges"/>
<path d="M23.1121 16.5001V12.6875H22.3686V11.4961H23.1121V11.4227C23.1121 11.0256 23.1794 10.6895 23.3141 10.4146C23.4542 10.1396 23.6535 9.92885 23.9121 9.78221C24.1707 9.63558 24.4832 9.56226 24.8495 9.56226C24.9196 9.56226 24.995 9.56837 25.0758 9.58059C25.1566 9.5867 25.224 9.59586 25.2778 9.60808V10.7812C25.224 10.769 25.1755 10.7629 25.1324 10.7629C25.0947 10.7568 25.0543 10.7537 25.0112 10.7537C24.7849 10.7537 24.6125 10.8117 24.494 10.9278C24.3808 11.0378 24.3243 11.2028 24.3243 11.4227V11.4961H26.0779V12.6875H24.3243V16.5001H23.1121ZM29.1245 16.5001V9.56226H30.3367V16.5001H29.1245ZM26.3446 16.5001V12.6875H25.6011V11.4961H26.3446V11.4227C26.3446 11.0256 26.4119 10.6895 26.5466 10.4146C26.6867 10.1396 26.886 9.92885 27.1446 9.78221C27.4032 9.63558 27.7157 9.56226 28.082 9.56226C28.1521 9.56226 28.2275 9.56837 28.3083 9.58059C28.3891 9.5867 28.4564 9.59586 28.5103 9.60808V10.7812C28.4564 10.769 28.408 10.7629 28.3649 10.7629C28.3271 10.7568 28.2867 10.7537 28.2436 10.7537C28.0174 10.7537 27.845 10.8117 27.7264 10.9278C27.6133 11.0378 27.5567 11.2028 27.5567 11.4227V11.4961H29.3104V12.6875H27.5567V16.5001H26.3446Z" fill="#F5F5F5" fill-opacity="0.9" style="fill:#F5F5F5;fill:color(display-p3 0.9604 0.9604 0.9604);fill-opacity:0.9;" shape-rendering="crispEdges"/>
<path d="M33.3535 16.6101C32.8848 16.6101 32.478 16.494 32.1332 16.2618C31.7884 16.0236 31.5217 15.7058 31.3332 15.3087C31.1446 14.9115 31.0503 14.4716 31.0503 13.9889C31.0503 13.4879 31.1473 13.0419 31.3413 12.6508C31.5406 12.2598 31.8073 11.9513 32.1413 11.7252C32.4753 11.4991 32.8525 11.3861 33.2727 11.3861C33.6229 11.3861 33.9326 11.4502 34.202 11.5785C34.4714 11.7007 34.6977 11.8749 34.8808 12.101C35.0694 12.327 35.2122 12.5897 35.3091 12.8891C35.4061 13.1824 35.4546 13.5032 35.4546 13.8515C35.4546 13.9492 35.4492 14.047 35.4384 14.1447C35.4331 14.2364 35.4196 14.3158 35.398 14.383H32.0928V13.3749H34.7111L34.1374 13.8515C34.1912 13.5887 34.1885 13.3566 34.1293 13.1549C34.07 12.9472 33.965 12.7853 33.8141 12.6692C33.6687 12.547 33.4882 12.4859 33.2727 12.4859C33.0626 12.4859 32.8821 12.5439 32.7312 12.66C32.5804 12.7761 32.4672 12.9472 32.3918 13.1733C32.3164 13.3993 32.2868 13.6743 32.3029 13.9981C32.2814 14.2792 32.311 14.5266 32.3918 14.7405C32.4726 14.9543 32.5965 15.1223 32.7636 15.2445C32.9306 15.3606 33.1326 15.4187 33.3696 15.4187C33.5851 15.4187 33.7683 15.3698 33.9192 15.272C34.0754 15.1743 34.1966 15.0398 34.2828 14.8688L35.2526 15.3912C35.1664 15.6356 35.029 15.8494 34.8404 16.0327C34.6573 16.216 34.4391 16.3596 34.1859 16.4635C33.9326 16.5612 33.6552 16.6101 33.3535 16.6101Z" fill="#F5F5F5" fill-opacity="0.9" style="fill:#F5F5F5;fill:color(display-p3 0.9604 0.9604 0.9604);fill-opacity:0.9;" shape-rendering="crispEdges"/>
<path d="M12.645 16.5001V9.67224H14.9482C15.363 9.67224 15.7293 9.75472 16.0472 9.91969C16.3705 10.0847 16.6237 10.3291 16.8068 10.6529C16.99 10.9767 17.0816 11.3769 17.0816 11.8535C17.0816 12.3179 16.9873 12.715 16.7988 13.0449C16.6102 13.3688 16.357 13.6132 16.0391 13.7781L17.4129 16.5001H16.0068L14.5199 13.4849L15.328 14.0256H13.8976V16.5001H12.645ZM13.8976 12.7883H14.9562C15.134 12.7883 15.2876 12.7486 15.4169 12.6692C15.5462 12.5897 15.6458 12.4798 15.7159 12.3392C15.7913 12.1987 15.829 12.0368 15.829 11.8535C15.829 11.6641 15.7913 11.4991 15.7159 11.3586C15.6458 11.2181 15.5462 11.1081 15.4169 11.0287C15.2876 10.9492 15.134 10.9095 14.9562 10.9095H13.8976V12.7883Z" stroke="black" style="stroke:black;stroke-opacity:1;" stroke-width="0.4" shape-rendering="crispEdges" mask="url(#path-40-outside-1_2458_16502)"/>
<path d="M19.312 16.6101C18.9941 16.6101 18.7193 16.5521 18.4877 16.436C18.256 16.3199 18.0782 16.1549 17.9543 15.9411C17.8304 15.7211 17.7684 15.4614 17.7684 15.162C17.7684 14.881 17.825 14.6335 17.9381 14.4197C18.0513 14.1997 18.2237 14.0164 18.4553 13.8698C18.6924 13.7231 18.986 13.6193 19.3362 13.5582L20.6858 13.3107V14.3189L19.5544 14.548C19.382 14.5847 19.25 14.6488 19.1584 14.7405C19.0668 14.826 19.021 14.9513 19.021 15.1162C19.021 15.269 19.0722 15.3881 19.1746 15.4737C19.2769 15.5592 19.4035 15.602 19.5544 15.602C19.7537 15.602 19.9288 15.5531 20.0797 15.4553C20.2305 15.3576 20.3463 15.2262 20.4272 15.0612C20.5134 14.8902 20.5565 14.7038 20.5565 14.5022V13.2007C20.5565 13.0113 20.4891 12.8525 20.3544 12.7242C20.2251 12.5959 20.0473 12.5317 19.8211 12.5317C19.6056 12.5317 19.4143 12.5989 19.2473 12.7333C19.0857 12.8678 18.9672 13.0449 18.8917 13.2649L17.922 12.7425C18.0082 12.4614 18.1456 12.2201 18.3341 12.0185C18.5227 11.8168 18.749 11.661 19.0129 11.5511C19.2769 11.4411 19.5652 11.3861 19.8776 11.3861C20.2494 11.3861 20.578 11.4625 20.8635 11.6152C21.1491 11.768 21.37 11.9818 21.5262 12.2568C21.6878 12.5256 21.7686 12.8403 21.7686 13.2007V16.5001H20.6373V15.6936L20.912 15.6386C20.7827 15.8586 20.64 16.0419 20.4837 16.1885C20.3275 16.3291 20.1524 16.4329 19.9584 16.5001C19.7645 16.5735 19.549 16.6101 19.312 16.6101Z" stroke="black" style="stroke:black;stroke-opacity:1;" stroke-width="0.4" shape-rendering="crispEdges" mask="url(#path-40-outside-1_2458_16502)"/>
<path d="M23.1121 16.5001V12.6875H22.3686V11.4961H23.1121V11.4227C23.1121 11.0256 23.1794 10.6895 23.3141 10.4146C23.4542 10.1396 23.6535 9.92885 23.9121 9.78221C24.1707 9.63558 24.4832 9.56226 24.8495 9.56226C24.9196 9.56226 24.995 9.56837 25.0758 9.58059C25.1566 9.5867 25.224 9.59586 25.2778 9.60808V10.7812C25.224 10.769 25.1755 10.7629 25.1324 10.7629C25.0947 10.7568 25.0543 10.7537 25.0112 10.7537C24.7849 10.7537 24.6125 10.8117 24.494 10.9278C24.3808 11.0378 24.3243 11.2028 24.3243 11.4227V11.4961H26.0779V12.6875H24.3243V16.5001H23.1121ZM29.1245 16.5001V9.56226H30.3367V16.5001H29.1245ZM26.3446 16.5001V12.6875H25.6011V11.4961H26.3446V11.4227C26.3446 11.0256 26.4119 10.6895 26.5466 10.4146C26.6867 10.1396 26.886 9.92885 27.1446 9.78221C27.4032 9.63558 27.7157 9.56226 28.082 9.56226C28.1521 9.56226 28.2275 9.56837 28.3083 9.58059C28.3891 9.5867 28.4564 9.59586 28.5103 9.60808V10.7812C28.4564 10.769 28.408 10.7629 28.3649 10.7629C28.3271 10.7568 28.2867 10.7537 28.2436 10.7537C28.0174 10.7537 27.845 10.8117 27.7264 10.9278C27.6133 11.0378 27.5567 11.2028 27.5567 11.4227V11.4961H29.3104V12.6875H27.5567V16.5001H26.3446Z" stroke="black" style="stroke:black;stroke-opacity:1;" stroke-width="0.4" shape-rendering="crispEdges" mask="url(#path-40-outside-1_2458_16502)"/>
<path d="M33.3535 16.6101C32.8848 16.6101 32.478 16.494 32.1332 16.2618C31.7884 16.0236 31.5217 15.7058 31.3332 15.3087C31.1446 14.9115 31.0503 14.4716 31.0503 13.9889C31.0503 13.4879 31.1473 13.0419 31.3413 12.6508C31.5406 12.2598 31.8073 11.9513 32.1413 11.7252C32.4753 11.4991 32.8525 11.3861 33.2727 11.3861C33.6229 11.3861 33.9326 11.4502 34.202 11.5785C34.4714 11.7007 34.6977 11.8749 34.8808 12.101C35.0694 12.327 35.2122 12.5897 35.3091 12.8891C35.4061 13.1824 35.4546 13.5032 35.4546 13.8515C35.4546 13.9492 35.4492 14.047 35.4384 14.1447C35.4331 14.2364 35.4196 14.3158 35.398 14.383H32.0928V13.3749H34.7111L34.1374 13.8515C34.1912 13.5887 34.1885 13.3566 34.1293 13.1549C34.07 12.9472 33.965 12.7853 33.8141 12.6692C33.6687 12.547 33.4882 12.4859 33.2727 12.4859C33.0626 12.4859 32.8821 12.5439 32.7312 12.66C32.5804 12.7761 32.4672 12.9472 32.3918 13.1733C32.3164 13.3993 32.2868 13.6743 32.3029 13.9981C32.2814 14.2792 32.311 14.5266 32.3918 14.7405C32.4726 14.9543 32.5965 15.1223 32.7636 15.2445C32.9306 15.3606 33.1326 15.4187 33.3696 15.4187C33.5851 15.4187 33.7683 15.3698 33.9192 15.272C34.0754 15.1743 34.1966 15.0398 34.2828 14.8688L35.2526 15.3912C35.1664 15.6356 35.029 15.8494 34.8404 16.0327C34.6573 16.216 34.4391 16.3596 34.1859 16.4635C33.9326 16.5612 33.6552 16.6101 33.3535 16.6101Z" stroke="black" style="stroke:black;stroke-opacity:1;" stroke-width="0.4" shape-rendering="crispEdges" mask="url(#path-40-outside-1_2458_16502)"/>
</g>
<path opacity="0.42" d="M1.75369 9.50037V20.1204C0.51843 20.8429 0.422987 21.6317 0.41748 21.8068V11.0066C0.665266 10.3793 1.16451 9.88627 1.75369 9.50037Z" fill="#484F51" style="fill:#484F51;fill:color(display-p3 0.2824 0.3098 0.3176);fill-opacity:1;"/>
<path opacity="0.42" d="M47.4339 10.9929V21.6911C47.4284 21.5159 47.3311 20.7356 46.0977 20.0199V9.50024C46.6887 9.88275 47.1861 10.3707 47.4339 10.9929Z" fill="#484F51" style="fill:#484F51;fill:color(display-p3 0.2824 0.3098 0.3176);fill-opacity:1;"/>
<path opacity="0.28" d="M23.8784 1.84644C20.6517 1.84644 17.693 2.85284 15.3766 4.53076C14.3598 5.26856 13.0493 5.69357 11.6782 5.69357C11.6782 7.38338 9.96758 8.75189 7.85498 8.75189V18.6579C9.96758 18.6579 11.6782 20.0264 11.6782 21.7162C13.0511 21.7162 14.3616 22.1412 15.3766 22.879C15.5694 23.0184 15.7694 23.151 15.9713 23.2819L26.3104 2.04194C25.5212 1.91444 24.7099 1.84644 23.8766 1.84644H23.8784Z" fill="white" style="fill:white;fill-opacity:1;"/>
<defs>
<filter id="filter0_d_2458_16502" x="12.4448" y="9.3623" width="23.21" height="8.44775" filterUnits="userSpaceOnUse" color-interpolation-filters="sRGB">
<feFlood flood-opacity="0" result="BackgroundImageFix"/>
<feColorMatrix in="SourceAlpha" type="matrix" values="0 0 0 0 0 0 0 0 0 0 0 0 0 0 0 0 0 0 127 0" result="hardAlpha"/>
<feOffset dy="1"/>
<feComposite in2="hardAlpha" operator="out"/>
<feColorMatrix type="matrix" values="0 0 0 0 0 0 0 0 0 0 0 0 0 0 0 0 0 0 1 0"/>
<feBlend mode="normal" in2="BackgroundImageFix" result="effect1_dropShadow_2458_16502"/>
<feBlend mode="normal" in="SourceGraphic" in2="effect1_dropShadow_2458_16502" result="shape"/>
</filter>
</defs>
</svg>
